G04 #@! TF.GenerationSoftware,KiCad,Pcbnew,8.0.2+b1*
G04 #@! TF.CreationDate,2024-06-09T20:50:13-04:00*
G04 #@! TF.ProjectId,915-yagi,3931352d-7961-4676-992e-6b696361645f,rev?*
G04 #@! TF.SameCoordinates,Original*
G04 #@! TF.FileFunction,Profile,NP*
%FSLAX46Y46*%
G04 Gerber Fmt 4.6, Leading zero omitted, Abs format (unit mm)*
G04 Created by KiCad (PCBNEW 8.0.2+b1) date 2024-06-09 20:50:13*
%MOMM*%
%LPD*%
G01*
G04 APERTURE LIST*
G04 #@! TA.AperFunction,Profile*
%ADD10C,0.050000*%
G04 #@! TD*
G04 APERTURE END LIST*
D10*
X88750000Y-184000000D02*
X84750000Y-184000000D01*
X84750000Y-109500000D01*
X86250000Y-109500000D01*
X86250000Y-105500000D01*
X84750000Y-105500000D01*
X84750000Y-31000000D01*
X88750000Y-31000000D01*
X88750000Y-184000000D01*
X81750000Y-184000000D02*
X77750000Y-184000000D01*
X77750000Y-109500000D01*
X79250000Y-109500000D01*
X79250000Y-105500000D01*
X77750000Y-105500000D01*
X77750000Y-31000000D01*
X81750000Y-31000000D01*
X81750000Y-184000000D01*
X17500000Y-17500000D02*
X192500000Y-17500000D01*
X192500000Y-21500000D01*
X17500000Y-21500000D01*
X17500000Y-17500000D01*
X55500000Y-189000000D02*
X51500000Y-189000000D01*
X51500000Y-109500000D01*
X53000000Y-109500000D01*
X53000000Y-105500000D01*
X51500000Y-105500000D01*
X51500000Y-26000000D01*
X55500000Y-26000000D01*
X55500000Y-189000000D01*
X65500000Y-102500000D02*
X72000000Y-102500000D01*
X72000000Y-112500000D01*
X65500000Y-112500000D01*
X65500000Y-187500000D01*
X61500000Y-187500000D01*
X61500000Y-109500000D01*
X63100000Y-109500000D01*
X63100000Y-105400000D01*
X61500000Y-105400000D01*
X61500000Y-27400000D01*
X65500000Y-27400000D01*
X65500000Y-102500000D01*
M02*
