%TF.GenerationSoftware,KiCad,Pcbnew,8.0.3*%
%TF.CreationDate,2024-06-11T13:51:46-04:00*%
%TF.ProjectId,915-yagi,3931352d-7961-4676-992e-6b696361645f,rev?*%
%TF.SameCoordinates,Original*%
%TF.FileFunction,Copper,L1,Top*%
%TF.FilePolarity,Positive*%
%FSLAX46Y46*%
G04 Gerber Fmt 4.6, Leading zero omitted, Abs format (unit mm)*
G04 Created by KiCad (PCBNEW 8.0.3) date 2024-06-11 13:51:46*
%MOMM*%
%LPD*%
G01*
G04 APERTURE LIST*
%ADD10C,0.300000*%
%TA.AperFunction,SMDPad,CuDef*%
%ADD11R,1.270000X3.600000*%
%TD*%
%TA.AperFunction,SMDPad,CuDef*%
%ADD12R,1.350000X4.200000*%
%TD*%
%TA.AperFunction,Conductor*%
%ADD13C,0.609600*%
%TD*%
G04 APERTURE END LIST*
D10*
G36*
X21611691Y-82136680D02*
G01*
X21650357Y-82173671D01*
X21697031Y-82263568D01*
X21698733Y-82407339D01*
X21655800Y-82496581D01*
X21618809Y-82535246D01*
X21529351Y-82581693D01*
X21348966Y-82582558D01*
X21343402Y-82581577D01*
X21338748Y-82582608D01*
X21137885Y-82583571D01*
X21136964Y-82095120D01*
X21521469Y-82093275D01*
X21611691Y-82136680D01*
G37*
G36*
X24874724Y-83762495D02*
G01*
X20672843Y-83762495D01*
X20672843Y-81945828D01*
X20839510Y-81945828D01*
X20842392Y-83475092D01*
X20864790Y-83529164D01*
X20906174Y-83570548D01*
X20960246Y-83592946D01*
X21018774Y-83592946D01*
X21072846Y-83570548D01*
X21114230Y-83529164D01*
X21136628Y-83475092D01*
X21139510Y-83445828D01*
X21138445Y-82880827D01*
X21267918Y-82880206D01*
X21742911Y-83554169D01*
X21792268Y-83585622D01*
X21849904Y-83595793D01*
X21907046Y-83583134D01*
X21954994Y-83549570D01*
X21986447Y-83500213D01*
X21996618Y-83442577D01*
X21983959Y-83385435D01*
X21969538Y-83359809D01*
X21622732Y-82867729D01*
X21628021Y-82865706D01*
X21770562Y-82791697D01*
X21787131Y-82784835D01*
X21792901Y-82780099D01*
X21795764Y-82778613D01*
X21798360Y-82775619D01*
X21809862Y-82766180D01*
X21881763Y-82691024D01*
X21893724Y-82680652D01*
X21897641Y-82674428D01*
X21899946Y-82672020D01*
X21901462Y-82668358D01*
X21909389Y-82655767D01*
X21969295Y-82531241D01*
X21971373Y-82529164D01*
X21978051Y-82513041D01*
X21991327Y-82485446D01*
X21991708Y-82480070D01*
X21993771Y-82475092D01*
X21996653Y-82445828D01*
X21994378Y-82253594D01*
X21995475Y-82250304D01*
X21994112Y-82231125D01*
X21993771Y-82202278D01*
X21991708Y-82197299D01*
X21991327Y-82191924D01*
X21980817Y-82164461D01*
X21906808Y-82021918D01*
X21899945Y-82005349D01*
X21895209Y-81999578D01*
X21893724Y-81996718D01*
X21890732Y-81994123D01*
X21881290Y-81982618D01*
X21842835Y-81945828D01*
X22339510Y-81945828D01*
X22342392Y-83475092D01*
X22364790Y-83529164D01*
X22406174Y-83570548D01*
X22460246Y-83592946D01*
X22489510Y-83595828D01*
X23233060Y-83592946D01*
X23287132Y-83570548D01*
X23328516Y-83529164D01*
X23350914Y-83475092D01*
X23350914Y-83416564D01*
X23328516Y-83362492D01*
X23287132Y-83321108D01*
X23233060Y-83298710D01*
X23203796Y-83295828D01*
X22639231Y-83298016D01*
X22638310Y-82809303D01*
X23018774Y-82807232D01*
X23072846Y-82784834D01*
X23114230Y-82743450D01*
X23136628Y-82689378D01*
X23136628Y-82630850D01*
X23114230Y-82576778D01*
X23072846Y-82535394D01*
X23018774Y-82512996D01*
X22989510Y-82510114D01*
X22637750Y-82512029D01*
X22636964Y-82095256D01*
X23233060Y-82092946D01*
X23287132Y-82070548D01*
X23328516Y-82029164D01*
X23350914Y-81975092D01*
X23350914Y-81945828D01*
X23696653Y-81945828D01*
X23699535Y-83475092D01*
X23721933Y-83529164D01*
X23763317Y-83570548D01*
X23817389Y-83592946D01*
X23875917Y-83592946D01*
X23929989Y-83570548D01*
X23971373Y-83529164D01*
X23993771Y-83475092D01*
X23996653Y-83445828D01*
X23995453Y-82809303D01*
X24375917Y-82807232D01*
X24429989Y-82784834D01*
X24471373Y-82743450D01*
X24493771Y-82689378D01*
X24493771Y-82630850D01*
X24471373Y-82576778D01*
X24429989Y-82535394D01*
X24375917Y-82512996D01*
X24346653Y-82510114D01*
X23994893Y-82512029D01*
X23994107Y-82095256D01*
X24590203Y-82092946D01*
X24644275Y-82070548D01*
X24685659Y-82029164D01*
X24708057Y-81975092D01*
X24708057Y-81916564D01*
X24685659Y-81862492D01*
X24644275Y-81821108D01*
X24590203Y-81798710D01*
X24560939Y-81795828D01*
X23817389Y-81798710D01*
X23763317Y-81821108D01*
X23721933Y-81862492D01*
X23699535Y-81916564D01*
X23696653Y-81945828D01*
X23350914Y-81945828D01*
X23350914Y-81916564D01*
X23328516Y-81862492D01*
X23287132Y-81821108D01*
X23233060Y-81798710D01*
X23203796Y-81795828D01*
X22460246Y-81798710D01*
X22406174Y-81821108D01*
X22364790Y-81862492D01*
X22342392Y-81916564D01*
X22339510Y-81945828D01*
X21842835Y-81945828D01*
X21806143Y-81910725D01*
X21795764Y-81898758D01*
X21789535Y-81894837D01*
X21787130Y-81892536D01*
X21783473Y-81891021D01*
X21770878Y-81883093D01*
X21646353Y-81823186D01*
X21644275Y-81821108D01*
X21628143Y-81814426D01*
X21600558Y-81801155D01*
X21595183Y-81800773D01*
X21590203Y-81798710D01*
X21560939Y-81795828D01*
X20960246Y-81798710D01*
X20906174Y-81821108D01*
X20864790Y-81862492D01*
X20842392Y-81916564D01*
X20839510Y-81945828D01*
X20672843Y-81945828D01*
X20672843Y-81629161D01*
X24874724Y-81629161D01*
X24874724Y-83762495D01*
G37*
G36*
X21362400Y-68350296D02*
G01*
X21463112Y-68448529D01*
X21516542Y-68551434D01*
X21581760Y-68802782D01*
X21583869Y-68980995D01*
X21523509Y-69231906D01*
X21469626Y-69343910D01*
X21368666Y-69447419D01*
X21213889Y-69500960D01*
X21024230Y-69502375D01*
X21021963Y-68299728D01*
X21200631Y-68298395D01*
X21362400Y-68350296D01*
G37*
G36*
X23710977Y-68341680D02*
G01*
X23749643Y-68378671D01*
X23796317Y-68468568D01*
X23798019Y-68612339D01*
X23755086Y-68701581D01*
X23718095Y-68740246D01*
X23628637Y-68786693D01*
X23448252Y-68787558D01*
X23442688Y-68786577D01*
X23438034Y-68787608D01*
X23237171Y-68788571D01*
X23236250Y-68300120D01*
X23620755Y-68298275D01*
X23710977Y-68341680D01*
G37*
G36*
X24262606Y-69967495D02*
G01*
X20557843Y-69967495D01*
X20557843Y-68150828D01*
X20724510Y-68150828D01*
X20727392Y-69680092D01*
X20749790Y-69734164D01*
X20791174Y-69775548D01*
X20845246Y-69797946D01*
X20874510Y-69800828D01*
X21229702Y-69798178D01*
X21250413Y-69799651D01*
X21257809Y-69797969D01*
X21260917Y-69797946D01*
X21264574Y-69796430D01*
X21279087Y-69793131D01*
X21471650Y-69726518D01*
X21475202Y-69726518D01*
X21493198Y-69719063D01*
X21520224Y-69709715D01*
X21524295Y-69706183D01*
X21529275Y-69704121D01*
X21552005Y-69685466D01*
X21693025Y-69540885D01*
X21707295Y-69528510D01*
X21711295Y-69522154D01*
X21713517Y-69519877D01*
X21715032Y-69516217D01*
X21722960Y-69503624D01*
X21788102Y-69368216D01*
X21795853Y-69357756D01*
X21803696Y-69335801D01*
X21804898Y-69333304D01*
X21804974Y-69332223D01*
X21805746Y-69330065D01*
X21872614Y-69052096D01*
X21878771Y-69037235D01*
X21880559Y-69019069D01*
X21881476Y-69015262D01*
X21881150Y-69013074D01*
X21881653Y-69007971D01*
X21879211Y-68801613D01*
X21881476Y-68786394D01*
X21878818Y-68768423D01*
X21878771Y-68764421D01*
X21877923Y-68762376D01*
X21877174Y-68757305D01*
X21805916Y-68482684D01*
X21804898Y-68468352D01*
X21796509Y-68446428D01*
X21795853Y-68443900D01*
X21795208Y-68443030D01*
X21794389Y-68440888D01*
X21720380Y-68298348D01*
X21713517Y-68281778D01*
X21708780Y-68276006D01*
X21707295Y-68273146D01*
X21704302Y-68270550D01*
X21694862Y-68259048D01*
X21583911Y-68150828D01*
X22224510Y-68150828D01*
X22227392Y-69680092D01*
X22249790Y-69734164D01*
X22291174Y-69775548D01*
X22345246Y-69797946D01*
X22403774Y-69797946D01*
X22457846Y-69775548D01*
X22499230Y-69734164D01*
X22521628Y-69680092D01*
X22524510Y-69650828D01*
X22521683Y-68150828D01*
X22938796Y-68150828D01*
X22941678Y-69680092D01*
X22964076Y-69734164D01*
X23005460Y-69775548D01*
X23059532Y-69797946D01*
X23118060Y-69797946D01*
X23172132Y-69775548D01*
X23213516Y-69734164D01*
X23235914Y-69680092D01*
X23238796Y-69650828D01*
X23237731Y-69085827D01*
X23367204Y-69085206D01*
X23842197Y-69759169D01*
X23891554Y-69790622D01*
X23949190Y-69800793D01*
X24006332Y-69788134D01*
X24054280Y-69754570D01*
X24085733Y-69705213D01*
X24095904Y-69647577D01*
X24083245Y-69590435D01*
X24068824Y-69564809D01*
X23722018Y-69072729D01*
X23727307Y-69070706D01*
X23869848Y-68996697D01*
X23886417Y-68989835D01*
X23892187Y-68985099D01*
X23895050Y-68983613D01*
X23897646Y-68980619D01*
X23909148Y-68971180D01*
X23981049Y-68896024D01*
X23993010Y-68885652D01*
X23996927Y-68879428D01*
X23999232Y-68877020D01*
X24000748Y-68873358D01*
X24008675Y-68860767D01*
X24068581Y-68736241D01*
X24070659Y-68734164D01*
X24077337Y-68718041D01*
X24090613Y-68690446D01*
X24090994Y-68685070D01*
X24093057Y-68680092D01*
X24095939Y-68650828D01*
X24093664Y-68458594D01*
X24094761Y-68455304D01*
X24093398Y-68436125D01*
X24093057Y-68407278D01*
X24090994Y-68402299D01*
X24090613Y-68396924D01*
X24080103Y-68369461D01*
X24006094Y-68226918D01*
X23999231Y-68210349D01*
X23994495Y-68204578D01*
X23993010Y-68201718D01*
X23990018Y-68199123D01*
X23980576Y-68187618D01*
X23905429Y-68115725D01*
X23895050Y-68103758D01*
X23888821Y-68099837D01*
X23886416Y-68097536D01*
X23882759Y-68096021D01*
X23870164Y-68088093D01*
X23745639Y-68028186D01*
X23743561Y-68026108D01*
X23727429Y-68019426D01*
X23699844Y-68006155D01*
X23694469Y-68005773D01*
X23689489Y-68003710D01*
X23660225Y-68000828D01*
X23059532Y-68003710D01*
X23005460Y-68026108D01*
X22964076Y-68067492D01*
X22941678Y-68121564D01*
X22938796Y-68150828D01*
X22521683Y-68150828D01*
X22521628Y-68121564D01*
X22499230Y-68067492D01*
X22457846Y-68026108D01*
X22403774Y-68003710D01*
X22345246Y-68003710D01*
X22291174Y-68026108D01*
X22249790Y-68067492D01*
X22227392Y-68121564D01*
X22224510Y-68150828D01*
X21583911Y-68150828D01*
X21565945Y-68133304D01*
X21564438Y-68130290D01*
X21550148Y-68117896D01*
X21529274Y-68097536D01*
X21524294Y-68095473D01*
X21520224Y-68091943D01*
X21493373Y-68079954D01*
X21278751Y-68011097D01*
X21260917Y-68003710D01*
X21253425Y-68002972D01*
X21250414Y-68002006D01*
X21246464Y-68002286D01*
X21231653Y-68000828D01*
X20845246Y-68003710D01*
X20791174Y-68026108D01*
X20749790Y-68067492D01*
X20727392Y-68121564D01*
X20724510Y-68150828D01*
X20557843Y-68150828D01*
X20557843Y-67834161D01*
X24262606Y-67834161D01*
X24262606Y-69967495D01*
G37*
G36*
X120387400Y-102140296D02*
G01*
X120488112Y-102238529D01*
X120541542Y-102341434D01*
X120606760Y-102592782D01*
X120608869Y-102770995D01*
X120548509Y-103021906D01*
X120494626Y-103133910D01*
X120393666Y-103237419D01*
X120238889Y-103290960D01*
X120049230Y-103292375D01*
X120046963Y-102089728D01*
X120225631Y-102088395D01*
X120387400Y-102140296D01*
G37*
G36*
X122499010Y-103757495D02*
G01*
X119582843Y-103757495D01*
X119582843Y-101940828D01*
X119749510Y-101940828D01*
X119752392Y-103470092D01*
X119774790Y-103524164D01*
X119816174Y-103565548D01*
X119870246Y-103587946D01*
X119899510Y-103590828D01*
X120254702Y-103588178D01*
X120275413Y-103589651D01*
X120282809Y-103587969D01*
X120285917Y-103587946D01*
X120289574Y-103586430D01*
X120304087Y-103583131D01*
X120496650Y-103516518D01*
X120500202Y-103516518D01*
X120518198Y-103509063D01*
X120545224Y-103499715D01*
X120549295Y-103496183D01*
X120554275Y-103494121D01*
X120577005Y-103475466D01*
X120718025Y-103330885D01*
X120732295Y-103318510D01*
X120736295Y-103312154D01*
X120738517Y-103309877D01*
X120740032Y-103306217D01*
X120747960Y-103293624D01*
X120813102Y-103158216D01*
X120820853Y-103147756D01*
X120828696Y-103125801D01*
X120829898Y-103123304D01*
X120829974Y-103122223D01*
X120830746Y-103120065D01*
X120897614Y-102842096D01*
X120903771Y-102827235D01*
X120905559Y-102809069D01*
X120906476Y-102805262D01*
X120906150Y-102803074D01*
X120906653Y-102797971D01*
X120904211Y-102591613D01*
X120906476Y-102576394D01*
X120903818Y-102558423D01*
X120903771Y-102554421D01*
X120902923Y-102552376D01*
X120902174Y-102547305D01*
X120851144Y-102350639D01*
X121179260Y-102350639D01*
X121183409Y-102409019D01*
X121209583Y-102461368D01*
X121253798Y-102499715D01*
X121309321Y-102518222D01*
X121367701Y-102514073D01*
X121395164Y-102503564D01*
X121537706Y-102429554D01*
X121554274Y-102422692D01*
X121560044Y-102417956D01*
X121562907Y-102416470D01*
X121565503Y-102413476D01*
X121577005Y-102404037D01*
X121607467Y-102372806D01*
X121609200Y-103292700D01*
X121298818Y-103293710D01*
X121244746Y-103316108D01*
X121203362Y-103357492D01*
X121180964Y-103411564D01*
X121180964Y-103470092D01*
X121203362Y-103524164D01*
X121244746Y-103565548D01*
X121298818Y-103587946D01*
X121328082Y-103590828D01*
X122214489Y-103587946D01*
X122268561Y-103565548D01*
X122309945Y-103524164D01*
X122332343Y-103470092D01*
X122332343Y-103411564D01*
X122309945Y-103357492D01*
X122268561Y-103316108D01*
X122214489Y-103293710D01*
X122185225Y-103290828D01*
X121906372Y-103291734D01*
X121903852Y-101954827D01*
X121906653Y-101940670D01*
X121903798Y-101926400D01*
X121903771Y-101911564D01*
X121898087Y-101897843D01*
X121895175Y-101883281D01*
X121886996Y-101871068D01*
X121881373Y-101857492D01*
X121870874Y-101846993D01*
X121862609Y-101834651D01*
X121850378Y-101826497D01*
X121839989Y-101816108D01*
X121826270Y-101810425D01*
X121813910Y-101802185D01*
X121799491Y-101799332D01*
X121785917Y-101793710D01*
X121771066Y-101793710D01*
X121756496Y-101790828D01*
X121742086Y-101793710D01*
X121727389Y-101793710D01*
X121713667Y-101799393D01*
X121699106Y-101802306D01*
X121686893Y-101810484D01*
X121673317Y-101816108D01*
X121662818Y-101826606D01*
X121650476Y-101834872D01*
X121632044Y-101857380D01*
X121631933Y-101857492D01*
X121631912Y-101857542D01*
X121631846Y-101857623D01*
X121505494Y-102051339D01*
X121387525Y-102172286D01*
X121236114Y-102250901D01*
X121197767Y-102295116D01*
X121179260Y-102350639D01*
X120851144Y-102350639D01*
X120830916Y-102272684D01*
X120829898Y-102258352D01*
X120821509Y-102236428D01*
X120820853Y-102233900D01*
X120820208Y-102233030D01*
X120819389Y-102230888D01*
X120745380Y-102088348D01*
X120738517Y-102071778D01*
X120733780Y-102066006D01*
X120732295Y-102063146D01*
X120729302Y-102060550D01*
X120719862Y-102049048D01*
X120590945Y-101923304D01*
X120589438Y-101920290D01*
X120575148Y-101907896D01*
X120554274Y-101887536D01*
X120549294Y-101885473D01*
X120545224Y-101881943D01*
X120518373Y-101869954D01*
X120303751Y-101801097D01*
X120285917Y-101793710D01*
X120278425Y-101792972D01*
X120275414Y-101792006D01*
X120271464Y-101792286D01*
X120256653Y-101790828D01*
X119870246Y-101793710D01*
X119816174Y-101816108D01*
X119774790Y-101857492D01*
X119752392Y-101911564D01*
X119749510Y-101940828D01*
X119582843Y-101940828D01*
X119582843Y-101624161D01*
X122499010Y-101624161D01*
X122499010Y-103757495D01*
G37*
G36*
X20771691Y-102131680D02*
G01*
X20810357Y-102168671D01*
X20857031Y-102258568D01*
X20858733Y-102402339D01*
X20815800Y-102491581D01*
X20778809Y-102530246D01*
X20689351Y-102576693D01*
X20508966Y-102577558D01*
X20503402Y-102576577D01*
X20498748Y-102577608D01*
X20297885Y-102578571D01*
X20296964Y-102090120D01*
X20681469Y-102088275D01*
X20771691Y-102131680D01*
G37*
G36*
X21323320Y-103757460D02*
G01*
X19832843Y-103757460D01*
X19832843Y-101940828D01*
X19999510Y-101940828D01*
X20002392Y-103470092D01*
X20024790Y-103524164D01*
X20066174Y-103565548D01*
X20120246Y-103587946D01*
X20178774Y-103587946D01*
X20232846Y-103565548D01*
X20274230Y-103524164D01*
X20296628Y-103470092D01*
X20299510Y-103440828D01*
X20298445Y-102875827D01*
X20427918Y-102875206D01*
X20902911Y-103549169D01*
X20952268Y-103580622D01*
X21009904Y-103590793D01*
X21067046Y-103578134D01*
X21114994Y-103544570D01*
X21146447Y-103495213D01*
X21156618Y-103437577D01*
X21143959Y-103380435D01*
X21129538Y-103354809D01*
X20782732Y-102862729D01*
X20788021Y-102860706D01*
X20930562Y-102786697D01*
X20947131Y-102779835D01*
X20952901Y-102775099D01*
X20955764Y-102773613D01*
X20958360Y-102770619D01*
X20969862Y-102761180D01*
X21041763Y-102686024D01*
X21053724Y-102675652D01*
X21057641Y-102669428D01*
X21059946Y-102667020D01*
X21061462Y-102663358D01*
X21069389Y-102650767D01*
X21129295Y-102526241D01*
X21131373Y-102524164D01*
X21138051Y-102508041D01*
X21151327Y-102480446D01*
X21151708Y-102475070D01*
X21153771Y-102470092D01*
X21156653Y-102440828D01*
X21154378Y-102248594D01*
X21155475Y-102245304D01*
X21154112Y-102226125D01*
X21153771Y-102197278D01*
X21151708Y-102192299D01*
X21151327Y-102186924D01*
X21140817Y-102159461D01*
X21066808Y-102016918D01*
X21059945Y-102000349D01*
X21055209Y-101994578D01*
X21053724Y-101991718D01*
X21050732Y-101989123D01*
X21041290Y-101977618D01*
X20966143Y-101905725D01*
X20955764Y-101893758D01*
X20949535Y-101889837D01*
X20947130Y-101887536D01*
X20943473Y-101886021D01*
X20930878Y-101878093D01*
X20806353Y-101818186D01*
X20804275Y-101816108D01*
X20788143Y-101809426D01*
X20760558Y-101796155D01*
X20755183Y-101795773D01*
X20750203Y-101793710D01*
X20720939Y-101790828D01*
X20120246Y-101793710D01*
X20066174Y-101816108D01*
X20024790Y-101857492D01*
X20002392Y-101911564D01*
X19999510Y-101940828D01*
X19832843Y-101940828D01*
X19832843Y-101624161D01*
X21323320Y-101624161D01*
X21323320Y-103757460D01*
G37*
G36*
X21347400Y-75160296D02*
G01*
X21448112Y-75258529D01*
X21501542Y-75361434D01*
X21566760Y-75612782D01*
X21568869Y-75790995D01*
X21508509Y-76041906D01*
X21454626Y-76153910D01*
X21353666Y-76257419D01*
X21198889Y-76310960D01*
X21009230Y-76312375D01*
X21006963Y-75109728D01*
X21185631Y-75108395D01*
X21347400Y-75160296D01*
G37*
G36*
X23695977Y-75151680D02*
G01*
X23734643Y-75188671D01*
X23781317Y-75278568D01*
X23783019Y-75422339D01*
X23740086Y-75511581D01*
X23703095Y-75550246D01*
X23613637Y-75596693D01*
X23433252Y-75597558D01*
X23427688Y-75596577D01*
X23423034Y-75597608D01*
X23222171Y-75598571D01*
X23221250Y-75110120D01*
X23605755Y-75108275D01*
X23695977Y-75151680D01*
G37*
G36*
X24247606Y-76777495D02*
G01*
X20542843Y-76777495D01*
X20542843Y-74960828D01*
X20709510Y-74960828D01*
X20712392Y-76490092D01*
X20734790Y-76544164D01*
X20776174Y-76585548D01*
X20830246Y-76607946D01*
X20859510Y-76610828D01*
X21214702Y-76608178D01*
X21235413Y-76609651D01*
X21242809Y-76607969D01*
X21245917Y-76607946D01*
X21249574Y-76606430D01*
X21264087Y-76603131D01*
X21456650Y-76536518D01*
X21460202Y-76536518D01*
X21478198Y-76529063D01*
X21505224Y-76519715D01*
X21509295Y-76516183D01*
X21514275Y-76514121D01*
X21537005Y-76495466D01*
X21678025Y-76350885D01*
X21692295Y-76338510D01*
X21696295Y-76332154D01*
X21698517Y-76329877D01*
X21700032Y-76326217D01*
X21707960Y-76313624D01*
X21773102Y-76178216D01*
X21780853Y-76167756D01*
X21788696Y-76145801D01*
X21789898Y-76143304D01*
X21789974Y-76142223D01*
X21790746Y-76140065D01*
X21857614Y-75862096D01*
X21863771Y-75847235D01*
X21865559Y-75829069D01*
X21866476Y-75825262D01*
X21866150Y-75823074D01*
X21866653Y-75817971D01*
X21864211Y-75611613D01*
X21866476Y-75596394D01*
X21863818Y-75578423D01*
X21863771Y-75574421D01*
X21862923Y-75572376D01*
X21862174Y-75567305D01*
X21790916Y-75292684D01*
X21789898Y-75278352D01*
X21781509Y-75256428D01*
X21780853Y-75253900D01*
X21780208Y-75253030D01*
X21779389Y-75250888D01*
X21705380Y-75108348D01*
X21698517Y-75091778D01*
X21693780Y-75086006D01*
X21692295Y-75083146D01*
X21689302Y-75080550D01*
X21679862Y-75069048D01*
X21568911Y-74960828D01*
X22209510Y-74960828D01*
X22212392Y-76490092D01*
X22234790Y-76544164D01*
X22276174Y-76585548D01*
X22330246Y-76607946D01*
X22388774Y-76607946D01*
X22442846Y-76585548D01*
X22484230Y-76544164D01*
X22506628Y-76490092D01*
X22509510Y-76460828D01*
X22506683Y-74960828D01*
X22923796Y-74960828D01*
X22926678Y-76490092D01*
X22949076Y-76544164D01*
X22990460Y-76585548D01*
X23044532Y-76607946D01*
X23103060Y-76607946D01*
X23157132Y-76585548D01*
X23198516Y-76544164D01*
X23220914Y-76490092D01*
X23223796Y-76460828D01*
X23222731Y-75895827D01*
X23352204Y-75895206D01*
X23827197Y-76569169D01*
X23876554Y-76600622D01*
X23934190Y-76610793D01*
X23991332Y-76598134D01*
X24039280Y-76564570D01*
X24070733Y-76515213D01*
X24080904Y-76457577D01*
X24068245Y-76400435D01*
X24053824Y-76374809D01*
X23707018Y-75882729D01*
X23712307Y-75880706D01*
X23854848Y-75806697D01*
X23871417Y-75799835D01*
X23877187Y-75795099D01*
X23880050Y-75793613D01*
X23882646Y-75790619D01*
X23894148Y-75781180D01*
X23966049Y-75706024D01*
X23978010Y-75695652D01*
X23981927Y-75689428D01*
X23984232Y-75687020D01*
X23985748Y-75683358D01*
X23993675Y-75670767D01*
X24053581Y-75546241D01*
X24055659Y-75544164D01*
X24062337Y-75528041D01*
X24075613Y-75500446D01*
X24075994Y-75495070D01*
X24078057Y-75490092D01*
X24080939Y-75460828D01*
X24078664Y-75268594D01*
X24079761Y-75265304D01*
X24078398Y-75246125D01*
X24078057Y-75217278D01*
X24075994Y-75212299D01*
X24075613Y-75206924D01*
X24065103Y-75179461D01*
X23991094Y-75036918D01*
X23984231Y-75020349D01*
X23979495Y-75014578D01*
X23978010Y-75011718D01*
X23975018Y-75009123D01*
X23965576Y-74997618D01*
X23890429Y-74925725D01*
X23880050Y-74913758D01*
X23873821Y-74909837D01*
X23871416Y-74907536D01*
X23867759Y-74906021D01*
X23855164Y-74898093D01*
X23730639Y-74838186D01*
X23728561Y-74836108D01*
X23712429Y-74829426D01*
X23684844Y-74816155D01*
X23679469Y-74815773D01*
X23674489Y-74813710D01*
X23645225Y-74810828D01*
X23044532Y-74813710D01*
X22990460Y-74836108D01*
X22949076Y-74877492D01*
X22926678Y-74931564D01*
X22923796Y-74960828D01*
X22506683Y-74960828D01*
X22506628Y-74931564D01*
X22484230Y-74877492D01*
X22442846Y-74836108D01*
X22388774Y-74813710D01*
X22330246Y-74813710D01*
X22276174Y-74836108D01*
X22234790Y-74877492D01*
X22212392Y-74931564D01*
X22209510Y-74960828D01*
X21568911Y-74960828D01*
X21550945Y-74943304D01*
X21549438Y-74940290D01*
X21535148Y-74927896D01*
X21514274Y-74907536D01*
X21509294Y-74905473D01*
X21505224Y-74901943D01*
X21478373Y-74889954D01*
X21263751Y-74821097D01*
X21245917Y-74813710D01*
X21238425Y-74812972D01*
X21235414Y-74812006D01*
X21231464Y-74812286D01*
X21216653Y-74810828D01*
X20830246Y-74813710D01*
X20776174Y-74836108D01*
X20734790Y-74877492D01*
X20712392Y-74931564D01*
X20709510Y-74960828D01*
X20542843Y-74960828D01*
X20542843Y-74644161D01*
X24247606Y-74644161D01*
X24247606Y-76777495D01*
G37*
G36*
X187387400Y-102140296D02*
G01*
X187488112Y-102238529D01*
X187541542Y-102341434D01*
X187606760Y-102592782D01*
X187608869Y-102770995D01*
X187548509Y-103021906D01*
X187494626Y-103133910D01*
X187393666Y-103237419D01*
X187238889Y-103290960D01*
X187049230Y-103292375D01*
X187046963Y-102089728D01*
X187225631Y-102088395D01*
X187387400Y-102140296D01*
G37*
G36*
X189501892Y-103757495D02*
G01*
X186582843Y-103757495D01*
X186582843Y-101940828D01*
X186749510Y-101940828D01*
X186752392Y-103470091D01*
X186752392Y-103470092D01*
X186774790Y-103524164D01*
X186816174Y-103565548D01*
X186870246Y-103587946D01*
X186899510Y-103590828D01*
X187254702Y-103588178D01*
X187275413Y-103589651D01*
X187282809Y-103587969D01*
X187285917Y-103587946D01*
X187289574Y-103586430D01*
X187304087Y-103583131D01*
X187496650Y-103516518D01*
X187500202Y-103516518D01*
X187518198Y-103509063D01*
X187545224Y-103499715D01*
X187549295Y-103496183D01*
X187554275Y-103494121D01*
X187577005Y-103475466D01*
X187639332Y-103411565D01*
X188109535Y-103411565D01*
X188109535Y-103470091D01*
X188131932Y-103524163D01*
X188173318Y-103565549D01*
X188204992Y-103578668D01*
X188227389Y-103587946D01*
X188256653Y-103590828D01*
X189214489Y-103587946D01*
X189268561Y-103565548D01*
X189309945Y-103524164D01*
X189332343Y-103470092D01*
X189332343Y-103411564D01*
X189309945Y-103357492D01*
X189268561Y-103316108D01*
X189214489Y-103293710D01*
X189185225Y-103290828D01*
X188615893Y-103292541D01*
X189201290Y-102704420D01*
X189205762Y-102702185D01*
X189220974Y-102684645D01*
X189238517Y-102667021D01*
X189240580Y-102662039D01*
X189244110Y-102657970D01*
X189256098Y-102631120D01*
X189324955Y-102416499D01*
X189332343Y-102398664D01*
X189333080Y-102391172D01*
X189334047Y-102388161D01*
X189333766Y-102384211D01*
X189335225Y-102369400D01*
X189333190Y-102247873D01*
X189334047Y-102245303D01*
X189332869Y-102228738D01*
X189332343Y-102197278D01*
X189330279Y-102192297D01*
X189329898Y-102186923D01*
X189319389Y-102159459D01*
X189245378Y-102016916D01*
X189238517Y-102000349D01*
X189233780Y-101994577D01*
X189232295Y-101991717D01*
X189229302Y-101989121D01*
X189219862Y-101977619D01*
X189144712Y-101905722D01*
X189134336Y-101893758D01*
X189128110Y-101889839D01*
X189125703Y-101887536D01*
X189122043Y-101886020D01*
X189109450Y-101878093D01*
X188984922Y-101818184D01*
X188982846Y-101816108D01*
X188966728Y-101809431D01*
X188939129Y-101796154D01*
X188933751Y-101795771D01*
X188928774Y-101793710D01*
X188899510Y-101790828D01*
X188565077Y-101793322D01*
X188561129Y-101792006D01*
X188539966Y-101793509D01*
X188513104Y-101793710D01*
X188508126Y-101795771D01*
X188502749Y-101796154D01*
X188475286Y-101806664D01*
X188332743Y-101880673D01*
X188316174Y-101887536D01*
X188310402Y-101892272D01*
X188307542Y-101893758D01*
X188304946Y-101896750D01*
X188293444Y-101906191D01*
X188203361Y-102000350D01*
X188180964Y-102054422D01*
X188180964Y-102112948D01*
X188203361Y-102167020D01*
X188244747Y-102208406D01*
X188298819Y-102230803D01*
X188357345Y-102230803D01*
X188411417Y-102208406D01*
X188434148Y-102189751D01*
X188484496Y-102137124D01*
X188574120Y-102090591D01*
X188860414Y-102088455D01*
X188950264Y-102131681D01*
X188988928Y-102168671D01*
X189035766Y-102258882D01*
X189037125Y-102340036D01*
X188985970Y-102499479D01*
X188131932Y-103357493D01*
X188109535Y-103411565D01*
X187639332Y-103411565D01*
X187718025Y-103330885D01*
X187732295Y-103318510D01*
X187736295Y-103312154D01*
X187738517Y-103309877D01*
X187740032Y-103306217D01*
X187747960Y-103293624D01*
X187813102Y-103158216D01*
X187820853Y-103147756D01*
X187828696Y-103125801D01*
X187829898Y-103123304D01*
X187829974Y-103122223D01*
X187830746Y-103120065D01*
X187897614Y-102842096D01*
X187903771Y-102827235D01*
X187905559Y-102809069D01*
X187906476Y-102805262D01*
X187906150Y-102803074D01*
X187906653Y-102797971D01*
X187904211Y-102591613D01*
X187906476Y-102576394D01*
X187903818Y-102558423D01*
X187903771Y-102554421D01*
X187902923Y-102552376D01*
X187902174Y-102547305D01*
X187830916Y-102272684D01*
X187829898Y-102258352D01*
X187821509Y-102236428D01*
X187820853Y-102233900D01*
X187820208Y-102233030D01*
X187819389Y-102230888D01*
X187745380Y-102088348D01*
X187738517Y-102071778D01*
X187733780Y-102066006D01*
X187732295Y-102063146D01*
X187729302Y-102060550D01*
X187719862Y-102049048D01*
X187590945Y-101923304D01*
X187589438Y-101920290D01*
X187575148Y-101907896D01*
X187554274Y-101887536D01*
X187549294Y-101885473D01*
X187545224Y-101881943D01*
X187518373Y-101869954D01*
X187303751Y-101801097D01*
X187285917Y-101793710D01*
X187278425Y-101792972D01*
X187275414Y-101792006D01*
X187271464Y-101792286D01*
X187256653Y-101790828D01*
X186870246Y-101793710D01*
X186816174Y-101816108D01*
X186774790Y-101857492D01*
X186752392Y-101911564D01*
X186749510Y-101940828D01*
X186582843Y-101940828D01*
X186582843Y-101624161D01*
X189501892Y-101624161D01*
X189501892Y-103757495D01*
G37*
G36*
X92387400Y-102140296D02*
G01*
X92488112Y-102238529D01*
X92541542Y-102341434D01*
X92606760Y-102592782D01*
X92608869Y-102770995D01*
X92548509Y-103021906D01*
X92494626Y-103133910D01*
X92393666Y-103237419D01*
X92238889Y-103290960D01*
X92049230Y-103292375D01*
X92046963Y-102089728D01*
X92225631Y-102088395D01*
X92387400Y-102140296D01*
G37*
G36*
X94427581Y-103757495D02*
G01*
X91582843Y-103757495D01*
X91582843Y-101940828D01*
X91749510Y-101940828D01*
X91752392Y-103470092D01*
X91774790Y-103524164D01*
X91816174Y-103565548D01*
X91870246Y-103587946D01*
X91899510Y-103590828D01*
X92254702Y-103588178D01*
X92275413Y-103589651D01*
X92282809Y-103587969D01*
X92285917Y-103587946D01*
X92289574Y-103586430D01*
X92304087Y-103583131D01*
X92496650Y-103516518D01*
X92500202Y-103516518D01*
X92518198Y-103509063D01*
X92545224Y-103499715D01*
X92549295Y-103496183D01*
X92554275Y-103494121D01*
X92577005Y-103475466D01*
X92718025Y-103330885D01*
X92732295Y-103318510D01*
X92736295Y-103312154D01*
X92738517Y-103309877D01*
X92740032Y-103306217D01*
X92747960Y-103293624D01*
X92813102Y-103158216D01*
X92820853Y-103147756D01*
X92828696Y-103125801D01*
X92829898Y-103123304D01*
X92829974Y-103122223D01*
X92830746Y-103120065D01*
X92897614Y-102842096D01*
X92903771Y-102827235D01*
X92905559Y-102809069D01*
X92906476Y-102805262D01*
X92906150Y-102803074D01*
X92906653Y-102797971D01*
X92904211Y-102591613D01*
X92906476Y-102576394D01*
X92903818Y-102558423D01*
X92903771Y-102554421D01*
X92902923Y-102552376D01*
X92902174Y-102547305D01*
X92830916Y-102272684D01*
X92829898Y-102258352D01*
X92821509Y-102236428D01*
X92820853Y-102233900D01*
X92820208Y-102233030D01*
X92819389Y-102230888D01*
X92745380Y-102088348D01*
X92738517Y-102071778D01*
X92733780Y-102066006D01*
X92732295Y-102063146D01*
X92729302Y-102060550D01*
X92719862Y-102049048D01*
X92608911Y-101940828D01*
X93249510Y-101940828D01*
X93252392Y-103470092D01*
X93274790Y-103524164D01*
X93316174Y-103565548D01*
X93370246Y-103587946D01*
X93399510Y-103590828D01*
X94143060Y-103587946D01*
X94197132Y-103565548D01*
X94238516Y-103524164D01*
X94260914Y-103470092D01*
X94260914Y-103411564D01*
X94238516Y-103357492D01*
X94197132Y-103316108D01*
X94143060Y-103293710D01*
X94113796Y-103290828D01*
X93549231Y-103293016D01*
X93548310Y-102804303D01*
X93928774Y-102802232D01*
X93982846Y-102779834D01*
X94024230Y-102738450D01*
X94046628Y-102684378D01*
X94046628Y-102625850D01*
X94024230Y-102571778D01*
X93982846Y-102530394D01*
X93928774Y-102507996D01*
X93899510Y-102505114D01*
X93547750Y-102507029D01*
X93546964Y-102090256D01*
X94143060Y-102087946D01*
X94197132Y-102065548D01*
X94238516Y-102024164D01*
X94260914Y-101970092D01*
X94260914Y-101911564D01*
X94238516Y-101857492D01*
X94197132Y-101816108D01*
X94143060Y-101793710D01*
X94113796Y-101790828D01*
X93370246Y-101793710D01*
X93316174Y-101816108D01*
X93274790Y-101857492D01*
X93252392Y-101911564D01*
X93249510Y-101940828D01*
X92608911Y-101940828D01*
X92590945Y-101923304D01*
X92589438Y-101920290D01*
X92575148Y-101907896D01*
X92554274Y-101887536D01*
X92549294Y-101885473D01*
X92545224Y-101881943D01*
X92518373Y-101869954D01*
X92303751Y-101801097D01*
X92285917Y-101793710D01*
X92278425Y-101792972D01*
X92275414Y-101792006D01*
X92271464Y-101792286D01*
X92256653Y-101790828D01*
X91870246Y-101793710D01*
X91816174Y-101816108D01*
X91774790Y-101857492D01*
X91752392Y-101911564D01*
X91749510Y-101940828D01*
X91582843Y-101940828D01*
X91582843Y-101624161D01*
X94427581Y-101624161D01*
X94427581Y-103757495D01*
G37*
G36*
X92387400Y-50705296D02*
G01*
X92488112Y-50803529D01*
X92541542Y-50906434D01*
X92606760Y-51157782D01*
X92608869Y-51335995D01*
X92548509Y-51586906D01*
X92494626Y-51698910D01*
X92393666Y-51802419D01*
X92238889Y-51855960D01*
X92049230Y-51857375D01*
X92046963Y-50654728D01*
X92225631Y-50653395D01*
X92387400Y-50705296D01*
G37*
G36*
X94427581Y-52322495D02*
G01*
X91582843Y-52322495D01*
X91582843Y-50505828D01*
X91749510Y-50505828D01*
X91752392Y-52035092D01*
X91774790Y-52089164D01*
X91816174Y-52130548D01*
X91870246Y-52152946D01*
X91899510Y-52155828D01*
X92254702Y-52153178D01*
X92275413Y-52154651D01*
X92282809Y-52152969D01*
X92285917Y-52152946D01*
X92289574Y-52151430D01*
X92304087Y-52148131D01*
X92496650Y-52081518D01*
X92500202Y-52081518D01*
X92518198Y-52074063D01*
X92545224Y-52064715D01*
X92549295Y-52061183D01*
X92554275Y-52059121D01*
X92577005Y-52040466D01*
X92718025Y-51895885D01*
X92732295Y-51883510D01*
X92736295Y-51877154D01*
X92738517Y-51874877D01*
X92740032Y-51871217D01*
X92747960Y-51858624D01*
X92813102Y-51723216D01*
X92820853Y-51712756D01*
X92828696Y-51690801D01*
X92829898Y-51688304D01*
X92829974Y-51687223D01*
X92830746Y-51685065D01*
X92897614Y-51407096D01*
X92903771Y-51392235D01*
X92905559Y-51374069D01*
X92906476Y-51370262D01*
X92906150Y-51368074D01*
X92906653Y-51362971D01*
X92904211Y-51156613D01*
X92906476Y-51141394D01*
X92903818Y-51123423D01*
X92903771Y-51119421D01*
X92902923Y-51117376D01*
X92902174Y-51112305D01*
X92830916Y-50837684D01*
X92829898Y-50823352D01*
X92821509Y-50801428D01*
X92820853Y-50798900D01*
X92820208Y-50798030D01*
X92819389Y-50795888D01*
X92745380Y-50653348D01*
X92738517Y-50636778D01*
X92733780Y-50631006D01*
X92732295Y-50628146D01*
X92729302Y-50625550D01*
X92719862Y-50614048D01*
X92608911Y-50505828D01*
X93249510Y-50505828D01*
X93252392Y-52035092D01*
X93274790Y-52089164D01*
X93316174Y-52130548D01*
X93370246Y-52152946D01*
X93399510Y-52155828D01*
X94143060Y-52152946D01*
X94197132Y-52130548D01*
X94238516Y-52089164D01*
X94260914Y-52035092D01*
X94260914Y-51976564D01*
X94238516Y-51922492D01*
X94197132Y-51881108D01*
X94143060Y-51858710D01*
X94113796Y-51855828D01*
X93549231Y-51858016D01*
X93548310Y-51369303D01*
X93928774Y-51367232D01*
X93982846Y-51344834D01*
X94024230Y-51303450D01*
X94046628Y-51249378D01*
X94046628Y-51190850D01*
X94024230Y-51136778D01*
X93982846Y-51095394D01*
X93928774Y-51072996D01*
X93899510Y-51070114D01*
X93547750Y-51072029D01*
X93546964Y-50655256D01*
X94143060Y-50652946D01*
X94197132Y-50630548D01*
X94238516Y-50589164D01*
X94260914Y-50535092D01*
X94260914Y-50476564D01*
X94238516Y-50422492D01*
X94197132Y-50381108D01*
X94143060Y-50358710D01*
X94113796Y-50355828D01*
X93370246Y-50358710D01*
X93316174Y-50381108D01*
X93274790Y-50422492D01*
X93252392Y-50476564D01*
X93249510Y-50505828D01*
X92608911Y-50505828D01*
X92590945Y-50488304D01*
X92589438Y-50485290D01*
X92575148Y-50472896D01*
X92554274Y-50452536D01*
X92549294Y-50450473D01*
X92545224Y-50446943D01*
X92518373Y-50434954D01*
X92303751Y-50366097D01*
X92285917Y-50358710D01*
X92278425Y-50357972D01*
X92275414Y-50357006D01*
X92271464Y-50357286D01*
X92256653Y-50355828D01*
X91870246Y-50358710D01*
X91816174Y-50381108D01*
X91774790Y-50422492D01*
X91752392Y-50476564D01*
X91749510Y-50505828D01*
X91582843Y-50505828D01*
X91582843Y-50189161D01*
X94427581Y-50189161D01*
X94427581Y-52322495D01*
G37*
G36*
X187387400Y-50705296D02*
G01*
X187488112Y-50803529D01*
X187541542Y-50906434D01*
X187606760Y-51157782D01*
X187608869Y-51335995D01*
X187548509Y-51586906D01*
X187494626Y-51698910D01*
X187393666Y-51802419D01*
X187238889Y-51855960D01*
X187049230Y-51857375D01*
X187046963Y-50654728D01*
X187225631Y-50653395D01*
X187387400Y-50705296D01*
G37*
G36*
X189501892Y-52322495D02*
G01*
X186582843Y-52322495D01*
X186582843Y-50505828D01*
X186749510Y-50505828D01*
X186752392Y-52035091D01*
X186752392Y-52035092D01*
X186774790Y-52089164D01*
X186816174Y-52130548D01*
X186870246Y-52152946D01*
X186899510Y-52155828D01*
X187254702Y-52153178D01*
X187275413Y-52154651D01*
X187282809Y-52152969D01*
X187285917Y-52152946D01*
X187289574Y-52151430D01*
X187304087Y-52148131D01*
X187496650Y-52081518D01*
X187500202Y-52081518D01*
X187518198Y-52074063D01*
X187545224Y-52064715D01*
X187549295Y-52061183D01*
X187554275Y-52059121D01*
X187577005Y-52040466D01*
X187639332Y-51976565D01*
X188109535Y-51976565D01*
X188109535Y-52035091D01*
X188131932Y-52089163D01*
X188173318Y-52130549D01*
X188204992Y-52143668D01*
X188227389Y-52152946D01*
X188256653Y-52155828D01*
X189214489Y-52152946D01*
X189268561Y-52130548D01*
X189309945Y-52089164D01*
X189332343Y-52035092D01*
X189332343Y-51976564D01*
X189309945Y-51922492D01*
X189268561Y-51881108D01*
X189214489Y-51858710D01*
X189185225Y-51855828D01*
X188615893Y-51857541D01*
X189201290Y-51269420D01*
X189205762Y-51267185D01*
X189220974Y-51249645D01*
X189238517Y-51232021D01*
X189240580Y-51227039D01*
X189244110Y-51222970D01*
X189256098Y-51196120D01*
X189324955Y-50981499D01*
X189332343Y-50963664D01*
X189333080Y-50956172D01*
X189334047Y-50953161D01*
X189333766Y-50949211D01*
X189335225Y-50934400D01*
X189333190Y-50812873D01*
X189334047Y-50810303D01*
X189332869Y-50793738D01*
X189332343Y-50762278D01*
X189330279Y-50757297D01*
X189329898Y-50751923D01*
X189319389Y-50724459D01*
X189245378Y-50581916D01*
X189238517Y-50565349D01*
X189233780Y-50559577D01*
X189232295Y-50556717D01*
X189229302Y-50554121D01*
X189219862Y-50542619D01*
X189144712Y-50470722D01*
X189134336Y-50458758D01*
X189128110Y-50454839D01*
X189125703Y-50452536D01*
X189122043Y-50451020D01*
X189109450Y-50443093D01*
X188984922Y-50383184D01*
X188982846Y-50381108D01*
X188966728Y-50374431D01*
X188939129Y-50361154D01*
X188933751Y-50360771D01*
X188928774Y-50358710D01*
X188899510Y-50355828D01*
X188565077Y-50358322D01*
X188561129Y-50357006D01*
X188539966Y-50358509D01*
X188513104Y-50358710D01*
X188508126Y-50360771D01*
X188502749Y-50361154D01*
X188475286Y-50371664D01*
X188332743Y-50445673D01*
X188316174Y-50452536D01*
X188310402Y-50457272D01*
X188307542Y-50458758D01*
X188304946Y-50461750D01*
X188293444Y-50471191D01*
X188203361Y-50565350D01*
X188180964Y-50619422D01*
X188180964Y-50677948D01*
X188203361Y-50732020D01*
X188244747Y-50773406D01*
X188298819Y-50795803D01*
X188357345Y-50795803D01*
X188411417Y-50773406D01*
X188434148Y-50754751D01*
X188484496Y-50702124D01*
X188574120Y-50655591D01*
X188860414Y-50653455D01*
X188950264Y-50696681D01*
X188988928Y-50733671D01*
X189035766Y-50823882D01*
X189037125Y-50905036D01*
X188985970Y-51064479D01*
X188131932Y-51922493D01*
X188109535Y-51976565D01*
X187639332Y-51976565D01*
X187718025Y-51895885D01*
X187732295Y-51883510D01*
X187736295Y-51877154D01*
X187738517Y-51874877D01*
X187740032Y-51871217D01*
X187747960Y-51858624D01*
X187813102Y-51723216D01*
X187820853Y-51712756D01*
X187828696Y-51690801D01*
X187829898Y-51688304D01*
X187829974Y-51687223D01*
X187830746Y-51685065D01*
X187897614Y-51407096D01*
X187903771Y-51392235D01*
X187905559Y-51374069D01*
X187906476Y-51370262D01*
X187906150Y-51368074D01*
X187906653Y-51362971D01*
X187904211Y-51156613D01*
X187906476Y-51141394D01*
X187903818Y-51123423D01*
X187903771Y-51119421D01*
X187902923Y-51117376D01*
X187902174Y-51112305D01*
X187830916Y-50837684D01*
X187829898Y-50823352D01*
X187821509Y-50801428D01*
X187820853Y-50798900D01*
X187820208Y-50798030D01*
X187819389Y-50795888D01*
X187745380Y-50653348D01*
X187738517Y-50636778D01*
X187733780Y-50631006D01*
X187732295Y-50628146D01*
X187729302Y-50625550D01*
X187719862Y-50614048D01*
X187590945Y-50488304D01*
X187589438Y-50485290D01*
X187575148Y-50472896D01*
X187554274Y-50452536D01*
X187549294Y-50450473D01*
X187545224Y-50446943D01*
X187518373Y-50434954D01*
X187303751Y-50366097D01*
X187285917Y-50358710D01*
X187278425Y-50357972D01*
X187275414Y-50357006D01*
X187271464Y-50357286D01*
X187256653Y-50355828D01*
X186870246Y-50358710D01*
X186816174Y-50381108D01*
X186774790Y-50422492D01*
X186752392Y-50476564D01*
X186749510Y-50505828D01*
X186582843Y-50505828D01*
X186582843Y-50189161D01*
X189501892Y-50189161D01*
X189501892Y-52322495D01*
G37*
G36*
X21347400Y-23725296D02*
G01*
X21448112Y-23823529D01*
X21501542Y-23926434D01*
X21566760Y-24177782D01*
X21568869Y-24355995D01*
X21508509Y-24606906D01*
X21454626Y-24718910D01*
X21353666Y-24822419D01*
X21198889Y-24875960D01*
X21009230Y-24877375D01*
X21006963Y-23674728D01*
X21185631Y-23673395D01*
X21347400Y-23725296D01*
G37*
G36*
X23695977Y-23716680D02*
G01*
X23734643Y-23753671D01*
X23781317Y-23843568D01*
X23783019Y-23987339D01*
X23740086Y-24076581D01*
X23703095Y-24115246D01*
X23613637Y-24161693D01*
X23433252Y-24162558D01*
X23427688Y-24161577D01*
X23423034Y-24162608D01*
X23222171Y-24163571D01*
X23221250Y-23675120D01*
X23605755Y-23673275D01*
X23695977Y-23716680D01*
G37*
G36*
X24247606Y-25342495D02*
G01*
X20542843Y-25342495D01*
X20542843Y-23525828D01*
X20709510Y-23525828D01*
X20712392Y-25055092D01*
X20734790Y-25109164D01*
X20776174Y-25150548D01*
X20830246Y-25172946D01*
X20859510Y-25175828D01*
X21214702Y-25173178D01*
X21235413Y-25174651D01*
X21242809Y-25172969D01*
X21245917Y-25172946D01*
X21249574Y-25171430D01*
X21264087Y-25168131D01*
X21456650Y-25101518D01*
X21460202Y-25101518D01*
X21478198Y-25094063D01*
X21505224Y-25084715D01*
X21509295Y-25081183D01*
X21514275Y-25079121D01*
X21537005Y-25060466D01*
X21678025Y-24915885D01*
X21692295Y-24903510D01*
X21696295Y-24897154D01*
X21698517Y-24894877D01*
X21700032Y-24891217D01*
X21707960Y-24878624D01*
X21773102Y-24743216D01*
X21780853Y-24732756D01*
X21788696Y-24710801D01*
X21789898Y-24708304D01*
X21789974Y-24707223D01*
X21790746Y-24705065D01*
X21857614Y-24427096D01*
X21863771Y-24412235D01*
X21865559Y-24394069D01*
X21866476Y-24390262D01*
X21866150Y-24388074D01*
X21866653Y-24382971D01*
X21864211Y-24176613D01*
X21866476Y-24161394D01*
X21863818Y-24143423D01*
X21863771Y-24139421D01*
X21862923Y-24137376D01*
X21862174Y-24132305D01*
X21790916Y-23857684D01*
X21789898Y-23843352D01*
X21781509Y-23821428D01*
X21780853Y-23818900D01*
X21780208Y-23818030D01*
X21779389Y-23815888D01*
X21705380Y-23673348D01*
X21698517Y-23656778D01*
X21693780Y-23651006D01*
X21692295Y-23648146D01*
X21689302Y-23645550D01*
X21679862Y-23634048D01*
X21568911Y-23525828D01*
X22209510Y-23525828D01*
X22212392Y-25055092D01*
X22234790Y-25109164D01*
X22276174Y-25150548D01*
X22330246Y-25172946D01*
X22388774Y-25172946D01*
X22442846Y-25150548D01*
X22484230Y-25109164D01*
X22506628Y-25055092D01*
X22509510Y-25025828D01*
X22506683Y-23525828D01*
X22923796Y-23525828D01*
X22926678Y-25055092D01*
X22949076Y-25109164D01*
X22990460Y-25150548D01*
X23044532Y-25172946D01*
X23103060Y-25172946D01*
X23157132Y-25150548D01*
X23198516Y-25109164D01*
X23220914Y-25055092D01*
X23223796Y-25025828D01*
X23222731Y-24460827D01*
X23352204Y-24460206D01*
X23827197Y-25134169D01*
X23876554Y-25165622D01*
X23934190Y-25175793D01*
X23991332Y-25163134D01*
X24039280Y-25129570D01*
X24070733Y-25080213D01*
X24080904Y-25022577D01*
X24068245Y-24965435D01*
X24053824Y-24939809D01*
X23707018Y-24447729D01*
X23712307Y-24445706D01*
X23854848Y-24371697D01*
X23871417Y-24364835D01*
X23877187Y-24360099D01*
X23880050Y-24358613D01*
X23882646Y-24355619D01*
X23894148Y-24346180D01*
X23966049Y-24271024D01*
X23978010Y-24260652D01*
X23981927Y-24254428D01*
X23984232Y-24252020D01*
X23985748Y-24248358D01*
X23993675Y-24235767D01*
X24053581Y-24111241D01*
X24055659Y-24109164D01*
X24062337Y-24093041D01*
X24075613Y-24065446D01*
X24075994Y-24060070D01*
X24078057Y-24055092D01*
X24080939Y-24025828D01*
X24078664Y-23833594D01*
X24079761Y-23830304D01*
X24078398Y-23811125D01*
X24078057Y-23782278D01*
X24075994Y-23777299D01*
X24075613Y-23771924D01*
X24065103Y-23744461D01*
X23991094Y-23601918D01*
X23984231Y-23585349D01*
X23979495Y-23579578D01*
X23978010Y-23576718D01*
X23975018Y-23574123D01*
X23965576Y-23562618D01*
X23890429Y-23490725D01*
X23880050Y-23478758D01*
X23873821Y-23474837D01*
X23871416Y-23472536D01*
X23867759Y-23471021D01*
X23855164Y-23463093D01*
X23730639Y-23403186D01*
X23728561Y-23401108D01*
X23712429Y-23394426D01*
X23684844Y-23381155D01*
X23679469Y-23380773D01*
X23674489Y-23378710D01*
X23645225Y-23375828D01*
X23044532Y-23378710D01*
X22990460Y-23401108D01*
X22949076Y-23442492D01*
X22926678Y-23496564D01*
X22923796Y-23525828D01*
X22506683Y-23525828D01*
X22506628Y-23496564D01*
X22484230Y-23442492D01*
X22442846Y-23401108D01*
X22388774Y-23378710D01*
X22330246Y-23378710D01*
X22276174Y-23401108D01*
X22234790Y-23442492D01*
X22212392Y-23496564D01*
X22209510Y-23525828D01*
X21568911Y-23525828D01*
X21550945Y-23508304D01*
X21549438Y-23505290D01*
X21535148Y-23492896D01*
X21514274Y-23472536D01*
X21509294Y-23470473D01*
X21505224Y-23466943D01*
X21478373Y-23454954D01*
X21263751Y-23386097D01*
X21245917Y-23378710D01*
X21238425Y-23377972D01*
X21235414Y-23377006D01*
X21231464Y-23377286D01*
X21216653Y-23375828D01*
X20830246Y-23378710D01*
X20776174Y-23401108D01*
X20734790Y-23442492D01*
X20712392Y-23496564D01*
X20709510Y-23525828D01*
X20542843Y-23525828D01*
X20542843Y-23209161D01*
X24247606Y-23209161D01*
X24247606Y-25342495D01*
G37*
G36*
X20771691Y-50696680D02*
G01*
X20810357Y-50733671D01*
X20857031Y-50823568D01*
X20858733Y-50967339D01*
X20815800Y-51056581D01*
X20778809Y-51095246D01*
X20689351Y-51141693D01*
X20508966Y-51142558D01*
X20503402Y-51141577D01*
X20498748Y-51142608D01*
X20297885Y-51143571D01*
X20296964Y-50655120D01*
X20681469Y-50653275D01*
X20771691Y-50696680D01*
G37*
G36*
X21323320Y-52322460D02*
G01*
X19832843Y-52322460D01*
X19832843Y-50505828D01*
X19999510Y-50505828D01*
X20002392Y-52035092D01*
X20024790Y-52089164D01*
X20066174Y-52130548D01*
X20120246Y-52152946D01*
X20178774Y-52152946D01*
X20232846Y-52130548D01*
X20274230Y-52089164D01*
X20296628Y-52035092D01*
X20299510Y-52005828D01*
X20298445Y-51440827D01*
X20427918Y-51440206D01*
X20902911Y-52114169D01*
X20952268Y-52145622D01*
X21009904Y-52155793D01*
X21067046Y-52143134D01*
X21114994Y-52109570D01*
X21146447Y-52060213D01*
X21156618Y-52002577D01*
X21143959Y-51945435D01*
X21129538Y-51919809D01*
X20782732Y-51427729D01*
X20788021Y-51425706D01*
X20930562Y-51351697D01*
X20947131Y-51344835D01*
X20952901Y-51340099D01*
X20955764Y-51338613D01*
X20958360Y-51335619D01*
X20969862Y-51326180D01*
X21041763Y-51251024D01*
X21053724Y-51240652D01*
X21057641Y-51234428D01*
X21059946Y-51232020D01*
X21061462Y-51228358D01*
X21069389Y-51215767D01*
X21129295Y-51091241D01*
X21131373Y-51089164D01*
X21138051Y-51073041D01*
X21151327Y-51045446D01*
X21151708Y-51040070D01*
X21153771Y-51035092D01*
X21156653Y-51005828D01*
X21154378Y-50813594D01*
X21155475Y-50810304D01*
X21154112Y-50791125D01*
X21153771Y-50762278D01*
X21151708Y-50757299D01*
X21151327Y-50751924D01*
X21140817Y-50724461D01*
X21066808Y-50581918D01*
X21059945Y-50565349D01*
X21055209Y-50559578D01*
X21053724Y-50556718D01*
X21050732Y-50554123D01*
X21041290Y-50542618D01*
X20966143Y-50470725D01*
X20955764Y-50458758D01*
X20949535Y-50454837D01*
X20947130Y-50452536D01*
X20943473Y-50451021D01*
X20930878Y-50443093D01*
X20806353Y-50383186D01*
X20804275Y-50381108D01*
X20788143Y-50374426D01*
X20760558Y-50361155D01*
X20755183Y-50360773D01*
X20750203Y-50358710D01*
X20720939Y-50355828D01*
X20120246Y-50358710D01*
X20066174Y-50381108D01*
X20024790Y-50422492D01*
X20002392Y-50476564D01*
X19999510Y-50505828D01*
X19832843Y-50505828D01*
X19832843Y-50189161D01*
X21323320Y-50189161D01*
X21323320Y-52322460D01*
G37*
G36*
X120387400Y-50705296D02*
G01*
X120488112Y-50803529D01*
X120541542Y-50906434D01*
X120606760Y-51157782D01*
X120608869Y-51335995D01*
X120548509Y-51586906D01*
X120494626Y-51698910D01*
X120393666Y-51802419D01*
X120238889Y-51855960D01*
X120049230Y-51857375D01*
X120046963Y-50654728D01*
X120225631Y-50653395D01*
X120387400Y-50705296D01*
G37*
G36*
X122499010Y-52322495D02*
G01*
X119582843Y-52322495D01*
X119582843Y-50505828D01*
X119749510Y-50505828D01*
X119752392Y-52035092D01*
X119774790Y-52089164D01*
X119816174Y-52130548D01*
X119870246Y-52152946D01*
X119899510Y-52155828D01*
X120254702Y-52153178D01*
X120275413Y-52154651D01*
X120282809Y-52152969D01*
X120285917Y-52152946D01*
X120289574Y-52151430D01*
X120304087Y-52148131D01*
X120496650Y-52081518D01*
X120500202Y-52081518D01*
X120518198Y-52074063D01*
X120545224Y-52064715D01*
X120549295Y-52061183D01*
X120554275Y-52059121D01*
X120577005Y-52040466D01*
X120718025Y-51895885D01*
X120732295Y-51883510D01*
X120736295Y-51877154D01*
X120738517Y-51874877D01*
X120740032Y-51871217D01*
X120747960Y-51858624D01*
X120813102Y-51723216D01*
X120820853Y-51712756D01*
X120828696Y-51690801D01*
X120829898Y-51688304D01*
X120829974Y-51687223D01*
X120830746Y-51685065D01*
X120897614Y-51407096D01*
X120903771Y-51392235D01*
X120905559Y-51374069D01*
X120906476Y-51370262D01*
X120906150Y-51368074D01*
X120906653Y-51362971D01*
X120904211Y-51156613D01*
X120906476Y-51141394D01*
X120903818Y-51123423D01*
X120903771Y-51119421D01*
X120902923Y-51117376D01*
X120902174Y-51112305D01*
X120851144Y-50915639D01*
X121179260Y-50915639D01*
X121183409Y-50974019D01*
X121209583Y-51026368D01*
X121253798Y-51064715D01*
X121309321Y-51083222D01*
X121367701Y-51079073D01*
X121395164Y-51068564D01*
X121537706Y-50994554D01*
X121554274Y-50987692D01*
X121560044Y-50982956D01*
X121562907Y-50981470D01*
X121565503Y-50978476D01*
X121577005Y-50969037D01*
X121607467Y-50937806D01*
X121609200Y-51857700D01*
X121298818Y-51858710D01*
X121244746Y-51881108D01*
X121203362Y-51922492D01*
X121180964Y-51976564D01*
X121180964Y-52035092D01*
X121203362Y-52089164D01*
X121244746Y-52130548D01*
X121298818Y-52152946D01*
X121328082Y-52155828D01*
X122214489Y-52152946D01*
X122268561Y-52130548D01*
X122309945Y-52089164D01*
X122332343Y-52035092D01*
X122332343Y-51976564D01*
X122309945Y-51922492D01*
X122268561Y-51881108D01*
X122214489Y-51858710D01*
X122185225Y-51855828D01*
X121906372Y-51856734D01*
X121903852Y-50519827D01*
X121906653Y-50505670D01*
X121903798Y-50491400D01*
X121903771Y-50476564D01*
X121898087Y-50462843D01*
X121895175Y-50448281D01*
X121886996Y-50436068D01*
X121881373Y-50422492D01*
X121870874Y-50411993D01*
X121862609Y-50399651D01*
X121850378Y-50391497D01*
X121839989Y-50381108D01*
X121826270Y-50375425D01*
X121813910Y-50367185D01*
X121799491Y-50364332D01*
X121785917Y-50358710D01*
X121771066Y-50358710D01*
X121756496Y-50355828D01*
X121742086Y-50358710D01*
X121727389Y-50358710D01*
X121713667Y-50364393D01*
X121699106Y-50367306D01*
X121686893Y-50375484D01*
X121673317Y-50381108D01*
X121662818Y-50391606D01*
X121650476Y-50399872D01*
X121632044Y-50422380D01*
X121631933Y-50422492D01*
X121631912Y-50422542D01*
X121631846Y-50422623D01*
X121505494Y-50616339D01*
X121387525Y-50737286D01*
X121236114Y-50815901D01*
X121197767Y-50860116D01*
X121179260Y-50915639D01*
X120851144Y-50915639D01*
X120830916Y-50837684D01*
X120829898Y-50823352D01*
X120821509Y-50801428D01*
X120820853Y-50798900D01*
X120820208Y-50798030D01*
X120819389Y-50795888D01*
X120745380Y-50653348D01*
X120738517Y-50636778D01*
X120733780Y-50631006D01*
X120732295Y-50628146D01*
X120729302Y-50625550D01*
X120719862Y-50614048D01*
X120590945Y-50488304D01*
X120589438Y-50485290D01*
X120575148Y-50472896D01*
X120554274Y-50452536D01*
X120549294Y-50450473D01*
X120545224Y-50446943D01*
X120518373Y-50434954D01*
X120303751Y-50366097D01*
X120285917Y-50358710D01*
X120278425Y-50357972D01*
X120275414Y-50357006D01*
X120271464Y-50357286D01*
X120256653Y-50355828D01*
X119870246Y-50358710D01*
X119816174Y-50381108D01*
X119774790Y-50422492D01*
X119752392Y-50476564D01*
X119749510Y-50505828D01*
X119582843Y-50505828D01*
X119582843Y-50189161D01*
X122499010Y-50189161D01*
X122499010Y-52322495D01*
G37*
G36*
X21362400Y-16915296D02*
G01*
X21463112Y-17013529D01*
X21516542Y-17116434D01*
X21581760Y-17367782D01*
X21583869Y-17545995D01*
X21523509Y-17796906D01*
X21469626Y-17908910D01*
X21368666Y-18012419D01*
X21213889Y-18065960D01*
X21024230Y-18067375D01*
X21021963Y-16864728D01*
X21200631Y-16863395D01*
X21362400Y-16915296D01*
G37*
G36*
X23710977Y-16906680D02*
G01*
X23749643Y-16943671D01*
X23796317Y-17033568D01*
X23798019Y-17177339D01*
X23755086Y-17266581D01*
X23718095Y-17305246D01*
X23628637Y-17351693D01*
X23448252Y-17352558D01*
X23442688Y-17351577D01*
X23438034Y-17352608D01*
X23237171Y-17353571D01*
X23236250Y-16865120D01*
X23620755Y-16863275D01*
X23710977Y-16906680D01*
G37*
G36*
X24262606Y-18532495D02*
G01*
X20557843Y-18532495D01*
X20557843Y-16715828D01*
X20724510Y-16715828D01*
X20727392Y-18245092D01*
X20749790Y-18299164D01*
X20791174Y-18340548D01*
X20845246Y-18362946D01*
X20874510Y-18365828D01*
X21229702Y-18363178D01*
X21250413Y-18364651D01*
X21257809Y-18362969D01*
X21260917Y-18362946D01*
X21264574Y-18361430D01*
X21279087Y-18358131D01*
X21471650Y-18291518D01*
X21475202Y-18291518D01*
X21493198Y-18284063D01*
X21520224Y-18274715D01*
X21524295Y-18271183D01*
X21529275Y-18269121D01*
X21552005Y-18250466D01*
X21693025Y-18105885D01*
X21707295Y-18093510D01*
X21711295Y-18087154D01*
X21713517Y-18084877D01*
X21715032Y-18081217D01*
X21722960Y-18068624D01*
X21788102Y-17933216D01*
X21795853Y-17922756D01*
X21803696Y-17900801D01*
X21804898Y-17898304D01*
X21804974Y-17897223D01*
X21805746Y-17895065D01*
X21872614Y-17617096D01*
X21878771Y-17602235D01*
X21880559Y-17584069D01*
X21881476Y-17580262D01*
X21881150Y-17578074D01*
X21881653Y-17572971D01*
X21879211Y-17366613D01*
X21881476Y-17351394D01*
X21878818Y-17333423D01*
X21878771Y-17329421D01*
X21877923Y-17327376D01*
X21877174Y-17322305D01*
X21805916Y-17047684D01*
X21804898Y-17033352D01*
X21796509Y-17011428D01*
X21795853Y-17008900D01*
X21795208Y-17008030D01*
X21794389Y-17005888D01*
X21720380Y-16863348D01*
X21713517Y-16846778D01*
X21708780Y-16841006D01*
X21707295Y-16838146D01*
X21704302Y-16835550D01*
X21694862Y-16824048D01*
X21583911Y-16715828D01*
X22224510Y-16715828D01*
X22227392Y-18245092D01*
X22249790Y-18299164D01*
X22291174Y-18340548D01*
X22345246Y-18362946D01*
X22403774Y-18362946D01*
X22457846Y-18340548D01*
X22499230Y-18299164D01*
X22521628Y-18245092D01*
X22524510Y-18215828D01*
X22521683Y-16715828D01*
X22938796Y-16715828D01*
X22941678Y-18245092D01*
X22964076Y-18299164D01*
X23005460Y-18340548D01*
X23059532Y-18362946D01*
X23118060Y-18362946D01*
X23172132Y-18340548D01*
X23213516Y-18299164D01*
X23235914Y-18245092D01*
X23238796Y-18215828D01*
X23237731Y-17650827D01*
X23367204Y-17650206D01*
X23842197Y-18324169D01*
X23891554Y-18355622D01*
X23949190Y-18365793D01*
X24006332Y-18353134D01*
X24054280Y-18319570D01*
X24085733Y-18270213D01*
X24095904Y-18212577D01*
X24083245Y-18155435D01*
X24068824Y-18129809D01*
X23722018Y-17637729D01*
X23727307Y-17635706D01*
X23869848Y-17561697D01*
X23886417Y-17554835D01*
X23892187Y-17550099D01*
X23895050Y-17548613D01*
X23897646Y-17545619D01*
X23909148Y-17536180D01*
X23981049Y-17461024D01*
X23993010Y-17450652D01*
X23996927Y-17444428D01*
X23999232Y-17442020D01*
X24000748Y-17438358D01*
X24008675Y-17425767D01*
X24068581Y-17301241D01*
X24070659Y-17299164D01*
X24077337Y-17283041D01*
X24090613Y-17255446D01*
X24090994Y-17250070D01*
X24093057Y-17245092D01*
X24095939Y-17215828D01*
X24093664Y-17023594D01*
X24094761Y-17020304D01*
X24093398Y-17001125D01*
X24093057Y-16972278D01*
X24090994Y-16967299D01*
X24090613Y-16961924D01*
X24080103Y-16934461D01*
X24006094Y-16791918D01*
X23999231Y-16775349D01*
X23994495Y-16769578D01*
X23993010Y-16766718D01*
X23990018Y-16764123D01*
X23980576Y-16752618D01*
X23905429Y-16680725D01*
X23895050Y-16668758D01*
X23888821Y-16664837D01*
X23886416Y-16662536D01*
X23882759Y-16661021D01*
X23870164Y-16653093D01*
X23745639Y-16593186D01*
X23743561Y-16591108D01*
X23727429Y-16584426D01*
X23699844Y-16571155D01*
X23694469Y-16570773D01*
X23689489Y-16568710D01*
X23660225Y-16565828D01*
X23059532Y-16568710D01*
X23005460Y-16591108D01*
X22964076Y-16632492D01*
X22941678Y-16686564D01*
X22938796Y-16715828D01*
X22521683Y-16715828D01*
X22521628Y-16686564D01*
X22499230Y-16632492D01*
X22457846Y-16591108D01*
X22403774Y-16568710D01*
X22345246Y-16568710D01*
X22291174Y-16591108D01*
X22249790Y-16632492D01*
X22227392Y-16686564D01*
X22224510Y-16715828D01*
X21583911Y-16715828D01*
X21565945Y-16698304D01*
X21564438Y-16695290D01*
X21550148Y-16682896D01*
X21529274Y-16662536D01*
X21524294Y-16660473D01*
X21520224Y-16656943D01*
X21493373Y-16644954D01*
X21278751Y-16576097D01*
X21260917Y-16568710D01*
X21253425Y-16567972D01*
X21250414Y-16567006D01*
X21246464Y-16567286D01*
X21231653Y-16565828D01*
X20845246Y-16568710D01*
X20791174Y-16591108D01*
X20749790Y-16632492D01*
X20727392Y-16686564D01*
X20724510Y-16715828D01*
X20557843Y-16715828D01*
X20557843Y-16399161D01*
X24262606Y-16399161D01*
X24262606Y-18532495D01*
G37*
G36*
X21611691Y-30701680D02*
G01*
X21650357Y-30738671D01*
X21697031Y-30828568D01*
X21698733Y-30972339D01*
X21655800Y-31061581D01*
X21618809Y-31100246D01*
X21529351Y-31146693D01*
X21348966Y-31147558D01*
X21343402Y-31146577D01*
X21338748Y-31147608D01*
X21137885Y-31148571D01*
X21136964Y-30660120D01*
X21521469Y-30658275D01*
X21611691Y-30701680D01*
G37*
G36*
X24874724Y-32327495D02*
G01*
X20672843Y-32327495D01*
X20672843Y-30510828D01*
X20839510Y-30510828D01*
X20842392Y-32040092D01*
X20864790Y-32094164D01*
X20906174Y-32135548D01*
X20960246Y-32157946D01*
X21018774Y-32157946D01*
X21072846Y-32135548D01*
X21114230Y-32094164D01*
X21136628Y-32040092D01*
X21139510Y-32010828D01*
X21138445Y-31445827D01*
X21267918Y-31445206D01*
X21742911Y-32119169D01*
X21792268Y-32150622D01*
X21849904Y-32160793D01*
X21907046Y-32148134D01*
X21954994Y-32114570D01*
X21986447Y-32065213D01*
X21996618Y-32007577D01*
X21983959Y-31950435D01*
X21969538Y-31924809D01*
X21622732Y-31432729D01*
X21628021Y-31430706D01*
X21770562Y-31356697D01*
X21787131Y-31349835D01*
X21792901Y-31345099D01*
X21795764Y-31343613D01*
X21798360Y-31340619D01*
X21809862Y-31331180D01*
X21881763Y-31256024D01*
X21893724Y-31245652D01*
X21897641Y-31239428D01*
X21899946Y-31237020D01*
X21901462Y-31233358D01*
X21909389Y-31220767D01*
X21969295Y-31096241D01*
X21971373Y-31094164D01*
X21978051Y-31078041D01*
X21991327Y-31050446D01*
X21991708Y-31045070D01*
X21993771Y-31040092D01*
X21996653Y-31010828D01*
X21994378Y-30818594D01*
X21995475Y-30815304D01*
X21994112Y-30796125D01*
X21993771Y-30767278D01*
X21991708Y-30762299D01*
X21991327Y-30756924D01*
X21980817Y-30729461D01*
X21906808Y-30586918D01*
X21899945Y-30570349D01*
X21895209Y-30564578D01*
X21893724Y-30561718D01*
X21890732Y-30559123D01*
X21881290Y-30547618D01*
X21842835Y-30510828D01*
X22339510Y-30510828D01*
X22342392Y-32040092D01*
X22364790Y-32094164D01*
X22406174Y-32135548D01*
X22460246Y-32157946D01*
X22489510Y-32160828D01*
X23233060Y-32157946D01*
X23287132Y-32135548D01*
X23328516Y-32094164D01*
X23350914Y-32040092D01*
X23350914Y-31981564D01*
X23328516Y-31927492D01*
X23287132Y-31886108D01*
X23233060Y-31863710D01*
X23203796Y-31860828D01*
X22639231Y-31863016D01*
X22638310Y-31374303D01*
X23018774Y-31372232D01*
X23072846Y-31349834D01*
X23114230Y-31308450D01*
X23136628Y-31254378D01*
X23136628Y-31195850D01*
X23114230Y-31141778D01*
X23072846Y-31100394D01*
X23018774Y-31077996D01*
X22989510Y-31075114D01*
X22637750Y-31077029D01*
X22636964Y-30660256D01*
X23233060Y-30657946D01*
X23287132Y-30635548D01*
X23328516Y-30594164D01*
X23350914Y-30540092D01*
X23350914Y-30510828D01*
X23696653Y-30510828D01*
X23699535Y-32040092D01*
X23721933Y-32094164D01*
X23763317Y-32135548D01*
X23817389Y-32157946D01*
X23875917Y-32157946D01*
X23929989Y-32135548D01*
X23971373Y-32094164D01*
X23993771Y-32040092D01*
X23996653Y-32010828D01*
X23995453Y-31374303D01*
X24375917Y-31372232D01*
X24429989Y-31349834D01*
X24471373Y-31308450D01*
X24493771Y-31254378D01*
X24493771Y-31195850D01*
X24471373Y-31141778D01*
X24429989Y-31100394D01*
X24375917Y-31077996D01*
X24346653Y-31075114D01*
X23994893Y-31077029D01*
X23994107Y-30660256D01*
X24590203Y-30657946D01*
X24644275Y-30635548D01*
X24685659Y-30594164D01*
X24708057Y-30540092D01*
X24708057Y-30481564D01*
X24685659Y-30427492D01*
X24644275Y-30386108D01*
X24590203Y-30363710D01*
X24560939Y-30360828D01*
X23817389Y-30363710D01*
X23763317Y-30386108D01*
X23721933Y-30427492D01*
X23699535Y-30481564D01*
X23696653Y-30510828D01*
X23350914Y-30510828D01*
X23350914Y-30481564D01*
X23328516Y-30427492D01*
X23287132Y-30386108D01*
X23233060Y-30363710D01*
X23203796Y-30360828D01*
X22460246Y-30363710D01*
X22406174Y-30386108D01*
X22364790Y-30427492D01*
X22342392Y-30481564D01*
X22339510Y-30510828D01*
X21842835Y-30510828D01*
X21806143Y-30475725D01*
X21795764Y-30463758D01*
X21789535Y-30459837D01*
X21787130Y-30457536D01*
X21783473Y-30456021D01*
X21770878Y-30448093D01*
X21646353Y-30388186D01*
X21644275Y-30386108D01*
X21628143Y-30379426D01*
X21600558Y-30366155D01*
X21595183Y-30365773D01*
X21590203Y-30363710D01*
X21560939Y-30360828D01*
X20960246Y-30363710D01*
X20906174Y-30386108D01*
X20864790Y-30427492D01*
X20842392Y-30481564D01*
X20839510Y-30510828D01*
X20672843Y-30510828D01*
X20672843Y-30194161D01*
X24874724Y-30194161D01*
X24874724Y-32327495D01*
G37*
D11*
X99775000Y-95477500D03*
D12*
X96950000Y-95277500D03*
X102600000Y-95277500D03*
D11*
X99775000Y-44042500D03*
D12*
X96950000Y-43842500D03*
X102600000Y-43842500D03*
D13*
X96950000Y-92115000D02*
X96950000Y-90049000D01*
X96950000Y-95277500D02*
X96950000Y-92115000D01*
X99775000Y-94070000D02*
X102659000Y-91186000D01*
X102659000Y-91186000D02*
X102659000Y-89916000D01*
X102659000Y-39751000D02*
X102659000Y-38481000D01*
X99775000Y-42635000D02*
X102659000Y-39751000D01*
X96950000Y-43842500D02*
X96950000Y-40680000D01*
X96950000Y-40680000D02*
X96950000Y-38614000D01*
%TA.AperFunction,Conductor*%
G36*
X97218039Y-36024685D02*
G01*
X97263794Y-36077489D01*
X97275000Y-36129000D01*
X97275000Y-39881000D01*
X97255315Y-39948039D01*
X97202511Y-39993794D01*
X97151000Y-40005000D01*
X19899000Y-40005000D01*
X19831961Y-39985315D01*
X19786206Y-39932511D01*
X19775000Y-39881000D01*
X19775000Y-36129000D01*
X19794685Y-36061961D01*
X19847489Y-36016206D01*
X19899000Y-36005000D01*
X97151000Y-36005000D01*
X97218039Y-36024685D01*
G37*
%TD.AperFunction*%
%TA.AperFunction,NonConductor*%
G36*
X99128039Y-29229685D02*
G01*
X99173794Y-29282489D01*
X99185000Y-29334000D01*
X99185000Y-30710000D01*
X103185000Y-30710000D01*
X103185000Y-29334000D01*
X103204685Y-29266961D01*
X103257489Y-29221206D01*
X103309000Y-29210000D01*
X182561000Y-29210000D01*
X182628039Y-29229685D01*
X182673794Y-29282489D01*
X182685000Y-29334000D01*
X182685000Y-33086000D01*
X182665315Y-33153039D01*
X182612511Y-33198794D01*
X182561000Y-33210000D01*
X19809000Y-33210000D01*
X19741961Y-33190315D01*
X19696206Y-33137511D01*
X19685000Y-33086000D01*
X19685000Y-32320398D01*
X20682843Y-32320398D01*
X24867606Y-32320398D01*
X24867606Y-30202423D01*
X20682843Y-30202423D01*
X20682843Y-32320398D01*
X19685000Y-32320398D01*
X19685000Y-29334000D01*
X19704685Y-29266961D01*
X19757489Y-29221206D01*
X19809000Y-29210000D01*
X99061000Y-29210000D01*
X99128039Y-29229685D01*
G37*
%TD.AperFunction*%
%TA.AperFunction,NonConductor*%
G36*
X94013039Y-15434685D02*
G01*
X94058794Y-15487489D01*
X94070000Y-15539000D01*
X94070000Y-16915000D01*
X98070000Y-16915000D01*
X98070000Y-15539000D01*
X98089685Y-15471961D01*
X98142489Y-15426206D01*
X98194000Y-15415000D01*
X172446000Y-15415000D01*
X172513039Y-15434685D01*
X172558794Y-15487489D01*
X172570000Y-15539000D01*
X172570000Y-19291000D01*
X172550315Y-19358039D01*
X172497511Y-19403794D01*
X172446000Y-19415000D01*
X19694000Y-19415000D01*
X19626961Y-19395315D01*
X19581206Y-19342511D01*
X19570000Y-19291000D01*
X19570000Y-18525398D01*
X20567843Y-18525398D01*
X24255509Y-18525398D01*
X24255509Y-16407423D01*
X20567843Y-16407423D01*
X20567843Y-18525398D01*
X19570000Y-18525398D01*
X19570000Y-15539000D01*
X19589685Y-15471961D01*
X19642489Y-15426206D01*
X19694000Y-15415000D01*
X93946000Y-15415000D01*
X94013039Y-15434685D01*
G37*
%TD.AperFunction*%
%TA.AperFunction,Conductor*%
G36*
X179818039Y-36024685D02*
G01*
X179863794Y-36077489D01*
X179875000Y-36129000D01*
X179875000Y-39881000D01*
X179855315Y-39948039D01*
X179802511Y-39993794D01*
X179751000Y-40005000D01*
X102399000Y-40005000D01*
X102331961Y-39985315D01*
X102286206Y-39932511D01*
X102275000Y-39881000D01*
X102275000Y-36129000D01*
X102294685Y-36061961D01*
X102347489Y-36016206D01*
X102399000Y-36005000D01*
X179751000Y-36005000D01*
X179818039Y-36024685D01*
G37*
%TD.AperFunction*%
%TA.AperFunction,NonConductor*%
G36*
X101564039Y-37624685D02*
G01*
X101609794Y-37677489D01*
X101621000Y-37729000D01*
X101621000Y-39381000D01*
X101601315Y-39448039D01*
X101548511Y-39493794D01*
X101497000Y-39505000D01*
X98153000Y-39505000D01*
X98085961Y-39485315D01*
X98040206Y-39432511D01*
X98029000Y-39381000D01*
X98029000Y-37729000D01*
X98048685Y-37661961D01*
X98101489Y-37616206D01*
X98153000Y-37605000D01*
X101497000Y-37605000D01*
X101564039Y-37624685D01*
G37*
%TD.AperFunction*%
%TA.AperFunction,NonConductor*%
G36*
X122538039Y-48724685D02*
G01*
X122583794Y-48777489D01*
X122595000Y-48829000D01*
X122595000Y-49455000D01*
X124345000Y-49455000D01*
X124345000Y-48829000D01*
X124364685Y-48761961D01*
X124417489Y-48716206D01*
X124469000Y-48705000D01*
X189471000Y-48705000D01*
X189538039Y-48724685D01*
X189583794Y-48777489D01*
X189595000Y-48829000D01*
X189595000Y-49455000D01*
X191345000Y-49455000D01*
X191345000Y-48829000D01*
X191364685Y-48761961D01*
X191417489Y-48716206D01*
X191469000Y-48705000D01*
X194460000Y-48705000D01*
X194527039Y-48724685D01*
X194572794Y-48777489D01*
X194584000Y-48829000D01*
X194584000Y-52556000D01*
X194564315Y-52623039D01*
X194511511Y-52668794D01*
X194460000Y-52680000D01*
X102219000Y-52680000D01*
X102151961Y-52660315D01*
X102106206Y-52607511D01*
X102095000Y-52556000D01*
X102095000Y-52314233D01*
X119592843Y-52314233D01*
X122491892Y-52314233D01*
X186592843Y-52314233D01*
X189493630Y-52314233D01*
X189493630Y-50197423D01*
X186592843Y-50197423D01*
X186592843Y-52314233D01*
X122491892Y-52314233D01*
X122491892Y-50196222D01*
X119592843Y-50196222D01*
X119592843Y-52314233D01*
X102095000Y-52314233D01*
X102095000Y-48829000D01*
X102114685Y-48761961D01*
X102167489Y-48716206D01*
X102219000Y-48705000D01*
X122471000Y-48705000D01*
X122538039Y-48724685D01*
G37*
%TD.AperFunction*%
%TA.AperFunction,NonConductor*%
G36*
X101038039Y-48724685D02*
G01*
X101083794Y-48777489D01*
X101095000Y-48829000D01*
X101095000Y-52556000D01*
X101075315Y-52623039D01*
X101022511Y-52668794D01*
X100971000Y-52680000D01*
X98719000Y-52680000D01*
X98651961Y-52660315D01*
X98606206Y-52607511D01*
X98595000Y-52556000D01*
X98595000Y-49579000D01*
X98614685Y-49511961D01*
X98667489Y-49466206D01*
X98719000Y-49455000D01*
X100345000Y-49455000D01*
X100345000Y-48829000D01*
X100364685Y-48761961D01*
X100417489Y-48716206D01*
X100469000Y-48705000D01*
X100971000Y-48705000D01*
X101038039Y-48724685D01*
G37*
%TD.AperFunction*%
%TA.AperFunction,NonConductor*%
G36*
X21288039Y-48724685D02*
G01*
X21333794Y-48777489D01*
X21345000Y-48829000D01*
X21345000Y-49455000D01*
X23095000Y-49455000D01*
X23095000Y-48829000D01*
X23114685Y-48761961D01*
X23167489Y-48716206D01*
X23219000Y-48705000D01*
X97471000Y-48705000D01*
X97538039Y-48724685D01*
X97583794Y-48777489D01*
X97595000Y-48829000D01*
X97595000Y-52556000D01*
X97575315Y-52623039D01*
X97522511Y-52668794D01*
X97471000Y-52680000D01*
X44388590Y-52680000D01*
X44347996Y-52702166D01*
X44321638Y-52705000D01*
X32254362Y-52705000D01*
X32187323Y-52685315D01*
X32180727Y-52680000D01*
X32178000Y-52680000D01*
X19719000Y-52680000D01*
X19651961Y-52660315D01*
X19606206Y-52607511D01*
X19595000Y-52556000D01*
X19595000Y-52366917D01*
X19614685Y-52299878D01*
X19667489Y-52254123D01*
X19736647Y-52244179D01*
X19800203Y-52273204D01*
X19806681Y-52279236D01*
X19842843Y-52315398D01*
X21316223Y-52315398D01*
X21316223Y-52314233D01*
X91592843Y-52314233D01*
X94420463Y-52314233D01*
X94420463Y-50197423D01*
X91592843Y-50197423D01*
X91592843Y-52314233D01*
X21316223Y-52314233D01*
X21316223Y-50197423D01*
X19842843Y-50197423D01*
X19806681Y-50233585D01*
X19745358Y-50267070D01*
X19675666Y-50262086D01*
X19619733Y-50220214D01*
X19595316Y-50154750D01*
X19595000Y-50145904D01*
X19595000Y-48829000D01*
X19614685Y-48761961D01*
X19667489Y-48716206D01*
X19719000Y-48705000D01*
X21221000Y-48705000D01*
X21288039Y-48724685D01*
G37*
%TD.AperFunction*%
%TA.AperFunction,NonConductor*%
G36*
X93998039Y-22244685D02*
G01*
X94043794Y-22297489D01*
X94055000Y-22349000D01*
X94055000Y-23725000D01*
X98055000Y-23725000D01*
X98055000Y-22349000D01*
X98074685Y-22281961D01*
X98127489Y-22236206D01*
X98179000Y-22225000D01*
X172431000Y-22225000D01*
X172498039Y-22244685D01*
X172543794Y-22297489D01*
X172555000Y-22349000D01*
X172555000Y-26101000D01*
X172535315Y-26168039D01*
X172482511Y-26213794D01*
X172431000Y-26225000D01*
X19679000Y-26225000D01*
X19611961Y-26205315D01*
X19566206Y-26152511D01*
X19555000Y-26101000D01*
X19555000Y-25335398D01*
X20552843Y-25335398D01*
X24240509Y-25335398D01*
X24240509Y-23217423D01*
X20552843Y-23217423D01*
X20552843Y-25335398D01*
X19555000Y-25335398D01*
X19555000Y-22349000D01*
X19574685Y-22281961D01*
X19627489Y-22236206D01*
X19679000Y-22225000D01*
X93931000Y-22225000D01*
X93998039Y-22244685D01*
G37*
%TD.AperFunction*%
%TA.AperFunction,NonConductor*%
G36*
X93998039Y-73679685D02*
G01*
X94043794Y-73732489D01*
X94055000Y-73784000D01*
X94055000Y-75160000D01*
X98055000Y-75160000D01*
X98055000Y-73784000D01*
X98074685Y-73716961D01*
X98127489Y-73671206D01*
X98179000Y-73660000D01*
X172431000Y-73660000D01*
X172498039Y-73679685D01*
X172543794Y-73732489D01*
X172555000Y-73784000D01*
X172555000Y-77536000D01*
X172535315Y-77603039D01*
X172482511Y-77648794D01*
X172431000Y-77660000D01*
X19679000Y-77660000D01*
X19611961Y-77640315D01*
X19566206Y-77587511D01*
X19555000Y-77536000D01*
X19555000Y-76770398D01*
X20552843Y-76770398D01*
X24240509Y-76770398D01*
X24240509Y-74652423D01*
X20552843Y-74652423D01*
X20552843Y-76770398D01*
X19555000Y-76770398D01*
X19555000Y-73784000D01*
X19574685Y-73716961D01*
X19627489Y-73671206D01*
X19679000Y-73660000D01*
X93931000Y-73660000D01*
X93998039Y-73679685D01*
G37*
%TD.AperFunction*%
%TA.AperFunction,NonConductor*%
G36*
X122538039Y-100159685D02*
G01*
X122583794Y-100212489D01*
X122595000Y-100264000D01*
X122595000Y-100890000D01*
X124345000Y-100890000D01*
X124345000Y-100264000D01*
X124364685Y-100196961D01*
X124417489Y-100151206D01*
X124469000Y-100140000D01*
X189471000Y-100140000D01*
X189538039Y-100159685D01*
X189583794Y-100212489D01*
X189595000Y-100264000D01*
X189595000Y-100890000D01*
X191345000Y-100890000D01*
X191345000Y-100264000D01*
X191364685Y-100196961D01*
X191417489Y-100151206D01*
X191469000Y-100140000D01*
X194460000Y-100140000D01*
X194527039Y-100159685D01*
X194572794Y-100212489D01*
X194584000Y-100264000D01*
X194584000Y-103991000D01*
X194564315Y-104058039D01*
X194511511Y-104103794D01*
X194460000Y-104115000D01*
X102219000Y-104115000D01*
X102151961Y-104095315D01*
X102106206Y-104042511D01*
X102095000Y-103991000D01*
X102095000Y-103749233D01*
X119592843Y-103749233D01*
X122491892Y-103749233D01*
X186592843Y-103749233D01*
X189493630Y-103749233D01*
X189493630Y-101632423D01*
X186592843Y-101632423D01*
X186592843Y-103749233D01*
X122491892Y-103749233D01*
X122491892Y-101631222D01*
X119592843Y-101631222D01*
X119592843Y-103749233D01*
X102095000Y-103749233D01*
X102095000Y-100264000D01*
X102114685Y-100196961D01*
X102167489Y-100151206D01*
X102219000Y-100140000D01*
X122471000Y-100140000D01*
X122538039Y-100159685D01*
G37*
%TD.AperFunction*%
%TA.AperFunction,NonConductor*%
G36*
X101038039Y-100159685D02*
G01*
X101083794Y-100212489D01*
X101095000Y-100264000D01*
X101095000Y-103991000D01*
X101075315Y-104058039D01*
X101022511Y-104103794D01*
X100971000Y-104115000D01*
X98719000Y-104115000D01*
X98651961Y-104095315D01*
X98606206Y-104042511D01*
X98595000Y-103991000D01*
X98595000Y-101014000D01*
X98614685Y-100946961D01*
X98667489Y-100901206D01*
X98719000Y-100890000D01*
X100345000Y-100890000D01*
X100345000Y-100264000D01*
X100364685Y-100196961D01*
X100417489Y-100151206D01*
X100469000Y-100140000D01*
X100971000Y-100140000D01*
X101038039Y-100159685D01*
G37*
%TD.AperFunction*%
%TA.AperFunction,NonConductor*%
G36*
X21288039Y-100159685D02*
G01*
X21333794Y-100212489D01*
X21345000Y-100264000D01*
X21345000Y-100890000D01*
X23095000Y-100890000D01*
X23095000Y-100264000D01*
X23114685Y-100196961D01*
X23167489Y-100151206D01*
X23219000Y-100140000D01*
X97471000Y-100140000D01*
X97538039Y-100159685D01*
X97583794Y-100212489D01*
X97595000Y-100264000D01*
X97595000Y-103991000D01*
X97575315Y-104058039D01*
X97522511Y-104103794D01*
X97471000Y-104115000D01*
X44388590Y-104115000D01*
X44347996Y-104137166D01*
X44321638Y-104140000D01*
X32254362Y-104140000D01*
X32187323Y-104120315D01*
X32180727Y-104115000D01*
X32178000Y-104115000D01*
X19719000Y-104115000D01*
X19651961Y-104095315D01*
X19606206Y-104042511D01*
X19595000Y-103991000D01*
X19595000Y-103801917D01*
X19614685Y-103734878D01*
X19667489Y-103689123D01*
X19736647Y-103679179D01*
X19800203Y-103708204D01*
X19806681Y-103714236D01*
X19842843Y-103750398D01*
X21316223Y-103750398D01*
X21316223Y-103749233D01*
X91592843Y-103749233D01*
X94420463Y-103749233D01*
X94420463Y-101632423D01*
X91592843Y-101632423D01*
X91592843Y-103749233D01*
X21316223Y-103749233D01*
X21316223Y-101632423D01*
X19842843Y-101632423D01*
X19806681Y-101668585D01*
X19745358Y-101702070D01*
X19675666Y-101697086D01*
X19619733Y-101655214D01*
X19595316Y-101589750D01*
X19595000Y-101580904D01*
X19595000Y-100264000D01*
X19614685Y-100196961D01*
X19667489Y-100151206D01*
X19719000Y-100140000D01*
X21221000Y-100140000D01*
X21288039Y-100159685D01*
G37*
%TD.AperFunction*%
%TA.AperFunction,Conductor*%
G36*
X179818039Y-87459685D02*
G01*
X179863794Y-87512489D01*
X179875000Y-87564000D01*
X179875000Y-91316000D01*
X179855315Y-91383039D01*
X179802511Y-91428794D01*
X179751000Y-91440000D01*
X102399000Y-91440000D01*
X102331961Y-91420315D01*
X102286206Y-91367511D01*
X102275000Y-91316000D01*
X102275000Y-87564000D01*
X102294685Y-87496961D01*
X102347489Y-87451206D01*
X102399000Y-87440000D01*
X179751000Y-87440000D01*
X179818039Y-87459685D01*
G37*
%TD.AperFunction*%
%TA.AperFunction,NonConductor*%
G36*
X101564039Y-89059685D02*
G01*
X101609794Y-89112489D01*
X101621000Y-89164000D01*
X101621000Y-90816000D01*
X101601315Y-90883039D01*
X101548511Y-90928794D01*
X101497000Y-90940000D01*
X98153000Y-90940000D01*
X98085961Y-90920315D01*
X98040206Y-90867511D01*
X98029000Y-90816000D01*
X98029000Y-89164000D01*
X98048685Y-89096961D01*
X98101489Y-89051206D01*
X98153000Y-89040000D01*
X101497000Y-89040000D01*
X101564039Y-89059685D01*
G37*
%TD.AperFunction*%
%TA.AperFunction,NonConductor*%
G36*
X94013039Y-66869685D02*
G01*
X94058794Y-66922489D01*
X94070000Y-66974000D01*
X94070000Y-68350000D01*
X98070000Y-68350000D01*
X98070000Y-66974000D01*
X98089685Y-66906961D01*
X98142489Y-66861206D01*
X98194000Y-66850000D01*
X172446000Y-66850000D01*
X172513039Y-66869685D01*
X172558794Y-66922489D01*
X172570000Y-66974000D01*
X172570000Y-70726000D01*
X172550315Y-70793039D01*
X172497511Y-70838794D01*
X172446000Y-70850000D01*
X19694000Y-70850000D01*
X19626961Y-70830315D01*
X19581206Y-70777511D01*
X19570000Y-70726000D01*
X19570000Y-69960398D01*
X20567843Y-69960398D01*
X24255509Y-69960398D01*
X24255509Y-67842423D01*
X20567843Y-67842423D01*
X20567843Y-69960398D01*
X19570000Y-69960398D01*
X19570000Y-66974000D01*
X19589685Y-66906961D01*
X19642489Y-66861206D01*
X19694000Y-66850000D01*
X93946000Y-66850000D01*
X94013039Y-66869685D01*
G37*
%TD.AperFunction*%
%TA.AperFunction,NonConductor*%
G36*
X99128039Y-80664685D02*
G01*
X99173794Y-80717489D01*
X99185000Y-80769000D01*
X99185000Y-82145000D01*
X103185000Y-82145000D01*
X103185000Y-80769000D01*
X103204685Y-80701961D01*
X103257489Y-80656206D01*
X103309000Y-80645000D01*
X182561000Y-80645000D01*
X182628039Y-80664685D01*
X182673794Y-80717489D01*
X182685000Y-80769000D01*
X182685000Y-84521000D01*
X182665315Y-84588039D01*
X182612511Y-84633794D01*
X182561000Y-84645000D01*
X19809000Y-84645000D01*
X19741961Y-84625315D01*
X19696206Y-84572511D01*
X19685000Y-84521000D01*
X19685000Y-83755398D01*
X20682843Y-83755398D01*
X24867606Y-83755398D01*
X24867606Y-81637423D01*
X20682843Y-81637423D01*
X20682843Y-83755398D01*
X19685000Y-83755398D01*
X19685000Y-80769000D01*
X19704685Y-80701961D01*
X19757489Y-80656206D01*
X19809000Y-80645000D01*
X99061000Y-80645000D01*
X99128039Y-80664685D01*
G37*
%TD.AperFunction*%
%TA.AperFunction,Conductor*%
G36*
X97218039Y-87459685D02*
G01*
X97263794Y-87512489D01*
X97275000Y-87564000D01*
X97275000Y-91316000D01*
X97255315Y-91383039D01*
X97202511Y-91428794D01*
X97151000Y-91440000D01*
X19899000Y-91440000D01*
X19831961Y-91420315D01*
X19786206Y-91367511D01*
X19775000Y-91316000D01*
X19775000Y-87564000D01*
X19794685Y-87496961D01*
X19847489Y-87451206D01*
X19899000Y-87440000D01*
X97151000Y-87440000D01*
X97218039Y-87459685D01*
G37*
%TD.AperFunction*%
M02*
