G04 #@! TF.GenerationSoftware,KiCad,Pcbnew,8.0.1*
G04 #@! TF.CreationDate,2024-06-04T12:50:10-04:00*
G04 #@! TF.ProjectId,node_v3_1,6e6f6465-5f76-4335-9f31-2e6b69636164,rev?*
G04 #@! TF.SameCoordinates,Original*
G04 #@! TF.FileFunction,Paste,Top*
G04 #@! TF.FilePolarity,Positive*
%FSLAX46Y46*%
G04 Gerber Fmt 4.6, Leading zero omitted, Abs format (unit mm)*
G04 Created by KiCad (PCBNEW 8.0.1) date 2024-06-04 12:50:10*
%MOMM*%
%LPD*%
G01*
G04 APERTURE LIST*
G04 Aperture macros list*
%AMRoundRect*
0 Rectangle with rounded corners*
0 $1 Rounding radius*
0 $2 $3 $4 $5 $6 $7 $8 $9 X,Y pos of 4 corners*
0 Add a 4 corners polygon primitive as box body*
4,1,4,$2,$3,$4,$5,$6,$7,$8,$9,$2,$3,0*
0 Add four circle primitives for the rounded corners*
1,1,$1+$1,$2,$3*
1,1,$1+$1,$4,$5*
1,1,$1+$1,$6,$7*
1,1,$1+$1,$8,$9*
0 Add four rect primitives between the rounded corners*
20,1,$1+$1,$2,$3,$4,$5,0*
20,1,$1+$1,$4,$5,$6,$7,0*
20,1,$1+$1,$6,$7,$8,$9,0*
20,1,$1+$1,$8,$9,$2,$3,0*%
G04 Aperture macros list end*
%ADD10RoundRect,0.250000X-0.450000X0.350000X-0.450000X-0.350000X0.450000X-0.350000X0.450000X0.350000X0*%
%ADD11RoundRect,0.270000X-0.630000X-0.930000X0.630000X-0.930000X0.630000X0.930000X-0.630000X0.930000X0*%
%ADD12R,1.270000X0.558800*%
%ADD13RoundRect,0.250000X0.350000X0.450000X-0.350000X0.450000X-0.350000X-0.450000X0.350000X-0.450000X0*%
%ADD14RoundRect,0.140000X-0.170000X0.140000X-0.170000X-0.140000X0.170000X-0.140000X0.170000X0.140000X0*%
%ADD15RoundRect,0.250000X0.475000X-0.337500X0.475000X0.337500X-0.475000X0.337500X-0.475000X-0.337500X0*%
%ADD16RoundRect,0.150000X0.512500X0.150000X-0.512500X0.150000X-0.512500X-0.150000X0.512500X-0.150000X0*%
%ADD17RoundRect,0.155000X0.155000X-0.212500X0.155000X0.212500X-0.155000X0.212500X-0.155000X-0.212500X0*%
%ADD18RoundRect,0.249999X-0.395001X-0.395001X0.395001X-0.395001X0.395001X0.395001X-0.395001X0.395001X0*%
%ADD19RoundRect,0.050000X-0.387500X-0.050000X0.387500X-0.050000X0.387500X0.050000X-0.387500X0.050000X0*%
%ADD20RoundRect,0.050000X-0.050000X-0.387500X0.050000X-0.387500X0.050000X0.387500X-0.050000X0.387500X0*%
%ADD21RoundRect,0.250000X-0.475000X0.337500X-0.475000X-0.337500X0.475000X-0.337500X0.475000X0.337500X0*%
%ADD22RoundRect,0.150000X0.150000X-0.825000X0.150000X0.825000X-0.150000X0.825000X-0.150000X-0.825000X0*%
%ADD23RoundRect,0.150000X-0.512500X-0.150000X0.512500X-0.150000X0.512500X0.150000X-0.512500X0.150000X0*%
%ADD24R,0.558800X0.952500*%
%ADD25RoundRect,0.250000X-0.350000X-0.450000X0.350000X-0.450000X0.350000X0.450000X-0.350000X0.450000X0*%
%ADD26RoundRect,0.237500X-0.237500X0.300000X-0.237500X-0.300000X0.237500X-0.300000X0.237500X0.300000X0*%
%ADD27RoundRect,0.250001X0.462499X0.624999X-0.462499X0.624999X-0.462499X-0.624999X0.462499X-0.624999X0*%
%ADD28R,0.850000X1.100000*%
%ADD29R,0.750000X1.100000*%
%ADD30R,1.200000X1.000000*%
%ADD31R,1.550000X1.350000*%
%ADD32R,1.900000X1.350000*%
%ADD33R,1.170000X1.800000*%
%ADD34RoundRect,0.317500X-1.157500X-0.317500X1.157500X-0.317500X1.157500X0.317500X-1.157500X0.317500X0*%
%ADD35RoundRect,0.250000X0.337500X0.475000X-0.337500X0.475000X-0.337500X-0.475000X0.337500X-0.475000X0*%
%ADD36R,0.600000X1.140000*%
%ADD37R,0.300000X1.140000*%
%ADD38RoundRect,0.250001X0.849999X-0.462499X0.849999X0.462499X-0.849999X0.462499X-0.849999X-0.462499X0*%
%ADD39RoundRect,0.150000X0.150000X-0.650000X0.150000X0.650000X-0.150000X0.650000X-0.150000X-0.650000X0*%
%ADD40RoundRect,0.250000X-0.337500X-0.475000X0.337500X-0.475000X0.337500X0.475000X-0.337500X0.475000X0*%
%ADD41RoundRect,0.250000X0.450000X-0.350000X0.450000X0.350000X-0.450000X0.350000X-0.450000X-0.350000X0*%
%ADD42RoundRect,0.155000X0.212500X0.155000X-0.212500X0.155000X-0.212500X-0.155000X0.212500X-0.155000X0*%
%ADD43RoundRect,0.155000X-0.212500X-0.155000X0.212500X-0.155000X0.212500X0.155000X-0.212500X0.155000X0*%
%ADD44R,1.168400X1.600200*%
G04 APERTURE END LIST*
D10*
X160500000Y-108500000D03*
X160500000Y-110500000D03*
X158500000Y-108500000D03*
X158500000Y-110500000D03*
D11*
X144676500Y-86436000D03*
X140976500Y-86436000D03*
D12*
X161772600Y-67233800D03*
X161772600Y-65354200D03*
X164363400Y-65354200D03*
X164363400Y-66294000D03*
X164363400Y-67233800D03*
D13*
X166608000Y-69850000D03*
X164608000Y-69850000D03*
D14*
X150500000Y-108040000D03*
X150500000Y-109000000D03*
D13*
X141986000Y-61722000D03*
X139986000Y-61722000D03*
D10*
X144056000Y-67072000D03*
X144056000Y-69072000D03*
D15*
X131318000Y-72665500D03*
X131318000Y-70590500D03*
D16*
X159401000Y-82484000D03*
X159401000Y-81534000D03*
X159401000Y-80584000D03*
X157126000Y-80584000D03*
X157126000Y-82484000D03*
D17*
X148374000Y-73525000D03*
X148374000Y-72390000D03*
X138430000Y-72995500D03*
X138430000Y-71860500D03*
X135890000Y-72995500D03*
X135890000Y-71860500D03*
D18*
X142418000Y-78664000D03*
X142418000Y-80264000D03*
X144018000Y-78664000D03*
X144018000Y-80264000D03*
D19*
X139780500Y-76864000D03*
X139780500Y-77264000D03*
X139780500Y-77664000D03*
X139780500Y-78064000D03*
X139780500Y-78464000D03*
X139780500Y-78864000D03*
X139780500Y-79264000D03*
X139780500Y-79664000D03*
X139780500Y-80064000D03*
X139780500Y-80464000D03*
X139780500Y-80864000D03*
X139780500Y-81264000D03*
X139780500Y-81664000D03*
X139780500Y-82064000D03*
D20*
X140618000Y-82901500D03*
X141018000Y-82901500D03*
X141418000Y-82901500D03*
X141818000Y-82901500D03*
X142218000Y-82901500D03*
X142618000Y-82901500D03*
X143018000Y-82901500D03*
X143418000Y-82901500D03*
X143818000Y-82901500D03*
X144218000Y-82901500D03*
X144618000Y-82901500D03*
X145018000Y-82901500D03*
X145418000Y-82901500D03*
X145818000Y-82901500D03*
D19*
X146655500Y-82064000D03*
X146655500Y-81664000D03*
X146655500Y-81264000D03*
X146655500Y-80864000D03*
X146655500Y-80464000D03*
X146655500Y-80064000D03*
X146655500Y-79664000D03*
X146655500Y-79264000D03*
X146655500Y-78864000D03*
X146655500Y-78464000D03*
X146655500Y-78064000D03*
X146655500Y-77664000D03*
X146655500Y-77264000D03*
X146655500Y-76864000D03*
D20*
X145818000Y-76026500D03*
X145418000Y-76026500D03*
X145018000Y-76026500D03*
X144618000Y-76026500D03*
X144218000Y-76026500D03*
X143818000Y-76026500D03*
X143418000Y-76026500D03*
X143018000Y-76026500D03*
X142618000Y-76026500D03*
X142218000Y-76026500D03*
X141818000Y-76026500D03*
X141418000Y-76026500D03*
X141018000Y-76026500D03*
X140618000Y-76026500D03*
D21*
X137160000Y-77870000D03*
X137160000Y-79945000D03*
D10*
X156500000Y-110500000D03*
X156500000Y-108500000D03*
D22*
X131191000Y-80388000D03*
X132461000Y-80388000D03*
X133731000Y-80388000D03*
X135001000Y-80388000D03*
X135001000Y-75438000D03*
X133731000Y-75438000D03*
X132461000Y-75438000D03*
X131191000Y-75438000D03*
D10*
X152500000Y-108500000D03*
X152500000Y-110500000D03*
D21*
X159258000Y-65256500D03*
X159258000Y-67331500D03*
D23*
X157480000Y-93218000D03*
X157480000Y-94168000D03*
X157480000Y-95118000D03*
X159755000Y-95118000D03*
X159755000Y-94168000D03*
X159755000Y-93218000D03*
D17*
X137160000Y-72995500D03*
X137160000Y-71860500D03*
D10*
X154500000Y-108490000D03*
X154500000Y-110490000D03*
D24*
X154523683Y-63360576D03*
X154523683Y-69723276D03*
X150815283Y-63360576D03*
X150815283Y-69723276D03*
D25*
X156496000Y-103124000D03*
X158496000Y-103124000D03*
D21*
X162327500Y-80475000D03*
X162327500Y-82550000D03*
X166624000Y-65256500D03*
X166624000Y-67331500D03*
D17*
X140970000Y-72995500D03*
X140970000Y-71860500D03*
D25*
X147000000Y-95000000D03*
X149000000Y-95000000D03*
D17*
X137160000Y-63305500D03*
X137160000Y-62170500D03*
X149644000Y-73525000D03*
X149644000Y-72390000D03*
D26*
X131343400Y-87275500D03*
X131343400Y-89000500D03*
D21*
X154675000Y-92921000D03*
X154675000Y-94996000D03*
D27*
X168402000Y-61722000D03*
X165427000Y-61722000D03*
D24*
X154500000Y-53137300D03*
X154500000Y-59500000D03*
X150791600Y-53137300D03*
X150791600Y-59500000D03*
D25*
X159528000Y-69850000D03*
X161528000Y-69850000D03*
D10*
X146850000Y-65316000D03*
X146850000Y-67316000D03*
D28*
X160077000Y-125338000D03*
X158977000Y-125338000D03*
X157877000Y-125338000D03*
X156777000Y-125338000D03*
X155677000Y-125338000D03*
X154577000Y-125338000D03*
X153477000Y-125338000D03*
D29*
X152427000Y-125338000D03*
D30*
X162712000Y-119188000D03*
X162712000Y-115488000D03*
D31*
X162537000Y-125213000D03*
D32*
X159212000Y-114513000D03*
X153242000Y-114513000D03*
D33*
X151217000Y-124988000D03*
D34*
X132754000Y-101110000D03*
X132754000Y-103110000D03*
X132754000Y-105110000D03*
X132754000Y-107110000D03*
X132754000Y-109110000D03*
X132754000Y-111110000D03*
X132754000Y-113110000D03*
X132754000Y-115110000D03*
X147804000Y-115110000D03*
X147804000Y-113110000D03*
X147804000Y-111110000D03*
X147804000Y-109110000D03*
X147804000Y-107110000D03*
X147804000Y-105110000D03*
X147804000Y-103110000D03*
X147804000Y-101110000D03*
D21*
X163000000Y-108462500D03*
X163000000Y-110537500D03*
D35*
X159798000Y-89916000D03*
X157723000Y-89916000D03*
D15*
X146596000Y-73233000D03*
X146596000Y-71158000D03*
D17*
X139700000Y-72995500D03*
X139700000Y-71860500D03*
D21*
X162295000Y-93175000D03*
X162295000Y-95250000D03*
D36*
X146202000Y-58000000D03*
X145402000Y-58000000D03*
D37*
X144252000Y-58000000D03*
X143252000Y-58000000D03*
X142752000Y-58000000D03*
X141752000Y-58000000D03*
D36*
X139802000Y-58000000D03*
X140602000Y-58000000D03*
D37*
X141252000Y-58000000D03*
X142252000Y-58000000D03*
X143752000Y-58000000D03*
X144752000Y-58000000D03*
D38*
X153691500Y-82843000D03*
X153691500Y-80518000D03*
D14*
X165000000Y-109248000D03*
X165000000Y-110208000D03*
D39*
X131318000Y-67564000D03*
X132588000Y-67564000D03*
X133858000Y-67564000D03*
X135128000Y-67564000D03*
X135128000Y-60364000D03*
X133858000Y-60364000D03*
X132588000Y-60364000D03*
X131318000Y-60364000D03*
D40*
X157204500Y-78232000D03*
X159279500Y-78232000D03*
D26*
X134391400Y-87275500D03*
X134391400Y-89000500D03*
D17*
X133350000Y-72995500D03*
X133350000Y-71860500D03*
D23*
X160793000Y-101224000D03*
X160793000Y-103124000D03*
X163068000Y-102174000D03*
D10*
X142024000Y-67056000D03*
X142024000Y-69056000D03*
D41*
X136652000Y-57896000D03*
X136652000Y-55896000D03*
D42*
X147567500Y-86436000D03*
X146432500Y-86436000D03*
D43*
X137931500Y-86436000D03*
X139066500Y-86436000D03*
D41*
X138684000Y-66278000D03*
X138684000Y-64278000D03*
D44*
X131445000Y-84074000D03*
X134289800Y-84074000D03*
D10*
X146850000Y-61506000D03*
X146850000Y-63506000D03*
D17*
X134620000Y-72995500D03*
X134620000Y-71860500D03*
M02*
