%TF.GenerationSoftware,KiCad,Pcbnew,8.0.1*%
%TF.CreationDate,2024-06-04T12:50:24-04:00*%
%TF.ProjectId,node_v3_1,6e6f6465-5f76-4335-9f31-2e6b69636164,rev?*%
%TF.SameCoordinates,Original*%
%TF.FileFunction,Drillmap*%
%TF.FilePolarity,Positive*%
%FSLAX45Y45*%
G04 Gerber Fmt 4.5, Leading zero omitted, Abs format (unit mm)*
G04 Created by KiCad (PCBNEW 8.0.1) date 2024-06-04 12:50:24*
%MOMM*%
%LPD*%
G01*
G04 APERTURE LIST*
%ADD10C,0.050000*%
%ADD11C,0.200000*%
%ADD12C,0.100000*%
%ADD13C,0.220000*%
G04 APERTURE END LIST*
D10*
X12700000Y-12300000D02*
X12700000Y-5480000D01*
X13100000Y-12700000D02*
G75*
G02*
X12700000Y-12300000I0J400000D01*
G01*
X16872000Y-5080000D02*
G75*
G02*
X17272000Y-5480000I0J-400000D01*
G01*
X13100000Y-5080000D02*
X16872000Y-5080000D01*
X17272000Y-12300000D02*
G75*
G02*
X16872000Y-12700000I-400000J0D01*
G01*
X17272000Y-5480000D02*
X17272000Y-12300000D01*
X16872000Y-12700000D02*
X13100000Y-12700000D01*
X12700000Y-5480000D02*
G75*
G02*
X13100000Y-5080000I400000J0D01*
G01*
D11*
D12*
X12942500Y-10192500D02*
X12957500Y-10207500D01*
X12957500Y-10192500D02*
X12942500Y-10207500D01*
X12942500Y-10442500D02*
X12957500Y-10457500D01*
X12957500Y-10442500D02*
X12942500Y-10457500D01*
X12942500Y-10642500D02*
X12957500Y-10657500D01*
X12957500Y-10642500D02*
X12942500Y-10657500D01*
X12942500Y-10842500D02*
X12957500Y-10857500D01*
X12957500Y-10842500D02*
X12942500Y-10857500D01*
X12942500Y-11042500D02*
X12957500Y-11057500D01*
X12957500Y-11042500D02*
X12942500Y-11057500D01*
X13092500Y-7792500D02*
X13107500Y-7807500D01*
X13107500Y-7792500D02*
X13092500Y-7807500D01*
X13142500Y-6892500D02*
X13157500Y-6907500D01*
X13157500Y-6892500D02*
X13142500Y-6907500D01*
X13242500Y-6242500D02*
X13257500Y-6257500D01*
X13257500Y-6242500D02*
X13242500Y-6257500D01*
X13292500Y-7042500D02*
X13307500Y-7057500D01*
X13307500Y-7042500D02*
X13292500Y-7057500D01*
X13292500Y-7742500D02*
X13307500Y-7757500D01*
X13307500Y-7742500D02*
X13292500Y-7757500D01*
X13392500Y-6242500D02*
X13407500Y-6257500D01*
X13407500Y-6242500D02*
X13392500Y-6257500D01*
X13392500Y-7042500D02*
X13407500Y-7057500D01*
X13407500Y-7042500D02*
X13392500Y-7057500D01*
X13392500Y-7742500D02*
X13407500Y-7757500D01*
X13407500Y-7742500D02*
X13392500Y-7757500D01*
X13492500Y-7692500D02*
X13507500Y-7707500D01*
X13507500Y-7692500D02*
X13492500Y-7707500D01*
X13542500Y-6292500D02*
X13557500Y-6307500D01*
X13557500Y-6292500D02*
X13542500Y-6307500D01*
X13592500Y-8192500D02*
X13607500Y-8207500D01*
X13607500Y-8192500D02*
X13592500Y-8207500D01*
X13792500Y-8292500D02*
X13807500Y-8307500D01*
X13807500Y-8292500D02*
X13792500Y-8307500D01*
X13822244Y-7842500D02*
X13837244Y-7857500D01*
X13837244Y-7842500D02*
X13822244Y-7857500D01*
X13842500Y-7942500D02*
X13857500Y-7957500D01*
X13857500Y-7942500D02*
X13842500Y-7957500D01*
X13852828Y-7782172D02*
X13867828Y-7797172D01*
X13867828Y-7782172D02*
X13852828Y-7797172D01*
X13892500Y-7592500D02*
X13907500Y-7607500D01*
X13907500Y-7592500D02*
X13892500Y-7607500D01*
X13892500Y-8392500D02*
X13907500Y-8407500D01*
X13907500Y-8392500D02*
X13892500Y-8407500D01*
X13992500Y-6392500D02*
X14007500Y-6407500D01*
X14007500Y-6392500D02*
X13992500Y-6407500D01*
X13992500Y-7492500D02*
X14007500Y-7507500D01*
X14007500Y-7492500D02*
X13992500Y-7507500D01*
X13992500Y-8392500D02*
X14007500Y-8407500D01*
X14007500Y-8392500D02*
X13992500Y-8407500D01*
X14060124Y-7487826D02*
X14075124Y-7502826D01*
X14075124Y-7487826D02*
X14060124Y-7502826D01*
X14064069Y-7920233D02*
X14079069Y-7935233D01*
X14079069Y-7920233D02*
X14064069Y-7935233D01*
X14128479Y-7480231D02*
X14143479Y-7495231D01*
X14143479Y-7480231D02*
X14128479Y-7495231D01*
X14142500Y-8392500D02*
X14157500Y-8407500D01*
X14157500Y-8392500D02*
X14142500Y-8407500D01*
X14192500Y-5992500D02*
X14207500Y-6007500D01*
X14207500Y-5992500D02*
X14192500Y-6007500D01*
X14192500Y-7492500D02*
X14207500Y-7507500D01*
X14207500Y-7492500D02*
X14192500Y-7507500D01*
X14192500Y-7692500D02*
X14207500Y-7707500D01*
X14207500Y-7692500D02*
X14192500Y-7707500D01*
X14192500Y-8192500D02*
X14207500Y-8207500D01*
X14207500Y-8192500D02*
X14192500Y-8207500D01*
X14192500Y-8442500D02*
X14207500Y-8457500D01*
X14207500Y-8442500D02*
X14192500Y-8457500D01*
X14265072Y-7717469D02*
X14280072Y-7732469D01*
X14280072Y-7717469D02*
X14265072Y-7732469D01*
X14392500Y-8442500D02*
X14407500Y-8457500D01*
X14407500Y-8442500D02*
X14392500Y-8457500D01*
X14432716Y-8985053D02*
X14447716Y-9000053D01*
X14447716Y-8985053D02*
X14432716Y-9000053D01*
X14442500Y-7692500D02*
X14457500Y-7707500D01*
X14457500Y-7692500D02*
X14442500Y-7707500D01*
X14492500Y-8192500D02*
X14507500Y-8207500D01*
X14507500Y-8192500D02*
X14492500Y-8207500D01*
X14492500Y-8442500D02*
X14507500Y-8457500D01*
X14507500Y-8442500D02*
X14492500Y-8457500D01*
X14542500Y-9042500D02*
X14557500Y-9057500D01*
X14557500Y-9042500D02*
X14542500Y-9057500D01*
X14560217Y-8195883D02*
X14575217Y-8210883D01*
X14575217Y-8195883D02*
X14560217Y-8210883D01*
X14592500Y-8892500D02*
X14607500Y-8907500D01*
X14607500Y-8892500D02*
X14592500Y-8907500D01*
X14742500Y-6442500D02*
X14757500Y-6457500D01*
X14757500Y-6442500D02*
X14742500Y-6457500D01*
X14742500Y-7942500D02*
X14757500Y-7957500D01*
X14757500Y-7942500D02*
X14742500Y-7957500D01*
X14742500Y-8242500D02*
X14757500Y-8257500D01*
X14757500Y-8242500D02*
X14742500Y-8257500D01*
X14742500Y-8992500D02*
X14757500Y-9007500D01*
X14757500Y-8992500D02*
X14742500Y-9007500D01*
X14742500Y-9669900D02*
X14757500Y-9684900D01*
X14757500Y-9669900D02*
X14742500Y-9684900D01*
X14792500Y-7692500D02*
X14807500Y-7707500D01*
X14807500Y-7692500D02*
X14792500Y-7707500D01*
X14792500Y-7992500D02*
X14807500Y-8007500D01*
X14807500Y-7992500D02*
X14792500Y-8007500D01*
X14792500Y-8342500D02*
X14807500Y-8357500D01*
X14807500Y-8342500D02*
X14792500Y-8357500D01*
X14842500Y-8092500D02*
X14857500Y-8107500D01*
X14857500Y-8092500D02*
X14842500Y-8107500D01*
X14842500Y-8242500D02*
X14857500Y-8257500D01*
X14857500Y-8242500D02*
X14842500Y-8257500D01*
X14867500Y-7967500D02*
X14882500Y-7982500D01*
X14882500Y-7967500D02*
X14867500Y-7982500D01*
X14892500Y-8192500D02*
X14907500Y-8207500D01*
X14907500Y-8192500D02*
X14892500Y-8207500D01*
X14892500Y-8892500D02*
X14907500Y-8907500D01*
X14907500Y-8892500D02*
X14892500Y-8907500D01*
X14992500Y-6092500D02*
X15007500Y-6107500D01*
X15007500Y-6092500D02*
X14992500Y-6107500D01*
X14992500Y-8642500D02*
X15007500Y-8657500D01*
X15007500Y-8642500D02*
X14992500Y-8657500D01*
X14992500Y-8942500D02*
X15007500Y-8957500D01*
X15007500Y-8942500D02*
X14992500Y-8957500D01*
X15053628Y-9628697D02*
X15068628Y-9643697D01*
X15068628Y-9628697D02*
X15053628Y-9643697D01*
X15058349Y-8507674D02*
X15073349Y-8522674D01*
X15073349Y-8507674D02*
X15058349Y-8522674D01*
X15242500Y-8942500D02*
X15257500Y-8957500D01*
X15257500Y-8942500D02*
X15242500Y-8957500D01*
X15242500Y-12242500D02*
X15257500Y-12257500D01*
X15257500Y-12242500D02*
X15242500Y-12257500D01*
X15292500Y-9392500D02*
X15307500Y-9407500D01*
X15307500Y-9392500D02*
X15292500Y-9407500D01*
X15392500Y-9792500D02*
X15407500Y-9807500D01*
X15407500Y-9792500D02*
X15392500Y-9807500D01*
X15392500Y-10542500D02*
X15407500Y-10557500D01*
X15407500Y-10542500D02*
X15392500Y-10557500D01*
X15442500Y-10142500D02*
X15457500Y-10157500D01*
X15457500Y-10142500D02*
X15442500Y-10157500D01*
X15542500Y-8742500D02*
X15557500Y-8757500D01*
X15557500Y-8742500D02*
X15542500Y-8757500D01*
X15542500Y-12192500D02*
X15557500Y-12207500D01*
X15557500Y-12192500D02*
X15542500Y-12207500D01*
X15692500Y-9692500D02*
X15707500Y-9707500D01*
X15707500Y-9692500D02*
X15692500Y-9707500D01*
X15692500Y-11792500D02*
X15707500Y-11807500D01*
X15707500Y-11792500D02*
X15692500Y-11807500D01*
X15992500Y-10692500D02*
X16007500Y-10707500D01*
X16007500Y-10692500D02*
X15992500Y-10707500D01*
X16042500Y-11242500D02*
X16057500Y-11257500D01*
X16057500Y-11242500D02*
X16042500Y-11257500D01*
X16642500Y-9492500D02*
X16657500Y-9507500D01*
X16657500Y-9492500D02*
X16642500Y-9507500D01*
X14310360Y-5486400D02*
G75*
G02*
X14290040Y-5486400I-10160J0D01*
G01*
X14290040Y-5486400D02*
G75*
G02*
X14310360Y-5486400I10160J0D01*
G01*
X14610160Y-7450000D02*
G75*
G02*
X14589840Y-7450000I-10160J0D01*
G01*
X14589840Y-7450000D02*
G75*
G02*
X14610160Y-7450000I10160J0D01*
G01*
X15310160Y-11250000D02*
G75*
G02*
X15289840Y-11250000I-10160J0D01*
G01*
X15289840Y-11250000D02*
G75*
G02*
X15310160Y-11250000I10160J0D01*
G01*
X15462060Y-11350000D02*
G75*
G02*
X15441740Y-11350000I-10160J0D01*
G01*
X15441740Y-11350000D02*
G75*
G02*
X15462060Y-11350000I10160J0D01*
G01*
X15656560Y-9423400D02*
G75*
G02*
X15636240Y-9423400I-10160J0D01*
G01*
X15636240Y-9423400D02*
G75*
G02*
X15656560Y-9423400I10160J0D01*
G01*
X15760160Y-11300000D02*
G75*
G02*
X15739840Y-11300000I-10160J0D01*
G01*
X15739840Y-11300000D02*
G75*
G02*
X15760160Y-11300000I10160J0D01*
G01*
X15810160Y-12250000D02*
G75*
G02*
X15789840Y-12250000I-10160J0D01*
G01*
X15789840Y-12250000D02*
G75*
G02*
X15810160Y-12250000I10160J0D01*
G01*
X15910160Y-11250000D02*
G75*
G02*
X15889840Y-11250000I-10160J0D01*
G01*
X15889840Y-11250000D02*
G75*
G02*
X15910160Y-11250000I10160J0D01*
G01*
X15910160Y-12350000D02*
G75*
G02*
X15889840Y-12350000I-10160J0D01*
G01*
X15889840Y-12350000D02*
G75*
G02*
X15910160Y-12350000I10160J0D01*
G01*
X16010160Y-12400000D02*
G75*
G02*
X15989840Y-12400000I-10160J0D01*
G01*
X15989840Y-12400000D02*
G75*
G02*
X16010160Y-12400000I10160J0D01*
G01*
X14224000Y-7835900D02*
X14224000Y-7861300D01*
X14211300Y-7848600D02*
X14236700Y-7848600D01*
X14224000Y-7937500D02*
X14224000Y-7962900D01*
X14211300Y-7950200D02*
X14236700Y-7950200D01*
X14224000Y-8013700D02*
X14224000Y-8039100D01*
X14211300Y-8026400D02*
X14236700Y-8026400D01*
X14325600Y-7835900D02*
X14325600Y-7861300D01*
X14312900Y-7848600D02*
X14338300Y-7848600D01*
X14325600Y-7937500D02*
X14325600Y-7962900D01*
X14312900Y-7950200D02*
X14338300Y-7950200D01*
X14325600Y-8013700D02*
X14325600Y-8039100D01*
X14312900Y-8026400D02*
X14338300Y-8026400D01*
X14427200Y-7835900D02*
X14427200Y-7861300D01*
X14414500Y-7848600D02*
X14439900Y-7848600D01*
X14427200Y-7937500D02*
X14427200Y-7962900D01*
X14414500Y-7950200D02*
X14439900Y-7950200D01*
X14427200Y-8013700D02*
X14427200Y-8039100D01*
X14414500Y-8026400D02*
X14439900Y-8026400D01*
X14550000Y-5937300D02*
X14550000Y-5962700D01*
X14537300Y-5950000D02*
X14562700Y-5950000D01*
X16600000Y-7187300D02*
X16600000Y-7212700D01*
X16587300Y-7200000D02*
X16612700Y-7200000D01*
X17000000Y-6587300D02*
X17000000Y-6612700D01*
X16987300Y-6600000D02*
X17012700Y-6600000D01*
X12968368Y-5322969D02*
X12968368Y-5294232D01*
X12939631Y-5294232D01*
X12939631Y-5322969D01*
X12968368Y-5322969D01*
X12968368Y-12460368D02*
X12968368Y-12431631D01*
X12939631Y-12431631D01*
X12939631Y-12460368D01*
X12968368Y-12460368D01*
X13044568Y-9209169D02*
X13044568Y-9180432D01*
X13015831Y-9180432D01*
X13015831Y-9209169D01*
X13044568Y-9209169D01*
X13425568Y-11723768D02*
X13425568Y-11695031D01*
X13396831Y-11695031D01*
X13396831Y-11723768D01*
X13425568Y-11723768D01*
X13476368Y-9844169D02*
X13476368Y-9815432D01*
X13447631Y-9815432D01*
X13447631Y-9844169D01*
X13476368Y-9844169D01*
X13864368Y-6914368D02*
X13864368Y-6885631D01*
X13835631Y-6885631D01*
X13835631Y-6914368D01*
X13864368Y-6914368D01*
X14214368Y-7416918D02*
X14214368Y-7388181D01*
X14185631Y-7388181D01*
X14185631Y-7416918D01*
X14214368Y-7416918D01*
X14264368Y-12464368D02*
X14264368Y-12435631D01*
X14235631Y-12435631D01*
X14235631Y-12464368D01*
X14264368Y-12464368D01*
X14714368Y-11514368D02*
X14714368Y-11485631D01*
X14685631Y-11485631D01*
X14685631Y-11514368D01*
X14714368Y-11514368D01*
X14771768Y-12155568D02*
X14771768Y-12126831D01*
X14743031Y-12126831D01*
X14743031Y-12155568D01*
X14771768Y-12155568D01*
X14949568Y-7735968D02*
X14949568Y-7707231D01*
X14920831Y-7707231D01*
X14920831Y-7735968D01*
X14949568Y-7735968D01*
X15482968Y-8980569D02*
X15482968Y-8951832D01*
X15454231Y-8951832D01*
X15454231Y-8980569D01*
X15482968Y-8980569D01*
X15508368Y-11825368D02*
X15508368Y-11796631D01*
X15479631Y-11796631D01*
X15479631Y-11825368D01*
X15508368Y-11825368D01*
X15533768Y-7456568D02*
X15533768Y-7427831D01*
X15505031Y-7427831D01*
X15505031Y-7456568D01*
X15533768Y-7456568D01*
X15564368Y-7814368D02*
X15564368Y-7785631D01*
X15535631Y-7785631D01*
X15535631Y-7814368D01*
X15564368Y-7814368D01*
X15838568Y-8751969D02*
X15838568Y-8723232D01*
X15809831Y-8723232D01*
X15809831Y-8751969D01*
X15838568Y-8751969D01*
X15914768Y-9971169D02*
X15914768Y-9942432D01*
X15886031Y-9942432D01*
X15886031Y-9971169D01*
X15914768Y-9971169D01*
X16064368Y-5964368D02*
X16064368Y-5935631D01*
X16035631Y-5935631D01*
X16035631Y-5964368D01*
X16064368Y-5964368D01*
X16397368Y-8472569D02*
X16397368Y-8443832D01*
X16368631Y-8443832D01*
X16368631Y-8472569D01*
X16397368Y-8472569D01*
X17032369Y-5348369D02*
X17032369Y-5319632D01*
X17003632Y-5319632D01*
X17003632Y-5348369D01*
X17032369Y-5348369D01*
X17032369Y-12460368D02*
X17032369Y-12431631D01*
X17003632Y-12431631D01*
X17003632Y-12460368D01*
X17032369Y-12460368D01*
X13868200Y-5355000D02*
X13898200Y-5325000D01*
X13868200Y-5295000D01*
X13838200Y-5325000D01*
X13868200Y-5355000D01*
X13898200Y-5365000D02*
X13898200Y-5285000D01*
X13838200Y-5285000D02*
G75*
G02*
X13898200Y-5285000I30000J0D01*
G01*
X13838200Y-5285000D02*
X13838200Y-5365000D01*
X13838200Y-5365000D02*
G75*
G03*
X13898200Y-5365000I30000J0D01*
G01*
X13868200Y-5773000D02*
X13898200Y-5743000D01*
X13868200Y-5713000D01*
X13838200Y-5743000D01*
X13868200Y-5773000D01*
X13898200Y-5798000D02*
X13898200Y-5688000D01*
X13838200Y-5688000D02*
G75*
G02*
X13898200Y-5688000I30000J0D01*
G01*
X13838200Y-5688000D02*
X13838200Y-5798000D01*
X13838200Y-5798000D02*
G75*
G03*
X13898200Y-5798000I30000J0D01*
G01*
X14732200Y-5355000D02*
X14762200Y-5325000D01*
X14732200Y-5295000D01*
X14702200Y-5325000D01*
X14732200Y-5355000D01*
X14762200Y-5365000D02*
X14762200Y-5285000D01*
X14702200Y-5285000D02*
G75*
G02*
X14762200Y-5285000I30000J0D01*
G01*
X14702200Y-5285000D02*
X14702200Y-5365000D01*
X14702200Y-5365000D02*
G75*
G03*
X14762200Y-5365000I30000J0D01*
G01*
X14732200Y-5773000D02*
X14762200Y-5743000D01*
X14732200Y-5713000D01*
X14702200Y-5743000D01*
X14732200Y-5773000D01*
X14762200Y-5798000D02*
X14762200Y-5688000D01*
X14702200Y-5688000D02*
G75*
G02*
X14762200Y-5688000I30000J0D01*
G01*
X14702200Y-5688000D02*
X14702200Y-5798000D01*
X14702200Y-5798000D02*
G75*
G03*
X14762200Y-5798000I30000J0D01*
G01*
X13539000Y-9297200D02*
X13639000Y-9397200D01*
X13639000Y-9297200D02*
X13539000Y-9397200D01*
X13639000Y-9347200D02*
G75*
G02*
X13539000Y-9347200I-50000J0D01*
G01*
X13539000Y-9347200D02*
G75*
G02*
X13639000Y-9347200I50000J0D01*
G01*
X13793000Y-9297200D02*
X13893000Y-9397200D01*
X13893000Y-9297200D02*
X13793000Y-9397200D01*
X13893000Y-9347200D02*
G75*
G02*
X13793000Y-9347200I-50000J0D01*
G01*
X13793000Y-9347200D02*
G75*
G02*
X13893000Y-9347200I50000J0D01*
G01*
X13810800Y-9679600D02*
X13910800Y-9779600D01*
X13910800Y-9679600D02*
X13810800Y-9779600D01*
X13910800Y-9729600D02*
G75*
G02*
X13810800Y-9729600I-50000J0D01*
G01*
X13810800Y-9729600D02*
G75*
G02*
X13910800Y-9729600I50000J0D01*
G01*
X13810800Y-11759600D02*
X13910800Y-11859600D01*
X13910800Y-11759600D02*
X13810800Y-11859600D01*
X13910800Y-11809600D02*
G75*
G02*
X13810800Y-11809600I-50000J0D01*
G01*
X13810800Y-11809600D02*
G75*
G02*
X13910800Y-11809600I50000J0D01*
G01*
X14047000Y-9297200D02*
X14147000Y-9397200D01*
X14147000Y-9297200D02*
X14047000Y-9397200D01*
X14147000Y-9347200D02*
G75*
G02*
X14047000Y-9347200I-50000J0D01*
G01*
X14047000Y-9347200D02*
G75*
G02*
X14147000Y-9347200I50000J0D01*
G01*
X14120800Y-9679600D02*
X14220800Y-9779600D01*
X14220800Y-9679600D02*
X14120800Y-9779600D01*
X14220800Y-9729600D02*
G75*
G02*
X14120800Y-9729600I-50000J0D01*
G01*
X14120800Y-9729600D02*
G75*
G02*
X14220800Y-9729600I50000J0D01*
G01*
X14120800Y-11759600D02*
X14220800Y-11859600D01*
X14220800Y-11759600D02*
X14120800Y-11859600D01*
X14220800Y-11809600D02*
G75*
G02*
X14120800Y-11809600I-50000J0D01*
G01*
X14120800Y-11809600D02*
G75*
G02*
X14220800Y-11809600I50000J0D01*
G01*
X15825000Y-5436400D02*
X15925000Y-5536400D01*
X15925000Y-5436400D02*
X15825000Y-5536400D01*
X15925000Y-5486400D02*
G75*
G02*
X15825000Y-5486400I-50000J0D01*
G01*
X15825000Y-5486400D02*
G75*
G02*
X15925000Y-5486400I50000J0D01*
G01*
X15825000Y-5690400D02*
X15925000Y-5790400D01*
X15925000Y-5690400D02*
X15825000Y-5790400D01*
X15925000Y-5740400D02*
G75*
G02*
X15825000Y-5740400I-50000J0D01*
G01*
X15825000Y-5740400D02*
G75*
G02*
X15925000Y-5740400I50000J0D01*
G01*
X16206000Y-5436900D02*
X16306000Y-5536900D01*
X16306000Y-5436900D02*
X16206000Y-5536900D01*
X16306000Y-5486900D02*
G75*
G02*
X16206000Y-5486900I-50000J0D01*
G01*
X16206000Y-5486900D02*
G75*
G02*
X16306000Y-5486900I50000J0D01*
G01*
X16206000Y-5690900D02*
X16306000Y-5790900D01*
X16306000Y-5690900D02*
X16206000Y-5790900D01*
X16306000Y-5740900D02*
G75*
G02*
X16206000Y-5740900I-50000J0D01*
G01*
X16206000Y-5740900D02*
G75*
G02*
X16306000Y-5740900I50000J0D01*
G01*
X16764800Y-7493800D02*
X16864800Y-7593800D01*
X16864800Y-7493800D02*
X16764800Y-7593800D01*
X16864800Y-7543800D02*
G75*
G02*
X16764800Y-7543800I-50000J0D01*
G01*
X16764800Y-7543800D02*
G75*
G02*
X16864800Y-7543800I50000J0D01*
G01*
X16764800Y-7747800D02*
X16864800Y-7847800D01*
X16864800Y-7747800D02*
X16764800Y-7847800D01*
X16864800Y-7797800D02*
G75*
G02*
X16764800Y-7797800I-50000J0D01*
G01*
X16764800Y-7797800D02*
G75*
G02*
X16864800Y-7797800I50000J0D01*
G01*
X16764800Y-8001800D02*
X16864800Y-8101800D01*
X16864800Y-8001800D02*
X16764800Y-8101800D01*
X16864800Y-8051800D02*
G75*
G02*
X16764800Y-8051800I-50000J0D01*
G01*
X16764800Y-8051800D02*
G75*
G02*
X16864800Y-8051800I50000J0D01*
G01*
X16764800Y-8255800D02*
X16864800Y-8355800D01*
X16864800Y-8255800D02*
X16764800Y-8355800D01*
X16864800Y-8305800D02*
G75*
G02*
X16764800Y-8305800I-50000J0D01*
G01*
X16764800Y-8305800D02*
G75*
G02*
X16864800Y-8305800I50000J0D01*
G01*
X16764800Y-8509800D02*
X16864800Y-8609800D01*
X16864800Y-8509800D02*
X16764800Y-8609800D01*
X16864800Y-8559800D02*
G75*
G02*
X16764800Y-8559800I-50000J0D01*
G01*
X16764800Y-8559800D02*
G75*
G02*
X16864800Y-8559800I50000J0D01*
G01*
X16764800Y-8763800D02*
X16864800Y-8863800D01*
X16864800Y-8763800D02*
X16764800Y-8863800D01*
X16864800Y-8813800D02*
G75*
G02*
X16764800Y-8813800I-50000J0D01*
G01*
X16764800Y-8813800D02*
G75*
G02*
X16864800Y-8813800I50000J0D01*
G01*
X16764800Y-9017800D02*
X16864800Y-9117800D01*
X16864800Y-9017800D02*
X16764800Y-9117800D01*
X16864800Y-9067800D02*
G75*
G02*
X16764800Y-9067800I-50000J0D01*
G01*
X16764800Y-9067800D02*
G75*
G02*
X16864800Y-9067800I50000J0D01*
G01*
X16764800Y-9271800D02*
X16864800Y-9371800D01*
X16864800Y-9271800D02*
X16764800Y-9371800D01*
X16864800Y-9321800D02*
G75*
G02*
X16764800Y-9321800I-50000J0D01*
G01*
X16764800Y-9321800D02*
G75*
G02*
X16864800Y-9321800I50000J0D01*
G01*
X16764800Y-9525800D02*
X16864800Y-9625800D01*
X16864800Y-9525800D02*
X16764800Y-9625800D01*
X16864800Y-9575800D02*
G75*
G02*
X16764800Y-9575800I-50000J0D01*
G01*
X16764800Y-9575800D02*
G75*
G02*
X16864800Y-9575800I50000J0D01*
G01*
X16764800Y-9779800D02*
X16864800Y-9879800D01*
X16864800Y-9779800D02*
X16764800Y-9879800D01*
X16864800Y-9829800D02*
G75*
G02*
X16764800Y-9829800I-50000J0D01*
G01*
X16764800Y-9829800D02*
G75*
G02*
X16864800Y-9829800I50000J0D01*
G01*
X16764800Y-10033800D02*
X16864800Y-10133800D01*
X16864800Y-10033800D02*
X16764800Y-10133800D01*
X16864800Y-10083800D02*
G75*
G02*
X16764800Y-10083800I-50000J0D01*
G01*
X16764800Y-10083800D02*
G75*
G02*
X16864800Y-10083800I50000J0D01*
G01*
X16764800Y-10287800D02*
X16864800Y-10387800D01*
X16864800Y-10287800D02*
X16764800Y-10387800D01*
X16864800Y-10337800D02*
G75*
G02*
X16764800Y-10337800I-50000J0D01*
G01*
X16764800Y-10337800D02*
G75*
G02*
X16864800Y-10337800I50000J0D01*
G01*
X16764800Y-10541800D02*
X16864800Y-10641800D01*
X16864800Y-10541800D02*
X16764800Y-10641800D01*
X16864800Y-10591800D02*
G75*
G02*
X16764800Y-10591800I-50000J0D01*
G01*
X16764800Y-10591800D02*
G75*
G02*
X16864800Y-10591800I50000J0D01*
G01*
X16764800Y-10795800D02*
X16864800Y-10895800D01*
X16864800Y-10795800D02*
X16764800Y-10895800D01*
X16864800Y-10845800D02*
G75*
G02*
X16764800Y-10845800I-50000J0D01*
G01*
X16764800Y-10845800D02*
G75*
G02*
X16864800Y-10845800I50000J0D01*
G01*
X16764800Y-11049800D02*
X16864800Y-11149800D01*
X16864800Y-11049800D02*
X16764800Y-11149800D01*
X16864800Y-11099800D02*
G75*
G02*
X16764800Y-11099800I-50000J0D01*
G01*
X16764800Y-11099800D02*
G75*
G02*
X16864800Y-11099800I50000J0D01*
G01*
X16764800Y-11303800D02*
X16864800Y-11403800D01*
X16864800Y-11303800D02*
X16764800Y-11403800D01*
X16864800Y-11353800D02*
G75*
G02*
X16764800Y-11353800I-50000J0D01*
G01*
X16764800Y-11353800D02*
G75*
G02*
X16864800Y-11353800I50000J0D01*
G01*
D13*
X13098000Y-5478000D02*
X13318000Y-5698000D01*
X13318000Y-5478000D02*
X13098000Y-5698000D01*
X13208000Y-5478000D02*
X13208000Y-5698000D01*
X13098000Y-5588000D02*
X13318000Y-5588000D01*
X13098000Y-12082000D02*
X13318000Y-12302000D01*
X13318000Y-12082000D02*
X13098000Y-12302000D01*
X13208000Y-12082000D02*
X13208000Y-12302000D01*
X13098000Y-12192000D02*
X13318000Y-12192000D01*
X16654000Y-5478000D02*
X16874000Y-5698000D01*
X16874000Y-5478000D02*
X16654000Y-5698000D01*
X16764000Y-5478000D02*
X16764000Y-5698000D01*
X16654000Y-5588000D02*
X16874000Y-5588000D01*
X16654000Y-12082000D02*
X16874000Y-12302000D01*
X16874000Y-12082000D02*
X16654000Y-12302000D01*
X16764000Y-12082000D02*
X16764000Y-12302000D01*
X16654000Y-12192000D02*
X16874000Y-12192000D01*
D11*
X12958277Y-13013984D02*
X12958277Y-12813984D01*
X12958277Y-12813984D02*
X13005896Y-12813984D01*
X13005896Y-12813984D02*
X13034467Y-12823508D01*
X13034467Y-12823508D02*
X13053515Y-12842555D01*
X13053515Y-12842555D02*
X13063039Y-12861603D01*
X13063039Y-12861603D02*
X13072562Y-12899698D01*
X13072562Y-12899698D02*
X13072562Y-12928269D01*
X13072562Y-12928269D02*
X13063039Y-12966365D01*
X13063039Y-12966365D02*
X13053515Y-12985412D01*
X13053515Y-12985412D02*
X13034467Y-13004460D01*
X13034467Y-13004460D02*
X13005896Y-13013984D01*
X13005896Y-13013984D02*
X12958277Y-13013984D01*
X13158277Y-13013984D02*
X13158277Y-12880650D01*
X13158277Y-12918746D02*
X13167801Y-12899698D01*
X13167801Y-12899698D02*
X13177324Y-12890174D01*
X13177324Y-12890174D02*
X13196372Y-12880650D01*
X13196372Y-12880650D02*
X13215420Y-12880650D01*
X13282086Y-13013984D02*
X13282086Y-12880650D01*
X13282086Y-12813984D02*
X13272562Y-12823508D01*
X13272562Y-12823508D02*
X13282086Y-12833031D01*
X13282086Y-12833031D02*
X13291610Y-12823508D01*
X13291610Y-12823508D02*
X13282086Y-12813984D01*
X13282086Y-12813984D02*
X13282086Y-12833031D01*
X13405896Y-13013984D02*
X13386848Y-13004460D01*
X13386848Y-13004460D02*
X13377324Y-12985412D01*
X13377324Y-12985412D02*
X13377324Y-12813984D01*
X13510658Y-13013984D02*
X13491610Y-13004460D01*
X13491610Y-13004460D02*
X13482086Y-12985412D01*
X13482086Y-12985412D02*
X13482086Y-12813984D01*
X13739229Y-13013984D02*
X13739229Y-12813984D01*
X13739229Y-12813984D02*
X13805896Y-12956841D01*
X13805896Y-12956841D02*
X13872562Y-12813984D01*
X13872562Y-12813984D02*
X13872562Y-13013984D01*
X14053515Y-13013984D02*
X14053515Y-12909222D01*
X14053515Y-12909222D02*
X14043991Y-12890174D01*
X14043991Y-12890174D02*
X14024943Y-12880650D01*
X14024943Y-12880650D02*
X13986848Y-12880650D01*
X13986848Y-12880650D02*
X13967801Y-12890174D01*
X14053515Y-13004460D02*
X14034467Y-13013984D01*
X14034467Y-13013984D02*
X13986848Y-13013984D01*
X13986848Y-13013984D02*
X13967801Y-13004460D01*
X13967801Y-13004460D02*
X13958277Y-12985412D01*
X13958277Y-12985412D02*
X13958277Y-12966365D01*
X13958277Y-12966365D02*
X13967801Y-12947317D01*
X13967801Y-12947317D02*
X13986848Y-12937793D01*
X13986848Y-12937793D02*
X14034467Y-12937793D01*
X14034467Y-12937793D02*
X14053515Y-12928269D01*
X14148753Y-12880650D02*
X14148753Y-13080650D01*
X14148753Y-12890174D02*
X14167801Y-12880650D01*
X14167801Y-12880650D02*
X14205896Y-12880650D01*
X14205896Y-12880650D02*
X14224943Y-12890174D01*
X14224943Y-12890174D02*
X14234467Y-12899698D01*
X14234467Y-12899698D02*
X14243991Y-12918746D01*
X14243991Y-12918746D02*
X14243991Y-12975888D01*
X14243991Y-12975888D02*
X14234467Y-12994936D01*
X14234467Y-12994936D02*
X14224943Y-13004460D01*
X14224943Y-13004460D02*
X14205896Y-13013984D01*
X14205896Y-13013984D02*
X14167801Y-13013984D01*
X14167801Y-13013984D02*
X14148753Y-13004460D01*
X14329705Y-12994936D02*
X14339229Y-13004460D01*
X14339229Y-13004460D02*
X14329705Y-13013984D01*
X14329705Y-13013984D02*
X14320182Y-13004460D01*
X14320182Y-13004460D02*
X14329705Y-12994936D01*
X14329705Y-12994936D02*
X14329705Y-13013984D01*
X14329705Y-12890174D02*
X14339229Y-12899698D01*
X14339229Y-12899698D02*
X14329705Y-12909222D01*
X14329705Y-12909222D02*
X14320182Y-12899698D01*
X14320182Y-12899698D02*
X14329705Y-12890174D01*
X14329705Y-12890174D02*
X14329705Y-12909222D01*
D12*
X12682500Y-13335000D02*
X12697500Y-13350000D01*
X12697500Y-13335000D02*
X12682500Y-13350000D01*
D11*
X12996372Y-13233984D02*
X13015420Y-13233984D01*
X13015420Y-13233984D02*
X13034467Y-13243508D01*
X13034467Y-13243508D02*
X13043991Y-13253031D01*
X13043991Y-13253031D02*
X13053515Y-13272079D01*
X13053515Y-13272079D02*
X13063039Y-13310174D01*
X13063039Y-13310174D02*
X13063039Y-13357793D01*
X13063039Y-13357793D02*
X13053515Y-13395888D01*
X13053515Y-13395888D02*
X13043991Y-13414936D01*
X13043991Y-13414936D02*
X13034467Y-13424460D01*
X13034467Y-13424460D02*
X13015420Y-13433984D01*
X13015420Y-13433984D02*
X12996372Y-13433984D01*
X12996372Y-13433984D02*
X12977324Y-13424460D01*
X12977324Y-13424460D02*
X12967801Y-13414936D01*
X12967801Y-13414936D02*
X12958277Y-13395888D01*
X12958277Y-13395888D02*
X12948753Y-13357793D01*
X12948753Y-13357793D02*
X12948753Y-13310174D01*
X12948753Y-13310174D02*
X12958277Y-13272079D01*
X12958277Y-13272079D02*
X12967801Y-13253031D01*
X12967801Y-13253031D02*
X12977324Y-13243508D01*
X12977324Y-13243508D02*
X12996372Y-13233984D01*
X13148753Y-13414936D02*
X13158277Y-13424460D01*
X13158277Y-13424460D02*
X13148753Y-13433984D01*
X13148753Y-13433984D02*
X13139229Y-13424460D01*
X13139229Y-13424460D02*
X13148753Y-13414936D01*
X13148753Y-13414936D02*
X13148753Y-13433984D01*
X13348753Y-13433984D02*
X13234467Y-13433984D01*
X13291610Y-13433984D02*
X13291610Y-13233984D01*
X13291610Y-13233984D02*
X13272562Y-13262555D01*
X13272562Y-13262555D02*
X13253515Y-13281603D01*
X13253515Y-13281603D02*
X13234467Y-13291127D01*
X13529705Y-13233984D02*
X13434467Y-13233984D01*
X13434467Y-13233984D02*
X13424943Y-13329222D01*
X13424943Y-13329222D02*
X13434467Y-13319698D01*
X13434467Y-13319698D02*
X13453515Y-13310174D01*
X13453515Y-13310174D02*
X13501134Y-13310174D01*
X13501134Y-13310174D02*
X13520182Y-13319698D01*
X13520182Y-13319698D02*
X13529705Y-13329222D01*
X13529705Y-13329222D02*
X13539229Y-13348269D01*
X13539229Y-13348269D02*
X13539229Y-13395888D01*
X13539229Y-13395888D02*
X13529705Y-13414936D01*
X13529705Y-13414936D02*
X13520182Y-13424460D01*
X13520182Y-13424460D02*
X13501134Y-13433984D01*
X13501134Y-13433984D02*
X13453515Y-13433984D01*
X13453515Y-13433984D02*
X13434467Y-13424460D01*
X13434467Y-13424460D02*
X13424943Y-13414936D01*
X13663039Y-13233984D02*
X13682086Y-13233984D01*
X13682086Y-13233984D02*
X13701134Y-13243508D01*
X13701134Y-13243508D02*
X13710658Y-13253031D01*
X13710658Y-13253031D02*
X13720182Y-13272079D01*
X13720182Y-13272079D02*
X13729705Y-13310174D01*
X13729705Y-13310174D02*
X13729705Y-13357793D01*
X13729705Y-13357793D02*
X13720182Y-13395888D01*
X13720182Y-13395888D02*
X13710658Y-13414936D01*
X13710658Y-13414936D02*
X13701134Y-13424460D01*
X13701134Y-13424460D02*
X13682086Y-13433984D01*
X13682086Y-13433984D02*
X13663039Y-13433984D01*
X13663039Y-13433984D02*
X13643991Y-13424460D01*
X13643991Y-13424460D02*
X13634467Y-13414936D01*
X13634467Y-13414936D02*
X13624943Y-13395888D01*
X13624943Y-13395888D02*
X13615420Y-13357793D01*
X13615420Y-13357793D02*
X13615420Y-13310174D01*
X13615420Y-13310174D02*
X13624943Y-13272079D01*
X13624943Y-13272079D02*
X13634467Y-13253031D01*
X13634467Y-13253031D02*
X13643991Y-13243508D01*
X13643991Y-13243508D02*
X13663039Y-13233984D01*
X13815420Y-13433984D02*
X13815420Y-13300650D01*
X13815420Y-13319698D02*
X13824943Y-13310174D01*
X13824943Y-13310174D02*
X13843991Y-13300650D01*
X13843991Y-13300650D02*
X13872563Y-13300650D01*
X13872563Y-13300650D02*
X13891610Y-13310174D01*
X13891610Y-13310174D02*
X13901134Y-13329222D01*
X13901134Y-13329222D02*
X13901134Y-13433984D01*
X13901134Y-13329222D02*
X13910658Y-13310174D01*
X13910658Y-13310174D02*
X13929705Y-13300650D01*
X13929705Y-13300650D02*
X13958277Y-13300650D01*
X13958277Y-13300650D02*
X13977324Y-13310174D01*
X13977324Y-13310174D02*
X13986848Y-13329222D01*
X13986848Y-13329222D02*
X13986848Y-13433984D01*
X14082086Y-13433984D02*
X14082086Y-13300650D01*
X14082086Y-13319698D02*
X14091610Y-13310174D01*
X14091610Y-13310174D02*
X14110658Y-13300650D01*
X14110658Y-13300650D02*
X14139229Y-13300650D01*
X14139229Y-13300650D02*
X14158277Y-13310174D01*
X14158277Y-13310174D02*
X14167801Y-13329222D01*
X14167801Y-13329222D02*
X14167801Y-13433984D01*
X14167801Y-13329222D02*
X14177324Y-13310174D01*
X14177324Y-13310174D02*
X14196372Y-13300650D01*
X14196372Y-13300650D02*
X14224943Y-13300650D01*
X14224943Y-13300650D02*
X14243991Y-13310174D01*
X14243991Y-13310174D02*
X14253515Y-13329222D01*
X14253515Y-13329222D02*
X14253515Y-13433984D01*
X14643991Y-13224460D02*
X14472563Y-13481603D01*
X14901134Y-13233984D02*
X14920182Y-13233984D01*
X14920182Y-13233984D02*
X14939229Y-13243508D01*
X14939229Y-13243508D02*
X14948753Y-13253031D01*
X14948753Y-13253031D02*
X14958277Y-13272079D01*
X14958277Y-13272079D02*
X14967801Y-13310174D01*
X14967801Y-13310174D02*
X14967801Y-13357793D01*
X14967801Y-13357793D02*
X14958277Y-13395888D01*
X14958277Y-13395888D02*
X14948753Y-13414936D01*
X14948753Y-13414936D02*
X14939229Y-13424460D01*
X14939229Y-13424460D02*
X14920182Y-13433984D01*
X14920182Y-13433984D02*
X14901134Y-13433984D01*
X14901134Y-13433984D02*
X14882086Y-13424460D01*
X14882086Y-13424460D02*
X14872563Y-13414936D01*
X14872563Y-13414936D02*
X14863039Y-13395888D01*
X14863039Y-13395888D02*
X14853515Y-13357793D01*
X14853515Y-13357793D02*
X14853515Y-13310174D01*
X14853515Y-13310174D02*
X14863039Y-13272079D01*
X14863039Y-13272079D02*
X14872563Y-13253031D01*
X14872563Y-13253031D02*
X14882086Y-13243508D01*
X14882086Y-13243508D02*
X14901134Y-13233984D01*
X15053515Y-13414936D02*
X15063039Y-13424460D01*
X15063039Y-13424460D02*
X15053515Y-13433984D01*
X15053515Y-13433984D02*
X15043991Y-13424460D01*
X15043991Y-13424460D02*
X15053515Y-13414936D01*
X15053515Y-13414936D02*
X15053515Y-13433984D01*
X15186848Y-13233984D02*
X15205896Y-13233984D01*
X15205896Y-13233984D02*
X15224944Y-13243508D01*
X15224944Y-13243508D02*
X15234467Y-13253031D01*
X15234467Y-13253031D02*
X15243991Y-13272079D01*
X15243991Y-13272079D02*
X15253515Y-13310174D01*
X15253515Y-13310174D02*
X15253515Y-13357793D01*
X15253515Y-13357793D02*
X15243991Y-13395888D01*
X15243991Y-13395888D02*
X15234467Y-13414936D01*
X15234467Y-13414936D02*
X15224944Y-13424460D01*
X15224944Y-13424460D02*
X15205896Y-13433984D01*
X15205896Y-13433984D02*
X15186848Y-13433984D01*
X15186848Y-13433984D02*
X15167801Y-13424460D01*
X15167801Y-13424460D02*
X15158277Y-13414936D01*
X15158277Y-13414936D02*
X15148753Y-13395888D01*
X15148753Y-13395888D02*
X15139229Y-13357793D01*
X15139229Y-13357793D02*
X15139229Y-13310174D01*
X15139229Y-13310174D02*
X15148753Y-13272079D01*
X15148753Y-13272079D02*
X15158277Y-13253031D01*
X15158277Y-13253031D02*
X15167801Y-13243508D01*
X15167801Y-13243508D02*
X15186848Y-13233984D01*
X15377325Y-13233984D02*
X15396372Y-13233984D01*
X15396372Y-13233984D02*
X15415420Y-13243508D01*
X15415420Y-13243508D02*
X15424944Y-13253031D01*
X15424944Y-13253031D02*
X15434467Y-13272079D01*
X15434467Y-13272079D02*
X15443991Y-13310174D01*
X15443991Y-13310174D02*
X15443991Y-13357793D01*
X15443991Y-13357793D02*
X15434467Y-13395888D01*
X15434467Y-13395888D02*
X15424944Y-13414936D01*
X15424944Y-13414936D02*
X15415420Y-13424460D01*
X15415420Y-13424460D02*
X15396372Y-13433984D01*
X15396372Y-13433984D02*
X15377325Y-13433984D01*
X15377325Y-13433984D02*
X15358277Y-13424460D01*
X15358277Y-13424460D02*
X15348753Y-13414936D01*
X15348753Y-13414936D02*
X15339229Y-13395888D01*
X15339229Y-13395888D02*
X15329706Y-13357793D01*
X15329706Y-13357793D02*
X15329706Y-13310174D01*
X15329706Y-13310174D02*
X15339229Y-13272079D01*
X15339229Y-13272079D02*
X15348753Y-13253031D01*
X15348753Y-13253031D02*
X15358277Y-13243508D01*
X15358277Y-13243508D02*
X15377325Y-13233984D01*
X15624944Y-13233984D02*
X15529706Y-13233984D01*
X15529706Y-13233984D02*
X15520182Y-13329222D01*
X15520182Y-13329222D02*
X15529706Y-13319698D01*
X15529706Y-13319698D02*
X15548753Y-13310174D01*
X15548753Y-13310174D02*
X15596372Y-13310174D01*
X15596372Y-13310174D02*
X15615420Y-13319698D01*
X15615420Y-13319698D02*
X15624944Y-13329222D01*
X15624944Y-13329222D02*
X15634467Y-13348269D01*
X15634467Y-13348269D02*
X15634467Y-13395888D01*
X15634467Y-13395888D02*
X15624944Y-13414936D01*
X15624944Y-13414936D02*
X15615420Y-13424460D01*
X15615420Y-13424460D02*
X15596372Y-13433984D01*
X15596372Y-13433984D02*
X15548753Y-13433984D01*
X15548753Y-13433984D02*
X15529706Y-13424460D01*
X15529706Y-13424460D02*
X15520182Y-13414936D01*
X15729706Y-13433984D02*
X15767801Y-13433984D01*
X15767801Y-13433984D02*
X15786848Y-13424460D01*
X15786848Y-13424460D02*
X15796372Y-13414936D01*
X15796372Y-13414936D02*
X15815420Y-13386365D01*
X15815420Y-13386365D02*
X15824944Y-13348269D01*
X15824944Y-13348269D02*
X15824944Y-13272079D01*
X15824944Y-13272079D02*
X15815420Y-13253031D01*
X15815420Y-13253031D02*
X15805896Y-13243508D01*
X15805896Y-13243508D02*
X15786848Y-13233984D01*
X15786848Y-13233984D02*
X15748753Y-13233984D01*
X15748753Y-13233984D02*
X15729706Y-13243508D01*
X15729706Y-13243508D02*
X15720182Y-13253031D01*
X15720182Y-13253031D02*
X15710658Y-13272079D01*
X15710658Y-13272079D02*
X15710658Y-13319698D01*
X15710658Y-13319698D02*
X15720182Y-13338746D01*
X15720182Y-13338746D02*
X15729706Y-13348269D01*
X15729706Y-13348269D02*
X15748753Y-13357793D01*
X15748753Y-13357793D02*
X15786848Y-13357793D01*
X15786848Y-13357793D02*
X15805896Y-13348269D01*
X15805896Y-13348269D02*
X15815420Y-13338746D01*
X15815420Y-13338746D02*
X15824944Y-13319698D01*
X15901134Y-13233984D02*
X15901134Y-13272079D01*
X15977325Y-13233984D02*
X15977325Y-13272079D01*
X16272563Y-13510174D02*
X16263039Y-13500650D01*
X16263039Y-13500650D02*
X16243991Y-13472079D01*
X16243991Y-13472079D02*
X16234468Y-13453031D01*
X16234468Y-13453031D02*
X16224944Y-13424460D01*
X16224944Y-13424460D02*
X16215420Y-13376841D01*
X16215420Y-13376841D02*
X16215420Y-13338746D01*
X16215420Y-13338746D02*
X16224944Y-13291127D01*
X16224944Y-13291127D02*
X16234468Y-13262555D01*
X16234468Y-13262555D02*
X16243991Y-13243508D01*
X16243991Y-13243508D02*
X16263039Y-13214936D01*
X16263039Y-13214936D02*
X16272563Y-13205412D01*
X16329706Y-13233984D02*
X16463039Y-13233984D01*
X16463039Y-13233984D02*
X16377325Y-13433984D01*
X16624944Y-13300650D02*
X16624944Y-13433984D01*
X16577325Y-13224460D02*
X16529706Y-13367317D01*
X16529706Y-13367317D02*
X16653515Y-13367317D01*
X16882087Y-13433984D02*
X16882087Y-13233984D01*
X16967801Y-13433984D02*
X16967801Y-13329222D01*
X16967801Y-13329222D02*
X16958277Y-13310174D01*
X16958277Y-13310174D02*
X16939230Y-13300650D01*
X16939230Y-13300650D02*
X16910658Y-13300650D01*
X16910658Y-13300650D02*
X16891611Y-13310174D01*
X16891611Y-13310174D02*
X16882087Y-13319698D01*
X17091611Y-13433984D02*
X17072563Y-13424460D01*
X17072563Y-13424460D02*
X17063039Y-13414936D01*
X17063039Y-13414936D02*
X17053515Y-13395888D01*
X17053515Y-13395888D02*
X17053515Y-13338746D01*
X17053515Y-13338746D02*
X17063039Y-13319698D01*
X17063039Y-13319698D02*
X17072563Y-13310174D01*
X17072563Y-13310174D02*
X17091611Y-13300650D01*
X17091611Y-13300650D02*
X17120182Y-13300650D01*
X17120182Y-13300650D02*
X17139230Y-13310174D01*
X17139230Y-13310174D02*
X17148753Y-13319698D01*
X17148753Y-13319698D02*
X17158277Y-13338746D01*
X17158277Y-13338746D02*
X17158277Y-13395888D01*
X17158277Y-13395888D02*
X17148753Y-13414936D01*
X17148753Y-13414936D02*
X17139230Y-13424460D01*
X17139230Y-13424460D02*
X17120182Y-13433984D01*
X17120182Y-13433984D02*
X17091611Y-13433984D01*
X17272563Y-13433984D02*
X17253515Y-13424460D01*
X17253515Y-13424460D02*
X17243992Y-13405412D01*
X17243992Y-13405412D02*
X17243992Y-13233984D01*
X17424944Y-13424460D02*
X17405896Y-13433984D01*
X17405896Y-13433984D02*
X17367801Y-13433984D01*
X17367801Y-13433984D02*
X17348753Y-13424460D01*
X17348753Y-13424460D02*
X17339230Y-13405412D01*
X17339230Y-13405412D02*
X17339230Y-13329222D01*
X17339230Y-13329222D02*
X17348753Y-13310174D01*
X17348753Y-13310174D02*
X17367801Y-13300650D01*
X17367801Y-13300650D02*
X17405896Y-13300650D01*
X17405896Y-13300650D02*
X17424944Y-13310174D01*
X17424944Y-13310174D02*
X17434468Y-13329222D01*
X17434468Y-13329222D02*
X17434468Y-13348269D01*
X17434468Y-13348269D02*
X17339230Y-13367317D01*
X17510658Y-13424460D02*
X17529706Y-13433984D01*
X17529706Y-13433984D02*
X17567801Y-13433984D01*
X17567801Y-13433984D02*
X17586849Y-13424460D01*
X17586849Y-13424460D02*
X17596373Y-13405412D01*
X17596373Y-13405412D02*
X17596373Y-13395888D01*
X17596373Y-13395888D02*
X17586849Y-13376841D01*
X17586849Y-13376841D02*
X17567801Y-13367317D01*
X17567801Y-13367317D02*
X17539230Y-13367317D01*
X17539230Y-13367317D02*
X17520182Y-13357793D01*
X17520182Y-13357793D02*
X17510658Y-13338746D01*
X17510658Y-13338746D02*
X17510658Y-13329222D01*
X17510658Y-13329222D02*
X17520182Y-13310174D01*
X17520182Y-13310174D02*
X17539230Y-13300650D01*
X17539230Y-13300650D02*
X17567801Y-13300650D01*
X17567801Y-13300650D02*
X17586849Y-13310174D01*
X17663039Y-13510174D02*
X17672563Y-13500650D01*
X17672563Y-13500650D02*
X17691611Y-13472079D01*
X17691611Y-13472079D02*
X17701134Y-13453031D01*
X17701134Y-13453031D02*
X17710658Y-13424460D01*
X17710658Y-13424460D02*
X17720182Y-13376841D01*
X17720182Y-13376841D02*
X17720182Y-13338746D01*
X17720182Y-13338746D02*
X17710658Y-13291127D01*
X17710658Y-13291127D02*
X17701134Y-13262555D01*
X17701134Y-13262555D02*
X17691611Y-13243508D01*
X17691611Y-13243508D02*
X17672563Y-13214936D01*
X17672563Y-13214936D02*
X17663039Y-13205412D01*
D12*
X12697500Y-13606500D02*
G75*
G02*
X12677180Y-13606500I-10160J0D01*
G01*
X12677180Y-13606500D02*
G75*
G02*
X12697500Y-13606500I10160J0D01*
G01*
D11*
X12996372Y-13497984D02*
X13015420Y-13497984D01*
X13015420Y-13497984D02*
X13034467Y-13507508D01*
X13034467Y-13507508D02*
X13043991Y-13517031D01*
X13043991Y-13517031D02*
X13053515Y-13536079D01*
X13053515Y-13536079D02*
X13063039Y-13574174D01*
X13063039Y-13574174D02*
X13063039Y-13621793D01*
X13063039Y-13621793D02*
X13053515Y-13659888D01*
X13053515Y-13659888D02*
X13043991Y-13678936D01*
X13043991Y-13678936D02*
X13034467Y-13688460D01*
X13034467Y-13688460D02*
X13015420Y-13697984D01*
X13015420Y-13697984D02*
X12996372Y-13697984D01*
X12996372Y-13697984D02*
X12977324Y-13688460D01*
X12977324Y-13688460D02*
X12967801Y-13678936D01*
X12967801Y-13678936D02*
X12958277Y-13659888D01*
X12958277Y-13659888D02*
X12948753Y-13621793D01*
X12948753Y-13621793D02*
X12948753Y-13574174D01*
X12948753Y-13574174D02*
X12958277Y-13536079D01*
X12958277Y-13536079D02*
X12967801Y-13517031D01*
X12967801Y-13517031D02*
X12977324Y-13507508D01*
X12977324Y-13507508D02*
X12996372Y-13497984D01*
X13148753Y-13678936D02*
X13158277Y-13688460D01*
X13158277Y-13688460D02*
X13148753Y-13697984D01*
X13148753Y-13697984D02*
X13139229Y-13688460D01*
X13139229Y-13688460D02*
X13148753Y-13678936D01*
X13148753Y-13678936D02*
X13148753Y-13697984D01*
X13234467Y-13517031D02*
X13243991Y-13507508D01*
X13243991Y-13507508D02*
X13263039Y-13497984D01*
X13263039Y-13497984D02*
X13310658Y-13497984D01*
X13310658Y-13497984D02*
X13329705Y-13507508D01*
X13329705Y-13507508D02*
X13339229Y-13517031D01*
X13339229Y-13517031D02*
X13348753Y-13536079D01*
X13348753Y-13536079D02*
X13348753Y-13555127D01*
X13348753Y-13555127D02*
X13339229Y-13583698D01*
X13339229Y-13583698D02*
X13224943Y-13697984D01*
X13224943Y-13697984D02*
X13348753Y-13697984D01*
X13472562Y-13497984D02*
X13491610Y-13497984D01*
X13491610Y-13497984D02*
X13510658Y-13507508D01*
X13510658Y-13507508D02*
X13520182Y-13517031D01*
X13520182Y-13517031D02*
X13529705Y-13536079D01*
X13529705Y-13536079D02*
X13539229Y-13574174D01*
X13539229Y-13574174D02*
X13539229Y-13621793D01*
X13539229Y-13621793D02*
X13529705Y-13659888D01*
X13529705Y-13659888D02*
X13520182Y-13678936D01*
X13520182Y-13678936D02*
X13510658Y-13688460D01*
X13510658Y-13688460D02*
X13491610Y-13697984D01*
X13491610Y-13697984D02*
X13472562Y-13697984D01*
X13472562Y-13697984D02*
X13453515Y-13688460D01*
X13453515Y-13688460D02*
X13443991Y-13678936D01*
X13443991Y-13678936D02*
X13434467Y-13659888D01*
X13434467Y-13659888D02*
X13424943Y-13621793D01*
X13424943Y-13621793D02*
X13424943Y-13574174D01*
X13424943Y-13574174D02*
X13434467Y-13536079D01*
X13434467Y-13536079D02*
X13443991Y-13517031D01*
X13443991Y-13517031D02*
X13453515Y-13507508D01*
X13453515Y-13507508D02*
X13472562Y-13497984D01*
X13605896Y-13497984D02*
X13729705Y-13497984D01*
X13729705Y-13497984D02*
X13663039Y-13574174D01*
X13663039Y-13574174D02*
X13691610Y-13574174D01*
X13691610Y-13574174D02*
X13710658Y-13583698D01*
X13710658Y-13583698D02*
X13720182Y-13593222D01*
X13720182Y-13593222D02*
X13729705Y-13612269D01*
X13729705Y-13612269D02*
X13729705Y-13659888D01*
X13729705Y-13659888D02*
X13720182Y-13678936D01*
X13720182Y-13678936D02*
X13710658Y-13688460D01*
X13710658Y-13688460D02*
X13691610Y-13697984D01*
X13691610Y-13697984D02*
X13634467Y-13697984D01*
X13634467Y-13697984D02*
X13615420Y-13688460D01*
X13615420Y-13688460D02*
X13605896Y-13678936D01*
X13815420Y-13697984D02*
X13815420Y-13564650D01*
X13815420Y-13583698D02*
X13824943Y-13574174D01*
X13824943Y-13574174D02*
X13843991Y-13564650D01*
X13843991Y-13564650D02*
X13872563Y-13564650D01*
X13872563Y-13564650D02*
X13891610Y-13574174D01*
X13891610Y-13574174D02*
X13901134Y-13593222D01*
X13901134Y-13593222D02*
X13901134Y-13697984D01*
X13901134Y-13593222D02*
X13910658Y-13574174D01*
X13910658Y-13574174D02*
X13929705Y-13564650D01*
X13929705Y-13564650D02*
X13958277Y-13564650D01*
X13958277Y-13564650D02*
X13977324Y-13574174D01*
X13977324Y-13574174D02*
X13986848Y-13593222D01*
X13986848Y-13593222D02*
X13986848Y-13697984D01*
X14082086Y-13697984D02*
X14082086Y-13564650D01*
X14082086Y-13583698D02*
X14091610Y-13574174D01*
X14091610Y-13574174D02*
X14110658Y-13564650D01*
X14110658Y-13564650D02*
X14139229Y-13564650D01*
X14139229Y-13564650D02*
X14158277Y-13574174D01*
X14158277Y-13574174D02*
X14167801Y-13593222D01*
X14167801Y-13593222D02*
X14167801Y-13697984D01*
X14167801Y-13593222D02*
X14177324Y-13574174D01*
X14177324Y-13574174D02*
X14196372Y-13564650D01*
X14196372Y-13564650D02*
X14224943Y-13564650D01*
X14224943Y-13564650D02*
X14243991Y-13574174D01*
X14243991Y-13574174D02*
X14253515Y-13593222D01*
X14253515Y-13593222D02*
X14253515Y-13697984D01*
X14643991Y-13488460D02*
X14472563Y-13745603D01*
X14901134Y-13497984D02*
X14920182Y-13497984D01*
X14920182Y-13497984D02*
X14939229Y-13507508D01*
X14939229Y-13507508D02*
X14948753Y-13517031D01*
X14948753Y-13517031D02*
X14958277Y-13536079D01*
X14958277Y-13536079D02*
X14967801Y-13574174D01*
X14967801Y-13574174D02*
X14967801Y-13621793D01*
X14967801Y-13621793D02*
X14958277Y-13659888D01*
X14958277Y-13659888D02*
X14948753Y-13678936D01*
X14948753Y-13678936D02*
X14939229Y-13688460D01*
X14939229Y-13688460D02*
X14920182Y-13697984D01*
X14920182Y-13697984D02*
X14901134Y-13697984D01*
X14901134Y-13697984D02*
X14882086Y-13688460D01*
X14882086Y-13688460D02*
X14872563Y-13678936D01*
X14872563Y-13678936D02*
X14863039Y-13659888D01*
X14863039Y-13659888D02*
X14853515Y-13621793D01*
X14853515Y-13621793D02*
X14853515Y-13574174D01*
X14853515Y-13574174D02*
X14863039Y-13536079D01*
X14863039Y-13536079D02*
X14872563Y-13517031D01*
X14872563Y-13517031D02*
X14882086Y-13507508D01*
X14882086Y-13507508D02*
X14901134Y-13497984D01*
X15053515Y-13678936D02*
X15063039Y-13688460D01*
X15063039Y-13688460D02*
X15053515Y-13697984D01*
X15053515Y-13697984D02*
X15043991Y-13688460D01*
X15043991Y-13688460D02*
X15053515Y-13678936D01*
X15053515Y-13678936D02*
X15053515Y-13697984D01*
X15186848Y-13497984D02*
X15205896Y-13497984D01*
X15205896Y-13497984D02*
X15224944Y-13507508D01*
X15224944Y-13507508D02*
X15234467Y-13517031D01*
X15234467Y-13517031D02*
X15243991Y-13536079D01*
X15243991Y-13536079D02*
X15253515Y-13574174D01*
X15253515Y-13574174D02*
X15253515Y-13621793D01*
X15253515Y-13621793D02*
X15243991Y-13659888D01*
X15243991Y-13659888D02*
X15234467Y-13678936D01*
X15234467Y-13678936D02*
X15224944Y-13688460D01*
X15224944Y-13688460D02*
X15205896Y-13697984D01*
X15205896Y-13697984D02*
X15186848Y-13697984D01*
X15186848Y-13697984D02*
X15167801Y-13688460D01*
X15167801Y-13688460D02*
X15158277Y-13678936D01*
X15158277Y-13678936D02*
X15148753Y-13659888D01*
X15148753Y-13659888D02*
X15139229Y-13621793D01*
X15139229Y-13621793D02*
X15139229Y-13574174D01*
X15139229Y-13574174D02*
X15148753Y-13536079D01*
X15148753Y-13536079D02*
X15158277Y-13517031D01*
X15158277Y-13517031D02*
X15167801Y-13507508D01*
X15167801Y-13507508D02*
X15186848Y-13497984D01*
X15377325Y-13497984D02*
X15396372Y-13497984D01*
X15396372Y-13497984D02*
X15415420Y-13507508D01*
X15415420Y-13507508D02*
X15424944Y-13517031D01*
X15424944Y-13517031D02*
X15434467Y-13536079D01*
X15434467Y-13536079D02*
X15443991Y-13574174D01*
X15443991Y-13574174D02*
X15443991Y-13621793D01*
X15443991Y-13621793D02*
X15434467Y-13659888D01*
X15434467Y-13659888D02*
X15424944Y-13678936D01*
X15424944Y-13678936D02*
X15415420Y-13688460D01*
X15415420Y-13688460D02*
X15396372Y-13697984D01*
X15396372Y-13697984D02*
X15377325Y-13697984D01*
X15377325Y-13697984D02*
X15358277Y-13688460D01*
X15358277Y-13688460D02*
X15348753Y-13678936D01*
X15348753Y-13678936D02*
X15339229Y-13659888D01*
X15339229Y-13659888D02*
X15329706Y-13621793D01*
X15329706Y-13621793D02*
X15329706Y-13574174D01*
X15329706Y-13574174D02*
X15339229Y-13536079D01*
X15339229Y-13536079D02*
X15348753Y-13517031D01*
X15348753Y-13517031D02*
X15358277Y-13507508D01*
X15358277Y-13507508D02*
X15377325Y-13497984D01*
X15558277Y-13583698D02*
X15539229Y-13574174D01*
X15539229Y-13574174D02*
X15529706Y-13564650D01*
X15529706Y-13564650D02*
X15520182Y-13545603D01*
X15520182Y-13545603D02*
X15520182Y-13536079D01*
X15520182Y-13536079D02*
X15529706Y-13517031D01*
X15529706Y-13517031D02*
X15539229Y-13507508D01*
X15539229Y-13507508D02*
X15558277Y-13497984D01*
X15558277Y-13497984D02*
X15596372Y-13497984D01*
X15596372Y-13497984D02*
X15615420Y-13507508D01*
X15615420Y-13507508D02*
X15624944Y-13517031D01*
X15624944Y-13517031D02*
X15634467Y-13536079D01*
X15634467Y-13536079D02*
X15634467Y-13545603D01*
X15634467Y-13545603D02*
X15624944Y-13564650D01*
X15624944Y-13564650D02*
X15615420Y-13574174D01*
X15615420Y-13574174D02*
X15596372Y-13583698D01*
X15596372Y-13583698D02*
X15558277Y-13583698D01*
X15558277Y-13583698D02*
X15539229Y-13593222D01*
X15539229Y-13593222D02*
X15529706Y-13602746D01*
X15529706Y-13602746D02*
X15520182Y-13621793D01*
X15520182Y-13621793D02*
X15520182Y-13659888D01*
X15520182Y-13659888D02*
X15529706Y-13678936D01*
X15529706Y-13678936D02*
X15539229Y-13688460D01*
X15539229Y-13688460D02*
X15558277Y-13697984D01*
X15558277Y-13697984D02*
X15596372Y-13697984D01*
X15596372Y-13697984D02*
X15615420Y-13688460D01*
X15615420Y-13688460D02*
X15624944Y-13678936D01*
X15624944Y-13678936D02*
X15634467Y-13659888D01*
X15634467Y-13659888D02*
X15634467Y-13621793D01*
X15634467Y-13621793D02*
X15624944Y-13602746D01*
X15624944Y-13602746D02*
X15615420Y-13593222D01*
X15615420Y-13593222D02*
X15596372Y-13583698D01*
X15758277Y-13497984D02*
X15777325Y-13497984D01*
X15777325Y-13497984D02*
X15796372Y-13507508D01*
X15796372Y-13507508D02*
X15805896Y-13517031D01*
X15805896Y-13517031D02*
X15815420Y-13536079D01*
X15815420Y-13536079D02*
X15824944Y-13574174D01*
X15824944Y-13574174D02*
X15824944Y-13621793D01*
X15824944Y-13621793D02*
X15815420Y-13659888D01*
X15815420Y-13659888D02*
X15805896Y-13678936D01*
X15805896Y-13678936D02*
X15796372Y-13688460D01*
X15796372Y-13688460D02*
X15777325Y-13697984D01*
X15777325Y-13697984D02*
X15758277Y-13697984D01*
X15758277Y-13697984D02*
X15739229Y-13688460D01*
X15739229Y-13688460D02*
X15729706Y-13678936D01*
X15729706Y-13678936D02*
X15720182Y-13659888D01*
X15720182Y-13659888D02*
X15710658Y-13621793D01*
X15710658Y-13621793D02*
X15710658Y-13574174D01*
X15710658Y-13574174D02*
X15720182Y-13536079D01*
X15720182Y-13536079D02*
X15729706Y-13517031D01*
X15729706Y-13517031D02*
X15739229Y-13507508D01*
X15739229Y-13507508D02*
X15758277Y-13497984D01*
X15901134Y-13497984D02*
X15901134Y-13536079D01*
X15977325Y-13497984D02*
X15977325Y-13536079D01*
X16272563Y-13774174D02*
X16263039Y-13764650D01*
X16263039Y-13764650D02*
X16243991Y-13736079D01*
X16243991Y-13736079D02*
X16234468Y-13717031D01*
X16234468Y-13717031D02*
X16224944Y-13688460D01*
X16224944Y-13688460D02*
X16215420Y-13640841D01*
X16215420Y-13640841D02*
X16215420Y-13602746D01*
X16215420Y-13602746D02*
X16224944Y-13555127D01*
X16224944Y-13555127D02*
X16234468Y-13526555D01*
X16234468Y-13526555D02*
X16243991Y-13507508D01*
X16243991Y-13507508D02*
X16263039Y-13478936D01*
X16263039Y-13478936D02*
X16272563Y-13469412D01*
X16453515Y-13697984D02*
X16339229Y-13697984D01*
X16396372Y-13697984D02*
X16396372Y-13497984D01*
X16396372Y-13497984D02*
X16377325Y-13526555D01*
X16377325Y-13526555D02*
X16358277Y-13545603D01*
X16358277Y-13545603D02*
X16339229Y-13555127D01*
X16577325Y-13497984D02*
X16596372Y-13497984D01*
X16596372Y-13497984D02*
X16615420Y-13507508D01*
X16615420Y-13507508D02*
X16624944Y-13517031D01*
X16624944Y-13517031D02*
X16634468Y-13536079D01*
X16634468Y-13536079D02*
X16643991Y-13574174D01*
X16643991Y-13574174D02*
X16643991Y-13621793D01*
X16643991Y-13621793D02*
X16634468Y-13659888D01*
X16634468Y-13659888D02*
X16624944Y-13678936D01*
X16624944Y-13678936D02*
X16615420Y-13688460D01*
X16615420Y-13688460D02*
X16596372Y-13697984D01*
X16596372Y-13697984D02*
X16577325Y-13697984D01*
X16577325Y-13697984D02*
X16558277Y-13688460D01*
X16558277Y-13688460D02*
X16548753Y-13678936D01*
X16548753Y-13678936D02*
X16539229Y-13659888D01*
X16539229Y-13659888D02*
X16529706Y-13621793D01*
X16529706Y-13621793D02*
X16529706Y-13574174D01*
X16529706Y-13574174D02*
X16539229Y-13536079D01*
X16539229Y-13536079D02*
X16548753Y-13517031D01*
X16548753Y-13517031D02*
X16558277Y-13507508D01*
X16558277Y-13507508D02*
X16577325Y-13497984D01*
X16882087Y-13697984D02*
X16882087Y-13497984D01*
X16967801Y-13697984D02*
X16967801Y-13593222D01*
X16967801Y-13593222D02*
X16958277Y-13574174D01*
X16958277Y-13574174D02*
X16939230Y-13564650D01*
X16939230Y-13564650D02*
X16910658Y-13564650D01*
X16910658Y-13564650D02*
X16891611Y-13574174D01*
X16891611Y-13574174D02*
X16882087Y-13583698D01*
X17091611Y-13697984D02*
X17072563Y-13688460D01*
X17072563Y-13688460D02*
X17063039Y-13678936D01*
X17063039Y-13678936D02*
X17053515Y-13659888D01*
X17053515Y-13659888D02*
X17053515Y-13602746D01*
X17053515Y-13602746D02*
X17063039Y-13583698D01*
X17063039Y-13583698D02*
X17072563Y-13574174D01*
X17072563Y-13574174D02*
X17091611Y-13564650D01*
X17091611Y-13564650D02*
X17120182Y-13564650D01*
X17120182Y-13564650D02*
X17139230Y-13574174D01*
X17139230Y-13574174D02*
X17148753Y-13583698D01*
X17148753Y-13583698D02*
X17158277Y-13602746D01*
X17158277Y-13602746D02*
X17158277Y-13659888D01*
X17158277Y-13659888D02*
X17148753Y-13678936D01*
X17148753Y-13678936D02*
X17139230Y-13688460D01*
X17139230Y-13688460D02*
X17120182Y-13697984D01*
X17120182Y-13697984D02*
X17091611Y-13697984D01*
X17272563Y-13697984D02*
X17253515Y-13688460D01*
X17253515Y-13688460D02*
X17243992Y-13669412D01*
X17243992Y-13669412D02*
X17243992Y-13497984D01*
X17424944Y-13688460D02*
X17405896Y-13697984D01*
X17405896Y-13697984D02*
X17367801Y-13697984D01*
X17367801Y-13697984D02*
X17348753Y-13688460D01*
X17348753Y-13688460D02*
X17339230Y-13669412D01*
X17339230Y-13669412D02*
X17339230Y-13593222D01*
X17339230Y-13593222D02*
X17348753Y-13574174D01*
X17348753Y-13574174D02*
X17367801Y-13564650D01*
X17367801Y-13564650D02*
X17405896Y-13564650D01*
X17405896Y-13564650D02*
X17424944Y-13574174D01*
X17424944Y-13574174D02*
X17434468Y-13593222D01*
X17434468Y-13593222D02*
X17434468Y-13612269D01*
X17434468Y-13612269D02*
X17339230Y-13631317D01*
X17510658Y-13688460D02*
X17529706Y-13697984D01*
X17529706Y-13697984D02*
X17567801Y-13697984D01*
X17567801Y-13697984D02*
X17586849Y-13688460D01*
X17586849Y-13688460D02*
X17596373Y-13669412D01*
X17596373Y-13669412D02*
X17596373Y-13659888D01*
X17596373Y-13659888D02*
X17586849Y-13640841D01*
X17586849Y-13640841D02*
X17567801Y-13631317D01*
X17567801Y-13631317D02*
X17539230Y-13631317D01*
X17539230Y-13631317D02*
X17520182Y-13621793D01*
X17520182Y-13621793D02*
X17510658Y-13602746D01*
X17510658Y-13602746D02*
X17510658Y-13593222D01*
X17510658Y-13593222D02*
X17520182Y-13574174D01*
X17520182Y-13574174D02*
X17539230Y-13564650D01*
X17539230Y-13564650D02*
X17567801Y-13564650D01*
X17567801Y-13564650D02*
X17586849Y-13574174D01*
X17663039Y-13774174D02*
X17672563Y-13764650D01*
X17672563Y-13764650D02*
X17691611Y-13736079D01*
X17691611Y-13736079D02*
X17701134Y-13717031D01*
X17701134Y-13717031D02*
X17710658Y-13688460D01*
X17710658Y-13688460D02*
X17720182Y-13640841D01*
X17720182Y-13640841D02*
X17720182Y-13602746D01*
X17720182Y-13602746D02*
X17710658Y-13555127D01*
X17710658Y-13555127D02*
X17701134Y-13526555D01*
X17701134Y-13526555D02*
X17691611Y-13507508D01*
X17691611Y-13507508D02*
X17672563Y-13478936D01*
X17672563Y-13478936D02*
X17663039Y-13469412D01*
D12*
X12684800Y-13857800D02*
X12684800Y-13883200D01*
X12672100Y-13870500D02*
X12697500Y-13870500D01*
D11*
X12996372Y-13761984D02*
X13015420Y-13761984D01*
X13015420Y-13761984D02*
X13034467Y-13771508D01*
X13034467Y-13771508D02*
X13043991Y-13781031D01*
X13043991Y-13781031D02*
X13053515Y-13800079D01*
X13053515Y-13800079D02*
X13063039Y-13838174D01*
X13063039Y-13838174D02*
X13063039Y-13885793D01*
X13063039Y-13885793D02*
X13053515Y-13923888D01*
X13053515Y-13923888D02*
X13043991Y-13942936D01*
X13043991Y-13942936D02*
X13034467Y-13952460D01*
X13034467Y-13952460D02*
X13015420Y-13961984D01*
X13015420Y-13961984D02*
X12996372Y-13961984D01*
X12996372Y-13961984D02*
X12977324Y-13952460D01*
X12977324Y-13952460D02*
X12967801Y-13942936D01*
X12967801Y-13942936D02*
X12958277Y-13923888D01*
X12958277Y-13923888D02*
X12948753Y-13885793D01*
X12948753Y-13885793D02*
X12948753Y-13838174D01*
X12948753Y-13838174D02*
X12958277Y-13800079D01*
X12958277Y-13800079D02*
X12967801Y-13781031D01*
X12967801Y-13781031D02*
X12977324Y-13771508D01*
X12977324Y-13771508D02*
X12996372Y-13761984D01*
X13148753Y-13942936D02*
X13158277Y-13952460D01*
X13158277Y-13952460D02*
X13148753Y-13961984D01*
X13148753Y-13961984D02*
X13139229Y-13952460D01*
X13139229Y-13952460D02*
X13148753Y-13942936D01*
X13148753Y-13942936D02*
X13148753Y-13961984D01*
X13234467Y-13781031D02*
X13243991Y-13771508D01*
X13243991Y-13771508D02*
X13263039Y-13761984D01*
X13263039Y-13761984D02*
X13310658Y-13761984D01*
X13310658Y-13761984D02*
X13329705Y-13771508D01*
X13329705Y-13771508D02*
X13339229Y-13781031D01*
X13339229Y-13781031D02*
X13348753Y-13800079D01*
X13348753Y-13800079D02*
X13348753Y-13819127D01*
X13348753Y-13819127D02*
X13339229Y-13847698D01*
X13339229Y-13847698D02*
X13224943Y-13961984D01*
X13224943Y-13961984D02*
X13348753Y-13961984D01*
X13529705Y-13761984D02*
X13434467Y-13761984D01*
X13434467Y-13761984D02*
X13424943Y-13857222D01*
X13424943Y-13857222D02*
X13434467Y-13847698D01*
X13434467Y-13847698D02*
X13453515Y-13838174D01*
X13453515Y-13838174D02*
X13501134Y-13838174D01*
X13501134Y-13838174D02*
X13520182Y-13847698D01*
X13520182Y-13847698D02*
X13529705Y-13857222D01*
X13529705Y-13857222D02*
X13539229Y-13876269D01*
X13539229Y-13876269D02*
X13539229Y-13923888D01*
X13539229Y-13923888D02*
X13529705Y-13942936D01*
X13529705Y-13942936D02*
X13520182Y-13952460D01*
X13520182Y-13952460D02*
X13501134Y-13961984D01*
X13501134Y-13961984D02*
X13453515Y-13961984D01*
X13453515Y-13961984D02*
X13434467Y-13952460D01*
X13434467Y-13952460D02*
X13424943Y-13942936D01*
X13710658Y-13828650D02*
X13710658Y-13961984D01*
X13663039Y-13752460D02*
X13615420Y-13895317D01*
X13615420Y-13895317D02*
X13739229Y-13895317D01*
X13815420Y-13961984D02*
X13815420Y-13828650D01*
X13815420Y-13847698D02*
X13824943Y-13838174D01*
X13824943Y-13838174D02*
X13843991Y-13828650D01*
X13843991Y-13828650D02*
X13872563Y-13828650D01*
X13872563Y-13828650D02*
X13891610Y-13838174D01*
X13891610Y-13838174D02*
X13901134Y-13857222D01*
X13901134Y-13857222D02*
X13901134Y-13961984D01*
X13901134Y-13857222D02*
X13910658Y-13838174D01*
X13910658Y-13838174D02*
X13929705Y-13828650D01*
X13929705Y-13828650D02*
X13958277Y-13828650D01*
X13958277Y-13828650D02*
X13977324Y-13838174D01*
X13977324Y-13838174D02*
X13986848Y-13857222D01*
X13986848Y-13857222D02*
X13986848Y-13961984D01*
X14082086Y-13961984D02*
X14082086Y-13828650D01*
X14082086Y-13847698D02*
X14091610Y-13838174D01*
X14091610Y-13838174D02*
X14110658Y-13828650D01*
X14110658Y-13828650D02*
X14139229Y-13828650D01*
X14139229Y-13828650D02*
X14158277Y-13838174D01*
X14158277Y-13838174D02*
X14167801Y-13857222D01*
X14167801Y-13857222D02*
X14167801Y-13961984D01*
X14167801Y-13857222D02*
X14177324Y-13838174D01*
X14177324Y-13838174D02*
X14196372Y-13828650D01*
X14196372Y-13828650D02*
X14224943Y-13828650D01*
X14224943Y-13828650D02*
X14243991Y-13838174D01*
X14243991Y-13838174D02*
X14253515Y-13857222D01*
X14253515Y-13857222D02*
X14253515Y-13961984D01*
X14643991Y-13752460D02*
X14472563Y-14009603D01*
X14901134Y-13761984D02*
X14920182Y-13761984D01*
X14920182Y-13761984D02*
X14939229Y-13771508D01*
X14939229Y-13771508D02*
X14948753Y-13781031D01*
X14948753Y-13781031D02*
X14958277Y-13800079D01*
X14958277Y-13800079D02*
X14967801Y-13838174D01*
X14967801Y-13838174D02*
X14967801Y-13885793D01*
X14967801Y-13885793D02*
X14958277Y-13923888D01*
X14958277Y-13923888D02*
X14948753Y-13942936D01*
X14948753Y-13942936D02*
X14939229Y-13952460D01*
X14939229Y-13952460D02*
X14920182Y-13961984D01*
X14920182Y-13961984D02*
X14901134Y-13961984D01*
X14901134Y-13961984D02*
X14882086Y-13952460D01*
X14882086Y-13952460D02*
X14872563Y-13942936D01*
X14872563Y-13942936D02*
X14863039Y-13923888D01*
X14863039Y-13923888D02*
X14853515Y-13885793D01*
X14853515Y-13885793D02*
X14853515Y-13838174D01*
X14853515Y-13838174D02*
X14863039Y-13800079D01*
X14863039Y-13800079D02*
X14872563Y-13781031D01*
X14872563Y-13781031D02*
X14882086Y-13771508D01*
X14882086Y-13771508D02*
X14901134Y-13761984D01*
X15053515Y-13942936D02*
X15063039Y-13952460D01*
X15063039Y-13952460D02*
X15053515Y-13961984D01*
X15053515Y-13961984D02*
X15043991Y-13952460D01*
X15043991Y-13952460D02*
X15053515Y-13942936D01*
X15053515Y-13942936D02*
X15053515Y-13961984D01*
X15186848Y-13761984D02*
X15205896Y-13761984D01*
X15205896Y-13761984D02*
X15224944Y-13771508D01*
X15224944Y-13771508D02*
X15234467Y-13781031D01*
X15234467Y-13781031D02*
X15243991Y-13800079D01*
X15243991Y-13800079D02*
X15253515Y-13838174D01*
X15253515Y-13838174D02*
X15253515Y-13885793D01*
X15253515Y-13885793D02*
X15243991Y-13923888D01*
X15243991Y-13923888D02*
X15234467Y-13942936D01*
X15234467Y-13942936D02*
X15224944Y-13952460D01*
X15224944Y-13952460D02*
X15205896Y-13961984D01*
X15205896Y-13961984D02*
X15186848Y-13961984D01*
X15186848Y-13961984D02*
X15167801Y-13952460D01*
X15167801Y-13952460D02*
X15158277Y-13942936D01*
X15158277Y-13942936D02*
X15148753Y-13923888D01*
X15148753Y-13923888D02*
X15139229Y-13885793D01*
X15139229Y-13885793D02*
X15139229Y-13838174D01*
X15139229Y-13838174D02*
X15148753Y-13800079D01*
X15148753Y-13800079D02*
X15158277Y-13781031D01*
X15158277Y-13781031D02*
X15167801Y-13771508D01*
X15167801Y-13771508D02*
X15186848Y-13761984D01*
X15443991Y-13961984D02*
X15329706Y-13961984D01*
X15386848Y-13961984D02*
X15386848Y-13761984D01*
X15386848Y-13761984D02*
X15367801Y-13790555D01*
X15367801Y-13790555D02*
X15348753Y-13809603D01*
X15348753Y-13809603D02*
X15329706Y-13819127D01*
X15567801Y-13761984D02*
X15586848Y-13761984D01*
X15586848Y-13761984D02*
X15605896Y-13771508D01*
X15605896Y-13771508D02*
X15615420Y-13781031D01*
X15615420Y-13781031D02*
X15624944Y-13800079D01*
X15624944Y-13800079D02*
X15634467Y-13838174D01*
X15634467Y-13838174D02*
X15634467Y-13885793D01*
X15634467Y-13885793D02*
X15624944Y-13923888D01*
X15624944Y-13923888D02*
X15615420Y-13942936D01*
X15615420Y-13942936D02*
X15605896Y-13952460D01*
X15605896Y-13952460D02*
X15586848Y-13961984D01*
X15586848Y-13961984D02*
X15567801Y-13961984D01*
X15567801Y-13961984D02*
X15548753Y-13952460D01*
X15548753Y-13952460D02*
X15539229Y-13942936D01*
X15539229Y-13942936D02*
X15529706Y-13923888D01*
X15529706Y-13923888D02*
X15520182Y-13885793D01*
X15520182Y-13885793D02*
X15520182Y-13838174D01*
X15520182Y-13838174D02*
X15529706Y-13800079D01*
X15529706Y-13800079D02*
X15539229Y-13781031D01*
X15539229Y-13781031D02*
X15548753Y-13771508D01*
X15548753Y-13771508D02*
X15567801Y-13761984D01*
X15758277Y-13761984D02*
X15777325Y-13761984D01*
X15777325Y-13761984D02*
X15796372Y-13771508D01*
X15796372Y-13771508D02*
X15805896Y-13781031D01*
X15805896Y-13781031D02*
X15815420Y-13800079D01*
X15815420Y-13800079D02*
X15824944Y-13838174D01*
X15824944Y-13838174D02*
X15824944Y-13885793D01*
X15824944Y-13885793D02*
X15815420Y-13923888D01*
X15815420Y-13923888D02*
X15805896Y-13942936D01*
X15805896Y-13942936D02*
X15796372Y-13952460D01*
X15796372Y-13952460D02*
X15777325Y-13961984D01*
X15777325Y-13961984D02*
X15758277Y-13961984D01*
X15758277Y-13961984D02*
X15739229Y-13952460D01*
X15739229Y-13952460D02*
X15729706Y-13942936D01*
X15729706Y-13942936D02*
X15720182Y-13923888D01*
X15720182Y-13923888D02*
X15710658Y-13885793D01*
X15710658Y-13885793D02*
X15710658Y-13838174D01*
X15710658Y-13838174D02*
X15720182Y-13800079D01*
X15720182Y-13800079D02*
X15729706Y-13781031D01*
X15729706Y-13781031D02*
X15739229Y-13771508D01*
X15739229Y-13771508D02*
X15758277Y-13761984D01*
X15901134Y-13761984D02*
X15901134Y-13800079D01*
X15977325Y-13761984D02*
X15977325Y-13800079D01*
X16272563Y-14038174D02*
X16263039Y-14028650D01*
X16263039Y-14028650D02*
X16243991Y-14000079D01*
X16243991Y-14000079D02*
X16234468Y-13981031D01*
X16234468Y-13981031D02*
X16224944Y-13952460D01*
X16224944Y-13952460D02*
X16215420Y-13904841D01*
X16215420Y-13904841D02*
X16215420Y-13866746D01*
X16215420Y-13866746D02*
X16224944Y-13819127D01*
X16224944Y-13819127D02*
X16234468Y-13790555D01*
X16234468Y-13790555D02*
X16243991Y-13771508D01*
X16243991Y-13771508D02*
X16263039Y-13742936D01*
X16263039Y-13742936D02*
X16272563Y-13733412D01*
X16453515Y-13961984D02*
X16339229Y-13961984D01*
X16396372Y-13961984D02*
X16396372Y-13761984D01*
X16396372Y-13761984D02*
X16377325Y-13790555D01*
X16377325Y-13790555D02*
X16358277Y-13809603D01*
X16358277Y-13809603D02*
X16339229Y-13819127D01*
X16529706Y-13781031D02*
X16539229Y-13771508D01*
X16539229Y-13771508D02*
X16558277Y-13761984D01*
X16558277Y-13761984D02*
X16605896Y-13761984D01*
X16605896Y-13761984D02*
X16624944Y-13771508D01*
X16624944Y-13771508D02*
X16634468Y-13781031D01*
X16634468Y-13781031D02*
X16643991Y-13800079D01*
X16643991Y-13800079D02*
X16643991Y-13819127D01*
X16643991Y-13819127D02*
X16634468Y-13847698D01*
X16634468Y-13847698D02*
X16520182Y-13961984D01*
X16520182Y-13961984D02*
X16643991Y-13961984D01*
X16882087Y-13961984D02*
X16882087Y-13761984D01*
X16967801Y-13961984D02*
X16967801Y-13857222D01*
X16967801Y-13857222D02*
X16958277Y-13838174D01*
X16958277Y-13838174D02*
X16939230Y-13828650D01*
X16939230Y-13828650D02*
X16910658Y-13828650D01*
X16910658Y-13828650D02*
X16891611Y-13838174D01*
X16891611Y-13838174D02*
X16882087Y-13847698D01*
X17091611Y-13961984D02*
X17072563Y-13952460D01*
X17072563Y-13952460D02*
X17063039Y-13942936D01*
X17063039Y-13942936D02*
X17053515Y-13923888D01*
X17053515Y-13923888D02*
X17053515Y-13866746D01*
X17053515Y-13866746D02*
X17063039Y-13847698D01*
X17063039Y-13847698D02*
X17072563Y-13838174D01*
X17072563Y-13838174D02*
X17091611Y-13828650D01*
X17091611Y-13828650D02*
X17120182Y-13828650D01*
X17120182Y-13828650D02*
X17139230Y-13838174D01*
X17139230Y-13838174D02*
X17148753Y-13847698D01*
X17148753Y-13847698D02*
X17158277Y-13866746D01*
X17158277Y-13866746D02*
X17158277Y-13923888D01*
X17158277Y-13923888D02*
X17148753Y-13942936D01*
X17148753Y-13942936D02*
X17139230Y-13952460D01*
X17139230Y-13952460D02*
X17120182Y-13961984D01*
X17120182Y-13961984D02*
X17091611Y-13961984D01*
X17272563Y-13961984D02*
X17253515Y-13952460D01*
X17253515Y-13952460D02*
X17243992Y-13933412D01*
X17243992Y-13933412D02*
X17243992Y-13761984D01*
X17424944Y-13952460D02*
X17405896Y-13961984D01*
X17405896Y-13961984D02*
X17367801Y-13961984D01*
X17367801Y-13961984D02*
X17348753Y-13952460D01*
X17348753Y-13952460D02*
X17339230Y-13933412D01*
X17339230Y-13933412D02*
X17339230Y-13857222D01*
X17339230Y-13857222D02*
X17348753Y-13838174D01*
X17348753Y-13838174D02*
X17367801Y-13828650D01*
X17367801Y-13828650D02*
X17405896Y-13828650D01*
X17405896Y-13828650D02*
X17424944Y-13838174D01*
X17424944Y-13838174D02*
X17434468Y-13857222D01*
X17434468Y-13857222D02*
X17434468Y-13876269D01*
X17434468Y-13876269D02*
X17339230Y-13895317D01*
X17510658Y-13952460D02*
X17529706Y-13961984D01*
X17529706Y-13961984D02*
X17567801Y-13961984D01*
X17567801Y-13961984D02*
X17586849Y-13952460D01*
X17586849Y-13952460D02*
X17596373Y-13933412D01*
X17596373Y-13933412D02*
X17596373Y-13923888D01*
X17596373Y-13923888D02*
X17586849Y-13904841D01*
X17586849Y-13904841D02*
X17567801Y-13895317D01*
X17567801Y-13895317D02*
X17539230Y-13895317D01*
X17539230Y-13895317D02*
X17520182Y-13885793D01*
X17520182Y-13885793D02*
X17510658Y-13866746D01*
X17510658Y-13866746D02*
X17510658Y-13857222D01*
X17510658Y-13857222D02*
X17520182Y-13838174D01*
X17520182Y-13838174D02*
X17539230Y-13828650D01*
X17539230Y-13828650D02*
X17567801Y-13828650D01*
X17567801Y-13828650D02*
X17586849Y-13838174D01*
X17663039Y-14038174D02*
X17672563Y-14028650D01*
X17672563Y-14028650D02*
X17691611Y-14000079D01*
X17691611Y-14000079D02*
X17701134Y-13981031D01*
X17701134Y-13981031D02*
X17710658Y-13952460D01*
X17710658Y-13952460D02*
X17720182Y-13904841D01*
X17720182Y-13904841D02*
X17720182Y-13866746D01*
X17720182Y-13866746D02*
X17710658Y-13819127D01*
X17710658Y-13819127D02*
X17701134Y-13790555D01*
X17701134Y-13790555D02*
X17691611Y-13771508D01*
X17691611Y-13771508D02*
X17672563Y-13742936D01*
X17672563Y-13742936D02*
X17663039Y-13733412D01*
D12*
X12691548Y-14148868D02*
X12691548Y-14120131D01*
X12662811Y-14120131D01*
X12662811Y-14148868D01*
X12691548Y-14148868D01*
D11*
X12996372Y-14025984D02*
X13015420Y-14025984D01*
X13015420Y-14025984D02*
X13034467Y-14035508D01*
X13034467Y-14035508D02*
X13043991Y-14045031D01*
X13043991Y-14045031D02*
X13053515Y-14064079D01*
X13053515Y-14064079D02*
X13063039Y-14102174D01*
X13063039Y-14102174D02*
X13063039Y-14149793D01*
X13063039Y-14149793D02*
X13053515Y-14187888D01*
X13053515Y-14187888D02*
X13043991Y-14206936D01*
X13043991Y-14206936D02*
X13034467Y-14216460D01*
X13034467Y-14216460D02*
X13015420Y-14225984D01*
X13015420Y-14225984D02*
X12996372Y-14225984D01*
X12996372Y-14225984D02*
X12977324Y-14216460D01*
X12977324Y-14216460D02*
X12967801Y-14206936D01*
X12967801Y-14206936D02*
X12958277Y-14187888D01*
X12958277Y-14187888D02*
X12948753Y-14149793D01*
X12948753Y-14149793D02*
X12948753Y-14102174D01*
X12948753Y-14102174D02*
X12958277Y-14064079D01*
X12958277Y-14064079D02*
X12967801Y-14045031D01*
X12967801Y-14045031D02*
X12977324Y-14035508D01*
X12977324Y-14035508D02*
X12996372Y-14025984D01*
X13148753Y-14206936D02*
X13158277Y-14216460D01*
X13158277Y-14216460D02*
X13148753Y-14225984D01*
X13148753Y-14225984D02*
X13139229Y-14216460D01*
X13139229Y-14216460D02*
X13148753Y-14206936D01*
X13148753Y-14206936D02*
X13148753Y-14225984D01*
X13329705Y-14092650D02*
X13329705Y-14225984D01*
X13282086Y-14016460D02*
X13234467Y-14159317D01*
X13234467Y-14159317D02*
X13358277Y-14159317D01*
X13472562Y-14025984D02*
X13491610Y-14025984D01*
X13491610Y-14025984D02*
X13510658Y-14035508D01*
X13510658Y-14035508D02*
X13520182Y-14045031D01*
X13520182Y-14045031D02*
X13529705Y-14064079D01*
X13529705Y-14064079D02*
X13539229Y-14102174D01*
X13539229Y-14102174D02*
X13539229Y-14149793D01*
X13539229Y-14149793D02*
X13529705Y-14187888D01*
X13529705Y-14187888D02*
X13520182Y-14206936D01*
X13520182Y-14206936D02*
X13510658Y-14216460D01*
X13510658Y-14216460D02*
X13491610Y-14225984D01*
X13491610Y-14225984D02*
X13472562Y-14225984D01*
X13472562Y-14225984D02*
X13453515Y-14216460D01*
X13453515Y-14216460D02*
X13443991Y-14206936D01*
X13443991Y-14206936D02*
X13434467Y-14187888D01*
X13434467Y-14187888D02*
X13424943Y-14149793D01*
X13424943Y-14149793D02*
X13424943Y-14102174D01*
X13424943Y-14102174D02*
X13434467Y-14064079D01*
X13434467Y-14064079D02*
X13443991Y-14045031D01*
X13443991Y-14045031D02*
X13453515Y-14035508D01*
X13453515Y-14035508D02*
X13472562Y-14025984D01*
X13710658Y-14025984D02*
X13672562Y-14025984D01*
X13672562Y-14025984D02*
X13653515Y-14035508D01*
X13653515Y-14035508D02*
X13643991Y-14045031D01*
X13643991Y-14045031D02*
X13624943Y-14073603D01*
X13624943Y-14073603D02*
X13615420Y-14111698D01*
X13615420Y-14111698D02*
X13615420Y-14187888D01*
X13615420Y-14187888D02*
X13624943Y-14206936D01*
X13624943Y-14206936D02*
X13634467Y-14216460D01*
X13634467Y-14216460D02*
X13653515Y-14225984D01*
X13653515Y-14225984D02*
X13691610Y-14225984D01*
X13691610Y-14225984D02*
X13710658Y-14216460D01*
X13710658Y-14216460D02*
X13720182Y-14206936D01*
X13720182Y-14206936D02*
X13729705Y-14187888D01*
X13729705Y-14187888D02*
X13729705Y-14140269D01*
X13729705Y-14140269D02*
X13720182Y-14121222D01*
X13720182Y-14121222D02*
X13710658Y-14111698D01*
X13710658Y-14111698D02*
X13691610Y-14102174D01*
X13691610Y-14102174D02*
X13653515Y-14102174D01*
X13653515Y-14102174D02*
X13634467Y-14111698D01*
X13634467Y-14111698D02*
X13624943Y-14121222D01*
X13624943Y-14121222D02*
X13615420Y-14140269D01*
X13815420Y-14225984D02*
X13815420Y-14092650D01*
X13815420Y-14111698D02*
X13824943Y-14102174D01*
X13824943Y-14102174D02*
X13843991Y-14092650D01*
X13843991Y-14092650D02*
X13872563Y-14092650D01*
X13872563Y-14092650D02*
X13891610Y-14102174D01*
X13891610Y-14102174D02*
X13901134Y-14121222D01*
X13901134Y-14121222D02*
X13901134Y-14225984D01*
X13901134Y-14121222D02*
X13910658Y-14102174D01*
X13910658Y-14102174D02*
X13929705Y-14092650D01*
X13929705Y-14092650D02*
X13958277Y-14092650D01*
X13958277Y-14092650D02*
X13977324Y-14102174D01*
X13977324Y-14102174D02*
X13986848Y-14121222D01*
X13986848Y-14121222D02*
X13986848Y-14225984D01*
X14082086Y-14225984D02*
X14082086Y-14092650D01*
X14082086Y-14111698D02*
X14091610Y-14102174D01*
X14091610Y-14102174D02*
X14110658Y-14092650D01*
X14110658Y-14092650D02*
X14139229Y-14092650D01*
X14139229Y-14092650D02*
X14158277Y-14102174D01*
X14158277Y-14102174D02*
X14167801Y-14121222D01*
X14167801Y-14121222D02*
X14167801Y-14225984D01*
X14167801Y-14121222D02*
X14177324Y-14102174D01*
X14177324Y-14102174D02*
X14196372Y-14092650D01*
X14196372Y-14092650D02*
X14224943Y-14092650D01*
X14224943Y-14092650D02*
X14243991Y-14102174D01*
X14243991Y-14102174D02*
X14253515Y-14121222D01*
X14253515Y-14121222D02*
X14253515Y-14225984D01*
X14643991Y-14016460D02*
X14472563Y-14273603D01*
X14901134Y-14025984D02*
X14920182Y-14025984D01*
X14920182Y-14025984D02*
X14939229Y-14035508D01*
X14939229Y-14035508D02*
X14948753Y-14045031D01*
X14948753Y-14045031D02*
X14958277Y-14064079D01*
X14958277Y-14064079D02*
X14967801Y-14102174D01*
X14967801Y-14102174D02*
X14967801Y-14149793D01*
X14967801Y-14149793D02*
X14958277Y-14187888D01*
X14958277Y-14187888D02*
X14948753Y-14206936D01*
X14948753Y-14206936D02*
X14939229Y-14216460D01*
X14939229Y-14216460D02*
X14920182Y-14225984D01*
X14920182Y-14225984D02*
X14901134Y-14225984D01*
X14901134Y-14225984D02*
X14882086Y-14216460D01*
X14882086Y-14216460D02*
X14872563Y-14206936D01*
X14872563Y-14206936D02*
X14863039Y-14187888D01*
X14863039Y-14187888D02*
X14853515Y-14149793D01*
X14853515Y-14149793D02*
X14853515Y-14102174D01*
X14853515Y-14102174D02*
X14863039Y-14064079D01*
X14863039Y-14064079D02*
X14872563Y-14045031D01*
X14872563Y-14045031D02*
X14882086Y-14035508D01*
X14882086Y-14035508D02*
X14901134Y-14025984D01*
X15053515Y-14206936D02*
X15063039Y-14216460D01*
X15063039Y-14216460D02*
X15053515Y-14225984D01*
X15053515Y-14225984D02*
X15043991Y-14216460D01*
X15043991Y-14216460D02*
X15053515Y-14206936D01*
X15053515Y-14206936D02*
X15053515Y-14225984D01*
X15186848Y-14025984D02*
X15205896Y-14025984D01*
X15205896Y-14025984D02*
X15224944Y-14035508D01*
X15224944Y-14035508D02*
X15234467Y-14045031D01*
X15234467Y-14045031D02*
X15243991Y-14064079D01*
X15243991Y-14064079D02*
X15253515Y-14102174D01*
X15253515Y-14102174D02*
X15253515Y-14149793D01*
X15253515Y-14149793D02*
X15243991Y-14187888D01*
X15243991Y-14187888D02*
X15234467Y-14206936D01*
X15234467Y-14206936D02*
X15224944Y-14216460D01*
X15224944Y-14216460D02*
X15205896Y-14225984D01*
X15205896Y-14225984D02*
X15186848Y-14225984D01*
X15186848Y-14225984D02*
X15167801Y-14216460D01*
X15167801Y-14216460D02*
X15158277Y-14206936D01*
X15158277Y-14206936D02*
X15148753Y-14187888D01*
X15148753Y-14187888D02*
X15139229Y-14149793D01*
X15139229Y-14149793D02*
X15139229Y-14102174D01*
X15139229Y-14102174D02*
X15148753Y-14064079D01*
X15148753Y-14064079D02*
X15158277Y-14045031D01*
X15158277Y-14045031D02*
X15167801Y-14035508D01*
X15167801Y-14035508D02*
X15186848Y-14025984D01*
X15443991Y-14225984D02*
X15329706Y-14225984D01*
X15386848Y-14225984D02*
X15386848Y-14025984D01*
X15386848Y-14025984D02*
X15367801Y-14054555D01*
X15367801Y-14054555D02*
X15348753Y-14073603D01*
X15348753Y-14073603D02*
X15329706Y-14083127D01*
X15615420Y-14025984D02*
X15577325Y-14025984D01*
X15577325Y-14025984D02*
X15558277Y-14035508D01*
X15558277Y-14035508D02*
X15548753Y-14045031D01*
X15548753Y-14045031D02*
X15529706Y-14073603D01*
X15529706Y-14073603D02*
X15520182Y-14111698D01*
X15520182Y-14111698D02*
X15520182Y-14187888D01*
X15520182Y-14187888D02*
X15529706Y-14206936D01*
X15529706Y-14206936D02*
X15539229Y-14216460D01*
X15539229Y-14216460D02*
X15558277Y-14225984D01*
X15558277Y-14225984D02*
X15596372Y-14225984D01*
X15596372Y-14225984D02*
X15615420Y-14216460D01*
X15615420Y-14216460D02*
X15624944Y-14206936D01*
X15624944Y-14206936D02*
X15634467Y-14187888D01*
X15634467Y-14187888D02*
X15634467Y-14140269D01*
X15634467Y-14140269D02*
X15624944Y-14121222D01*
X15624944Y-14121222D02*
X15615420Y-14111698D01*
X15615420Y-14111698D02*
X15596372Y-14102174D01*
X15596372Y-14102174D02*
X15558277Y-14102174D01*
X15558277Y-14102174D02*
X15539229Y-14111698D01*
X15539229Y-14111698D02*
X15529706Y-14121222D01*
X15529706Y-14121222D02*
X15520182Y-14140269D01*
X15758277Y-14025984D02*
X15777325Y-14025984D01*
X15777325Y-14025984D02*
X15796372Y-14035508D01*
X15796372Y-14035508D02*
X15805896Y-14045031D01*
X15805896Y-14045031D02*
X15815420Y-14064079D01*
X15815420Y-14064079D02*
X15824944Y-14102174D01*
X15824944Y-14102174D02*
X15824944Y-14149793D01*
X15824944Y-14149793D02*
X15815420Y-14187888D01*
X15815420Y-14187888D02*
X15805896Y-14206936D01*
X15805896Y-14206936D02*
X15796372Y-14216460D01*
X15796372Y-14216460D02*
X15777325Y-14225984D01*
X15777325Y-14225984D02*
X15758277Y-14225984D01*
X15758277Y-14225984D02*
X15739229Y-14216460D01*
X15739229Y-14216460D02*
X15729706Y-14206936D01*
X15729706Y-14206936D02*
X15720182Y-14187888D01*
X15720182Y-14187888D02*
X15710658Y-14149793D01*
X15710658Y-14149793D02*
X15710658Y-14102174D01*
X15710658Y-14102174D02*
X15720182Y-14064079D01*
X15720182Y-14064079D02*
X15729706Y-14045031D01*
X15729706Y-14045031D02*
X15739229Y-14035508D01*
X15739229Y-14035508D02*
X15758277Y-14025984D01*
X15901134Y-14025984D02*
X15901134Y-14064079D01*
X15977325Y-14025984D02*
X15977325Y-14064079D01*
X16272563Y-14302174D02*
X16263039Y-14292650D01*
X16263039Y-14292650D02*
X16243991Y-14264079D01*
X16243991Y-14264079D02*
X16234468Y-14245031D01*
X16234468Y-14245031D02*
X16224944Y-14216460D01*
X16224944Y-14216460D02*
X16215420Y-14168841D01*
X16215420Y-14168841D02*
X16215420Y-14130746D01*
X16215420Y-14130746D02*
X16224944Y-14083127D01*
X16224944Y-14083127D02*
X16234468Y-14054555D01*
X16234468Y-14054555D02*
X16243991Y-14035508D01*
X16243991Y-14035508D02*
X16263039Y-14006936D01*
X16263039Y-14006936D02*
X16272563Y-13997412D01*
X16339229Y-14045031D02*
X16348753Y-14035508D01*
X16348753Y-14035508D02*
X16367801Y-14025984D01*
X16367801Y-14025984D02*
X16415420Y-14025984D01*
X16415420Y-14025984D02*
X16434468Y-14035508D01*
X16434468Y-14035508D02*
X16443991Y-14045031D01*
X16443991Y-14045031D02*
X16453515Y-14064079D01*
X16453515Y-14064079D02*
X16453515Y-14083127D01*
X16453515Y-14083127D02*
X16443991Y-14111698D01*
X16443991Y-14111698D02*
X16329706Y-14225984D01*
X16329706Y-14225984D02*
X16453515Y-14225984D01*
X16643991Y-14225984D02*
X16529706Y-14225984D01*
X16586848Y-14225984D02*
X16586848Y-14025984D01*
X16586848Y-14025984D02*
X16567801Y-14054555D01*
X16567801Y-14054555D02*
X16548753Y-14073603D01*
X16548753Y-14073603D02*
X16529706Y-14083127D01*
X16882087Y-14225984D02*
X16882087Y-14025984D01*
X16967801Y-14225984D02*
X16967801Y-14121222D01*
X16967801Y-14121222D02*
X16958277Y-14102174D01*
X16958277Y-14102174D02*
X16939230Y-14092650D01*
X16939230Y-14092650D02*
X16910658Y-14092650D01*
X16910658Y-14092650D02*
X16891611Y-14102174D01*
X16891611Y-14102174D02*
X16882087Y-14111698D01*
X17091611Y-14225984D02*
X17072563Y-14216460D01*
X17072563Y-14216460D02*
X17063039Y-14206936D01*
X17063039Y-14206936D02*
X17053515Y-14187888D01*
X17053515Y-14187888D02*
X17053515Y-14130746D01*
X17053515Y-14130746D02*
X17063039Y-14111698D01*
X17063039Y-14111698D02*
X17072563Y-14102174D01*
X17072563Y-14102174D02*
X17091611Y-14092650D01*
X17091611Y-14092650D02*
X17120182Y-14092650D01*
X17120182Y-14092650D02*
X17139230Y-14102174D01*
X17139230Y-14102174D02*
X17148753Y-14111698D01*
X17148753Y-14111698D02*
X17158277Y-14130746D01*
X17158277Y-14130746D02*
X17158277Y-14187888D01*
X17158277Y-14187888D02*
X17148753Y-14206936D01*
X17148753Y-14206936D02*
X17139230Y-14216460D01*
X17139230Y-14216460D02*
X17120182Y-14225984D01*
X17120182Y-14225984D02*
X17091611Y-14225984D01*
X17272563Y-14225984D02*
X17253515Y-14216460D01*
X17253515Y-14216460D02*
X17243992Y-14197412D01*
X17243992Y-14197412D02*
X17243992Y-14025984D01*
X17424944Y-14216460D02*
X17405896Y-14225984D01*
X17405896Y-14225984D02*
X17367801Y-14225984D01*
X17367801Y-14225984D02*
X17348753Y-14216460D01*
X17348753Y-14216460D02*
X17339230Y-14197412D01*
X17339230Y-14197412D02*
X17339230Y-14121222D01*
X17339230Y-14121222D02*
X17348753Y-14102174D01*
X17348753Y-14102174D02*
X17367801Y-14092650D01*
X17367801Y-14092650D02*
X17405896Y-14092650D01*
X17405896Y-14092650D02*
X17424944Y-14102174D01*
X17424944Y-14102174D02*
X17434468Y-14121222D01*
X17434468Y-14121222D02*
X17434468Y-14140269D01*
X17434468Y-14140269D02*
X17339230Y-14159317D01*
X17510658Y-14216460D02*
X17529706Y-14225984D01*
X17529706Y-14225984D02*
X17567801Y-14225984D01*
X17567801Y-14225984D02*
X17586849Y-14216460D01*
X17586849Y-14216460D02*
X17596373Y-14197412D01*
X17596373Y-14197412D02*
X17596373Y-14187888D01*
X17596373Y-14187888D02*
X17586849Y-14168841D01*
X17586849Y-14168841D02*
X17567801Y-14159317D01*
X17567801Y-14159317D02*
X17539230Y-14159317D01*
X17539230Y-14159317D02*
X17520182Y-14149793D01*
X17520182Y-14149793D02*
X17510658Y-14130746D01*
X17510658Y-14130746D02*
X17510658Y-14121222D01*
X17510658Y-14121222D02*
X17520182Y-14102174D01*
X17520182Y-14102174D02*
X17539230Y-14092650D01*
X17539230Y-14092650D02*
X17567801Y-14092650D01*
X17567801Y-14092650D02*
X17586849Y-14102174D01*
X17663039Y-14302174D02*
X17672563Y-14292650D01*
X17672563Y-14292650D02*
X17691611Y-14264079D01*
X17691611Y-14264079D02*
X17701134Y-14245031D01*
X17701134Y-14245031D02*
X17710658Y-14216460D01*
X17710658Y-14216460D02*
X17720182Y-14168841D01*
X17720182Y-14168841D02*
X17720182Y-14130746D01*
X17720182Y-14130746D02*
X17710658Y-14083127D01*
X17710658Y-14083127D02*
X17701134Y-14054555D01*
X17701134Y-14054555D02*
X17691611Y-14035508D01*
X17691611Y-14035508D02*
X17672563Y-14006936D01*
X17672563Y-14006936D02*
X17663039Y-13997412D01*
D12*
X12667500Y-14428500D02*
X12697500Y-14398500D01*
X12667500Y-14368500D01*
X12637500Y-14398500D01*
X12667500Y-14428500D01*
D11*
X12996372Y-14289984D02*
X13015420Y-14289984D01*
X13015420Y-14289984D02*
X13034467Y-14299508D01*
X13034467Y-14299508D02*
X13043991Y-14309031D01*
X13043991Y-14309031D02*
X13053515Y-14328079D01*
X13053515Y-14328079D02*
X13063039Y-14366174D01*
X13063039Y-14366174D02*
X13063039Y-14413793D01*
X13063039Y-14413793D02*
X13053515Y-14451888D01*
X13053515Y-14451888D02*
X13043991Y-14470936D01*
X13043991Y-14470936D02*
X13034467Y-14480460D01*
X13034467Y-14480460D02*
X13015420Y-14489984D01*
X13015420Y-14489984D02*
X12996372Y-14489984D01*
X12996372Y-14489984D02*
X12977324Y-14480460D01*
X12977324Y-14480460D02*
X12967801Y-14470936D01*
X12967801Y-14470936D02*
X12958277Y-14451888D01*
X12958277Y-14451888D02*
X12948753Y-14413793D01*
X12948753Y-14413793D02*
X12948753Y-14366174D01*
X12948753Y-14366174D02*
X12958277Y-14328079D01*
X12958277Y-14328079D02*
X12967801Y-14309031D01*
X12967801Y-14309031D02*
X12977324Y-14299508D01*
X12977324Y-14299508D02*
X12996372Y-14289984D01*
X13148753Y-14470936D02*
X13158277Y-14480460D01*
X13158277Y-14480460D02*
X13148753Y-14489984D01*
X13148753Y-14489984D02*
X13139229Y-14480460D01*
X13139229Y-14480460D02*
X13148753Y-14470936D01*
X13148753Y-14470936D02*
X13148753Y-14489984D01*
X13329705Y-14289984D02*
X13291610Y-14289984D01*
X13291610Y-14289984D02*
X13272562Y-14299508D01*
X13272562Y-14299508D02*
X13263039Y-14309031D01*
X13263039Y-14309031D02*
X13243991Y-14337603D01*
X13243991Y-14337603D02*
X13234467Y-14375698D01*
X13234467Y-14375698D02*
X13234467Y-14451888D01*
X13234467Y-14451888D02*
X13243991Y-14470936D01*
X13243991Y-14470936D02*
X13253515Y-14480460D01*
X13253515Y-14480460D02*
X13272562Y-14489984D01*
X13272562Y-14489984D02*
X13310658Y-14489984D01*
X13310658Y-14489984D02*
X13329705Y-14480460D01*
X13329705Y-14480460D02*
X13339229Y-14470936D01*
X13339229Y-14470936D02*
X13348753Y-14451888D01*
X13348753Y-14451888D02*
X13348753Y-14404269D01*
X13348753Y-14404269D02*
X13339229Y-14385222D01*
X13339229Y-14385222D02*
X13329705Y-14375698D01*
X13329705Y-14375698D02*
X13310658Y-14366174D01*
X13310658Y-14366174D02*
X13272562Y-14366174D01*
X13272562Y-14366174D02*
X13253515Y-14375698D01*
X13253515Y-14375698D02*
X13243991Y-14385222D01*
X13243991Y-14385222D02*
X13234467Y-14404269D01*
X13472562Y-14289984D02*
X13491610Y-14289984D01*
X13491610Y-14289984D02*
X13510658Y-14299508D01*
X13510658Y-14299508D02*
X13520182Y-14309031D01*
X13520182Y-14309031D02*
X13529705Y-14328079D01*
X13529705Y-14328079D02*
X13539229Y-14366174D01*
X13539229Y-14366174D02*
X13539229Y-14413793D01*
X13539229Y-14413793D02*
X13529705Y-14451888D01*
X13529705Y-14451888D02*
X13520182Y-14470936D01*
X13520182Y-14470936D02*
X13510658Y-14480460D01*
X13510658Y-14480460D02*
X13491610Y-14489984D01*
X13491610Y-14489984D02*
X13472562Y-14489984D01*
X13472562Y-14489984D02*
X13453515Y-14480460D01*
X13453515Y-14480460D02*
X13443991Y-14470936D01*
X13443991Y-14470936D02*
X13434467Y-14451888D01*
X13434467Y-14451888D02*
X13424943Y-14413793D01*
X13424943Y-14413793D02*
X13424943Y-14366174D01*
X13424943Y-14366174D02*
X13434467Y-14328079D01*
X13434467Y-14328079D02*
X13443991Y-14309031D01*
X13443991Y-14309031D02*
X13453515Y-14299508D01*
X13453515Y-14299508D02*
X13472562Y-14289984D01*
X13663039Y-14289984D02*
X13682086Y-14289984D01*
X13682086Y-14289984D02*
X13701134Y-14299508D01*
X13701134Y-14299508D02*
X13710658Y-14309031D01*
X13710658Y-14309031D02*
X13720182Y-14328079D01*
X13720182Y-14328079D02*
X13729705Y-14366174D01*
X13729705Y-14366174D02*
X13729705Y-14413793D01*
X13729705Y-14413793D02*
X13720182Y-14451888D01*
X13720182Y-14451888D02*
X13710658Y-14470936D01*
X13710658Y-14470936D02*
X13701134Y-14480460D01*
X13701134Y-14480460D02*
X13682086Y-14489984D01*
X13682086Y-14489984D02*
X13663039Y-14489984D01*
X13663039Y-14489984D02*
X13643991Y-14480460D01*
X13643991Y-14480460D02*
X13634467Y-14470936D01*
X13634467Y-14470936D02*
X13624943Y-14451888D01*
X13624943Y-14451888D02*
X13615420Y-14413793D01*
X13615420Y-14413793D02*
X13615420Y-14366174D01*
X13615420Y-14366174D02*
X13624943Y-14328079D01*
X13624943Y-14328079D02*
X13634467Y-14309031D01*
X13634467Y-14309031D02*
X13643991Y-14299508D01*
X13643991Y-14299508D02*
X13663039Y-14289984D01*
X13815420Y-14489984D02*
X13815420Y-14356650D01*
X13815420Y-14375698D02*
X13824943Y-14366174D01*
X13824943Y-14366174D02*
X13843991Y-14356650D01*
X13843991Y-14356650D02*
X13872563Y-14356650D01*
X13872563Y-14356650D02*
X13891610Y-14366174D01*
X13891610Y-14366174D02*
X13901134Y-14385222D01*
X13901134Y-14385222D02*
X13901134Y-14489984D01*
X13901134Y-14385222D02*
X13910658Y-14366174D01*
X13910658Y-14366174D02*
X13929705Y-14356650D01*
X13929705Y-14356650D02*
X13958277Y-14356650D01*
X13958277Y-14356650D02*
X13977324Y-14366174D01*
X13977324Y-14366174D02*
X13986848Y-14385222D01*
X13986848Y-14385222D02*
X13986848Y-14489984D01*
X14082086Y-14489984D02*
X14082086Y-14356650D01*
X14082086Y-14375698D02*
X14091610Y-14366174D01*
X14091610Y-14366174D02*
X14110658Y-14356650D01*
X14110658Y-14356650D02*
X14139229Y-14356650D01*
X14139229Y-14356650D02*
X14158277Y-14366174D01*
X14158277Y-14366174D02*
X14167801Y-14385222D01*
X14167801Y-14385222D02*
X14167801Y-14489984D01*
X14167801Y-14385222D02*
X14177324Y-14366174D01*
X14177324Y-14366174D02*
X14196372Y-14356650D01*
X14196372Y-14356650D02*
X14224943Y-14356650D01*
X14224943Y-14356650D02*
X14243991Y-14366174D01*
X14243991Y-14366174D02*
X14253515Y-14385222D01*
X14253515Y-14385222D02*
X14253515Y-14489984D01*
X14643991Y-14280460D02*
X14472563Y-14537603D01*
X14901134Y-14289984D02*
X14920182Y-14289984D01*
X14920182Y-14289984D02*
X14939229Y-14299508D01*
X14939229Y-14299508D02*
X14948753Y-14309031D01*
X14948753Y-14309031D02*
X14958277Y-14328079D01*
X14958277Y-14328079D02*
X14967801Y-14366174D01*
X14967801Y-14366174D02*
X14967801Y-14413793D01*
X14967801Y-14413793D02*
X14958277Y-14451888D01*
X14958277Y-14451888D02*
X14948753Y-14470936D01*
X14948753Y-14470936D02*
X14939229Y-14480460D01*
X14939229Y-14480460D02*
X14920182Y-14489984D01*
X14920182Y-14489984D02*
X14901134Y-14489984D01*
X14901134Y-14489984D02*
X14882086Y-14480460D01*
X14882086Y-14480460D02*
X14872563Y-14470936D01*
X14872563Y-14470936D02*
X14863039Y-14451888D01*
X14863039Y-14451888D02*
X14853515Y-14413793D01*
X14853515Y-14413793D02*
X14853515Y-14366174D01*
X14853515Y-14366174D02*
X14863039Y-14328079D01*
X14863039Y-14328079D02*
X14872563Y-14309031D01*
X14872563Y-14309031D02*
X14882086Y-14299508D01*
X14882086Y-14299508D02*
X14901134Y-14289984D01*
X15053515Y-14470936D02*
X15063039Y-14480460D01*
X15063039Y-14480460D02*
X15053515Y-14489984D01*
X15053515Y-14489984D02*
X15043991Y-14480460D01*
X15043991Y-14480460D02*
X15053515Y-14470936D01*
X15053515Y-14470936D02*
X15053515Y-14489984D01*
X15186848Y-14289984D02*
X15205896Y-14289984D01*
X15205896Y-14289984D02*
X15224944Y-14299508D01*
X15224944Y-14299508D02*
X15234467Y-14309031D01*
X15234467Y-14309031D02*
X15243991Y-14328079D01*
X15243991Y-14328079D02*
X15253515Y-14366174D01*
X15253515Y-14366174D02*
X15253515Y-14413793D01*
X15253515Y-14413793D02*
X15243991Y-14451888D01*
X15243991Y-14451888D02*
X15234467Y-14470936D01*
X15234467Y-14470936D02*
X15224944Y-14480460D01*
X15224944Y-14480460D02*
X15205896Y-14489984D01*
X15205896Y-14489984D02*
X15186848Y-14489984D01*
X15186848Y-14489984D02*
X15167801Y-14480460D01*
X15167801Y-14480460D02*
X15158277Y-14470936D01*
X15158277Y-14470936D02*
X15148753Y-14451888D01*
X15148753Y-14451888D02*
X15139229Y-14413793D01*
X15139229Y-14413793D02*
X15139229Y-14366174D01*
X15139229Y-14366174D02*
X15148753Y-14328079D01*
X15148753Y-14328079D02*
X15158277Y-14309031D01*
X15158277Y-14309031D02*
X15167801Y-14299508D01*
X15167801Y-14299508D02*
X15186848Y-14289984D01*
X15329706Y-14309031D02*
X15339229Y-14299508D01*
X15339229Y-14299508D02*
X15358277Y-14289984D01*
X15358277Y-14289984D02*
X15405896Y-14289984D01*
X15405896Y-14289984D02*
X15424944Y-14299508D01*
X15424944Y-14299508D02*
X15434467Y-14309031D01*
X15434467Y-14309031D02*
X15443991Y-14328079D01*
X15443991Y-14328079D02*
X15443991Y-14347127D01*
X15443991Y-14347127D02*
X15434467Y-14375698D01*
X15434467Y-14375698D02*
X15320182Y-14489984D01*
X15320182Y-14489984D02*
X15443991Y-14489984D01*
X15510658Y-14289984D02*
X15634467Y-14289984D01*
X15634467Y-14289984D02*
X15567801Y-14366174D01*
X15567801Y-14366174D02*
X15596372Y-14366174D01*
X15596372Y-14366174D02*
X15615420Y-14375698D01*
X15615420Y-14375698D02*
X15624944Y-14385222D01*
X15624944Y-14385222D02*
X15634467Y-14404269D01*
X15634467Y-14404269D02*
X15634467Y-14451888D01*
X15634467Y-14451888D02*
X15624944Y-14470936D01*
X15624944Y-14470936D02*
X15615420Y-14480460D01*
X15615420Y-14480460D02*
X15596372Y-14489984D01*
X15596372Y-14489984D02*
X15539229Y-14489984D01*
X15539229Y-14489984D02*
X15520182Y-14480460D01*
X15520182Y-14480460D02*
X15510658Y-14470936D01*
X15805896Y-14289984D02*
X15767801Y-14289984D01*
X15767801Y-14289984D02*
X15748753Y-14299508D01*
X15748753Y-14299508D02*
X15739229Y-14309031D01*
X15739229Y-14309031D02*
X15720182Y-14337603D01*
X15720182Y-14337603D02*
X15710658Y-14375698D01*
X15710658Y-14375698D02*
X15710658Y-14451888D01*
X15710658Y-14451888D02*
X15720182Y-14470936D01*
X15720182Y-14470936D02*
X15729706Y-14480460D01*
X15729706Y-14480460D02*
X15748753Y-14489984D01*
X15748753Y-14489984D02*
X15786848Y-14489984D01*
X15786848Y-14489984D02*
X15805896Y-14480460D01*
X15805896Y-14480460D02*
X15815420Y-14470936D01*
X15815420Y-14470936D02*
X15824944Y-14451888D01*
X15824944Y-14451888D02*
X15824944Y-14404269D01*
X15824944Y-14404269D02*
X15815420Y-14385222D01*
X15815420Y-14385222D02*
X15805896Y-14375698D01*
X15805896Y-14375698D02*
X15786848Y-14366174D01*
X15786848Y-14366174D02*
X15748753Y-14366174D01*
X15748753Y-14366174D02*
X15729706Y-14375698D01*
X15729706Y-14375698D02*
X15720182Y-14385222D01*
X15720182Y-14385222D02*
X15710658Y-14404269D01*
X15901134Y-14289984D02*
X15901134Y-14328079D01*
X15977325Y-14289984D02*
X15977325Y-14328079D01*
X16272563Y-14566174D02*
X16263039Y-14556650D01*
X16263039Y-14556650D02*
X16243991Y-14528079D01*
X16243991Y-14528079D02*
X16234468Y-14509031D01*
X16234468Y-14509031D02*
X16224944Y-14480460D01*
X16224944Y-14480460D02*
X16215420Y-14432841D01*
X16215420Y-14432841D02*
X16215420Y-14394746D01*
X16215420Y-14394746D02*
X16224944Y-14347127D01*
X16224944Y-14347127D02*
X16234468Y-14318555D01*
X16234468Y-14318555D02*
X16243991Y-14299508D01*
X16243991Y-14299508D02*
X16263039Y-14270936D01*
X16263039Y-14270936D02*
X16272563Y-14261412D01*
X16386848Y-14289984D02*
X16405896Y-14289984D01*
X16405896Y-14289984D02*
X16424944Y-14299508D01*
X16424944Y-14299508D02*
X16434468Y-14309031D01*
X16434468Y-14309031D02*
X16443991Y-14328079D01*
X16443991Y-14328079D02*
X16453515Y-14366174D01*
X16453515Y-14366174D02*
X16453515Y-14413793D01*
X16453515Y-14413793D02*
X16443991Y-14451888D01*
X16443991Y-14451888D02*
X16434468Y-14470936D01*
X16434468Y-14470936D02*
X16424944Y-14480460D01*
X16424944Y-14480460D02*
X16405896Y-14489984D01*
X16405896Y-14489984D02*
X16386848Y-14489984D01*
X16386848Y-14489984D02*
X16367801Y-14480460D01*
X16367801Y-14480460D02*
X16358277Y-14470936D01*
X16358277Y-14470936D02*
X16348753Y-14451888D01*
X16348753Y-14451888D02*
X16339229Y-14413793D01*
X16339229Y-14413793D02*
X16339229Y-14366174D01*
X16339229Y-14366174D02*
X16348753Y-14328079D01*
X16348753Y-14328079D02*
X16358277Y-14309031D01*
X16358277Y-14309031D02*
X16367801Y-14299508D01*
X16367801Y-14299508D02*
X16386848Y-14289984D01*
X16691610Y-14489984D02*
X16691610Y-14289984D01*
X16777325Y-14489984D02*
X16777325Y-14385222D01*
X16777325Y-14385222D02*
X16767801Y-14366174D01*
X16767801Y-14366174D02*
X16748753Y-14356650D01*
X16748753Y-14356650D02*
X16720182Y-14356650D01*
X16720182Y-14356650D02*
X16701134Y-14366174D01*
X16701134Y-14366174D02*
X16691610Y-14375698D01*
X16901134Y-14489984D02*
X16882087Y-14480460D01*
X16882087Y-14480460D02*
X16872563Y-14470936D01*
X16872563Y-14470936D02*
X16863039Y-14451888D01*
X16863039Y-14451888D02*
X16863039Y-14394746D01*
X16863039Y-14394746D02*
X16872563Y-14375698D01*
X16872563Y-14375698D02*
X16882087Y-14366174D01*
X16882087Y-14366174D02*
X16901134Y-14356650D01*
X16901134Y-14356650D02*
X16929706Y-14356650D01*
X16929706Y-14356650D02*
X16948753Y-14366174D01*
X16948753Y-14366174D02*
X16958277Y-14375698D01*
X16958277Y-14375698D02*
X16967801Y-14394746D01*
X16967801Y-14394746D02*
X16967801Y-14451888D01*
X16967801Y-14451888D02*
X16958277Y-14470936D01*
X16958277Y-14470936D02*
X16948753Y-14480460D01*
X16948753Y-14480460D02*
X16929706Y-14489984D01*
X16929706Y-14489984D02*
X16901134Y-14489984D01*
X17082087Y-14489984D02*
X17063039Y-14480460D01*
X17063039Y-14480460D02*
X17053515Y-14461412D01*
X17053515Y-14461412D02*
X17053515Y-14289984D01*
X17234468Y-14480460D02*
X17215420Y-14489984D01*
X17215420Y-14489984D02*
X17177325Y-14489984D01*
X17177325Y-14489984D02*
X17158277Y-14480460D01*
X17158277Y-14480460D02*
X17148753Y-14461412D01*
X17148753Y-14461412D02*
X17148753Y-14385222D01*
X17148753Y-14385222D02*
X17158277Y-14366174D01*
X17158277Y-14366174D02*
X17177325Y-14356650D01*
X17177325Y-14356650D02*
X17215420Y-14356650D01*
X17215420Y-14356650D02*
X17234468Y-14366174D01*
X17234468Y-14366174D02*
X17243992Y-14385222D01*
X17243992Y-14385222D02*
X17243992Y-14404269D01*
X17243992Y-14404269D02*
X17148753Y-14423317D01*
X17320182Y-14480460D02*
X17339230Y-14489984D01*
X17339230Y-14489984D02*
X17377325Y-14489984D01*
X17377325Y-14489984D02*
X17396373Y-14480460D01*
X17396373Y-14480460D02*
X17405896Y-14461412D01*
X17405896Y-14461412D02*
X17405896Y-14451888D01*
X17405896Y-14451888D02*
X17396373Y-14432841D01*
X17396373Y-14432841D02*
X17377325Y-14423317D01*
X17377325Y-14423317D02*
X17348753Y-14423317D01*
X17348753Y-14423317D02*
X17329706Y-14413793D01*
X17329706Y-14413793D02*
X17320182Y-14394746D01*
X17320182Y-14394746D02*
X17320182Y-14385222D01*
X17320182Y-14385222D02*
X17329706Y-14366174D01*
X17329706Y-14366174D02*
X17348753Y-14356650D01*
X17348753Y-14356650D02*
X17377325Y-14356650D01*
X17377325Y-14356650D02*
X17396373Y-14366174D01*
X17643992Y-14413793D02*
X17796373Y-14413793D01*
X17720182Y-14489984D02*
X17720182Y-14337603D01*
X18129706Y-14356650D02*
X18129706Y-14489984D01*
X18082087Y-14280460D02*
X18034468Y-14423317D01*
X18034468Y-14423317D02*
X18158277Y-14423317D01*
X18377325Y-14480460D02*
X18396373Y-14489984D01*
X18396373Y-14489984D02*
X18434468Y-14489984D01*
X18434468Y-14489984D02*
X18453516Y-14480460D01*
X18453516Y-14480460D02*
X18463039Y-14461412D01*
X18463039Y-14461412D02*
X18463039Y-14451888D01*
X18463039Y-14451888D02*
X18453516Y-14432841D01*
X18453516Y-14432841D02*
X18434468Y-14423317D01*
X18434468Y-14423317D02*
X18405896Y-14423317D01*
X18405896Y-14423317D02*
X18386849Y-14413793D01*
X18386849Y-14413793D02*
X18377325Y-14394746D01*
X18377325Y-14394746D02*
X18377325Y-14385222D01*
X18377325Y-14385222D02*
X18386849Y-14366174D01*
X18386849Y-14366174D02*
X18405896Y-14356650D01*
X18405896Y-14356650D02*
X18434468Y-14356650D01*
X18434468Y-14356650D02*
X18453516Y-14366174D01*
X18577325Y-14489984D02*
X18558277Y-14480460D01*
X18558277Y-14480460D02*
X18548754Y-14461412D01*
X18548754Y-14461412D02*
X18548754Y-14289984D01*
X18682087Y-14489984D02*
X18663039Y-14480460D01*
X18663039Y-14480460D02*
X18653516Y-14470936D01*
X18653516Y-14470936D02*
X18643992Y-14451888D01*
X18643992Y-14451888D02*
X18643992Y-14394746D01*
X18643992Y-14394746D02*
X18653516Y-14375698D01*
X18653516Y-14375698D02*
X18663039Y-14366174D01*
X18663039Y-14366174D02*
X18682087Y-14356650D01*
X18682087Y-14356650D02*
X18710658Y-14356650D01*
X18710658Y-14356650D02*
X18729706Y-14366174D01*
X18729706Y-14366174D02*
X18739230Y-14375698D01*
X18739230Y-14375698D02*
X18748754Y-14394746D01*
X18748754Y-14394746D02*
X18748754Y-14451888D01*
X18748754Y-14451888D02*
X18739230Y-14470936D01*
X18739230Y-14470936D02*
X18729706Y-14480460D01*
X18729706Y-14480460D02*
X18710658Y-14489984D01*
X18710658Y-14489984D02*
X18682087Y-14489984D01*
X18805897Y-14356650D02*
X18882087Y-14356650D01*
X18834468Y-14289984D02*
X18834468Y-14461412D01*
X18834468Y-14461412D02*
X18843992Y-14480460D01*
X18843992Y-14480460D02*
X18863039Y-14489984D01*
X18863039Y-14489984D02*
X18882087Y-14489984D01*
X18939230Y-14480460D02*
X18958277Y-14489984D01*
X18958277Y-14489984D02*
X18996373Y-14489984D01*
X18996373Y-14489984D02*
X19015420Y-14480460D01*
X19015420Y-14480460D02*
X19024944Y-14461412D01*
X19024944Y-14461412D02*
X19024944Y-14451888D01*
X19024944Y-14451888D02*
X19015420Y-14432841D01*
X19015420Y-14432841D02*
X18996373Y-14423317D01*
X18996373Y-14423317D02*
X18967801Y-14423317D01*
X18967801Y-14423317D02*
X18948754Y-14413793D01*
X18948754Y-14413793D02*
X18939230Y-14394746D01*
X18939230Y-14394746D02*
X18939230Y-14385222D01*
X18939230Y-14385222D02*
X18948754Y-14366174D01*
X18948754Y-14366174D02*
X18967801Y-14356650D01*
X18967801Y-14356650D02*
X18996373Y-14356650D01*
X18996373Y-14356650D02*
X19015420Y-14366174D01*
X19091611Y-14566174D02*
X19101135Y-14556650D01*
X19101135Y-14556650D02*
X19120182Y-14528079D01*
X19120182Y-14528079D02*
X19129706Y-14509031D01*
X19129706Y-14509031D02*
X19139230Y-14480460D01*
X19139230Y-14480460D02*
X19148754Y-14432841D01*
X19148754Y-14432841D02*
X19148754Y-14394746D01*
X19148754Y-14394746D02*
X19139230Y-14347127D01*
X19139230Y-14347127D02*
X19129706Y-14318555D01*
X19129706Y-14318555D02*
X19120182Y-14299508D01*
X19120182Y-14299508D02*
X19101135Y-14270936D01*
X19101135Y-14270936D02*
X19091611Y-14261412D01*
D12*
X12597500Y-14612500D02*
X12697500Y-14712500D01*
X12697500Y-14612500D02*
X12597500Y-14712500D01*
X12697500Y-14662500D02*
G75*
G02*
X12597500Y-14662500I-50000J0D01*
G01*
X12597500Y-14662500D02*
G75*
G02*
X12697500Y-14662500I50000J0D01*
G01*
D11*
X13063039Y-14753984D02*
X12948753Y-14753984D01*
X13005896Y-14753984D02*
X13005896Y-14553984D01*
X13005896Y-14553984D02*
X12986848Y-14582555D01*
X12986848Y-14582555D02*
X12967801Y-14601603D01*
X12967801Y-14601603D02*
X12948753Y-14611127D01*
X13148753Y-14734936D02*
X13158277Y-14744460D01*
X13158277Y-14744460D02*
X13148753Y-14753984D01*
X13148753Y-14753984D02*
X13139229Y-14744460D01*
X13139229Y-14744460D02*
X13148753Y-14734936D01*
X13148753Y-14734936D02*
X13148753Y-14753984D01*
X13282086Y-14553984D02*
X13301134Y-14553984D01*
X13301134Y-14553984D02*
X13320182Y-14563508D01*
X13320182Y-14563508D02*
X13329705Y-14573031D01*
X13329705Y-14573031D02*
X13339229Y-14592079D01*
X13339229Y-14592079D02*
X13348753Y-14630174D01*
X13348753Y-14630174D02*
X13348753Y-14677793D01*
X13348753Y-14677793D02*
X13339229Y-14715888D01*
X13339229Y-14715888D02*
X13329705Y-14734936D01*
X13329705Y-14734936D02*
X13320182Y-14744460D01*
X13320182Y-14744460D02*
X13301134Y-14753984D01*
X13301134Y-14753984D02*
X13282086Y-14753984D01*
X13282086Y-14753984D02*
X13263039Y-14744460D01*
X13263039Y-14744460D02*
X13253515Y-14734936D01*
X13253515Y-14734936D02*
X13243991Y-14715888D01*
X13243991Y-14715888D02*
X13234467Y-14677793D01*
X13234467Y-14677793D02*
X13234467Y-14630174D01*
X13234467Y-14630174D02*
X13243991Y-14592079D01*
X13243991Y-14592079D02*
X13253515Y-14573031D01*
X13253515Y-14573031D02*
X13263039Y-14563508D01*
X13263039Y-14563508D02*
X13282086Y-14553984D01*
X13472562Y-14553984D02*
X13491610Y-14553984D01*
X13491610Y-14553984D02*
X13510658Y-14563508D01*
X13510658Y-14563508D02*
X13520182Y-14573031D01*
X13520182Y-14573031D02*
X13529705Y-14592079D01*
X13529705Y-14592079D02*
X13539229Y-14630174D01*
X13539229Y-14630174D02*
X13539229Y-14677793D01*
X13539229Y-14677793D02*
X13529705Y-14715888D01*
X13529705Y-14715888D02*
X13520182Y-14734936D01*
X13520182Y-14734936D02*
X13510658Y-14744460D01*
X13510658Y-14744460D02*
X13491610Y-14753984D01*
X13491610Y-14753984D02*
X13472562Y-14753984D01*
X13472562Y-14753984D02*
X13453515Y-14744460D01*
X13453515Y-14744460D02*
X13443991Y-14734936D01*
X13443991Y-14734936D02*
X13434467Y-14715888D01*
X13434467Y-14715888D02*
X13424943Y-14677793D01*
X13424943Y-14677793D02*
X13424943Y-14630174D01*
X13424943Y-14630174D02*
X13434467Y-14592079D01*
X13434467Y-14592079D02*
X13443991Y-14573031D01*
X13443991Y-14573031D02*
X13453515Y-14563508D01*
X13453515Y-14563508D02*
X13472562Y-14553984D01*
X13663039Y-14553984D02*
X13682086Y-14553984D01*
X13682086Y-14553984D02*
X13701134Y-14563508D01*
X13701134Y-14563508D02*
X13710658Y-14573031D01*
X13710658Y-14573031D02*
X13720182Y-14592079D01*
X13720182Y-14592079D02*
X13729705Y-14630174D01*
X13729705Y-14630174D02*
X13729705Y-14677793D01*
X13729705Y-14677793D02*
X13720182Y-14715888D01*
X13720182Y-14715888D02*
X13710658Y-14734936D01*
X13710658Y-14734936D02*
X13701134Y-14744460D01*
X13701134Y-14744460D02*
X13682086Y-14753984D01*
X13682086Y-14753984D02*
X13663039Y-14753984D01*
X13663039Y-14753984D02*
X13643991Y-14744460D01*
X13643991Y-14744460D02*
X13634467Y-14734936D01*
X13634467Y-14734936D02*
X13624943Y-14715888D01*
X13624943Y-14715888D02*
X13615420Y-14677793D01*
X13615420Y-14677793D02*
X13615420Y-14630174D01*
X13615420Y-14630174D02*
X13624943Y-14592079D01*
X13624943Y-14592079D02*
X13634467Y-14573031D01*
X13634467Y-14573031D02*
X13643991Y-14563508D01*
X13643991Y-14563508D02*
X13663039Y-14553984D01*
X13815420Y-14753984D02*
X13815420Y-14620650D01*
X13815420Y-14639698D02*
X13824943Y-14630174D01*
X13824943Y-14630174D02*
X13843991Y-14620650D01*
X13843991Y-14620650D02*
X13872563Y-14620650D01*
X13872563Y-14620650D02*
X13891610Y-14630174D01*
X13891610Y-14630174D02*
X13901134Y-14649222D01*
X13901134Y-14649222D02*
X13901134Y-14753984D01*
X13901134Y-14649222D02*
X13910658Y-14630174D01*
X13910658Y-14630174D02*
X13929705Y-14620650D01*
X13929705Y-14620650D02*
X13958277Y-14620650D01*
X13958277Y-14620650D02*
X13977324Y-14630174D01*
X13977324Y-14630174D02*
X13986848Y-14649222D01*
X13986848Y-14649222D02*
X13986848Y-14753984D01*
X14082086Y-14753984D02*
X14082086Y-14620650D01*
X14082086Y-14639698D02*
X14091610Y-14630174D01*
X14091610Y-14630174D02*
X14110658Y-14620650D01*
X14110658Y-14620650D02*
X14139229Y-14620650D01*
X14139229Y-14620650D02*
X14158277Y-14630174D01*
X14158277Y-14630174D02*
X14167801Y-14649222D01*
X14167801Y-14649222D02*
X14167801Y-14753984D01*
X14167801Y-14649222D02*
X14177324Y-14630174D01*
X14177324Y-14630174D02*
X14196372Y-14620650D01*
X14196372Y-14620650D02*
X14224943Y-14620650D01*
X14224943Y-14620650D02*
X14243991Y-14630174D01*
X14243991Y-14630174D02*
X14253515Y-14649222D01*
X14253515Y-14649222D02*
X14253515Y-14753984D01*
X14643991Y-14544460D02*
X14472563Y-14801603D01*
X14901134Y-14553984D02*
X14920182Y-14553984D01*
X14920182Y-14553984D02*
X14939229Y-14563508D01*
X14939229Y-14563508D02*
X14948753Y-14573031D01*
X14948753Y-14573031D02*
X14958277Y-14592079D01*
X14958277Y-14592079D02*
X14967801Y-14630174D01*
X14967801Y-14630174D02*
X14967801Y-14677793D01*
X14967801Y-14677793D02*
X14958277Y-14715888D01*
X14958277Y-14715888D02*
X14948753Y-14734936D01*
X14948753Y-14734936D02*
X14939229Y-14744460D01*
X14939229Y-14744460D02*
X14920182Y-14753984D01*
X14920182Y-14753984D02*
X14901134Y-14753984D01*
X14901134Y-14753984D02*
X14882086Y-14744460D01*
X14882086Y-14744460D02*
X14872563Y-14734936D01*
X14872563Y-14734936D02*
X14863039Y-14715888D01*
X14863039Y-14715888D02*
X14853515Y-14677793D01*
X14853515Y-14677793D02*
X14853515Y-14630174D01*
X14853515Y-14630174D02*
X14863039Y-14592079D01*
X14863039Y-14592079D02*
X14872563Y-14573031D01*
X14872563Y-14573031D02*
X14882086Y-14563508D01*
X14882086Y-14563508D02*
X14901134Y-14553984D01*
X15053515Y-14734936D02*
X15063039Y-14744460D01*
X15063039Y-14744460D02*
X15053515Y-14753984D01*
X15053515Y-14753984D02*
X15043991Y-14744460D01*
X15043991Y-14744460D02*
X15053515Y-14734936D01*
X15053515Y-14734936D02*
X15053515Y-14753984D01*
X15186848Y-14553984D02*
X15205896Y-14553984D01*
X15205896Y-14553984D02*
X15224944Y-14563508D01*
X15224944Y-14563508D02*
X15234467Y-14573031D01*
X15234467Y-14573031D02*
X15243991Y-14592079D01*
X15243991Y-14592079D02*
X15253515Y-14630174D01*
X15253515Y-14630174D02*
X15253515Y-14677793D01*
X15253515Y-14677793D02*
X15243991Y-14715888D01*
X15243991Y-14715888D02*
X15234467Y-14734936D01*
X15234467Y-14734936D02*
X15224944Y-14744460D01*
X15224944Y-14744460D02*
X15205896Y-14753984D01*
X15205896Y-14753984D02*
X15186848Y-14753984D01*
X15186848Y-14753984D02*
X15167801Y-14744460D01*
X15167801Y-14744460D02*
X15158277Y-14734936D01*
X15158277Y-14734936D02*
X15148753Y-14715888D01*
X15148753Y-14715888D02*
X15139229Y-14677793D01*
X15139229Y-14677793D02*
X15139229Y-14630174D01*
X15139229Y-14630174D02*
X15148753Y-14592079D01*
X15148753Y-14592079D02*
X15158277Y-14573031D01*
X15158277Y-14573031D02*
X15167801Y-14563508D01*
X15167801Y-14563508D02*
X15186848Y-14553984D01*
X15320182Y-14553984D02*
X15443991Y-14553984D01*
X15443991Y-14553984D02*
X15377325Y-14630174D01*
X15377325Y-14630174D02*
X15405896Y-14630174D01*
X15405896Y-14630174D02*
X15424944Y-14639698D01*
X15424944Y-14639698D02*
X15434467Y-14649222D01*
X15434467Y-14649222D02*
X15443991Y-14668269D01*
X15443991Y-14668269D02*
X15443991Y-14715888D01*
X15443991Y-14715888D02*
X15434467Y-14734936D01*
X15434467Y-14734936D02*
X15424944Y-14744460D01*
X15424944Y-14744460D02*
X15405896Y-14753984D01*
X15405896Y-14753984D02*
X15348753Y-14753984D01*
X15348753Y-14753984D02*
X15329706Y-14744460D01*
X15329706Y-14744460D02*
X15320182Y-14734936D01*
X15539229Y-14753984D02*
X15577325Y-14753984D01*
X15577325Y-14753984D02*
X15596372Y-14744460D01*
X15596372Y-14744460D02*
X15605896Y-14734936D01*
X15605896Y-14734936D02*
X15624944Y-14706365D01*
X15624944Y-14706365D02*
X15634467Y-14668269D01*
X15634467Y-14668269D02*
X15634467Y-14592079D01*
X15634467Y-14592079D02*
X15624944Y-14573031D01*
X15624944Y-14573031D02*
X15615420Y-14563508D01*
X15615420Y-14563508D02*
X15596372Y-14553984D01*
X15596372Y-14553984D02*
X15558277Y-14553984D01*
X15558277Y-14553984D02*
X15539229Y-14563508D01*
X15539229Y-14563508D02*
X15529706Y-14573031D01*
X15529706Y-14573031D02*
X15520182Y-14592079D01*
X15520182Y-14592079D02*
X15520182Y-14639698D01*
X15520182Y-14639698D02*
X15529706Y-14658746D01*
X15529706Y-14658746D02*
X15539229Y-14668269D01*
X15539229Y-14668269D02*
X15558277Y-14677793D01*
X15558277Y-14677793D02*
X15596372Y-14677793D01*
X15596372Y-14677793D02*
X15615420Y-14668269D01*
X15615420Y-14668269D02*
X15624944Y-14658746D01*
X15624944Y-14658746D02*
X15634467Y-14639698D01*
X15805896Y-14620650D02*
X15805896Y-14753984D01*
X15758277Y-14544460D02*
X15710658Y-14687317D01*
X15710658Y-14687317D02*
X15834467Y-14687317D01*
X15901134Y-14553984D02*
X15901134Y-14592079D01*
X15977325Y-14553984D02*
X15977325Y-14592079D01*
X16272563Y-14830174D02*
X16263039Y-14820650D01*
X16263039Y-14820650D02*
X16243991Y-14792079D01*
X16243991Y-14792079D02*
X16234468Y-14773031D01*
X16234468Y-14773031D02*
X16224944Y-14744460D01*
X16224944Y-14744460D02*
X16215420Y-14696841D01*
X16215420Y-14696841D02*
X16215420Y-14658746D01*
X16215420Y-14658746D02*
X16224944Y-14611127D01*
X16224944Y-14611127D02*
X16234468Y-14582555D01*
X16234468Y-14582555D02*
X16243991Y-14563508D01*
X16243991Y-14563508D02*
X16263039Y-14534936D01*
X16263039Y-14534936D02*
X16272563Y-14525412D01*
X16339229Y-14573031D02*
X16348753Y-14563508D01*
X16348753Y-14563508D02*
X16367801Y-14553984D01*
X16367801Y-14553984D02*
X16415420Y-14553984D01*
X16415420Y-14553984D02*
X16434468Y-14563508D01*
X16434468Y-14563508D02*
X16443991Y-14573031D01*
X16443991Y-14573031D02*
X16453515Y-14592079D01*
X16453515Y-14592079D02*
X16453515Y-14611127D01*
X16453515Y-14611127D02*
X16443991Y-14639698D01*
X16443991Y-14639698D02*
X16329706Y-14753984D01*
X16329706Y-14753984D02*
X16453515Y-14753984D01*
X16520182Y-14553984D02*
X16653515Y-14553984D01*
X16653515Y-14553984D02*
X16567801Y-14753984D01*
X16882087Y-14753984D02*
X16882087Y-14553984D01*
X16967801Y-14753984D02*
X16967801Y-14649222D01*
X16967801Y-14649222D02*
X16958277Y-14630174D01*
X16958277Y-14630174D02*
X16939230Y-14620650D01*
X16939230Y-14620650D02*
X16910658Y-14620650D01*
X16910658Y-14620650D02*
X16891611Y-14630174D01*
X16891611Y-14630174D02*
X16882087Y-14639698D01*
X17091611Y-14753984D02*
X17072563Y-14744460D01*
X17072563Y-14744460D02*
X17063039Y-14734936D01*
X17063039Y-14734936D02*
X17053515Y-14715888D01*
X17053515Y-14715888D02*
X17053515Y-14658746D01*
X17053515Y-14658746D02*
X17063039Y-14639698D01*
X17063039Y-14639698D02*
X17072563Y-14630174D01*
X17072563Y-14630174D02*
X17091611Y-14620650D01*
X17091611Y-14620650D02*
X17120182Y-14620650D01*
X17120182Y-14620650D02*
X17139230Y-14630174D01*
X17139230Y-14630174D02*
X17148753Y-14639698D01*
X17148753Y-14639698D02*
X17158277Y-14658746D01*
X17158277Y-14658746D02*
X17158277Y-14715888D01*
X17158277Y-14715888D02*
X17148753Y-14734936D01*
X17148753Y-14734936D02*
X17139230Y-14744460D01*
X17139230Y-14744460D02*
X17120182Y-14753984D01*
X17120182Y-14753984D02*
X17091611Y-14753984D01*
X17272563Y-14753984D02*
X17253515Y-14744460D01*
X17253515Y-14744460D02*
X17243992Y-14725412D01*
X17243992Y-14725412D02*
X17243992Y-14553984D01*
X17424944Y-14744460D02*
X17405896Y-14753984D01*
X17405896Y-14753984D02*
X17367801Y-14753984D01*
X17367801Y-14753984D02*
X17348753Y-14744460D01*
X17348753Y-14744460D02*
X17339230Y-14725412D01*
X17339230Y-14725412D02*
X17339230Y-14649222D01*
X17339230Y-14649222D02*
X17348753Y-14630174D01*
X17348753Y-14630174D02*
X17367801Y-14620650D01*
X17367801Y-14620650D02*
X17405896Y-14620650D01*
X17405896Y-14620650D02*
X17424944Y-14630174D01*
X17424944Y-14630174D02*
X17434468Y-14649222D01*
X17434468Y-14649222D02*
X17434468Y-14668269D01*
X17434468Y-14668269D02*
X17339230Y-14687317D01*
X17510658Y-14744460D02*
X17529706Y-14753984D01*
X17529706Y-14753984D02*
X17567801Y-14753984D01*
X17567801Y-14753984D02*
X17586849Y-14744460D01*
X17586849Y-14744460D02*
X17596373Y-14725412D01*
X17596373Y-14725412D02*
X17596373Y-14715888D01*
X17596373Y-14715888D02*
X17586849Y-14696841D01*
X17586849Y-14696841D02*
X17567801Y-14687317D01*
X17567801Y-14687317D02*
X17539230Y-14687317D01*
X17539230Y-14687317D02*
X17520182Y-14677793D01*
X17520182Y-14677793D02*
X17510658Y-14658746D01*
X17510658Y-14658746D02*
X17510658Y-14649222D01*
X17510658Y-14649222D02*
X17520182Y-14630174D01*
X17520182Y-14630174D02*
X17539230Y-14620650D01*
X17539230Y-14620650D02*
X17567801Y-14620650D01*
X17567801Y-14620650D02*
X17586849Y-14630174D01*
X17663039Y-14830174D02*
X17672563Y-14820650D01*
X17672563Y-14820650D02*
X17691611Y-14792079D01*
X17691611Y-14792079D02*
X17701134Y-14773031D01*
X17701134Y-14773031D02*
X17710658Y-14744460D01*
X17710658Y-14744460D02*
X17720182Y-14696841D01*
X17720182Y-14696841D02*
X17720182Y-14658746D01*
X17720182Y-14658746D02*
X17710658Y-14611127D01*
X17710658Y-14611127D02*
X17701134Y-14582555D01*
X17701134Y-14582555D02*
X17691611Y-14563508D01*
X17691611Y-14563508D02*
X17672563Y-14534936D01*
X17672563Y-14534936D02*
X17663039Y-14525412D01*
X12497500Y-14826500D02*
X12697500Y-15026500D01*
X12697500Y-14826500D02*
X12497500Y-15026500D01*
X12597500Y-14826500D02*
X12597500Y-15026500D01*
X12497500Y-14926500D02*
X12697500Y-14926500D01*
X12948753Y-14837031D02*
X12958277Y-14827508D01*
X12958277Y-14827508D02*
X12977324Y-14817984D01*
X12977324Y-14817984D02*
X13024943Y-14817984D01*
X13024943Y-14817984D02*
X13043991Y-14827508D01*
X13043991Y-14827508D02*
X13053515Y-14837031D01*
X13053515Y-14837031D02*
X13063039Y-14856079D01*
X13063039Y-14856079D02*
X13063039Y-14875127D01*
X13063039Y-14875127D02*
X13053515Y-14903698D01*
X13053515Y-14903698D02*
X12939229Y-15017984D01*
X12939229Y-15017984D02*
X13063039Y-15017984D01*
X13148753Y-14998936D02*
X13158277Y-15008460D01*
X13158277Y-15008460D02*
X13148753Y-15017984D01*
X13148753Y-15017984D02*
X13139229Y-15008460D01*
X13139229Y-15008460D02*
X13148753Y-14998936D01*
X13148753Y-14998936D02*
X13148753Y-15017984D01*
X13234467Y-14837031D02*
X13243991Y-14827508D01*
X13243991Y-14827508D02*
X13263039Y-14817984D01*
X13263039Y-14817984D02*
X13310658Y-14817984D01*
X13310658Y-14817984D02*
X13329705Y-14827508D01*
X13329705Y-14827508D02*
X13339229Y-14837031D01*
X13339229Y-14837031D02*
X13348753Y-14856079D01*
X13348753Y-14856079D02*
X13348753Y-14875127D01*
X13348753Y-14875127D02*
X13339229Y-14903698D01*
X13339229Y-14903698D02*
X13224943Y-15017984D01*
X13224943Y-15017984D02*
X13348753Y-15017984D01*
X13472562Y-14817984D02*
X13491610Y-14817984D01*
X13491610Y-14817984D02*
X13510658Y-14827508D01*
X13510658Y-14827508D02*
X13520182Y-14837031D01*
X13520182Y-14837031D02*
X13529705Y-14856079D01*
X13529705Y-14856079D02*
X13539229Y-14894174D01*
X13539229Y-14894174D02*
X13539229Y-14941793D01*
X13539229Y-14941793D02*
X13529705Y-14979888D01*
X13529705Y-14979888D02*
X13520182Y-14998936D01*
X13520182Y-14998936D02*
X13510658Y-15008460D01*
X13510658Y-15008460D02*
X13491610Y-15017984D01*
X13491610Y-15017984D02*
X13472562Y-15017984D01*
X13472562Y-15017984D02*
X13453515Y-15008460D01*
X13453515Y-15008460D02*
X13443991Y-14998936D01*
X13443991Y-14998936D02*
X13434467Y-14979888D01*
X13434467Y-14979888D02*
X13424943Y-14941793D01*
X13424943Y-14941793D02*
X13424943Y-14894174D01*
X13424943Y-14894174D02*
X13434467Y-14856079D01*
X13434467Y-14856079D02*
X13443991Y-14837031D01*
X13443991Y-14837031D02*
X13453515Y-14827508D01*
X13453515Y-14827508D02*
X13472562Y-14817984D01*
X13663039Y-14817984D02*
X13682086Y-14817984D01*
X13682086Y-14817984D02*
X13701134Y-14827508D01*
X13701134Y-14827508D02*
X13710658Y-14837031D01*
X13710658Y-14837031D02*
X13720182Y-14856079D01*
X13720182Y-14856079D02*
X13729705Y-14894174D01*
X13729705Y-14894174D02*
X13729705Y-14941793D01*
X13729705Y-14941793D02*
X13720182Y-14979888D01*
X13720182Y-14979888D02*
X13710658Y-14998936D01*
X13710658Y-14998936D02*
X13701134Y-15008460D01*
X13701134Y-15008460D02*
X13682086Y-15017984D01*
X13682086Y-15017984D02*
X13663039Y-15017984D01*
X13663039Y-15017984D02*
X13643991Y-15008460D01*
X13643991Y-15008460D02*
X13634467Y-14998936D01*
X13634467Y-14998936D02*
X13624943Y-14979888D01*
X13624943Y-14979888D02*
X13615420Y-14941793D01*
X13615420Y-14941793D02*
X13615420Y-14894174D01*
X13615420Y-14894174D02*
X13624943Y-14856079D01*
X13624943Y-14856079D02*
X13634467Y-14837031D01*
X13634467Y-14837031D02*
X13643991Y-14827508D01*
X13643991Y-14827508D02*
X13663039Y-14817984D01*
X13815420Y-15017984D02*
X13815420Y-14884650D01*
X13815420Y-14903698D02*
X13824943Y-14894174D01*
X13824943Y-14894174D02*
X13843991Y-14884650D01*
X13843991Y-14884650D02*
X13872563Y-14884650D01*
X13872563Y-14884650D02*
X13891610Y-14894174D01*
X13891610Y-14894174D02*
X13901134Y-14913222D01*
X13901134Y-14913222D02*
X13901134Y-15017984D01*
X13901134Y-14913222D02*
X13910658Y-14894174D01*
X13910658Y-14894174D02*
X13929705Y-14884650D01*
X13929705Y-14884650D02*
X13958277Y-14884650D01*
X13958277Y-14884650D02*
X13977324Y-14894174D01*
X13977324Y-14894174D02*
X13986848Y-14913222D01*
X13986848Y-14913222D02*
X13986848Y-15017984D01*
X14082086Y-15017984D02*
X14082086Y-14884650D01*
X14082086Y-14903698D02*
X14091610Y-14894174D01*
X14091610Y-14894174D02*
X14110658Y-14884650D01*
X14110658Y-14884650D02*
X14139229Y-14884650D01*
X14139229Y-14884650D02*
X14158277Y-14894174D01*
X14158277Y-14894174D02*
X14167801Y-14913222D01*
X14167801Y-14913222D02*
X14167801Y-15017984D01*
X14167801Y-14913222D02*
X14177324Y-14894174D01*
X14177324Y-14894174D02*
X14196372Y-14884650D01*
X14196372Y-14884650D02*
X14224943Y-14884650D01*
X14224943Y-14884650D02*
X14243991Y-14894174D01*
X14243991Y-14894174D02*
X14253515Y-14913222D01*
X14253515Y-14913222D02*
X14253515Y-15017984D01*
X14643991Y-14808460D02*
X14472563Y-15065603D01*
X14901134Y-14817984D02*
X14920182Y-14817984D01*
X14920182Y-14817984D02*
X14939229Y-14827508D01*
X14939229Y-14827508D02*
X14948753Y-14837031D01*
X14948753Y-14837031D02*
X14958277Y-14856079D01*
X14958277Y-14856079D02*
X14967801Y-14894174D01*
X14967801Y-14894174D02*
X14967801Y-14941793D01*
X14967801Y-14941793D02*
X14958277Y-14979888D01*
X14958277Y-14979888D02*
X14948753Y-14998936D01*
X14948753Y-14998936D02*
X14939229Y-15008460D01*
X14939229Y-15008460D02*
X14920182Y-15017984D01*
X14920182Y-15017984D02*
X14901134Y-15017984D01*
X14901134Y-15017984D02*
X14882086Y-15008460D01*
X14882086Y-15008460D02*
X14872563Y-14998936D01*
X14872563Y-14998936D02*
X14863039Y-14979888D01*
X14863039Y-14979888D02*
X14853515Y-14941793D01*
X14853515Y-14941793D02*
X14853515Y-14894174D01*
X14853515Y-14894174D02*
X14863039Y-14856079D01*
X14863039Y-14856079D02*
X14872563Y-14837031D01*
X14872563Y-14837031D02*
X14882086Y-14827508D01*
X14882086Y-14827508D02*
X14901134Y-14817984D01*
X15053515Y-14998936D02*
X15063039Y-15008460D01*
X15063039Y-15008460D02*
X15053515Y-15017984D01*
X15053515Y-15017984D02*
X15043991Y-15008460D01*
X15043991Y-15008460D02*
X15053515Y-14998936D01*
X15053515Y-14998936D02*
X15053515Y-15017984D01*
X15186848Y-14817984D02*
X15205896Y-14817984D01*
X15205896Y-14817984D02*
X15224944Y-14827508D01*
X15224944Y-14827508D02*
X15234467Y-14837031D01*
X15234467Y-14837031D02*
X15243991Y-14856079D01*
X15243991Y-14856079D02*
X15253515Y-14894174D01*
X15253515Y-14894174D02*
X15253515Y-14941793D01*
X15253515Y-14941793D02*
X15243991Y-14979888D01*
X15243991Y-14979888D02*
X15234467Y-14998936D01*
X15234467Y-14998936D02*
X15224944Y-15008460D01*
X15224944Y-15008460D02*
X15205896Y-15017984D01*
X15205896Y-15017984D02*
X15186848Y-15017984D01*
X15186848Y-15017984D02*
X15167801Y-15008460D01*
X15167801Y-15008460D02*
X15158277Y-14998936D01*
X15158277Y-14998936D02*
X15148753Y-14979888D01*
X15148753Y-14979888D02*
X15139229Y-14941793D01*
X15139229Y-14941793D02*
X15139229Y-14894174D01*
X15139229Y-14894174D02*
X15148753Y-14856079D01*
X15148753Y-14856079D02*
X15158277Y-14837031D01*
X15158277Y-14837031D02*
X15167801Y-14827508D01*
X15167801Y-14827508D02*
X15186848Y-14817984D01*
X15367801Y-14903698D02*
X15348753Y-14894174D01*
X15348753Y-14894174D02*
X15339229Y-14884650D01*
X15339229Y-14884650D02*
X15329706Y-14865603D01*
X15329706Y-14865603D02*
X15329706Y-14856079D01*
X15329706Y-14856079D02*
X15339229Y-14837031D01*
X15339229Y-14837031D02*
X15348753Y-14827508D01*
X15348753Y-14827508D02*
X15367801Y-14817984D01*
X15367801Y-14817984D02*
X15405896Y-14817984D01*
X15405896Y-14817984D02*
X15424944Y-14827508D01*
X15424944Y-14827508D02*
X15434467Y-14837031D01*
X15434467Y-14837031D02*
X15443991Y-14856079D01*
X15443991Y-14856079D02*
X15443991Y-14865603D01*
X15443991Y-14865603D02*
X15434467Y-14884650D01*
X15434467Y-14884650D02*
X15424944Y-14894174D01*
X15424944Y-14894174D02*
X15405896Y-14903698D01*
X15405896Y-14903698D02*
X15367801Y-14903698D01*
X15367801Y-14903698D02*
X15348753Y-14913222D01*
X15348753Y-14913222D02*
X15339229Y-14922746D01*
X15339229Y-14922746D02*
X15329706Y-14941793D01*
X15329706Y-14941793D02*
X15329706Y-14979888D01*
X15329706Y-14979888D02*
X15339229Y-14998936D01*
X15339229Y-14998936D02*
X15348753Y-15008460D01*
X15348753Y-15008460D02*
X15367801Y-15017984D01*
X15367801Y-15017984D02*
X15405896Y-15017984D01*
X15405896Y-15017984D02*
X15424944Y-15008460D01*
X15424944Y-15008460D02*
X15434467Y-14998936D01*
X15434467Y-14998936D02*
X15443991Y-14979888D01*
X15443991Y-14979888D02*
X15443991Y-14941793D01*
X15443991Y-14941793D02*
X15434467Y-14922746D01*
X15434467Y-14922746D02*
X15424944Y-14913222D01*
X15424944Y-14913222D02*
X15405896Y-14903698D01*
X15615420Y-14817984D02*
X15577325Y-14817984D01*
X15577325Y-14817984D02*
X15558277Y-14827508D01*
X15558277Y-14827508D02*
X15548753Y-14837031D01*
X15548753Y-14837031D02*
X15529706Y-14865603D01*
X15529706Y-14865603D02*
X15520182Y-14903698D01*
X15520182Y-14903698D02*
X15520182Y-14979888D01*
X15520182Y-14979888D02*
X15529706Y-14998936D01*
X15529706Y-14998936D02*
X15539229Y-15008460D01*
X15539229Y-15008460D02*
X15558277Y-15017984D01*
X15558277Y-15017984D02*
X15596372Y-15017984D01*
X15596372Y-15017984D02*
X15615420Y-15008460D01*
X15615420Y-15008460D02*
X15624944Y-14998936D01*
X15624944Y-14998936D02*
X15634467Y-14979888D01*
X15634467Y-14979888D02*
X15634467Y-14932269D01*
X15634467Y-14932269D02*
X15624944Y-14913222D01*
X15624944Y-14913222D02*
X15615420Y-14903698D01*
X15615420Y-14903698D02*
X15596372Y-14894174D01*
X15596372Y-14894174D02*
X15558277Y-14894174D01*
X15558277Y-14894174D02*
X15539229Y-14903698D01*
X15539229Y-14903698D02*
X15529706Y-14913222D01*
X15529706Y-14913222D02*
X15520182Y-14932269D01*
X15805896Y-14817984D02*
X15767801Y-14817984D01*
X15767801Y-14817984D02*
X15748753Y-14827508D01*
X15748753Y-14827508D02*
X15739229Y-14837031D01*
X15739229Y-14837031D02*
X15720182Y-14865603D01*
X15720182Y-14865603D02*
X15710658Y-14903698D01*
X15710658Y-14903698D02*
X15710658Y-14979888D01*
X15710658Y-14979888D02*
X15720182Y-14998936D01*
X15720182Y-14998936D02*
X15729706Y-15008460D01*
X15729706Y-15008460D02*
X15748753Y-15017984D01*
X15748753Y-15017984D02*
X15786848Y-15017984D01*
X15786848Y-15017984D02*
X15805896Y-15008460D01*
X15805896Y-15008460D02*
X15815420Y-14998936D01*
X15815420Y-14998936D02*
X15824944Y-14979888D01*
X15824944Y-14979888D02*
X15824944Y-14932269D01*
X15824944Y-14932269D02*
X15815420Y-14913222D01*
X15815420Y-14913222D02*
X15805896Y-14903698D01*
X15805896Y-14903698D02*
X15786848Y-14894174D01*
X15786848Y-14894174D02*
X15748753Y-14894174D01*
X15748753Y-14894174D02*
X15729706Y-14903698D01*
X15729706Y-14903698D02*
X15720182Y-14913222D01*
X15720182Y-14913222D02*
X15710658Y-14932269D01*
X15901134Y-14817984D02*
X15901134Y-14856079D01*
X15977325Y-14817984D02*
X15977325Y-14856079D01*
X16272563Y-15094174D02*
X16263039Y-15084650D01*
X16263039Y-15084650D02*
X16243991Y-15056079D01*
X16243991Y-15056079D02*
X16234468Y-15037031D01*
X16234468Y-15037031D02*
X16224944Y-15008460D01*
X16224944Y-15008460D02*
X16215420Y-14960841D01*
X16215420Y-14960841D02*
X16215420Y-14922746D01*
X16215420Y-14922746D02*
X16224944Y-14875127D01*
X16224944Y-14875127D02*
X16234468Y-14846555D01*
X16234468Y-14846555D02*
X16243991Y-14827508D01*
X16243991Y-14827508D02*
X16263039Y-14798936D01*
X16263039Y-14798936D02*
X16272563Y-14789412D01*
X16434468Y-14884650D02*
X16434468Y-15017984D01*
X16386848Y-14808460D02*
X16339229Y-14951317D01*
X16339229Y-14951317D02*
X16463039Y-14951317D01*
X16691610Y-15017984D02*
X16691610Y-14817984D01*
X16777325Y-15017984D02*
X16777325Y-14913222D01*
X16777325Y-14913222D02*
X16767801Y-14894174D01*
X16767801Y-14894174D02*
X16748753Y-14884650D01*
X16748753Y-14884650D02*
X16720182Y-14884650D01*
X16720182Y-14884650D02*
X16701134Y-14894174D01*
X16701134Y-14894174D02*
X16691610Y-14903698D01*
X16901134Y-15017984D02*
X16882087Y-15008460D01*
X16882087Y-15008460D02*
X16872563Y-14998936D01*
X16872563Y-14998936D02*
X16863039Y-14979888D01*
X16863039Y-14979888D02*
X16863039Y-14922746D01*
X16863039Y-14922746D02*
X16872563Y-14903698D01*
X16872563Y-14903698D02*
X16882087Y-14894174D01*
X16882087Y-14894174D02*
X16901134Y-14884650D01*
X16901134Y-14884650D02*
X16929706Y-14884650D01*
X16929706Y-14884650D02*
X16948753Y-14894174D01*
X16948753Y-14894174D02*
X16958277Y-14903698D01*
X16958277Y-14903698D02*
X16967801Y-14922746D01*
X16967801Y-14922746D02*
X16967801Y-14979888D01*
X16967801Y-14979888D02*
X16958277Y-14998936D01*
X16958277Y-14998936D02*
X16948753Y-15008460D01*
X16948753Y-15008460D02*
X16929706Y-15017984D01*
X16929706Y-15017984D02*
X16901134Y-15017984D01*
X17082087Y-15017984D02*
X17063039Y-15008460D01*
X17063039Y-15008460D02*
X17053515Y-14989412D01*
X17053515Y-14989412D02*
X17053515Y-14817984D01*
X17234468Y-15008460D02*
X17215420Y-15017984D01*
X17215420Y-15017984D02*
X17177325Y-15017984D01*
X17177325Y-15017984D02*
X17158277Y-15008460D01*
X17158277Y-15008460D02*
X17148753Y-14989412D01*
X17148753Y-14989412D02*
X17148753Y-14913222D01*
X17148753Y-14913222D02*
X17158277Y-14894174D01*
X17158277Y-14894174D02*
X17177325Y-14884650D01*
X17177325Y-14884650D02*
X17215420Y-14884650D01*
X17215420Y-14884650D02*
X17234468Y-14894174D01*
X17234468Y-14894174D02*
X17243992Y-14913222D01*
X17243992Y-14913222D02*
X17243992Y-14932269D01*
X17243992Y-14932269D02*
X17148753Y-14951317D01*
X17320182Y-15008460D02*
X17339230Y-15017984D01*
X17339230Y-15017984D02*
X17377325Y-15017984D01*
X17377325Y-15017984D02*
X17396373Y-15008460D01*
X17396373Y-15008460D02*
X17405896Y-14989412D01*
X17405896Y-14989412D02*
X17405896Y-14979888D01*
X17405896Y-14979888D02*
X17396373Y-14960841D01*
X17396373Y-14960841D02*
X17377325Y-14951317D01*
X17377325Y-14951317D02*
X17348753Y-14951317D01*
X17348753Y-14951317D02*
X17329706Y-14941793D01*
X17329706Y-14941793D02*
X17320182Y-14922746D01*
X17320182Y-14922746D02*
X17320182Y-14913222D01*
X17320182Y-14913222D02*
X17329706Y-14894174D01*
X17329706Y-14894174D02*
X17348753Y-14884650D01*
X17348753Y-14884650D02*
X17377325Y-14884650D01*
X17377325Y-14884650D02*
X17396373Y-14894174D01*
X17472563Y-15094174D02*
X17482087Y-15084650D01*
X17482087Y-15084650D02*
X17501134Y-15056079D01*
X17501134Y-15056079D02*
X17510658Y-15037031D01*
X17510658Y-15037031D02*
X17520182Y-15008460D01*
X17520182Y-15008460D02*
X17529706Y-14960841D01*
X17529706Y-14960841D02*
X17529706Y-14922746D01*
X17529706Y-14922746D02*
X17520182Y-14875127D01*
X17520182Y-14875127D02*
X17510658Y-14846555D01*
X17510658Y-14846555D02*
X17501134Y-14827508D01*
X17501134Y-14827508D02*
X17482087Y-14798936D01*
X17482087Y-14798936D02*
X17472563Y-14789412D01*
M02*
