G04 #@! TF.GenerationSoftware,KiCad,Pcbnew,8.0.1*
G04 #@! TF.CreationDate,2024-06-04T12:50:10-04:00*
G04 #@! TF.ProjectId,node_v3_1,6e6f6465-5f76-4335-9f31-2e6b69636164,rev?*
G04 #@! TF.SameCoordinates,Original*
G04 #@! TF.FileFunction,Soldermask,Top*
G04 #@! TF.FilePolarity,Negative*
%FSLAX46Y46*%
G04 Gerber Fmt 4.6, Leading zero omitted, Abs format (unit mm)*
G04 Created by KiCad (PCBNEW 8.0.1) date 2024-06-04 12:50:10*
%MOMM*%
%LPD*%
G01*
G04 APERTURE LIST*
G04 Aperture macros list*
%AMRoundRect*
0 Rectangle with rounded corners*
0 $1 Rounding radius*
0 $2 $3 $4 $5 $6 $7 $8 $9 X,Y pos of 4 corners*
0 Add a 4 corners polygon primitive as box body*
4,1,4,$2,$3,$4,$5,$6,$7,$8,$9,$2,$3,0*
0 Add four circle primitives for the rounded corners*
1,1,$1+$1,$2,$3*
1,1,$1+$1,$4,$5*
1,1,$1+$1,$6,$7*
1,1,$1+$1,$8,$9*
0 Add four rect primitives between the rounded corners*
20,1,$1+$1,$2,$3,$4,$5,0*
20,1,$1+$1,$4,$5,$6,$7,0*
20,1,$1+$1,$6,$7,$8,$9,0*
20,1,$1+$1,$8,$9,$2,$3,0*%
G04 Aperture macros list end*
%ADD10C,4.400000*%
%ADD11RoundRect,0.250000X-0.450000X0.350000X-0.450000X-0.350000X0.450000X-0.350000X0.450000X0.350000X0*%
%ADD12RoundRect,0.270000X-0.630000X-0.930000X0.630000X-0.930000X0.630000X0.930000X-0.630000X0.930000X0*%
%ADD13RoundRect,0.102000X0.635000X0.279400X-0.635000X0.279400X-0.635000X-0.279400X0.635000X-0.279400X0*%
%ADD14R,1.700000X1.700000*%
%ADD15O,1.700000X1.700000*%
%ADD16RoundRect,0.250000X0.350000X0.450000X-0.350000X0.450000X-0.350000X-0.450000X0.350000X-0.450000X0*%
%ADD17RoundRect,0.140000X-0.170000X0.140000X-0.170000X-0.140000X0.170000X-0.140000X0.170000X0.140000X0*%
%ADD18RoundRect,0.250000X0.475000X-0.337500X0.475000X0.337500X-0.475000X0.337500X-0.475000X-0.337500X0*%
%ADD19RoundRect,0.150000X0.512500X0.150000X-0.512500X0.150000X-0.512500X-0.150000X0.512500X-0.150000X0*%
%ADD20RoundRect,0.155000X0.155000X-0.212500X0.155000X0.212500X-0.155000X0.212500X-0.155000X-0.212500X0*%
%ADD21RoundRect,0.050000X-0.387500X-0.050000X0.387500X-0.050000X0.387500X0.050000X-0.387500X0.050000X0*%
%ADD22RoundRect,0.050000X-0.050000X-0.387500X0.050000X-0.387500X0.050000X0.387500X-0.050000X0.387500X0*%
%ADD23R,3.200000X3.200000*%
%ADD24RoundRect,0.250000X-0.475000X0.337500X-0.475000X-0.337500X0.475000X-0.337500X0.475000X0.337500X0*%
%ADD25RoundRect,0.150000X0.150000X-0.825000X0.150000X0.825000X-0.150000X0.825000X-0.150000X-0.825000X0*%
%ADD26RoundRect,0.150000X-0.512500X-0.150000X0.512500X-0.150000X0.512500X0.150000X-0.512500X0.150000X0*%
%ADD27RoundRect,0.250000X-0.385000X-1.350000X0.385000X-1.350000X0.385000X1.350000X-0.385000X1.350000X0*%
%ADD28RoundRect,0.250000X-0.425000X-1.600000X0.425000X-1.600000X0.425000X1.600000X-0.425000X1.600000X0*%
%ADD29R,0.558800X0.952500*%
%ADD30RoundRect,0.250000X-0.350000X-0.450000X0.350000X-0.450000X0.350000X0.450000X-0.350000X0.450000X0*%
%ADD31RoundRect,0.237500X-0.237500X0.300000X-0.237500X-0.300000X0.237500X-0.300000X0.237500X0.300000X0*%
%ADD32RoundRect,0.250001X0.462499X0.624999X-0.462499X0.624999X-0.462499X-0.624999X0.462499X-0.624999X0*%
%ADD33R,0.850000X1.100000*%
%ADD34R,0.750000X1.100000*%
%ADD35R,1.200000X1.000000*%
%ADD36R,1.550000X1.350000*%
%ADD37R,1.900000X1.350000*%
%ADD38R,1.170000X1.800000*%
%ADD39RoundRect,0.317500X-1.157500X-0.317500X1.157500X-0.317500X1.157500X0.317500X-1.157500X0.317500X0*%
%ADD40RoundRect,0.250000X0.337500X0.475000X-0.337500X0.475000X-0.337500X-0.475000X0.337500X-0.475000X0*%
%ADD41C,0.650000*%
%ADD42RoundRect,0.102000X0.300000X0.570000X-0.300000X0.570000X-0.300000X-0.570000X0.300000X-0.570000X0*%
%ADD43RoundRect,0.102000X0.150000X0.570000X-0.150000X0.570000X-0.150000X-0.570000X0.150000X-0.570000X0*%
%ADD44O,1.254000X2.304000*%
%ADD45O,1.104000X2.004000*%
%ADD46RoundRect,0.250001X0.849999X-0.462499X0.849999X0.462499X-0.849999X0.462499X-0.849999X-0.462499X0*%
%ADD47RoundRect,0.150000X0.150000X-0.650000X0.150000X0.650000X-0.150000X0.650000X-0.150000X-0.650000X0*%
%ADD48RoundRect,0.250000X-0.337500X-0.475000X0.337500X-0.475000X0.337500X0.475000X-0.337500X0.475000X0*%
%ADD49RoundRect,0.250000X0.450000X-0.350000X0.450000X0.350000X-0.450000X0.350000X-0.450000X-0.350000X0*%
%ADD50RoundRect,0.155000X0.212500X0.155000X-0.212500X0.155000X-0.212500X-0.155000X0.212500X-0.155000X0*%
%ADD51RoundRect,0.155000X-0.212500X-0.155000X0.212500X-0.155000X0.212500X0.155000X-0.212500X0.155000X0*%
%ADD52R,1.168400X1.600200*%
%ADD53C,2.504000*%
%ADD54C,0.304800*%
%ADD55C,0.508000*%
%ADD56C,0.406400*%
%ADD57C,0.250000*%
G04 APERTURE END LIST*
D10*
X167640000Y-121920000D03*
X132080000Y-121920000D03*
X167640000Y-55880000D03*
X132080000Y-55880000D03*
D11*
X160500000Y-108500000D03*
X160500000Y-110500000D03*
X158500000Y-108500000D03*
X158500000Y-110500000D03*
D12*
X144676500Y-86436000D03*
X140976500Y-86436000D03*
D13*
X161772600Y-67233800D03*
X161772600Y-65354200D03*
X164363400Y-65354200D03*
X164363400Y-66294000D03*
X164363400Y-67233800D03*
D14*
X162560000Y-57409000D03*
D15*
X162560000Y-54869000D03*
D16*
X166608000Y-69850000D03*
X164608000Y-69850000D03*
D17*
X150500000Y-108040000D03*
X150500000Y-109000000D03*
D16*
X141986000Y-61722000D03*
X139986000Y-61722000D03*
D11*
X144056000Y-67072000D03*
X144056000Y-69072000D03*
D18*
X131318000Y-72665500D03*
X131318000Y-70590500D03*
D19*
X159401000Y-82484000D03*
X159401000Y-81534000D03*
X159401000Y-80584000D03*
X157126000Y-80584000D03*
X157126000Y-82484000D03*
D20*
X148374000Y-73525000D03*
X148374000Y-72390000D03*
X138430000Y-72995500D03*
X138430000Y-71860500D03*
X135890000Y-72995500D03*
X135890000Y-71860500D03*
D21*
X139780500Y-76864000D03*
X139780500Y-77264000D03*
X139780500Y-77664000D03*
X139780500Y-78064000D03*
X139780500Y-78464000D03*
X139780500Y-78864000D03*
X139780500Y-79264000D03*
X139780500Y-79664000D03*
X139780500Y-80064000D03*
X139780500Y-80464000D03*
X139780500Y-80864000D03*
X139780500Y-81264000D03*
X139780500Y-81664000D03*
X139780500Y-82064000D03*
D22*
X140618000Y-82901500D03*
X141018000Y-82901500D03*
X141418000Y-82901500D03*
X141818000Y-82901500D03*
X142218000Y-82901500D03*
X142618000Y-82901500D03*
X143018000Y-82901500D03*
X143418000Y-82901500D03*
X143818000Y-82901500D03*
X144218000Y-82901500D03*
X144618000Y-82901500D03*
X145018000Y-82901500D03*
X145418000Y-82901500D03*
X145818000Y-82901500D03*
D21*
X146655500Y-82064000D03*
X146655500Y-81664000D03*
X146655500Y-81264000D03*
X146655500Y-80864000D03*
X146655500Y-80464000D03*
X146655500Y-80064000D03*
X146655500Y-79664000D03*
X146655500Y-79264000D03*
X146655500Y-78864000D03*
X146655500Y-78464000D03*
X146655500Y-78064000D03*
X146655500Y-77664000D03*
X146655500Y-77264000D03*
X146655500Y-76864000D03*
D22*
X145818000Y-76026500D03*
X145418000Y-76026500D03*
X145018000Y-76026500D03*
X144618000Y-76026500D03*
X144218000Y-76026500D03*
X143818000Y-76026500D03*
X143418000Y-76026500D03*
X143018000Y-76026500D03*
X142618000Y-76026500D03*
X142218000Y-76026500D03*
X141818000Y-76026500D03*
X141418000Y-76026500D03*
X141018000Y-76026500D03*
X140618000Y-76026500D03*
D23*
X143218000Y-79464000D03*
D24*
X137160000Y-77870000D03*
X137160000Y-79945000D03*
D11*
X156500000Y-110500000D03*
X156500000Y-108500000D03*
D25*
X131191000Y-80388000D03*
X132461000Y-80388000D03*
X133731000Y-80388000D03*
X135001000Y-80388000D03*
X135001000Y-75438000D03*
X133731000Y-75438000D03*
X132461000Y-75438000D03*
X131191000Y-75438000D03*
D11*
X152500000Y-108500000D03*
X152500000Y-110500000D03*
D24*
X159258000Y-65256500D03*
X159258000Y-67331500D03*
D26*
X157480000Y-93218000D03*
X157480000Y-94168000D03*
X157480000Y-95118000D03*
X159755000Y-95118000D03*
X159755000Y-94168000D03*
X159755000Y-93218000D03*
D20*
X137160000Y-72995500D03*
X137160000Y-71860500D03*
D14*
X158750000Y-57404000D03*
D15*
X158750000Y-54864000D03*
D11*
X154500000Y-108490000D03*
X154500000Y-110490000D03*
D27*
X142494000Y-124714000D03*
D28*
X145319000Y-124464000D03*
X139669000Y-124464000D03*
D29*
X154523683Y-63360576D03*
X154523683Y-69723276D03*
X150815283Y-63360576D03*
X150815283Y-69723276D03*
D30*
X156496000Y-103124000D03*
X158496000Y-103124000D03*
D24*
X162327500Y-80475000D03*
X162327500Y-82550000D03*
X166624000Y-65256500D03*
X166624000Y-67331500D03*
D20*
X140970000Y-72995500D03*
X140970000Y-71860500D03*
D30*
X147000000Y-95000000D03*
X149000000Y-95000000D03*
D14*
X168148000Y-75438000D03*
D15*
X168148000Y-77978000D03*
X168148000Y-80518000D03*
X168148000Y-83058000D03*
X168148000Y-85598000D03*
X168148000Y-88138000D03*
X168148000Y-90678000D03*
X168148000Y-93218000D03*
X168148000Y-95758000D03*
X168148000Y-98298000D03*
X168148000Y-100838000D03*
X168148000Y-103378000D03*
X168148000Y-105918000D03*
X168148000Y-108458000D03*
X168148000Y-110998000D03*
X168148000Y-113538000D03*
D20*
X137160000Y-63305500D03*
X137160000Y-62170500D03*
X149644000Y-73525000D03*
X149644000Y-72390000D03*
D31*
X131343400Y-87275500D03*
X131343400Y-89000500D03*
D24*
X154675000Y-92921000D03*
X154675000Y-94996000D03*
D32*
X168402000Y-61722000D03*
X165427000Y-61722000D03*
D29*
X154500000Y-53137300D03*
X154500000Y-59500000D03*
X150791600Y-53137300D03*
X150791600Y-59500000D03*
D30*
X159528000Y-69850000D03*
X161528000Y-69850000D03*
D11*
X146850000Y-65316000D03*
X146850000Y-67316000D03*
D33*
X160077000Y-125338000D03*
X158977000Y-125338000D03*
X157877000Y-125338000D03*
X156777000Y-125338000D03*
X155677000Y-125338000D03*
X154577000Y-125338000D03*
X153477000Y-125338000D03*
D34*
X152427000Y-125338000D03*
D35*
X162712000Y-119188000D03*
X162712000Y-115488000D03*
D36*
X162537000Y-125213000D03*
D37*
X159212000Y-114513000D03*
X153242000Y-114513000D03*
D38*
X151217000Y-124988000D03*
D39*
X132754000Y-101110000D03*
X132754000Y-103110000D03*
X132754000Y-105110000D03*
X132754000Y-107110000D03*
X132754000Y-109110000D03*
X132754000Y-111110000D03*
X132754000Y-113110000D03*
X132754000Y-115110000D03*
X147804000Y-115110000D03*
X147804000Y-113110000D03*
X147804000Y-111110000D03*
X147804000Y-109110000D03*
X147804000Y-107110000D03*
X147804000Y-105110000D03*
X147804000Y-103110000D03*
X147804000Y-101110000D03*
D24*
X163000000Y-108462500D03*
X163000000Y-110537500D03*
D14*
X135890000Y-93472000D03*
D15*
X138430000Y-93472000D03*
X140970000Y-93472000D03*
D40*
X159798000Y-89916000D03*
X157723000Y-89916000D03*
D18*
X146596000Y-73233000D03*
X146596000Y-71158000D03*
D20*
X139700000Y-72995500D03*
X139700000Y-71860500D03*
D24*
X162295000Y-93175000D03*
X162295000Y-95250000D03*
D41*
X145892000Y-56930000D03*
X140112000Y-56930000D03*
D42*
X146202000Y-58000000D03*
X145402000Y-58000000D03*
D43*
X144252000Y-58000000D03*
X143252000Y-58000000D03*
X142752000Y-58000000D03*
X141752000Y-58000000D03*
D42*
X139802000Y-58000000D03*
X140602000Y-58000000D03*
D43*
X141252000Y-58000000D03*
X142252000Y-58000000D03*
X143752000Y-58000000D03*
X144752000Y-58000000D03*
D44*
X147322000Y-57430000D03*
X138682000Y-57430000D03*
D45*
X147322000Y-53250000D03*
X138682000Y-53250000D03*
D46*
X153691500Y-82843000D03*
X153691500Y-80518000D03*
D17*
X165000000Y-109248000D03*
X165000000Y-110208000D03*
D47*
X131318000Y-67564000D03*
X132588000Y-67564000D03*
X133858000Y-67564000D03*
X135128000Y-67564000D03*
X135128000Y-60364000D03*
X133858000Y-60364000D03*
X132588000Y-60364000D03*
X131318000Y-60364000D03*
D48*
X157204500Y-78232000D03*
X159279500Y-78232000D03*
D31*
X134391400Y-87275500D03*
X134391400Y-89000500D03*
D20*
X133350000Y-72995500D03*
X133350000Y-71860500D03*
D26*
X160793000Y-101224000D03*
X160793000Y-103124000D03*
X163068000Y-102174000D03*
D11*
X142024000Y-67056000D03*
X142024000Y-69056000D03*
D49*
X136652000Y-57896000D03*
X136652000Y-55896000D03*
D50*
X147567500Y-86436000D03*
X146432500Y-86436000D03*
D51*
X137931500Y-86436000D03*
X139066500Y-86436000D03*
D49*
X138684000Y-66278000D03*
X138684000Y-64278000D03*
D52*
X131445000Y-84074000D03*
X134289800Y-84074000D03*
D11*
X146850000Y-61506000D03*
X146850000Y-63506000D03*
D20*
X134620000Y-72995500D03*
X134620000Y-71860500D03*
D53*
X141708000Y-118096000D03*
X138608000Y-118096000D03*
X138608000Y-97296000D03*
X141708000Y-97296000D03*
D54*
X143002000Y-54864000D03*
X156464000Y-94234000D03*
D55*
X134112000Y-117094000D03*
X154940000Y-118110000D03*
X147574000Y-121412000D03*
X159004000Y-99568000D03*
X134620000Y-98298000D03*
X130302000Y-91948000D03*
X163830000Y-84582000D03*
X158242000Y-87376000D03*
X154686000Y-89662000D03*
X149352000Y-77216000D03*
X155194000Y-74422000D03*
X129540000Y-53086000D03*
X170180000Y-53340000D03*
X170180000Y-124460000D03*
X129540000Y-124460000D03*
D56*
X142240000Y-79502000D03*
X144272000Y-79502000D03*
X144272000Y-80264000D03*
X143256000Y-80264000D03*
X142240000Y-80264000D03*
X143256000Y-79502000D03*
X142240000Y-78486000D03*
X143256000Y-78486000D03*
X144272000Y-78486000D03*
X166000000Y-72000000D03*
X170000000Y-66000000D03*
D57*
X150000000Y-61000000D03*
X142000000Y-60000000D03*
X138000000Y-83000000D03*
X144402157Y-89925526D03*
X150611278Y-96361972D03*
X157000000Y-97000000D03*
X131000000Y-78000000D03*
X136000000Y-82000000D03*
X160000000Y-107000000D03*
X139000000Y-84000000D03*
X140000000Y-84000000D03*
X153000000Y-94000000D03*
X150658491Y-85151737D03*
X152500000Y-122500000D03*
X157000000Y-118000000D03*
X160500000Y-112500000D03*
X155500000Y-122000000D03*
X147500000Y-96774000D03*
D54*
X158000000Y-122500000D03*
X159000000Y-112500000D03*
D57*
X146000000Y-89000000D03*
X154000000Y-105500000D03*
X166500000Y-95000000D03*
X155500000Y-87500000D03*
X147500000Y-79500000D03*
X148750000Y-79750000D03*
X152500000Y-89500000D03*
D54*
X154519000Y-113500000D03*
D57*
X154000000Y-98000000D03*
D54*
X146000000Y-74500000D03*
D57*
X150000000Y-89500000D03*
X150000000Y-86500000D03*
X149000000Y-89000000D03*
X147500000Y-90000000D03*
X145500000Y-90500000D03*
X141500000Y-84000000D03*
X148000000Y-83500000D03*
X145677172Y-82033827D03*
X129500000Y-110500000D03*
X129500000Y-108500000D03*
X129500000Y-106500000D03*
X129500000Y-104500000D03*
X129500000Y-102000000D03*
X140715690Y-79277330D03*
X154500000Y-101500000D03*
X145000000Y-84500000D03*
X144000000Y-84500000D03*
X148500000Y-82500000D03*
X147500000Y-82500000D03*
X149000000Y-82000000D03*
X148500000Y-81000000D03*
X148000000Y-80000000D03*
X139000000Y-76000000D03*
X138603279Y-77896721D03*
X133000000Y-77500000D03*
X135000000Y-77000000D03*
X134000000Y-77500000D03*
X138500000Y-79500000D03*
X138297438Y-78500000D03*
X142000000Y-82000000D03*
X142000000Y-84500000D03*
X147500000Y-64500000D03*
X148000000Y-77000000D03*
X144500000Y-77000000D03*
X145000000Y-82000000D03*
X140000000Y-64000000D03*
X132500000Y-62500000D03*
X134000000Y-62500000D03*
X135500000Y-63000000D03*
X131500000Y-69000000D03*
X133000000Y-70500000D03*
X134000000Y-70500000D03*
X142000000Y-77000000D03*
X142725720Y-77249688D03*
X141359786Y-74877313D03*
X140676245Y-74953262D03*
X142000000Y-75000000D03*
X140000000Y-75000000D03*
D54*
X159000000Y-123500000D03*
X157500000Y-113000000D03*
X160000000Y-124000000D03*
X153000000Y-112500000D03*
D55*
X142500000Y-124500000D03*
X147000000Y-115000000D03*
X138500000Y-69000000D03*
X142000000Y-74025500D03*
X155500000Y-78000000D03*
X160500000Y-59500000D03*
D56*
X145500000Y-59500000D03*
M02*
