M48
; DRILL file {KiCad 8.0.3} date 2024-06-17T15:15:27-0400
; FORMAT={-:-/ absolute / metric / decimal}
; #@! TF.CreationDate,2024-06-17T15:15:27-04:00
; #@! TF.GenerationSoftware,Kicad,Pcbnew,8.0.3
; #@! TF.FileFunction,MixedPlating,1,4
FMAT,2
METRIC
; #@! TA.AperFunction,Plated,PTH,ViaDrill
T1C0.150
; #@! TA.AperFunction,Plated,PTH,ViaDrill
T2C0.203
; #@! TA.AperFunction,Plated,PTH,ViaDrill
T3C0.254
; #@! TA.AperFunction,Plated,PTH,ViaDrill
T4C0.406
; #@! TA.AperFunction,Plated,PTH,ComponentDrill
T5C0.600
; #@! TA.AperFunction,Plated,PTH,ComponentDrill
T6C1.000
; #@! TA.AperFunction,Plated,PTH,ComponentDrill
T7C2.200
; #@! TA.AperFunction,NonPlated,NPTH,ComponentDrill
T8C0.650
%
G90
G05
T1
X129.5Y-102.0
X129.5Y-104.5
X129.5Y-106.5
X129.5Y-108.5
X129.5Y-110.5
X131.0Y-78.0
X131.5Y-69.0
X132.5Y-62.5
X133.0Y-70.5
X133.0Y-77.5
X134.0Y-62.5
X134.0Y-70.5
X134.0Y-77.5
X135.0Y-77.0
X135.5Y-63.0
X136.0Y-82.0
X137.795Y-54.61
X138.0Y-83.0
X138.297Y-78.5
X138.5Y-79.5
X138.603Y-77.897
X139.0Y-76.0
X139.0Y-84.0
X139.7Y-59.055
X140.0Y-64.0
X140.0Y-75.0
X140.0Y-84.0
X140.676Y-74.953
X140.716Y-79.277
X141.36Y-74.877
X141.5Y-84.0
X142.0Y-60.0
X142.0Y-75.0
X142.0Y-77.0
X142.0Y-82.0
X142.0Y-84.5
X142.726Y-77.25
X144.0Y-84.5
X144.248Y-57.689
X144.402Y-93.98
X144.5Y-77.0
X145.0Y-82.0
X145.0Y-84.5
X145.5Y-90.5
X145.677Y-82.034
X146.0Y-91.44
X147.5Y-64.5
X147.5Y-79.5
X147.5Y-82.5
X147.5Y-90.0
X147.5Y-96.774
X148.0Y-77.0
X148.0Y-80.0
X148.0Y-83.5
X148.5Y-81.0
X148.5Y-82.5
X148.75Y-79.75
X149.0Y-82.0
X149.0Y-89.0
X150.0Y-61.0
X150.0Y-86.5
X150.0Y-89.5
X150.611Y-96.362
X150.658Y-85.152
X152.5Y-89.5
X152.5Y-122.5
X153.0Y-94.0
X154.0Y-98.0
X154.0Y-105.5
X154.5Y-101.5
X155.5Y-87.5
X155.5Y-122.0
X157.0Y-97.0
X157.0Y-118.0
X160.0Y-107.0
X160.5Y-112.5
X166.5Y-95.0
T2
X143.002Y-54.864
X146.0Y-74.5
X153.0Y-112.5
X154.519Y-113.5
X156.464Y-94.234
X157.5Y-113.0
X158.0Y-122.5
X159.0Y-112.5
X159.0Y-123.5
X160.0Y-124.0
T3
X142.24Y-78.486
X142.24Y-79.502
X142.24Y-80.264
X143.256Y-78.486
X143.256Y-79.502
X143.256Y-80.264
X144.272Y-78.486
X144.272Y-79.502
X144.272Y-80.264
X145.5Y-59.5
X166.0Y-72.0
X170.0Y-66.0
T4
X129.54Y-53.086
X129.54Y-124.46
X130.302Y-91.948
X134.112Y-117.094
X134.62Y-98.298
X138.5Y-69.0
X142.0Y-74.025
X142.5Y-124.5
X147.0Y-115.0
X147.574Y-121.412
X149.352Y-77.216
X154.686Y-89.662
X154.94Y-118.11
X155.194Y-74.422
X155.5Y-78.0
X158.242Y-87.376
X159.004Y-99.568
X160.5Y-59.5
X163.83Y-84.582
X170.18Y-53.34
X170.18Y-124.46
T6
X135.89Y-93.472
X138.43Y-93.472
X138.608Y-97.296
X138.608Y-118.096
X140.97Y-93.472
X141.708Y-97.296
X141.708Y-118.096
X158.75Y-54.864
X158.75Y-57.404
X162.56Y-54.869
X162.56Y-57.409
X168.148Y-75.438
X168.148Y-77.978
X168.148Y-80.518
X168.148Y-83.058
X168.148Y-85.598
X168.148Y-88.138
X168.148Y-90.678
X168.148Y-93.218
X168.148Y-95.758
X168.148Y-98.298
X168.148Y-100.838
X168.148Y-103.378
X168.148Y-105.918
X168.148Y-108.458
X168.148Y-110.998
X168.148Y-113.538
T7
X132.08Y-55.88
X132.08Y-121.92
X167.64Y-55.88
X167.64Y-121.92
T8
X140.112Y-56.93
X145.892Y-56.93
T5
X138.682Y-53.65G85X138.682Y-52.85
G05
X138.682Y-57.98G85X138.682Y-56.88
G05
X147.322Y-53.65G85X147.322Y-52.85
G05
X147.322Y-57.98G85X147.322Y-56.88
G05
M30
