G04 #@! TF.GenerationSoftware,KiCad,Pcbnew,8.0.3*
G04 #@! TF.CreationDate,2024-06-17T15:15:03-04:00*
G04 #@! TF.ProjectId,node_v3_2,6e6f6465-5f76-4335-9f32-2e6b69636164,rev?*
G04 #@! TF.SameCoordinates,Original*
G04 #@! TF.FileFunction,Copper,L4,Bot*
G04 #@! TF.FilePolarity,Positive*
%FSLAX46Y46*%
G04 Gerber Fmt 4.6, Leading zero omitted, Abs format (unit mm)*
G04 Created by KiCad (PCBNEW 8.0.3) date 2024-06-17 15:15:03*
%MOMM*%
%LPD*%
G01*
G04 APERTURE LIST*
G04 Aperture macros list*
%AMRoundRect*
0 Rectangle with rounded corners*
0 $1 Rounding radius*
0 $2 $3 $4 $5 $6 $7 $8 $9 X,Y pos of 4 corners*
0 Add a 4 corners polygon primitive as box body*
4,1,4,$2,$3,$4,$5,$6,$7,$8,$9,$2,$3,0*
0 Add four circle primitives for the rounded corners*
1,1,$1+$1,$2,$3*
1,1,$1+$1,$4,$5*
1,1,$1+$1,$6,$7*
1,1,$1+$1,$8,$9*
0 Add four rect primitives between the rounded corners*
20,1,$1+$1,$2,$3,$4,$5,0*
20,1,$1+$1,$4,$5,$6,$7,0*
20,1,$1+$1,$6,$7,$8,$9,0*
20,1,$1+$1,$8,$9,$2,$3,0*%
G04 Aperture macros list end*
G04 #@! TA.AperFunction,ComponentPad*
%ADD10R,1.700000X1.700000*%
G04 #@! TD*
G04 #@! TA.AperFunction,ComponentPad*
%ADD11O,1.700000X1.700000*%
G04 #@! TD*
G04 #@! TA.AperFunction,ComponentPad*
%ADD12C,4.400000*%
G04 #@! TD*
G04 #@! TA.AperFunction,SMDPad,CuDef*
%ADD13RoundRect,0.250000X-0.425000X-1.600000X0.425000X-1.600000X0.425000X1.600000X-0.425000X1.600000X0*%
G04 #@! TD*
G04 #@! TA.AperFunction,ComponentPad*
%ADD14O,1.050000X2.100000*%
G04 #@! TD*
G04 #@! TA.AperFunction,ComponentPad*
%ADD15O,0.900000X1.800000*%
G04 #@! TD*
G04 #@! TA.AperFunction,SMDPad,CuDef*
%ADD16C,17.800000*%
G04 #@! TD*
G04 #@! TA.AperFunction,ComponentPad*
%ADD17C,2.300000*%
G04 #@! TD*
G04 #@! TA.AperFunction,ViaPad*
%ADD18C,0.304800*%
G04 #@! TD*
G04 #@! TA.AperFunction,ViaPad*
%ADD19C,0.406400*%
G04 #@! TD*
G04 #@! TA.AperFunction,ViaPad*
%ADD20C,0.250000*%
G04 #@! TD*
G04 #@! TA.AperFunction,ViaPad*
%ADD21C,0.508000*%
G04 #@! TD*
G04 #@! TA.AperFunction,Conductor*
%ADD22C,0.304800*%
G04 #@! TD*
G04 #@! TA.AperFunction,Conductor*
%ADD23C,0.609600*%
G04 #@! TD*
G04 #@! TA.AperFunction,Conductor*
%ADD24C,0.152400*%
G04 #@! TD*
G04 #@! TA.AperFunction,Conductor*
%ADD25C,0.254000*%
G04 #@! TD*
G04 APERTURE END LIST*
D10*
X162560000Y-57409000D03*
D11*
X162560000Y-54869000D03*
D12*
X132080000Y-121920000D03*
D10*
X158750000Y-57404000D03*
D11*
X158750000Y-54864000D03*
D12*
X132080000Y-55880000D03*
D13*
X145319000Y-124464000D03*
X139669000Y-124464000D03*
D12*
X167640000Y-121920000D03*
X167640000Y-55880000D03*
D10*
X168148000Y-75438000D03*
D11*
X168148000Y-77978000D03*
X168148000Y-80518000D03*
X168148000Y-83058000D03*
X168148000Y-85598000D03*
X168148000Y-88138000D03*
X168148000Y-90678000D03*
X168148000Y-93218000D03*
X168148000Y-95758000D03*
X168148000Y-98298000D03*
X168148000Y-100838000D03*
X168148000Y-103378000D03*
X168148000Y-105918000D03*
X168148000Y-108458000D03*
X168148000Y-110998000D03*
X168148000Y-113538000D03*
D10*
X135890000Y-93472000D03*
D11*
X138430000Y-93472000D03*
X140970000Y-93472000D03*
D14*
X147322000Y-57430000D03*
X138682000Y-57430000D03*
D15*
X147322000Y-53250000D03*
X138682000Y-53250000D03*
D16*
X140208000Y-107696000D03*
D17*
X141708000Y-118096000D03*
X138608000Y-118096000D03*
X138608000Y-97296000D03*
X141708000Y-97296000D03*
D18*
X143002000Y-54864000D03*
D19*
X142240000Y-80264000D03*
X144272000Y-78486000D03*
D20*
X136000000Y-82000000D03*
D21*
X159004000Y-99568000D03*
D19*
X144272000Y-79502000D03*
D21*
X129540000Y-124460000D03*
D19*
X144272000Y-80264000D03*
D21*
X134620000Y-98298000D03*
D19*
X142240000Y-79502000D03*
D21*
X149352000Y-77216000D03*
X134112000Y-117094000D03*
X170180000Y-124460000D03*
D19*
X143256000Y-80264000D03*
D21*
X158242000Y-87376000D03*
X129540000Y-53086000D03*
D19*
X143256000Y-78486000D03*
D20*
X139700000Y-59055000D03*
X142000000Y-84500000D03*
D19*
X143256000Y-79502000D03*
X142240000Y-78486000D03*
D21*
X154686000Y-89662000D03*
X155194000Y-74422000D03*
D20*
X131000000Y-78000000D03*
D21*
X147574000Y-121412000D03*
X163830000Y-84582000D03*
D18*
X156464000Y-94234000D03*
D21*
X130302000Y-91948000D03*
X154940000Y-118110000D03*
X170180000Y-53340000D03*
D20*
X145000000Y-82000000D03*
X144500000Y-77000000D03*
D18*
X146000000Y-74500000D03*
D21*
X142000000Y-74025500D03*
X138500000Y-69000000D03*
X155500000Y-78000000D03*
X160500000Y-59500000D03*
D19*
X145500000Y-59500000D03*
X170000000Y-66000000D03*
X166000000Y-72000000D03*
D20*
X129500000Y-104500000D03*
X149000000Y-89000000D03*
X148500000Y-82500000D03*
D18*
X159000000Y-112500000D03*
D20*
X154000000Y-98000000D03*
D18*
X158000000Y-122500000D03*
D20*
X145677172Y-82033827D03*
D18*
X154519000Y-113500000D03*
D20*
X141500000Y-84000000D03*
X129500000Y-102000000D03*
D18*
X153000000Y-112500000D03*
X160000000Y-124000000D03*
X157500000Y-113000000D03*
D20*
X148500000Y-81000000D03*
X153000000Y-94000000D03*
D18*
X159000000Y-123500000D03*
D20*
X150658491Y-85151737D03*
X147500000Y-82500000D03*
X155500000Y-122000000D03*
X147500000Y-96774000D03*
X147500000Y-90000000D03*
X129500000Y-106500000D03*
X144000000Y-84500000D03*
X145000000Y-84500000D03*
X139000000Y-84000000D03*
X160000000Y-107000000D03*
X148000000Y-80000000D03*
X139000000Y-76000000D03*
X152500000Y-89500000D03*
X148750000Y-79750000D03*
X135000000Y-77000000D03*
X138297438Y-78500000D03*
X140000000Y-84000000D03*
X134000000Y-77500000D03*
X138500000Y-79500000D03*
X138603279Y-77896721D03*
X154000000Y-105500000D03*
X146000000Y-91440000D03*
X155500000Y-87500000D03*
X166500000Y-95000000D03*
X147500000Y-79500000D03*
X140000000Y-64000000D03*
X140000000Y-75000000D03*
X131500000Y-69000000D03*
X142000000Y-60000000D03*
X150000000Y-61000000D03*
X150611278Y-96361972D03*
X157000000Y-97000000D03*
X138000000Y-83000000D03*
X144402157Y-93980000D03*
X147500000Y-64500000D03*
X148000000Y-77000000D03*
X140715690Y-79277330D03*
X154500000Y-101500000D03*
X142000000Y-77000000D03*
X134000000Y-62500000D03*
X134000000Y-70500000D03*
X141359786Y-74877313D03*
X140676245Y-74953262D03*
X133000000Y-70500000D03*
X132500000Y-62500000D03*
X142725720Y-77249688D03*
X135500000Y-63000000D03*
X142000000Y-75000000D03*
X133000000Y-77500000D03*
X142000000Y-82000000D03*
X145500000Y-90500000D03*
X148000000Y-83500000D03*
X129500000Y-108500000D03*
X150000000Y-86500000D03*
X129500000Y-110500000D03*
X149000000Y-82000000D03*
X150000000Y-89500000D03*
D21*
X147000000Y-115000000D03*
X142500000Y-124500000D03*
D20*
X157000000Y-118000000D03*
X160500000Y-112500000D03*
X152500000Y-122500000D03*
X144248225Y-57688985D03*
X137795000Y-54610000D03*
D22*
X147322000Y-57430000D02*
X147090600Y-57661400D01*
X138913400Y-57661400D02*
X138682000Y-57430000D01*
D23*
X141525500Y-74025500D02*
X138500000Y-71000000D01*
X138500000Y-71000000D02*
X138500000Y-69000000D01*
X142000000Y-74025500D02*
X141525500Y-74025500D01*
X142000000Y-74025500D02*
X142474500Y-74500000D01*
X155500000Y-78000000D02*
X156000000Y-78000000D01*
X156000000Y-78000000D02*
X156022000Y-77978000D01*
X152000000Y-74500000D02*
X155500000Y-78000000D01*
X156022000Y-77978000D02*
X168148000Y-77978000D01*
X142474500Y-74500000D02*
X146000000Y-74500000D01*
X146000000Y-74500000D02*
X152000000Y-74500000D01*
X145500000Y-59500000D02*
X160500000Y-59500000D01*
D22*
X170000000Y-68000000D02*
X166000000Y-72000000D01*
X170000000Y-66000000D02*
X170000000Y-68000000D01*
D24*
X148500000Y-82500000D02*
X149000000Y-83000000D01*
X168148000Y-98298000D02*
X154298000Y-98298000D01*
X149000000Y-88500000D02*
X149000000Y-89000000D01*
X154298000Y-98298000D02*
X154000000Y-98000000D01*
D25*
X159000000Y-121500000D02*
X158000000Y-122500000D01*
D24*
X149000000Y-83000000D02*
X149000000Y-88500000D01*
D25*
X159000000Y-112500000D02*
X159000000Y-121500000D01*
X154519000Y-113500000D02*
X155486000Y-113500000D01*
D24*
X145677172Y-82033827D02*
X143710999Y-84000000D01*
D25*
X155486000Y-113500000D02*
X168148000Y-100838000D01*
D24*
X143710999Y-84000000D02*
X141500000Y-84000000D01*
X150658491Y-91658491D02*
X153000000Y-94000000D01*
X150658491Y-85151737D02*
X150658491Y-91658491D01*
X168148000Y-95758000D02*
X153258000Y-95758000D01*
X152000000Y-101000000D02*
X152000000Y-118500000D01*
X147500000Y-96774000D02*
X147774000Y-96774000D01*
X153258000Y-95758000D02*
X147500000Y-90000000D01*
X147774000Y-96774000D02*
X152000000Y-101000000D01*
X148405200Y-83332160D02*
X148405200Y-89094800D01*
X152000000Y-118500000D02*
X155500000Y-122000000D01*
X148405200Y-89094800D02*
X147500000Y-90000000D01*
X147573040Y-82500000D02*
X148405200Y-83332160D01*
X147500000Y-82500000D02*
X147573040Y-82500000D01*
X158573040Y-107000000D02*
X160000000Y-107000000D01*
X139000000Y-87426960D02*
X158573040Y-107000000D01*
X139000000Y-84000000D02*
X139000000Y-87426960D01*
X155430000Y-80500000D02*
X148500000Y-80500000D01*
X148500000Y-80500000D02*
X148000000Y-80000000D01*
X168148000Y-93218000D02*
X155430000Y-80500000D01*
X136500000Y-78500000D02*
X135000000Y-77000000D01*
X138297438Y-78500000D02*
X136500000Y-78500000D01*
X134500000Y-78000000D02*
X134000000Y-77500000D01*
X136000000Y-79500000D02*
X134500000Y-78000000D01*
X138500000Y-79500000D02*
X136000000Y-79500000D01*
X155500000Y-87500000D02*
X163000000Y-95000000D01*
X163000000Y-95000000D02*
X166500000Y-95000000D01*
X143000000Y-60000000D02*
X144000000Y-61000000D01*
X142000000Y-60000000D02*
X143000000Y-60000000D01*
X144000000Y-61000000D02*
X150000000Y-61000000D01*
X150611278Y-96361972D02*
X151249306Y-97000000D01*
X151249306Y-97000000D02*
X157000000Y-97000000D01*
X140715690Y-79277330D02*
X140715690Y-79331007D01*
X140715690Y-87715690D02*
X140715690Y-79277330D01*
X154500000Y-101500000D02*
X140715690Y-87715690D01*
X139000000Y-77500000D02*
X133500000Y-72000000D01*
X133500000Y-72000000D02*
X133500000Y-70000000D01*
X133500000Y-63500000D02*
X132500000Y-62500000D01*
X142725720Y-77249688D02*
X142475408Y-77500000D01*
X133500000Y-70000000D02*
X133500000Y-63500000D01*
X142475408Y-77500000D02*
X139000000Y-77500000D01*
X145500000Y-86000000D02*
X145500000Y-90500000D01*
X148000000Y-83500000D02*
X145500000Y-86000000D01*
X150000000Y-87000000D02*
X150000000Y-89500000D01*
X150000000Y-86500000D02*
X150000000Y-87000000D01*
G04 #@! TA.AperFunction,Conductor*
G36*
X168722421Y-51300619D02*
G01*
X168751158Y-51302030D01*
X169058173Y-51317113D01*
X169067815Y-51318063D01*
X169397915Y-51367029D01*
X169407421Y-51368919D01*
X169731144Y-51450008D01*
X169740415Y-51452820D01*
X170054625Y-51565246D01*
X170063594Y-51568961D01*
X170365263Y-51711640D01*
X170373826Y-51716218D01*
X170660049Y-51887773D01*
X170668127Y-51893171D01*
X170936150Y-52091951D01*
X170943660Y-52098114D01*
X171190921Y-52322218D01*
X171197781Y-52329078D01*
X171323484Y-52467770D01*
X171421885Y-52576339D01*
X171428048Y-52583849D01*
X171626828Y-52851872D01*
X171632226Y-52859950D01*
X171803781Y-53146173D01*
X171808361Y-53154741D01*
X171951036Y-53456402D01*
X171954754Y-53465378D01*
X172067175Y-53779571D01*
X172069995Y-53788868D01*
X172151077Y-54112567D01*
X172152972Y-54122096D01*
X172201934Y-54452170D01*
X172202887Y-54461838D01*
X172219381Y-54797577D01*
X172219500Y-54802435D01*
X172219500Y-122997564D01*
X172219381Y-123002422D01*
X172202887Y-123338161D01*
X172201934Y-123347829D01*
X172152972Y-123677903D01*
X172151077Y-123687432D01*
X172069995Y-124011131D01*
X172067175Y-124020428D01*
X171954754Y-124334621D01*
X171951036Y-124343597D01*
X171808361Y-124645258D01*
X171803781Y-124653826D01*
X171632226Y-124940049D01*
X171626828Y-124948127D01*
X171428048Y-125216150D01*
X171421885Y-125223660D01*
X171197786Y-125470916D01*
X171190916Y-125477786D01*
X170943660Y-125701885D01*
X170936150Y-125708048D01*
X170668127Y-125906828D01*
X170660049Y-125912226D01*
X170373826Y-126083781D01*
X170365258Y-126088361D01*
X170063597Y-126231036D01*
X170054621Y-126234754D01*
X169740428Y-126347175D01*
X169731131Y-126349995D01*
X169407432Y-126431077D01*
X169397903Y-126432972D01*
X169067829Y-126481934D01*
X169058161Y-126482887D01*
X168722422Y-126499381D01*
X168717564Y-126499500D01*
X146240344Y-126499500D01*
X146182153Y-126480593D01*
X146146189Y-126431093D01*
X146146189Y-126369907D01*
X146161091Y-126341170D01*
X146187354Y-126306087D01*
X146237596Y-126171381D01*
X146237598Y-126171370D01*
X146244000Y-126111824D01*
X146244000Y-124839001D01*
X146243999Y-124839000D01*
X144394001Y-124839000D01*
X144394000Y-124839001D01*
X144394000Y-126111824D01*
X144393999Y-126111824D01*
X144400401Y-126171370D01*
X144400403Y-126171381D01*
X144450645Y-126306087D01*
X144476909Y-126341170D01*
X144496646Y-126399085D01*
X144478572Y-126457540D01*
X144429591Y-126494208D01*
X144397656Y-126499500D01*
X140590344Y-126499500D01*
X140532153Y-126480593D01*
X140496189Y-126431093D01*
X140496189Y-126369907D01*
X140511091Y-126341170D01*
X140537354Y-126306087D01*
X140587596Y-126171381D01*
X140587598Y-126171370D01*
X140594000Y-126111824D01*
X140594000Y-124839001D01*
X140593999Y-124839000D01*
X138744001Y-124839000D01*
X138744000Y-124839001D01*
X138744000Y-126111824D01*
X138743999Y-126111824D01*
X138750401Y-126171370D01*
X138750403Y-126171381D01*
X138800645Y-126306087D01*
X138826909Y-126341170D01*
X138846646Y-126399085D01*
X138828572Y-126457540D01*
X138779591Y-126494208D01*
X138747656Y-126499500D01*
X131002436Y-126499500D01*
X130997578Y-126499381D01*
X130661838Y-126482887D01*
X130652170Y-126481934D01*
X130322096Y-126432972D01*
X130312567Y-126431077D01*
X129988868Y-126349995D01*
X129979571Y-126347175D01*
X129665378Y-126234754D01*
X129656402Y-126231036D01*
X129354741Y-126088361D01*
X129346173Y-126083781D01*
X129059950Y-125912226D01*
X129051872Y-125906828D01*
X128783849Y-125708048D01*
X128776339Y-125701885D01*
X128529083Y-125477786D01*
X128522218Y-125470921D01*
X128298114Y-125223660D01*
X128291951Y-125216150D01*
X128134980Y-125004500D01*
X128093169Y-124948125D01*
X128087773Y-124940049D01*
X128054895Y-124885196D01*
X127916216Y-124653823D01*
X127911638Y-124645258D01*
X127842934Y-124499997D01*
X141990312Y-124499997D01*
X141990312Y-124500002D01*
X142010956Y-124643590D01*
X142010957Y-124643593D01*
X142010957Y-124643594D01*
X142010958Y-124643596D01*
X142071223Y-124775558D01*
X142166225Y-124885196D01*
X142288268Y-124963629D01*
X142395576Y-124995137D01*
X142427460Y-125004499D01*
X142427461Y-125004499D01*
X142427464Y-125004500D01*
X142427466Y-125004500D01*
X142572534Y-125004500D01*
X142572536Y-125004500D01*
X142711732Y-124963629D01*
X142833775Y-124885196D01*
X142928777Y-124775558D01*
X142989042Y-124643596D01*
X143009688Y-124500000D01*
X142996449Y-124407922D01*
X142989043Y-124356409D01*
X142989042Y-124356406D01*
X142989042Y-124356404D01*
X142928777Y-124224442D01*
X142833775Y-124114804D01*
X142711732Y-124036371D01*
X142711729Y-124036370D01*
X142572539Y-123995500D01*
X142572536Y-123995500D01*
X142427464Y-123995500D01*
X142427460Y-123995500D01*
X142288270Y-124036370D01*
X142288267Y-124036371D01*
X142166226Y-124114803D01*
X142166224Y-124114805D01*
X142071224Y-124224440D01*
X142071223Y-124224441D01*
X142071223Y-124224442D01*
X142057407Y-124254694D01*
X142010957Y-124356406D01*
X142010956Y-124356409D01*
X141990312Y-124499997D01*
X127842934Y-124499997D01*
X127799386Y-124407922D01*
X127768961Y-124343594D01*
X127765245Y-124334621D01*
X127763598Y-124330017D01*
X127652820Y-124020415D01*
X127650008Y-124011144D01*
X127568919Y-123687421D01*
X127567029Y-123677915D01*
X127518063Y-123347815D01*
X127517113Y-123338173D01*
X127500619Y-123002421D01*
X127500500Y-122997564D01*
X127500500Y-121920000D01*
X129625156Y-121920000D01*
X129644513Y-122227679D01*
X129702277Y-122530486D01*
X129702280Y-122530496D01*
X129797546Y-122823694D01*
X129928804Y-123102630D01*
X129928811Y-123102643D01*
X130093989Y-123362921D01*
X130099764Y-123369903D01*
X131083145Y-122386521D01*
X131139196Y-122496525D01*
X131240967Y-122636602D01*
X131363398Y-122759033D01*
X131503475Y-122860804D01*
X131613476Y-122916852D01*
X130633156Y-123897173D01*
X130764624Y-123992690D01*
X130764644Y-123992702D01*
X131034776Y-124141208D01*
X131034779Y-124141210D01*
X131321410Y-124254694D01*
X131620012Y-124331362D01*
X131925859Y-124370000D01*
X132234141Y-124370000D01*
X132539987Y-124331362D01*
X132838589Y-124254694D01*
X133125218Y-124141210D01*
X133395362Y-123992697D01*
X133395375Y-123992689D01*
X133526841Y-123897172D01*
X132546522Y-122916853D01*
X132656525Y-122860804D01*
X132796602Y-122759033D01*
X132919033Y-122636602D01*
X133020804Y-122496525D01*
X133076853Y-122386523D01*
X134060233Y-123369903D01*
X134066009Y-123362922D01*
X134066013Y-123362917D01*
X134231188Y-123102643D01*
X134231195Y-123102630D01*
X134362453Y-122823694D01*
X134364896Y-122816175D01*
X138744000Y-122816175D01*
X138744000Y-124088999D01*
X138744001Y-124089000D01*
X139293999Y-124089000D01*
X139294000Y-124088999D01*
X139294000Y-122364001D01*
X140044000Y-122364001D01*
X140044000Y-124088999D01*
X140044001Y-124089000D01*
X140593999Y-124089000D01*
X140594000Y-124088999D01*
X140594000Y-122816175D01*
X144394000Y-122816175D01*
X144394000Y-124088999D01*
X144394001Y-124089000D01*
X144943999Y-124089000D01*
X144944000Y-124088999D01*
X144944000Y-122364001D01*
X145694000Y-122364001D01*
X145694000Y-124088999D01*
X145694001Y-124089000D01*
X146243999Y-124089000D01*
X146244000Y-124088999D01*
X146244000Y-123999999D01*
X159592078Y-123999999D01*
X159592078Y-124000000D01*
X159612043Y-124126054D01*
X159612045Y-124126061D01*
X159669982Y-124239768D01*
X159669984Y-124239771D01*
X159760229Y-124330016D01*
X159760231Y-124330017D01*
X159873938Y-124387954D01*
X159873940Y-124387954D01*
X159873945Y-124387957D01*
X160000000Y-124407922D01*
X160126055Y-124387957D01*
X160239771Y-124330016D01*
X160330016Y-124239771D01*
X160387957Y-124126055D01*
X160407922Y-124000000D01*
X160387957Y-123873945D01*
X160387954Y-123873940D01*
X160387954Y-123873938D01*
X160330017Y-123760231D01*
X160330016Y-123760229D01*
X160239771Y-123669984D01*
X160239768Y-123669982D01*
X160126061Y-123612045D01*
X160126056Y-123612043D01*
X160126055Y-123612043D01*
X160000000Y-123592078D01*
X159873945Y-123612043D01*
X159873938Y-123612045D01*
X159760231Y-123669982D01*
X159669982Y-123760231D01*
X159612045Y-123873938D01*
X159612043Y-123873945D01*
X159592078Y-123999999D01*
X146244000Y-123999999D01*
X146244000Y-123499999D01*
X158592078Y-123499999D01*
X158592078Y-123500000D01*
X158612043Y-123626054D01*
X158612045Y-123626061D01*
X158669982Y-123739768D01*
X158669984Y-123739771D01*
X158760229Y-123830016D01*
X158760231Y-123830017D01*
X158873938Y-123887954D01*
X158873940Y-123887954D01*
X158873945Y-123887957D01*
X159000000Y-123907922D01*
X159126055Y-123887957D01*
X159239771Y-123830016D01*
X159330016Y-123739771D01*
X159387957Y-123626055D01*
X159407922Y-123500000D01*
X159387957Y-123373945D01*
X159387954Y-123373940D01*
X159387954Y-123373938D01*
X159330017Y-123260231D01*
X159330016Y-123260229D01*
X159239771Y-123169984D01*
X159239768Y-123169982D01*
X159126061Y-123112045D01*
X159126056Y-123112043D01*
X159126055Y-123112043D01*
X159000000Y-123092078D01*
X158873945Y-123112043D01*
X158873938Y-123112045D01*
X158760231Y-123169982D01*
X158669982Y-123260231D01*
X158612045Y-123373938D01*
X158612043Y-123373945D01*
X158592078Y-123499999D01*
X146244000Y-123499999D01*
X146244000Y-122816175D01*
X146237598Y-122756629D01*
X146237596Y-122756618D01*
X146187353Y-122621911D01*
X146187352Y-122621909D01*
X146101192Y-122506815D01*
X146101184Y-122506807D01*
X146092090Y-122499999D01*
X152119819Y-122499999D01*
X152119819Y-122500000D01*
X152138426Y-122617481D01*
X152138428Y-122617488D01*
X152170537Y-122680504D01*
X152192427Y-122723465D01*
X152276535Y-122807573D01*
X152276537Y-122807574D01*
X152382511Y-122861571D01*
X152382513Y-122861571D01*
X152382518Y-122861574D01*
X152500000Y-122880181D01*
X152617482Y-122861574D01*
X152723465Y-122807573D01*
X152807573Y-122723465D01*
X152861574Y-122617482D01*
X152880181Y-122500000D01*
X157592078Y-122500000D01*
X157596906Y-122530486D01*
X157612043Y-122626054D01*
X157612045Y-122626061D01*
X157669982Y-122739768D01*
X157669984Y-122739771D01*
X157760229Y-122830016D01*
X157760231Y-122830017D01*
X157873938Y-122887954D01*
X157873940Y-122887954D01*
X157873945Y-122887957D01*
X158000000Y-122907922D01*
X158126055Y-122887957D01*
X158239771Y-122830016D01*
X158330016Y-122739771D01*
X158360215Y-122680498D01*
X158378417Y-122655446D01*
X159113865Y-121920000D01*
X165185156Y-121920000D01*
X165204513Y-122227679D01*
X165262277Y-122530486D01*
X165262280Y-122530496D01*
X165357546Y-122823694D01*
X165488804Y-123102630D01*
X165488811Y-123102643D01*
X165653989Y-123362921D01*
X165659764Y-123369903D01*
X166643145Y-122386521D01*
X166699196Y-122496525D01*
X166800967Y-122636602D01*
X166923398Y-122759033D01*
X167063475Y-122860804D01*
X167173476Y-122916852D01*
X166193156Y-123897173D01*
X166324624Y-123992690D01*
X166324644Y-123992702D01*
X166594776Y-124141208D01*
X166594779Y-124141210D01*
X166881410Y-124254694D01*
X167180012Y-124331362D01*
X167485859Y-124370000D01*
X167794141Y-124370000D01*
X168099987Y-124331362D01*
X168398589Y-124254694D01*
X168685218Y-124141210D01*
X168955362Y-123992697D01*
X168955375Y-123992689D01*
X169086841Y-123897172D01*
X168106522Y-122916853D01*
X168216525Y-122860804D01*
X168356602Y-122759033D01*
X168479033Y-122636602D01*
X168580804Y-122496525D01*
X168636853Y-122386523D01*
X169620233Y-123369903D01*
X169626009Y-123362922D01*
X169626013Y-123362917D01*
X169791188Y-123102643D01*
X169791195Y-123102630D01*
X169922453Y-122823694D01*
X170017719Y-122530496D01*
X170017722Y-122530486D01*
X170075486Y-122227679D01*
X170094843Y-121920000D01*
X170075486Y-121612320D01*
X170017722Y-121309513D01*
X170017719Y-121309503D01*
X169922453Y-121016305D01*
X169791195Y-120737369D01*
X169791188Y-120737356D01*
X169626012Y-120477082D01*
X169626005Y-120477072D01*
X169620234Y-120470095D01*
X168636853Y-121453476D01*
X168580804Y-121343475D01*
X168479033Y-121203398D01*
X168356602Y-121080967D01*
X168216525Y-120979196D01*
X168106521Y-120923145D01*
X169086842Y-119942825D01*
X168955372Y-119847308D01*
X168955358Y-119847299D01*
X168685223Y-119698791D01*
X168685220Y-119698789D01*
X168398589Y-119585305D01*
X168099987Y-119508637D01*
X167794141Y-119470000D01*
X167485859Y-119470000D01*
X167180012Y-119508637D01*
X166881410Y-119585305D01*
X166594779Y-119698789D01*
X166594776Y-119698791D01*
X166324641Y-119847299D01*
X166324627Y-119847308D01*
X166193156Y-119942825D01*
X167173477Y-120923146D01*
X167063475Y-120979196D01*
X166923398Y-121080967D01*
X166800967Y-121203398D01*
X166699196Y-121343475D01*
X166643146Y-121453477D01*
X165659764Y-120470095D01*
X165653985Y-120477084D01*
X165488811Y-120737356D01*
X165488804Y-120737369D01*
X165357546Y-121016305D01*
X165262280Y-121309503D01*
X165262277Y-121309513D01*
X165204513Y-121612320D01*
X165185156Y-121920000D01*
X159113865Y-121920000D01*
X159302076Y-121731790D01*
X159351774Y-121645710D01*
X159377500Y-121549699D01*
X159377500Y-121450301D01*
X159377500Y-113538000D01*
X167042785Y-113538000D01*
X167061603Y-113741083D01*
X167117418Y-113937250D01*
X167208327Y-114119821D01*
X167331236Y-114282579D01*
X167481959Y-114419981D01*
X167655363Y-114527348D01*
X167845544Y-114601024D01*
X168046024Y-114638500D01*
X168249976Y-114638500D01*
X168450456Y-114601024D01*
X168640637Y-114527348D01*
X168814041Y-114419981D01*
X168964764Y-114282579D01*
X169087673Y-114119821D01*
X169178582Y-113937250D01*
X169234397Y-113741083D01*
X169253215Y-113538000D01*
X169234397Y-113334917D01*
X169178582Y-113138750D01*
X169087673Y-112956179D01*
X168964764Y-112793421D01*
X168814041Y-112656019D01*
X168640637Y-112548652D01*
X168450456Y-112474976D01*
X168450455Y-112474975D01*
X168450453Y-112474975D01*
X168249976Y-112437500D01*
X168046024Y-112437500D01*
X167845546Y-112474975D01*
X167780952Y-112499999D01*
X167655363Y-112548652D01*
X167530353Y-112626055D01*
X167481959Y-112656019D01*
X167331237Y-112793420D01*
X167208328Y-112956177D01*
X167208323Y-112956186D01*
X167123739Y-113126055D01*
X167117418Y-113138750D01*
X167061603Y-113334917D01*
X167042785Y-113538000D01*
X159377500Y-113538000D01*
X159377500Y-112670346D01*
X159386295Y-112633711D01*
X159385548Y-112633469D01*
X159387954Y-112626061D01*
X159387957Y-112626055D01*
X159407922Y-112500000D01*
X160119819Y-112500000D01*
X160134402Y-112592078D01*
X160138426Y-112617481D01*
X160138428Y-112617488D01*
X160192425Y-112723462D01*
X160192427Y-112723465D01*
X160276535Y-112807573D01*
X160276537Y-112807574D01*
X160382511Y-112861571D01*
X160382513Y-112861571D01*
X160382518Y-112861574D01*
X160500000Y-112880181D01*
X160617482Y-112861574D01*
X160723465Y-112807573D01*
X160807573Y-112723465D01*
X160861574Y-112617482D01*
X160880181Y-112500000D01*
X160861574Y-112382518D01*
X160861571Y-112382513D01*
X160861571Y-112382511D01*
X160807574Y-112276537D01*
X160807573Y-112276535D01*
X160723465Y-112192427D01*
X160723462Y-112192425D01*
X160617488Y-112138428D01*
X160617483Y-112138426D01*
X160617482Y-112138426D01*
X160500000Y-112119819D01*
X160382518Y-112138426D01*
X160382511Y-112138428D01*
X160276537Y-112192425D01*
X160192425Y-112276537D01*
X160138428Y-112382511D01*
X160138426Y-112382518D01*
X160123783Y-112474975D01*
X160119819Y-112500000D01*
X159407922Y-112500000D01*
X159387957Y-112373945D01*
X159387954Y-112373940D01*
X159387954Y-112373938D01*
X159330017Y-112260231D01*
X159330016Y-112260229D01*
X159239771Y-112169984D01*
X159239768Y-112169982D01*
X159126061Y-112112045D01*
X159126056Y-112112043D01*
X159126055Y-112112043D01*
X159000000Y-112092078D01*
X158873945Y-112112043D01*
X158873938Y-112112045D01*
X158760231Y-112169982D01*
X158669982Y-112260231D01*
X158612045Y-112373938D01*
X158612043Y-112373945D01*
X158592078Y-112499999D01*
X158592078Y-112500000D01*
X158612043Y-112626054D01*
X158614452Y-112633469D01*
X158613704Y-112633711D01*
X158622500Y-112670346D01*
X158622500Y-121302626D01*
X158603593Y-121360817D01*
X158593504Y-121372630D01*
X157844551Y-122121582D01*
X157819492Y-122139787D01*
X157760233Y-122169981D01*
X157760231Y-122169982D01*
X157669982Y-122260231D01*
X157612045Y-122373938D01*
X157612043Y-122373945D01*
X157592078Y-122500000D01*
X152880181Y-122500000D01*
X152861574Y-122382518D01*
X152861571Y-122382513D01*
X152861571Y-122382511D01*
X152807574Y-122276537D01*
X152807573Y-122276535D01*
X152723465Y-122192427D01*
X152723462Y-122192425D01*
X152617488Y-122138428D01*
X152617483Y-122138426D01*
X152617482Y-122138426D01*
X152500000Y-122119819D01*
X152382518Y-122138426D01*
X152382511Y-122138428D01*
X152276537Y-122192425D01*
X152192425Y-122276537D01*
X152138428Y-122382511D01*
X152138426Y-122382518D01*
X152119819Y-122499999D01*
X146092090Y-122499999D01*
X145986090Y-122420647D01*
X145986088Y-122420646D01*
X145851381Y-122370403D01*
X145851370Y-122370401D01*
X145791824Y-122364000D01*
X145694001Y-122364000D01*
X145694000Y-122364001D01*
X144944000Y-122364001D01*
X144943999Y-122364000D01*
X144846176Y-122364000D01*
X144786629Y-122370401D01*
X144786618Y-122370403D01*
X144651911Y-122420646D01*
X144651909Y-122420647D01*
X144536815Y-122506807D01*
X144536807Y-122506815D01*
X144450647Y-122621909D01*
X144450646Y-122621911D01*
X144400403Y-122756618D01*
X144400401Y-122756629D01*
X144394000Y-122816175D01*
X140594000Y-122816175D01*
X140587598Y-122756629D01*
X140587596Y-122756618D01*
X140537353Y-122621911D01*
X140537352Y-122621909D01*
X140451192Y-122506815D01*
X140451184Y-122506807D01*
X140336090Y-122420647D01*
X140336088Y-122420646D01*
X140201381Y-122370403D01*
X140201370Y-122370401D01*
X140141824Y-122364000D01*
X140044001Y-122364000D01*
X140044000Y-122364001D01*
X139294000Y-122364001D01*
X139293999Y-122364000D01*
X139196176Y-122364000D01*
X139136629Y-122370401D01*
X139136618Y-122370403D01*
X139001911Y-122420646D01*
X139001909Y-122420647D01*
X138886815Y-122506807D01*
X138886807Y-122506815D01*
X138800647Y-122621909D01*
X138800646Y-122621911D01*
X138750403Y-122756618D01*
X138750401Y-122756629D01*
X138744000Y-122816175D01*
X134364896Y-122816175D01*
X134457719Y-122530496D01*
X134457722Y-122530486D01*
X134515486Y-122227679D01*
X134534843Y-121920000D01*
X134515486Y-121612320D01*
X134457722Y-121309513D01*
X134457719Y-121309503D01*
X134362453Y-121016305D01*
X134231195Y-120737369D01*
X134231188Y-120737356D01*
X134066012Y-120477082D01*
X134066005Y-120477072D01*
X134060234Y-120470095D01*
X133076853Y-121453476D01*
X133020804Y-121343475D01*
X132919033Y-121203398D01*
X132796602Y-121080967D01*
X132656525Y-120979196D01*
X132546521Y-120923145D01*
X133526842Y-119942825D01*
X133395372Y-119847308D01*
X133395358Y-119847299D01*
X133125223Y-119698791D01*
X133125220Y-119698789D01*
X132838589Y-119585305D01*
X132539987Y-119508637D01*
X132234141Y-119470000D01*
X131925859Y-119470000D01*
X131620012Y-119508637D01*
X131321410Y-119585305D01*
X131034779Y-119698789D01*
X131034776Y-119698791D01*
X130764641Y-119847299D01*
X130764627Y-119847308D01*
X130633156Y-119942825D01*
X131613477Y-120923146D01*
X131503475Y-120979196D01*
X131363398Y-121080967D01*
X131240967Y-121203398D01*
X131139196Y-121343475D01*
X131083146Y-121453477D01*
X130099764Y-120470095D01*
X130093985Y-120477084D01*
X129928811Y-120737356D01*
X129928804Y-120737369D01*
X129797546Y-121016305D01*
X129702280Y-121309503D01*
X129702277Y-121309513D01*
X129644513Y-121612320D01*
X129625156Y-121920000D01*
X127500500Y-121920000D01*
X127500500Y-110499999D01*
X129119819Y-110499999D01*
X129119819Y-110500000D01*
X129138426Y-110617481D01*
X129138428Y-110617488D01*
X129192425Y-110723462D01*
X129192427Y-110723465D01*
X129276535Y-110807573D01*
X129276537Y-110807574D01*
X129382511Y-110861571D01*
X129382513Y-110861571D01*
X129382518Y-110861574D01*
X129500000Y-110880181D01*
X129617482Y-110861574D01*
X129723465Y-110807573D01*
X129807573Y-110723465D01*
X129861574Y-110617482D01*
X129880181Y-110500000D01*
X129861574Y-110382518D01*
X129861571Y-110382513D01*
X129861571Y-110382511D01*
X129807574Y-110276537D01*
X129807573Y-110276535D01*
X129723465Y-110192427D01*
X129723462Y-110192425D01*
X129617488Y-110138428D01*
X129617483Y-110138426D01*
X129617482Y-110138426D01*
X129500000Y-110119819D01*
X129382518Y-110138426D01*
X129382511Y-110138428D01*
X129276537Y-110192425D01*
X129192425Y-110276537D01*
X129138428Y-110382511D01*
X129138426Y-110382518D01*
X129119819Y-110499999D01*
X127500500Y-110499999D01*
X127500500Y-108499999D01*
X129119819Y-108499999D01*
X129119819Y-108500000D01*
X129138426Y-108617481D01*
X129138428Y-108617488D01*
X129192425Y-108723462D01*
X129192427Y-108723465D01*
X129276535Y-108807573D01*
X129276537Y-108807574D01*
X129382511Y-108861571D01*
X129382513Y-108861571D01*
X129382518Y-108861574D01*
X129500000Y-108880181D01*
X129617482Y-108861574D01*
X129723465Y-108807573D01*
X129807573Y-108723465D01*
X129861574Y-108617482D01*
X129880181Y-108500000D01*
X129861574Y-108382518D01*
X129861571Y-108382513D01*
X129861571Y-108382511D01*
X129807574Y-108276537D01*
X129807573Y-108276535D01*
X129723465Y-108192427D01*
X129723462Y-108192425D01*
X129617488Y-108138428D01*
X129617483Y-108138426D01*
X129617482Y-108138426D01*
X129500000Y-108119819D01*
X129382518Y-108138426D01*
X129382511Y-108138428D01*
X129276537Y-108192425D01*
X129192425Y-108276537D01*
X129138428Y-108382511D01*
X129138426Y-108382518D01*
X129119819Y-108499999D01*
X127500500Y-108499999D01*
X127500500Y-107695999D01*
X131052598Y-107695999D01*
X131052598Y-107696000D01*
X131072199Y-108294790D01*
X131072200Y-108294800D01*
X131130924Y-108891023D01*
X131155491Y-109039821D01*
X131222773Y-109447347D01*
X131228516Y-109482128D01*
X131228517Y-109482137D01*
X131364561Y-110065593D01*
X131538468Y-110638890D01*
X131538469Y-110638893D01*
X131538474Y-110638908D01*
X131745984Y-111190251D01*
X131749514Y-111199629D01*
X131996766Y-111745323D01*
X131996772Y-111745336D01*
X132279185Y-112273695D01*
X132581732Y-112760231D01*
X132595561Y-112782469D01*
X132944531Y-113269456D01*
X132944533Y-113269458D01*
X132944539Y-113269467D01*
X133041781Y-113387956D01*
X133324604Y-113732576D01*
X133734153Y-114169847D01*
X134171424Y-114579396D01*
X134450202Y-114808183D01*
X134634532Y-114959460D01*
X134634537Y-114959463D01*
X134634544Y-114959469D01*
X135121531Y-115308439D01*
X135121538Y-115308443D01*
X135121539Y-115308444D01*
X135630304Y-115624814D01*
X136158663Y-115907227D01*
X136158669Y-115907230D01*
X136704379Y-116154489D01*
X137265092Y-116365526D01*
X137838408Y-116539439D01*
X138092828Y-116598761D01*
X138145204Y-116630388D01*
X138168988Y-116686762D01*
X138155094Y-116746349D01*
X138108829Y-116786389D01*
X138102492Y-116788810D01*
X138043497Y-116809064D01*
X138043495Y-116809064D01*
X138043492Y-116809066D01*
X137839373Y-116919530D01*
X137839370Y-116919532D01*
X137656219Y-117062084D01*
X137499020Y-117232848D01*
X137372075Y-117427153D01*
X137278843Y-117639701D01*
X137221865Y-117864696D01*
X137202700Y-118096000D01*
X137221865Y-118327303D01*
X137249985Y-118438344D01*
X137278843Y-118552300D01*
X137372076Y-118764849D01*
X137499021Y-118959153D01*
X137656216Y-119129913D01*
X137839374Y-119272470D01*
X138043497Y-119382936D01*
X138263019Y-119458298D01*
X138491951Y-119496500D01*
X138724049Y-119496500D01*
X138952981Y-119458298D01*
X139172503Y-119382936D01*
X139376626Y-119272470D01*
X139559784Y-119129913D01*
X139716979Y-118959153D01*
X139843924Y-118764849D01*
X139937157Y-118552300D01*
X139994134Y-118327305D01*
X140013300Y-118096000D01*
X139994134Y-117864695D01*
X139937157Y-117639700D01*
X139843924Y-117427151D01*
X139716979Y-117232847D01*
X139559784Y-117062087D01*
X139549377Y-117053986D01*
X139483939Y-117003054D01*
X139449631Y-116952391D01*
X139451655Y-116891239D01*
X139489236Y-116842956D01*
X139548020Y-116825983D01*
X139554425Y-116826404D01*
X139609208Y-116831800D01*
X140208000Y-116851402D01*
X140758511Y-116833380D01*
X140817288Y-116850373D01*
X140854852Y-116898670D01*
X140856854Y-116959823D01*
X140822557Y-117010452D01*
X140756217Y-117062086D01*
X140599020Y-117232848D01*
X140472075Y-117427153D01*
X140378843Y-117639701D01*
X140321865Y-117864696D01*
X140302700Y-118096000D01*
X140321865Y-118327303D01*
X140349985Y-118438344D01*
X140378843Y-118552300D01*
X140472076Y-118764849D01*
X140599021Y-118959153D01*
X140756216Y-119129913D01*
X140939374Y-119272470D01*
X141143497Y-119382936D01*
X141363019Y-119458298D01*
X141591951Y-119496500D01*
X141824049Y-119496500D01*
X142052981Y-119458298D01*
X142272503Y-119382936D01*
X142476626Y-119272470D01*
X142659784Y-119129913D01*
X142816979Y-118959153D01*
X142943924Y-118764849D01*
X143037157Y-118552300D01*
X143094134Y-118327305D01*
X143113300Y-118096000D01*
X143094134Y-117864695D01*
X143037157Y-117639700D01*
X142943924Y-117427151D01*
X142816979Y-117232847D01*
X142659784Y-117062087D01*
X142476626Y-116919530D01*
X142317435Y-116833380D01*
X142272507Y-116809066D01*
X142272506Y-116809065D01*
X142272503Y-116809064D01*
X142253953Y-116802696D01*
X142205057Y-116765919D01*
X142187115Y-116707423D01*
X142206982Y-116649553D01*
X142257070Y-116614413D01*
X142263608Y-116612649D01*
X142577592Y-116539439D01*
X143150908Y-116365526D01*
X143711621Y-116154489D01*
X144257331Y-115907230D01*
X144785701Y-115624811D01*
X145294469Y-115308439D01*
X145724899Y-114999997D01*
X146490312Y-114999997D01*
X146490312Y-115000002D01*
X146510956Y-115143590D01*
X146510957Y-115143593D01*
X146510957Y-115143594D01*
X146510958Y-115143596D01*
X146571223Y-115275558D01*
X146666225Y-115385196D01*
X146788268Y-115463629D01*
X146895576Y-115495137D01*
X146927460Y-115504499D01*
X146927461Y-115504499D01*
X146927464Y-115504500D01*
X146927466Y-115504500D01*
X147072534Y-115504500D01*
X147072536Y-115504500D01*
X147211732Y-115463629D01*
X147333775Y-115385196D01*
X147428777Y-115275558D01*
X147489042Y-115143596D01*
X147509688Y-115000000D01*
X147503859Y-114959460D01*
X147489043Y-114856409D01*
X147489042Y-114856406D01*
X147489042Y-114856404D01*
X147428777Y-114724442D01*
X147333775Y-114614804D01*
X147211732Y-114536371D01*
X147211729Y-114536370D01*
X147072539Y-114495500D01*
X147072536Y-114495500D01*
X146927464Y-114495500D01*
X146927460Y-114495500D01*
X146788270Y-114536370D01*
X146788267Y-114536371D01*
X146666226Y-114614803D01*
X146666224Y-114614805D01*
X146571224Y-114724440D01*
X146510957Y-114856406D01*
X146510956Y-114856409D01*
X146490312Y-114999997D01*
X145724899Y-114999997D01*
X145781456Y-114959469D01*
X146244576Y-114579396D01*
X146681847Y-114169847D01*
X147091396Y-113732576D01*
X147471469Y-113269456D01*
X147820439Y-112782469D01*
X148136811Y-112273701D01*
X148419230Y-111745331D01*
X148666489Y-111199621D01*
X148877526Y-110638908D01*
X149051439Y-110065592D01*
X149187484Y-109482130D01*
X149285076Y-108891020D01*
X149343800Y-108294792D01*
X149363402Y-107696000D01*
X149343800Y-107097208D01*
X149285076Y-106500980D01*
X149187484Y-105909870D01*
X149051439Y-105326408D01*
X148877526Y-104753092D01*
X148666489Y-104192379D01*
X148419230Y-103646669D01*
X148136811Y-103118299D01*
X147820439Y-102609531D01*
X147471469Y-102122544D01*
X147471463Y-102122537D01*
X147471460Y-102122532D01*
X147275156Y-101883336D01*
X147091396Y-101659424D01*
X146681847Y-101222153D01*
X146244576Y-100812604D01*
X146004768Y-100615799D01*
X145781467Y-100432539D01*
X145781458Y-100432533D01*
X145781456Y-100432531D01*
X145294469Y-100083561D01*
X145294464Y-100083558D01*
X145294460Y-100083555D01*
X144785695Y-99767185D01*
X144257336Y-99484772D01*
X144257323Y-99484766D01*
X143711629Y-99237514D01*
X143558764Y-99179980D01*
X143150908Y-99026474D01*
X143150899Y-99026471D01*
X143150893Y-99026469D01*
X143150890Y-99026468D01*
X142577593Y-98852561D01*
X142263620Y-98779352D01*
X142211243Y-98747724D01*
X142187459Y-98691351D01*
X142201353Y-98631764D01*
X142247618Y-98591724D01*
X142253929Y-98589312D01*
X142272503Y-98582936D01*
X142476626Y-98472470D01*
X142659784Y-98329913D01*
X142816979Y-98159153D01*
X142943924Y-97964849D01*
X143037157Y-97752300D01*
X143094134Y-97527305D01*
X143113300Y-97296000D01*
X143094134Y-97064695D01*
X143037157Y-96839700D01*
X142943924Y-96627151D01*
X142816979Y-96432847D01*
X142659784Y-96262087D01*
X142613486Y-96226052D01*
X142476629Y-96119532D01*
X142476626Y-96119530D01*
X142272506Y-96009065D01*
X142193059Y-95981791D01*
X142052981Y-95933702D01*
X142052978Y-95933701D01*
X142052977Y-95933701D01*
X141824049Y-95895500D01*
X141591951Y-95895500D01*
X141363022Y-95933701D01*
X141143493Y-96009065D01*
X140939373Y-96119530D01*
X140939370Y-96119532D01*
X140756219Y-96262084D01*
X140756216Y-96262086D01*
X140756216Y-96262087D01*
X140599021Y-96432847D01*
X140476867Y-96619819D01*
X140472075Y-96627153D01*
X140459197Y-96656511D01*
X140407663Y-96773999D01*
X140378843Y-96839701D01*
X140321865Y-97064696D01*
X140302700Y-97296000D01*
X140321865Y-97527303D01*
X140345294Y-97619819D01*
X140378843Y-97752300D01*
X140472076Y-97964849D01*
X140599021Y-98159153D01*
X140756216Y-98329913D01*
X140797989Y-98362426D01*
X140822556Y-98381547D01*
X140856864Y-98432209D01*
X140854841Y-98493361D01*
X140817260Y-98541645D01*
X140758510Y-98558619D01*
X140208000Y-98540598D01*
X139609214Y-98560199D01*
X139609196Y-98560200D01*
X139554450Y-98565593D01*
X139494686Y-98552481D01*
X139454043Y-98506744D01*
X139448046Y-98445853D01*
X139478985Y-98393067D01*
X139483939Y-98388945D01*
X139559784Y-98329913D01*
X139716979Y-98159153D01*
X139843924Y-97964849D01*
X139937157Y-97752300D01*
X139994134Y-97527305D01*
X140013300Y-97296000D01*
X139994134Y-97064695D01*
X139937157Y-96839700D01*
X139843924Y-96627151D01*
X139716979Y-96432847D01*
X139559784Y-96262087D01*
X139513486Y-96226052D01*
X139376629Y-96119532D01*
X139376626Y-96119530D01*
X139172506Y-96009065D01*
X139093059Y-95981791D01*
X138952981Y-95933702D01*
X138952978Y-95933701D01*
X138952977Y-95933701D01*
X138724049Y-95895500D01*
X138491951Y-95895500D01*
X138263022Y-95933701D01*
X138043493Y-96009065D01*
X137839373Y-96119530D01*
X137839370Y-96119532D01*
X137656219Y-96262084D01*
X137656216Y-96262086D01*
X137656216Y-96262087D01*
X137499021Y-96432847D01*
X137376867Y-96619819D01*
X137372075Y-96627153D01*
X137359197Y-96656511D01*
X137307663Y-96773999D01*
X137278843Y-96839701D01*
X137221865Y-97064696D01*
X137202700Y-97296000D01*
X137221865Y-97527303D01*
X137245294Y-97619819D01*
X137278843Y-97752300D01*
X137372076Y-97964849D01*
X137499021Y-98159153D01*
X137656216Y-98329913D01*
X137839374Y-98472470D01*
X137902707Y-98506744D01*
X138000052Y-98559425D01*
X138043497Y-98582936D01*
X138102492Y-98603189D01*
X138151390Y-98639965D01*
X138169332Y-98698460D01*
X138149466Y-98756331D01*
X138099378Y-98791471D01*
X138092827Y-98793238D01*
X137838406Y-98852561D01*
X137265109Y-99026468D01*
X137265106Y-99026469D01*
X137265095Y-99026472D01*
X137265092Y-99026474D01*
X137035184Y-99113004D01*
X136704370Y-99237514D01*
X136158676Y-99484766D01*
X136158663Y-99484772D01*
X135630304Y-99767185D01*
X135121539Y-100083555D01*
X134634541Y-100432533D01*
X134634532Y-100432539D01*
X134232871Y-100762175D01*
X134171424Y-100812604D01*
X133734153Y-101222153D01*
X133324604Y-101659424D01*
X133324601Y-101659428D01*
X132944539Y-102122532D01*
X132944533Y-102122541D01*
X132595555Y-102609539D01*
X132279185Y-103118304D01*
X131996772Y-103646663D01*
X131996766Y-103646676D01*
X131749514Y-104192370D01*
X131538469Y-104753106D01*
X131538468Y-104753109D01*
X131364561Y-105326406D01*
X131228517Y-105909862D01*
X131228516Y-105909871D01*
X131130924Y-106500976D01*
X131072200Y-107097199D01*
X131072199Y-107097209D01*
X131052598Y-107695999D01*
X127500500Y-107695999D01*
X127500500Y-106499999D01*
X129119819Y-106499999D01*
X129119819Y-106500000D01*
X129138426Y-106617481D01*
X129138428Y-106617488D01*
X129176611Y-106692425D01*
X129192427Y-106723465D01*
X129276535Y-106807573D01*
X129276537Y-106807574D01*
X129382511Y-106861571D01*
X129382513Y-106861571D01*
X129382518Y-106861574D01*
X129500000Y-106880181D01*
X129617482Y-106861574D01*
X129723465Y-106807573D01*
X129807573Y-106723465D01*
X129861574Y-106617482D01*
X129880181Y-106500000D01*
X129880151Y-106499813D01*
X129877636Y-106483936D01*
X129861574Y-106382518D01*
X129861571Y-106382513D01*
X129861571Y-106382511D01*
X129807574Y-106276537D01*
X129807573Y-106276535D01*
X129723465Y-106192427D01*
X129723462Y-106192425D01*
X129617488Y-106138428D01*
X129617483Y-106138426D01*
X129617482Y-106138426D01*
X129500000Y-106119819D01*
X129382518Y-106138426D01*
X129382511Y-106138428D01*
X129276537Y-106192425D01*
X129192425Y-106276537D01*
X129138428Y-106382511D01*
X129138426Y-106382518D01*
X129119819Y-106499999D01*
X127500500Y-106499999D01*
X127500500Y-104499999D01*
X129119819Y-104499999D01*
X129119819Y-104500000D01*
X129138426Y-104617481D01*
X129138428Y-104617488D01*
X129192425Y-104723462D01*
X129192427Y-104723465D01*
X129276535Y-104807573D01*
X129276537Y-104807574D01*
X129382511Y-104861571D01*
X129382513Y-104861571D01*
X129382518Y-104861574D01*
X129500000Y-104880181D01*
X129617482Y-104861574D01*
X129723465Y-104807573D01*
X129807573Y-104723465D01*
X129861574Y-104617482D01*
X129880181Y-104500000D01*
X129861574Y-104382518D01*
X129861571Y-104382513D01*
X129861571Y-104382511D01*
X129807574Y-104276537D01*
X129807573Y-104276535D01*
X129723465Y-104192427D01*
X129723462Y-104192425D01*
X129617488Y-104138428D01*
X129617483Y-104138426D01*
X129617482Y-104138426D01*
X129500000Y-104119819D01*
X129382518Y-104138426D01*
X129382511Y-104138428D01*
X129276537Y-104192425D01*
X129192425Y-104276537D01*
X129138428Y-104382511D01*
X129138426Y-104382518D01*
X129119819Y-104499999D01*
X127500500Y-104499999D01*
X127500500Y-101999999D01*
X129119819Y-101999999D01*
X129119819Y-102000000D01*
X129138426Y-102117481D01*
X129138428Y-102117488D01*
X129192425Y-102223462D01*
X129192427Y-102223465D01*
X129276535Y-102307573D01*
X129276537Y-102307574D01*
X129382511Y-102361571D01*
X129382513Y-102361571D01*
X129382518Y-102361574D01*
X129500000Y-102380181D01*
X129617482Y-102361574D01*
X129723465Y-102307573D01*
X129807573Y-102223465D01*
X129861574Y-102117482D01*
X129880181Y-102000000D01*
X129861574Y-101882518D01*
X129861571Y-101882513D01*
X129861571Y-101882511D01*
X129807574Y-101776537D01*
X129807573Y-101776535D01*
X129723465Y-101692427D01*
X129723462Y-101692425D01*
X129617488Y-101638428D01*
X129617483Y-101638426D01*
X129617482Y-101638426D01*
X129500000Y-101619819D01*
X129382518Y-101638426D01*
X129382511Y-101638428D01*
X129276537Y-101692425D01*
X129192425Y-101776537D01*
X129138428Y-101882511D01*
X129138426Y-101882518D01*
X129119819Y-101999999D01*
X127500500Y-101999999D01*
X127500500Y-93847001D01*
X134790000Y-93847001D01*
X134790000Y-94346624D01*
X134804506Y-94419546D01*
X134804507Y-94419548D01*
X134859758Y-94502237D01*
X134859762Y-94502241D01*
X134942451Y-94557492D01*
X134942453Y-94557493D01*
X135015375Y-94571999D01*
X135015377Y-94572000D01*
X135514999Y-94572000D01*
X135515000Y-94571999D01*
X135515000Y-93847001D01*
X135514999Y-93847000D01*
X134790001Y-93847000D01*
X134790000Y-93847001D01*
X127500500Y-93847001D01*
X127500500Y-93406174D01*
X135390000Y-93406174D01*
X135390000Y-93537826D01*
X135424075Y-93664993D01*
X135489901Y-93779007D01*
X135582993Y-93872099D01*
X135697007Y-93937925D01*
X135824174Y-93972000D01*
X135955826Y-93972000D01*
X136082993Y-93937925D01*
X136197007Y-93872099D01*
X136222105Y-93847001D01*
X136265000Y-93847001D01*
X136265000Y-94571999D01*
X136265001Y-94572000D01*
X136764623Y-94572000D01*
X136764624Y-94571999D01*
X136837546Y-94557493D01*
X136837548Y-94557492D01*
X136920237Y-94502241D01*
X136920241Y-94502237D01*
X136975492Y-94419548D01*
X136975493Y-94419546D01*
X136989999Y-94346624D01*
X136990000Y-94346622D01*
X136990000Y-93847001D01*
X136989999Y-93847000D01*
X136265001Y-93847000D01*
X136265000Y-93847001D01*
X136222105Y-93847001D01*
X136290099Y-93779007D01*
X136355925Y-93664993D01*
X136390000Y-93537826D01*
X136390000Y-93472000D01*
X137324785Y-93472000D01*
X137343603Y-93675083D01*
X137399418Y-93871250D01*
X137490327Y-94053821D01*
X137613236Y-94216579D01*
X137763959Y-94353981D01*
X137937363Y-94461348D01*
X138127544Y-94535024D01*
X138328024Y-94572500D01*
X138531976Y-94572500D01*
X138732456Y-94535024D01*
X138922637Y-94461348D01*
X139096041Y-94353981D01*
X139246764Y-94216579D01*
X139369673Y-94053821D01*
X139460582Y-93871250D01*
X139516397Y-93675083D01*
X139535215Y-93472000D01*
X139864785Y-93472000D01*
X139883603Y-93675083D01*
X139939418Y-93871250D01*
X140030327Y-94053821D01*
X140153236Y-94216579D01*
X140303959Y-94353981D01*
X140477363Y-94461348D01*
X140667544Y-94535024D01*
X140868024Y-94572500D01*
X141071976Y-94572500D01*
X141272456Y-94535024D01*
X141462637Y-94461348D01*
X141636041Y-94353981D01*
X141786764Y-94216579D01*
X141909673Y-94053821D01*
X142000582Y-93871250D01*
X142056397Y-93675083D01*
X142075215Y-93472000D01*
X142056397Y-93268917D01*
X142000582Y-93072750D01*
X141909673Y-92890179D01*
X141786764Y-92727421D01*
X141636041Y-92590019D01*
X141462637Y-92482652D01*
X141272456Y-92408976D01*
X141272455Y-92408975D01*
X141272453Y-92408975D01*
X141071976Y-92371500D01*
X140868024Y-92371500D01*
X140667546Y-92408975D01*
X140597632Y-92436059D01*
X140477363Y-92482652D01*
X140303959Y-92590019D01*
X140153237Y-92727420D01*
X140030328Y-92890177D01*
X140030323Y-92890186D01*
X139939419Y-93072747D01*
X139939418Y-93072750D01*
X139883603Y-93268917D01*
X139864785Y-93472000D01*
X139535215Y-93472000D01*
X139516397Y-93268917D01*
X139460582Y-93072750D01*
X139369673Y-92890179D01*
X139246764Y-92727421D01*
X139096041Y-92590019D01*
X138922637Y-92482652D01*
X138732456Y-92408976D01*
X138732455Y-92408975D01*
X138732453Y-92408975D01*
X138531976Y-92371500D01*
X138328024Y-92371500D01*
X138127546Y-92408975D01*
X138057632Y-92436059D01*
X137937363Y-92482652D01*
X137763959Y-92590019D01*
X137613237Y-92727420D01*
X137490328Y-92890177D01*
X137490323Y-92890186D01*
X137399419Y-93072747D01*
X137399418Y-93072750D01*
X137343603Y-93268917D01*
X137324785Y-93472000D01*
X136390000Y-93472000D01*
X136390000Y-93406174D01*
X136355925Y-93279007D01*
X136290099Y-93164993D01*
X136197007Y-93071901D01*
X136082993Y-93006075D01*
X135955826Y-92972000D01*
X135824174Y-92972000D01*
X135697007Y-93006075D01*
X135582993Y-93071901D01*
X135489901Y-93164993D01*
X135424075Y-93279007D01*
X135390000Y-93406174D01*
X127500500Y-93406174D01*
X127500500Y-92597375D01*
X134790000Y-92597375D01*
X134790000Y-93096999D01*
X134790001Y-93097000D01*
X135514999Y-93097000D01*
X135515000Y-93096999D01*
X135515000Y-92372001D01*
X136265000Y-92372001D01*
X136265000Y-93096999D01*
X136265001Y-93097000D01*
X136989999Y-93097000D01*
X136990000Y-93096999D01*
X136990000Y-92597377D01*
X136989999Y-92597375D01*
X136975493Y-92524453D01*
X136975492Y-92524451D01*
X136920241Y-92441762D01*
X136920237Y-92441758D01*
X136837548Y-92386507D01*
X136837546Y-92386506D01*
X136764624Y-92372000D01*
X136265001Y-92372000D01*
X136265000Y-92372001D01*
X135515000Y-92372001D01*
X135514999Y-92372000D01*
X135015375Y-92372000D01*
X134942453Y-92386506D01*
X134942451Y-92386507D01*
X134859762Y-92441758D01*
X134859758Y-92441762D01*
X134804507Y-92524451D01*
X134804506Y-92524453D01*
X134790000Y-92597375D01*
X127500500Y-92597375D01*
X127500500Y-83999999D01*
X138619819Y-83999999D01*
X138619819Y-84000000D01*
X138638426Y-84117481D01*
X138638426Y-84117483D01*
X138662510Y-84164749D01*
X138673300Y-84209694D01*
X138673300Y-87383949D01*
X138673300Y-87469971D01*
X138695564Y-87553062D01*
X138695565Y-87553064D01*
X138732757Y-87617482D01*
X138738575Y-87627558D01*
X141728498Y-90617481D01*
X144553477Y-93442460D01*
X144581254Y-93496977D01*
X144571683Y-93557409D01*
X144528418Y-93600674D01*
X144467986Y-93610245D01*
X144402158Y-93599819D01*
X144402157Y-93599819D01*
X144284675Y-93618426D01*
X144284668Y-93618428D01*
X144178694Y-93672425D01*
X144094582Y-93756537D01*
X144040585Y-93862511D01*
X144040583Y-93862518D01*
X144021976Y-93980000D01*
X144025143Y-93999999D01*
X144040583Y-94097481D01*
X144040585Y-94097488D01*
X144094582Y-94203462D01*
X144094584Y-94203465D01*
X144178692Y-94287573D01*
X144178694Y-94287574D01*
X144284668Y-94341571D01*
X144284670Y-94341571D01*
X144284675Y-94341574D01*
X144402157Y-94360181D01*
X144519639Y-94341574D01*
X144625622Y-94287573D01*
X144709730Y-94203465D01*
X144763731Y-94097482D01*
X144782338Y-93980000D01*
X144771911Y-93914168D01*
X144781482Y-93853739D01*
X144824746Y-93810474D01*
X144885178Y-93800902D01*
X144939695Y-93828679D01*
X144939696Y-93828679D01*
X147379523Y-96268506D01*
X147407300Y-96323023D01*
X147397729Y-96383455D01*
X147354465Y-96426719D01*
X147276536Y-96466426D01*
X147192425Y-96550537D01*
X147138428Y-96656511D01*
X147138426Y-96656518D01*
X147119819Y-96774000D01*
X147120220Y-96776535D01*
X147138426Y-96891481D01*
X147138428Y-96891488D01*
X147192425Y-96997462D01*
X147192427Y-96997465D01*
X147276535Y-97081573D01*
X147276537Y-97081574D01*
X147382511Y-97135571D01*
X147382513Y-97135571D01*
X147382518Y-97135574D01*
X147500000Y-97154181D01*
X147616063Y-97135798D01*
X147676492Y-97145369D01*
X147701552Y-97163575D01*
X151644304Y-101106327D01*
X151672081Y-101160844D01*
X151673300Y-101176331D01*
X151673300Y-118456989D01*
X151673300Y-118543011D01*
X151695564Y-118626102D01*
X151738575Y-118700598D01*
X154340602Y-121302626D01*
X155113422Y-122075446D01*
X155137571Y-122114854D01*
X155138424Y-122117481D01*
X155169049Y-122177584D01*
X155192427Y-122223465D01*
X155276535Y-122307573D01*
X155276537Y-122307574D01*
X155382511Y-122361571D01*
X155382513Y-122361571D01*
X155382518Y-122361574D01*
X155500000Y-122380181D01*
X155617482Y-122361574D01*
X155723465Y-122307573D01*
X155807573Y-122223465D01*
X155861574Y-122117482D01*
X155880181Y-122000000D01*
X155861574Y-121882518D01*
X155861571Y-121882513D01*
X155861571Y-121882511D01*
X155807574Y-121776537D01*
X155807573Y-121776535D01*
X155723465Y-121692427D01*
X155723462Y-121692425D01*
X155617481Y-121638424D01*
X155614854Y-121637571D01*
X155575446Y-121613422D01*
X152355696Y-118393672D01*
X152327919Y-118339155D01*
X152326700Y-118323668D01*
X152326700Y-117999999D01*
X156619819Y-117999999D01*
X156619819Y-118000000D01*
X156638426Y-118117481D01*
X156638428Y-118117488D01*
X156692425Y-118223462D01*
X156692427Y-118223465D01*
X156776535Y-118307573D01*
X156776537Y-118307574D01*
X156882511Y-118361571D01*
X156882513Y-118361571D01*
X156882518Y-118361574D01*
X157000000Y-118380181D01*
X157117482Y-118361574D01*
X157223465Y-118307573D01*
X157307573Y-118223465D01*
X157361574Y-118117482D01*
X157380181Y-118000000D01*
X157361574Y-117882518D01*
X157361571Y-117882513D01*
X157361571Y-117882511D01*
X157307574Y-117776537D01*
X157307573Y-117776535D01*
X157223465Y-117692427D01*
X157223462Y-117692425D01*
X157117488Y-117638428D01*
X157117483Y-117638426D01*
X157117482Y-117638426D01*
X157000000Y-117619819D01*
X156882518Y-117638426D01*
X156882511Y-117638428D01*
X156776537Y-117692425D01*
X156692425Y-117776537D01*
X156638428Y-117882511D01*
X156638426Y-117882518D01*
X156619819Y-117999999D01*
X152326700Y-117999999D01*
X152326700Y-113499999D01*
X154111078Y-113499999D01*
X154111078Y-113500000D01*
X154131043Y-113626054D01*
X154131045Y-113626061D01*
X154188982Y-113739768D01*
X154188984Y-113739771D01*
X154279229Y-113830016D01*
X154279231Y-113830017D01*
X154392938Y-113887954D01*
X154392940Y-113887954D01*
X154392945Y-113887957D01*
X154519000Y-113907922D01*
X154645055Y-113887957D01*
X154645062Y-113887953D01*
X154652469Y-113885548D01*
X154652711Y-113886295D01*
X154689346Y-113877500D01*
X155535697Y-113877500D01*
X155535699Y-113877500D01*
X155631710Y-113851774D01*
X155717790Y-113802075D01*
X156519865Y-113000000D01*
X157092078Y-113000000D01*
X157106887Y-113093504D01*
X157112043Y-113126054D01*
X157112045Y-113126061D01*
X157169982Y-113239768D01*
X157169984Y-113239771D01*
X157260229Y-113330016D01*
X157260231Y-113330017D01*
X157373938Y-113387954D01*
X157373940Y-113387954D01*
X157373945Y-113387957D01*
X157500000Y-113407922D01*
X157626055Y-113387957D01*
X157739771Y-113330016D01*
X157830016Y-113239771D01*
X157887957Y-113126055D01*
X157907922Y-113000000D01*
X157887957Y-112873945D01*
X157887954Y-112873940D01*
X157887954Y-112873938D01*
X157830017Y-112760231D01*
X157830016Y-112760229D01*
X157739771Y-112669984D01*
X157739768Y-112669982D01*
X157626061Y-112612045D01*
X157626056Y-112612043D01*
X157626055Y-112612043D01*
X157500000Y-112592078D01*
X157373945Y-112612043D01*
X157373938Y-112612045D01*
X157260231Y-112669982D01*
X157169982Y-112760231D01*
X157112045Y-112873938D01*
X157112043Y-112873945D01*
X157099019Y-112956179D01*
X157092078Y-113000000D01*
X156519865Y-113000000D01*
X158521865Y-110998000D01*
X167042785Y-110998000D01*
X167061603Y-111201083D01*
X167117418Y-111397250D01*
X167208327Y-111579821D01*
X167331236Y-111742579D01*
X167481959Y-111879981D01*
X167655363Y-111987348D01*
X167845544Y-112061024D01*
X168046024Y-112098500D01*
X168249976Y-112098500D01*
X168450456Y-112061024D01*
X168640637Y-111987348D01*
X168814041Y-111879981D01*
X168964764Y-111742579D01*
X169087673Y-111579821D01*
X169178582Y-111397250D01*
X169234397Y-111201083D01*
X169253215Y-110998000D01*
X169234397Y-110794917D01*
X169178582Y-110598750D01*
X169087673Y-110416179D01*
X168964764Y-110253421D01*
X168814041Y-110116019D01*
X168640637Y-110008652D01*
X168450456Y-109934976D01*
X168450455Y-109934975D01*
X168450453Y-109934975D01*
X168249976Y-109897500D01*
X168046024Y-109897500D01*
X167845546Y-109934975D01*
X167775632Y-109962059D01*
X167655363Y-110008652D01*
X167563402Y-110065592D01*
X167481959Y-110116019D01*
X167331237Y-110253420D01*
X167208328Y-110416177D01*
X167208323Y-110416186D01*
X167166589Y-110500000D01*
X167117418Y-110598750D01*
X167061603Y-110794917D01*
X167042785Y-110998000D01*
X158521865Y-110998000D01*
X161061864Y-108458000D01*
X167042785Y-108458000D01*
X167061603Y-108661083D01*
X167117418Y-108857250D01*
X167208327Y-109039821D01*
X167331236Y-109202579D01*
X167481959Y-109339981D01*
X167655363Y-109447348D01*
X167845544Y-109521024D01*
X168046024Y-109558500D01*
X168249976Y-109558500D01*
X168450456Y-109521024D01*
X168640637Y-109447348D01*
X168814041Y-109339981D01*
X168964764Y-109202579D01*
X169087673Y-109039821D01*
X169178582Y-108857250D01*
X169234397Y-108661083D01*
X169253215Y-108458000D01*
X169234397Y-108254917D01*
X169178582Y-108058750D01*
X169087673Y-107876179D01*
X168964764Y-107713421D01*
X168814041Y-107576019D01*
X168640637Y-107468652D01*
X168450456Y-107394976D01*
X168450455Y-107394975D01*
X168450453Y-107394975D01*
X168249976Y-107357500D01*
X168046024Y-107357500D01*
X167845546Y-107394975D01*
X167775632Y-107422059D01*
X167655363Y-107468652D01*
X167481959Y-107576019D01*
X167331237Y-107713420D01*
X167208328Y-107876177D01*
X167208323Y-107876186D01*
X167117419Y-108058747D01*
X167117418Y-108058750D01*
X167061603Y-108254917D01*
X167042785Y-108458000D01*
X161061864Y-108458000D01*
X163601864Y-105918000D01*
X167042785Y-105918000D01*
X167061603Y-106121083D01*
X167117418Y-106317250D01*
X167208327Y-106499821D01*
X167331236Y-106662579D01*
X167481959Y-106799981D01*
X167655363Y-106907348D01*
X167845544Y-106981024D01*
X168046024Y-107018500D01*
X168249976Y-107018500D01*
X168450456Y-106981024D01*
X168640637Y-106907348D01*
X168814041Y-106799981D01*
X168964764Y-106662579D01*
X169087673Y-106499821D01*
X169178582Y-106317250D01*
X169234397Y-106121083D01*
X169253215Y-105918000D01*
X169234397Y-105714917D01*
X169178582Y-105518750D01*
X169087673Y-105336179D01*
X168964764Y-105173421D01*
X168814041Y-105036019D01*
X168640637Y-104928652D01*
X168450456Y-104854976D01*
X168450455Y-104854975D01*
X168450453Y-104854975D01*
X168249976Y-104817500D01*
X168046024Y-104817500D01*
X167845546Y-104854975D01*
X167828520Y-104861571D01*
X167655363Y-104928652D01*
X167481959Y-105036019D01*
X167369622Y-105138428D01*
X167331236Y-105173421D01*
X167291388Y-105226188D01*
X167208328Y-105336177D01*
X167208323Y-105336186D01*
X167126754Y-105500000D01*
X167117418Y-105518750D01*
X167061603Y-105714917D01*
X167042785Y-105918000D01*
X163601864Y-105918000D01*
X166141863Y-103378000D01*
X167042785Y-103378000D01*
X167061603Y-103581083D01*
X167117418Y-103777250D01*
X167208327Y-103959821D01*
X167331236Y-104122579D01*
X167481959Y-104259981D01*
X167655363Y-104367348D01*
X167845544Y-104441024D01*
X168046024Y-104478500D01*
X168249976Y-104478500D01*
X168450456Y-104441024D01*
X168640637Y-104367348D01*
X168814041Y-104259981D01*
X168964764Y-104122579D01*
X169087673Y-103959821D01*
X169178582Y-103777250D01*
X169234397Y-103581083D01*
X169253215Y-103378000D01*
X169234397Y-103174917D01*
X169178582Y-102978750D01*
X169087673Y-102796179D01*
X168964764Y-102633421D01*
X168814041Y-102496019D01*
X168640637Y-102388652D01*
X168450456Y-102314976D01*
X168450455Y-102314975D01*
X168450453Y-102314975D01*
X168249976Y-102277500D01*
X168046024Y-102277500D01*
X167845546Y-102314975D01*
X167775632Y-102342059D01*
X167655363Y-102388652D01*
X167481959Y-102496019D01*
X167331237Y-102633420D01*
X167208328Y-102796177D01*
X167208323Y-102796186D01*
X167117419Y-102978747D01*
X167117418Y-102978750D01*
X167061603Y-103174917D01*
X167042785Y-103378000D01*
X166141863Y-103378000D01*
X167636529Y-101883334D01*
X167691044Y-101855559D01*
X167742293Y-101861025D01*
X167845544Y-101901024D01*
X168046024Y-101938500D01*
X168249976Y-101938500D01*
X168450456Y-101901024D01*
X168640637Y-101827348D01*
X168814041Y-101719981D01*
X168964764Y-101582579D01*
X169087673Y-101419821D01*
X169178582Y-101237250D01*
X169234397Y-101041083D01*
X169253215Y-100838000D01*
X169234397Y-100634917D01*
X169178582Y-100438750D01*
X169087673Y-100256179D01*
X168964764Y-100093421D01*
X168814041Y-99956019D01*
X168640637Y-99848652D01*
X168450456Y-99774976D01*
X168450455Y-99774975D01*
X168450453Y-99774975D01*
X168249976Y-99737500D01*
X168046024Y-99737500D01*
X167845546Y-99774975D01*
X167775632Y-99802059D01*
X167655363Y-99848652D01*
X167481959Y-99956019D01*
X167331237Y-100093420D01*
X167208328Y-100256177D01*
X167208323Y-100256186D01*
X167117419Y-100438747D01*
X167117418Y-100438750D01*
X167061603Y-100634917D01*
X167042785Y-100838000D01*
X167061603Y-101041083D01*
X167088388Y-101135220D01*
X167117418Y-101237251D01*
X167118069Y-101238557D01*
X167118159Y-101239163D01*
X167119071Y-101241517D01*
X167118540Y-101241722D01*
X167127078Y-101299075D01*
X167099449Y-101352684D01*
X155358631Y-113093504D01*
X155304114Y-113121281D01*
X155288627Y-113122500D01*
X154689346Y-113122500D01*
X154652711Y-113113704D01*
X154652469Y-113114452D01*
X154645056Y-113112043D01*
X154645055Y-113112043D01*
X154519000Y-113092078D01*
X154392945Y-113112043D01*
X154392938Y-113112045D01*
X154279231Y-113169982D01*
X154188982Y-113260231D01*
X154131045Y-113373938D01*
X154131043Y-113373945D01*
X154111078Y-113499999D01*
X152326700Y-113499999D01*
X152326700Y-112499999D01*
X152592078Y-112499999D01*
X152592078Y-112500000D01*
X152612043Y-112626054D01*
X152612045Y-112626061D01*
X152669982Y-112739768D01*
X152669984Y-112739771D01*
X152760229Y-112830016D01*
X152760231Y-112830017D01*
X152873938Y-112887954D01*
X152873940Y-112887954D01*
X152873945Y-112887957D01*
X153000000Y-112907922D01*
X153126055Y-112887957D01*
X153239771Y-112830016D01*
X153330016Y-112739771D01*
X153387957Y-112626055D01*
X153407922Y-112500000D01*
X153387957Y-112373945D01*
X153387954Y-112373940D01*
X153387954Y-112373938D01*
X153330017Y-112260231D01*
X153330016Y-112260229D01*
X153239771Y-112169984D01*
X153239768Y-112169982D01*
X153126061Y-112112045D01*
X153126056Y-112112043D01*
X153126055Y-112112043D01*
X153000000Y-112092078D01*
X152873945Y-112112043D01*
X152873938Y-112112045D01*
X152760231Y-112169982D01*
X152669982Y-112260231D01*
X152612045Y-112373938D01*
X152612043Y-112373945D01*
X152592078Y-112499999D01*
X152326700Y-112499999D01*
X152326700Y-105499999D01*
X153619819Y-105499999D01*
X153619819Y-105500000D01*
X153638426Y-105617481D01*
X153638428Y-105617488D01*
X153692425Y-105723462D01*
X153692427Y-105723465D01*
X153776535Y-105807573D01*
X153776537Y-105807574D01*
X153882511Y-105861571D01*
X153882513Y-105861571D01*
X153882518Y-105861574D01*
X154000000Y-105880181D01*
X154117482Y-105861574D01*
X154223465Y-105807573D01*
X154307573Y-105723465D01*
X154361574Y-105617482D01*
X154380181Y-105500000D01*
X154361574Y-105382518D01*
X154361571Y-105382513D01*
X154361571Y-105382511D01*
X154307574Y-105276537D01*
X154307573Y-105276535D01*
X154223465Y-105192427D01*
X154223462Y-105192425D01*
X154117488Y-105138428D01*
X154117483Y-105138426D01*
X154117482Y-105138426D01*
X154000000Y-105119819D01*
X153882518Y-105138426D01*
X153882511Y-105138428D01*
X153776537Y-105192425D01*
X153692425Y-105276537D01*
X153638428Y-105382511D01*
X153638426Y-105382518D01*
X153619819Y-105499999D01*
X152326700Y-105499999D01*
X152326700Y-101454690D01*
X152345607Y-101396499D01*
X152395107Y-101360535D01*
X152456293Y-101360535D01*
X152495701Y-101384684D01*
X158372442Y-107261425D01*
X158446938Y-107304436D01*
X158530029Y-107326700D01*
X158616051Y-107326700D01*
X159790306Y-107326700D01*
X159835250Y-107337489D01*
X159882518Y-107361574D01*
X160000000Y-107380181D01*
X160117482Y-107361574D01*
X160223465Y-107307573D01*
X160307573Y-107223465D01*
X160361574Y-107117482D01*
X160380181Y-107000000D01*
X160361574Y-106882518D01*
X160361571Y-106882513D01*
X160361571Y-106882511D01*
X160307574Y-106776537D01*
X160307573Y-106776535D01*
X160223465Y-106692427D01*
X160223462Y-106692425D01*
X160117488Y-106638428D01*
X160117483Y-106638426D01*
X160117482Y-106638426D01*
X160000000Y-106619819D01*
X159882518Y-106638426D01*
X159882516Y-106638426D01*
X159835251Y-106662510D01*
X159790306Y-106673300D01*
X158749371Y-106673300D01*
X158691180Y-106654393D01*
X158679367Y-106644304D01*
X139355696Y-87320633D01*
X139327919Y-87266116D01*
X139326700Y-87250629D01*
X139326700Y-84209694D01*
X139337490Y-84164749D01*
X139350902Y-84138426D01*
X139361574Y-84117482D01*
X139380181Y-84000000D01*
X139380181Y-83999999D01*
X139619819Y-83999999D01*
X139619819Y-84000000D01*
X139638426Y-84117481D01*
X139638428Y-84117488D01*
X139676612Y-84192427D01*
X139692427Y-84223465D01*
X139776535Y-84307573D01*
X139776537Y-84307574D01*
X139882511Y-84361571D01*
X139882513Y-84361571D01*
X139882518Y-84361574D01*
X140000000Y-84380181D01*
X140117482Y-84361574D01*
X140223465Y-84307573D01*
X140223469Y-84307568D01*
X140229770Y-84302992D01*
X140231399Y-84305235D01*
X140274503Y-84283274D01*
X140334935Y-84292845D01*
X140378200Y-84336110D01*
X140388990Y-84381055D01*
X140388990Y-87672679D01*
X140388990Y-87758701D01*
X140411254Y-87841792D01*
X140454265Y-87916288D01*
X150761438Y-98223462D01*
X154113422Y-101575446D01*
X154137571Y-101614854D01*
X154138424Y-101617481D01*
X154192425Y-101723462D01*
X154192427Y-101723465D01*
X154276535Y-101807573D01*
X154276537Y-101807574D01*
X154382511Y-101861571D01*
X154382513Y-101861571D01*
X154382518Y-101861574D01*
X154500000Y-101880181D01*
X154617482Y-101861574D01*
X154618560Y-101861025D01*
X154684656Y-101827347D01*
X154723465Y-101807573D01*
X154807573Y-101723465D01*
X154861574Y-101617482D01*
X154880181Y-101500000D01*
X154861574Y-101382518D01*
X154861571Y-101382513D01*
X154861571Y-101382511D01*
X154807574Y-101276537D01*
X154807573Y-101276535D01*
X154723465Y-101192427D01*
X154723462Y-101192425D01*
X154617481Y-101138424D01*
X154614854Y-101137571D01*
X154575446Y-101113422D01*
X151462023Y-97999999D01*
X153619819Y-97999999D01*
X153619819Y-98000000D01*
X153638426Y-98117481D01*
X153638428Y-98117488D01*
X153659657Y-98159151D01*
X153692427Y-98223465D01*
X153776535Y-98307573D01*
X153882518Y-98361574D01*
X153882521Y-98361574D01*
X153885141Y-98362426D01*
X153924553Y-98386577D01*
X154097401Y-98559424D01*
X154097403Y-98559426D01*
X154142993Y-98585747D01*
X154171898Y-98602436D01*
X154254989Y-98624700D01*
X154341011Y-98624700D01*
X167022014Y-98624700D01*
X167080205Y-98643607D01*
X167116169Y-98693107D01*
X167117233Y-98696602D01*
X167117415Y-98697241D01*
X167117418Y-98697251D01*
X167164334Y-98791471D01*
X167208327Y-98879821D01*
X167331236Y-99042579D01*
X167481959Y-99179981D01*
X167655363Y-99287348D01*
X167845544Y-99361024D01*
X168046024Y-99398500D01*
X168249976Y-99398500D01*
X168450456Y-99361024D01*
X168640637Y-99287348D01*
X168814041Y-99179981D01*
X168964764Y-99042579D01*
X169087673Y-98879821D01*
X169178582Y-98697250D01*
X169234397Y-98501083D01*
X169253215Y-98298000D01*
X169234397Y-98094917D01*
X169178582Y-97898750D01*
X169087673Y-97716179D01*
X168964764Y-97553421D01*
X168814041Y-97416019D01*
X168640637Y-97308652D01*
X168450456Y-97234976D01*
X168450455Y-97234975D01*
X168450453Y-97234975D01*
X168249976Y-97197500D01*
X168046024Y-97197500D01*
X167845546Y-97234975D01*
X167777271Y-97261425D01*
X167655363Y-97308652D01*
X167481959Y-97416019D01*
X167331237Y-97553420D01*
X167208328Y-97716177D01*
X167208323Y-97716186D01*
X167117418Y-97898748D01*
X167117415Y-97898758D01*
X167117233Y-97899398D01*
X167117077Y-97899629D01*
X167115763Y-97903022D01*
X167114998Y-97902725D01*
X167083120Y-97950191D01*
X167025667Y-97971233D01*
X167022014Y-97971300D01*
X154474331Y-97971300D01*
X154416140Y-97952393D01*
X154404327Y-97942304D01*
X154386577Y-97924554D01*
X154362426Y-97885141D01*
X154361574Y-97882520D01*
X154361574Y-97882518D01*
X154307573Y-97776535D01*
X154223465Y-97692427D01*
X154223462Y-97692425D01*
X154117488Y-97638428D01*
X154117483Y-97638426D01*
X154117482Y-97638426D01*
X154000000Y-97619819D01*
X153882518Y-97638426D01*
X153882511Y-97638428D01*
X153776537Y-97692425D01*
X153692425Y-97776537D01*
X153638428Y-97882511D01*
X153638426Y-97882518D01*
X153619819Y-97999999D01*
X151462023Y-97999999D01*
X150307357Y-96845333D01*
X150279580Y-96790816D01*
X150289151Y-96730384D01*
X150332416Y-96687119D01*
X150392848Y-96677548D01*
X150422305Y-96687119D01*
X150493796Y-96723546D01*
X150493802Y-96723546D01*
X150496419Y-96724398D01*
X150535832Y-96748549D01*
X151048708Y-97261425D01*
X151123204Y-97304436D01*
X151206295Y-97326700D01*
X156790306Y-97326700D01*
X156835250Y-97337489D01*
X156882518Y-97361574D01*
X157000000Y-97380181D01*
X157117482Y-97361574D01*
X157223465Y-97307573D01*
X157307573Y-97223465D01*
X157361574Y-97117482D01*
X157380181Y-97000000D01*
X157361574Y-96882518D01*
X157361571Y-96882513D01*
X157361571Y-96882511D01*
X157307574Y-96776537D01*
X157307573Y-96776535D01*
X157223465Y-96692427D01*
X157223462Y-96692425D01*
X157117488Y-96638428D01*
X157117483Y-96638426D01*
X157117482Y-96638426D01*
X157000000Y-96619819D01*
X156882518Y-96638426D01*
X156882516Y-96638426D01*
X156835251Y-96662510D01*
X156790306Y-96673300D01*
X151425637Y-96673300D01*
X151367446Y-96654393D01*
X151355633Y-96644304D01*
X150997855Y-96286526D01*
X150973704Y-96247113D01*
X150972852Y-96244492D01*
X150972852Y-96244490D01*
X150918851Y-96138507D01*
X150834743Y-96054399D01*
X150834740Y-96054397D01*
X150728766Y-96000400D01*
X150728761Y-96000398D01*
X150728760Y-96000398D01*
X150611278Y-95981791D01*
X150493796Y-96000398D01*
X150493789Y-96000400D01*
X150387815Y-96054397D01*
X150303703Y-96138509D01*
X150249706Y-96244483D01*
X150249704Y-96244490D01*
X150234607Y-96339813D01*
X150231097Y-96361972D01*
X150242322Y-96432848D01*
X150249704Y-96479453D01*
X150249706Y-96479460D01*
X150286129Y-96550943D01*
X150295701Y-96611375D01*
X150267924Y-96665891D01*
X150213407Y-96693669D01*
X150152975Y-96684098D01*
X150127916Y-96665892D01*
X144902023Y-91439999D01*
X145619819Y-91439999D01*
X145619819Y-91440000D01*
X145638426Y-91557481D01*
X145638428Y-91557488D01*
X145667977Y-91615480D01*
X145692427Y-91663465D01*
X145776535Y-91747573D01*
X145776537Y-91747574D01*
X145882511Y-91801571D01*
X145882513Y-91801571D01*
X145882518Y-91801574D01*
X146000000Y-91820181D01*
X146117482Y-91801574D01*
X146223465Y-91747573D01*
X146307573Y-91663465D01*
X146361574Y-91557482D01*
X146380181Y-91440000D01*
X146361574Y-91322518D01*
X146361571Y-91322513D01*
X146361571Y-91322511D01*
X146307574Y-91216537D01*
X146307573Y-91216535D01*
X146223465Y-91132427D01*
X146223462Y-91132425D01*
X146117488Y-91078428D01*
X146117483Y-91078426D01*
X146117482Y-91078426D01*
X146000000Y-91059819D01*
X145882518Y-91078426D01*
X145882511Y-91078428D01*
X145776537Y-91132425D01*
X145692425Y-91216537D01*
X145638428Y-91322511D01*
X145638426Y-91322518D01*
X145619819Y-91439999D01*
X144902023Y-91439999D01*
X143962023Y-90499999D01*
X145119819Y-90499999D01*
X145119819Y-90500000D01*
X145138426Y-90617481D01*
X145138428Y-90617488D01*
X145169261Y-90678000D01*
X145192427Y-90723465D01*
X145276535Y-90807573D01*
X145276537Y-90807574D01*
X145382511Y-90861571D01*
X145382513Y-90861571D01*
X145382518Y-90861574D01*
X145500000Y-90880181D01*
X145617482Y-90861574D01*
X145723465Y-90807573D01*
X145807573Y-90723465D01*
X145861574Y-90617482D01*
X145880181Y-90500000D01*
X145861574Y-90382518D01*
X145837490Y-90335249D01*
X145826700Y-90290305D01*
X145826700Y-86176331D01*
X145845607Y-86118140D01*
X145855696Y-86106327D01*
X147909496Y-84052527D01*
X147964013Y-84024750D01*
X148024445Y-84034321D01*
X148067710Y-84077586D01*
X148078500Y-84122531D01*
X148078500Y-88918468D01*
X148059593Y-88976659D01*
X148049504Y-88988472D01*
X147424553Y-89613422D01*
X147385148Y-89637571D01*
X147382514Y-89638426D01*
X147276537Y-89692425D01*
X147192425Y-89776537D01*
X147138428Y-89882511D01*
X147138426Y-89882518D01*
X147119819Y-89999999D01*
X147119819Y-90000000D01*
X147138426Y-90117481D01*
X147138428Y-90117488D01*
X147192425Y-90223462D01*
X147192427Y-90223465D01*
X147276535Y-90307573D01*
X147382518Y-90361574D01*
X147382521Y-90361574D01*
X147385141Y-90362426D01*
X147424554Y-90386577D01*
X153057402Y-96019425D01*
X153131898Y-96062436D01*
X153214989Y-96084700D01*
X153301011Y-96084700D01*
X167022014Y-96084700D01*
X167080205Y-96103607D01*
X167116169Y-96153107D01*
X167117233Y-96156602D01*
X167117415Y-96157241D01*
X167117418Y-96157251D01*
X167181789Y-96286526D01*
X167208327Y-96339821D01*
X167331236Y-96502579D01*
X167481959Y-96639981D01*
X167655363Y-96747348D01*
X167845544Y-96821024D01*
X168046024Y-96858500D01*
X168249976Y-96858500D01*
X168450456Y-96821024D01*
X168640637Y-96747348D01*
X168814041Y-96639981D01*
X168964764Y-96502579D01*
X169087673Y-96339821D01*
X169178582Y-96157250D01*
X169234397Y-95961083D01*
X169253215Y-95758000D01*
X169234397Y-95554917D01*
X169178582Y-95358750D01*
X169087673Y-95176179D01*
X168964764Y-95013421D01*
X168814041Y-94876019D01*
X168640637Y-94768652D01*
X168450456Y-94694976D01*
X168450455Y-94694975D01*
X168450453Y-94694975D01*
X168249976Y-94657500D01*
X168046024Y-94657500D01*
X167845546Y-94694975D01*
X167775632Y-94722059D01*
X167655363Y-94768652D01*
X167481959Y-94876019D01*
X167331237Y-95013420D01*
X167208328Y-95176177D01*
X167208323Y-95176186D01*
X167117418Y-95358748D01*
X167117415Y-95358758D01*
X167117233Y-95359398D01*
X167117077Y-95359629D01*
X167115763Y-95363022D01*
X167114998Y-95362725D01*
X167083120Y-95410191D01*
X167025667Y-95431233D01*
X167022014Y-95431300D01*
X166838745Y-95431300D01*
X166780554Y-95412393D01*
X166744590Y-95362893D01*
X166744590Y-95301707D01*
X166768739Y-95262298D01*
X166807573Y-95223465D01*
X166861574Y-95117482D01*
X166880181Y-95000000D01*
X166861574Y-94882518D01*
X166861571Y-94882513D01*
X166861571Y-94882511D01*
X166807574Y-94776537D01*
X166807573Y-94776535D01*
X166723465Y-94692427D01*
X166723462Y-94692425D01*
X166617488Y-94638428D01*
X166617483Y-94638426D01*
X166617482Y-94638426D01*
X166500000Y-94619819D01*
X166382518Y-94638426D01*
X166382516Y-94638426D01*
X166335251Y-94662510D01*
X166290306Y-94673300D01*
X163176331Y-94673300D01*
X163118140Y-94654393D01*
X163106327Y-94644304D01*
X155886577Y-87424554D01*
X155862426Y-87385141D01*
X155861574Y-87382520D01*
X155861574Y-87382518D01*
X155807573Y-87276535D01*
X155723465Y-87192427D01*
X155723462Y-87192425D01*
X155617488Y-87138428D01*
X155617483Y-87138426D01*
X155617482Y-87138426D01*
X155500000Y-87119819D01*
X155382518Y-87138426D01*
X155382511Y-87138428D01*
X155276537Y-87192425D01*
X155192425Y-87276537D01*
X155138428Y-87382511D01*
X155138426Y-87382518D01*
X155119819Y-87500000D01*
X155128505Y-87554845D01*
X155138426Y-87617481D01*
X155138428Y-87617488D01*
X155166550Y-87672679D01*
X155192427Y-87723465D01*
X155276535Y-87807573D01*
X155382518Y-87861574D01*
X155382521Y-87861574D01*
X155385141Y-87862426D01*
X155424554Y-87886577D01*
X162799402Y-95261425D01*
X162799404Y-95261426D01*
X162800274Y-95262296D01*
X162828051Y-95316813D01*
X162818480Y-95377245D01*
X162775215Y-95420510D01*
X162730270Y-95431300D01*
X153434331Y-95431300D01*
X153376140Y-95412393D01*
X153364327Y-95402304D01*
X148032026Y-90070003D01*
X148004249Y-90015486D01*
X148013820Y-89955054D01*
X148032020Y-89930002D01*
X148646039Y-89315983D01*
X148700552Y-89288209D01*
X148760984Y-89297780D01*
X148774231Y-89305898D01*
X148776529Y-89307567D01*
X148776535Y-89307573D01*
X148828619Y-89334111D01*
X148882511Y-89361571D01*
X148882513Y-89361571D01*
X148882518Y-89361574D01*
X149000000Y-89380181D01*
X149117482Y-89361574D01*
X149223465Y-89307573D01*
X149307573Y-89223465D01*
X149361574Y-89117482D01*
X149380181Y-89000000D01*
X149361574Y-88882518D01*
X149337490Y-88835249D01*
X149326700Y-88790305D01*
X149326700Y-86499999D01*
X149619819Y-86499999D01*
X149619819Y-86500000D01*
X149638426Y-86617481D01*
X149638426Y-86617483D01*
X149662510Y-86664749D01*
X149673300Y-86709694D01*
X149673300Y-89290305D01*
X149662510Y-89335249D01*
X149638426Y-89382517D01*
X149619819Y-89499999D01*
X149619819Y-89500000D01*
X149638426Y-89617481D01*
X149638428Y-89617488D01*
X149676611Y-89692425D01*
X149692427Y-89723465D01*
X149776535Y-89807573D01*
X149776537Y-89807574D01*
X149882511Y-89861571D01*
X149882513Y-89861571D01*
X149882518Y-89861574D01*
X150000000Y-89880181D01*
X150117482Y-89861574D01*
X150187845Y-89825721D01*
X150248277Y-89816150D01*
X150302794Y-89843927D01*
X150330572Y-89898443D01*
X150331791Y-89913931D01*
X150331791Y-91615480D01*
X150331791Y-91701502D01*
X150354055Y-91784593D01*
X150354056Y-91784595D01*
X150363858Y-91801573D01*
X150397066Y-91859089D01*
X151509977Y-92972000D01*
X152613422Y-94075445D01*
X152637572Y-94114855D01*
X152638426Y-94117484D01*
X152688918Y-94216579D01*
X152692427Y-94223465D01*
X152776535Y-94307573D01*
X152776537Y-94307574D01*
X152882511Y-94361571D01*
X152882513Y-94361571D01*
X152882518Y-94361574D01*
X153000000Y-94380181D01*
X153117482Y-94361574D01*
X153223465Y-94307573D01*
X153307573Y-94223465D01*
X153361574Y-94117482D01*
X153380181Y-94000000D01*
X153361574Y-93882518D01*
X153361571Y-93882513D01*
X153361571Y-93882511D01*
X153307574Y-93776537D01*
X153307573Y-93776535D01*
X153223465Y-93692427D01*
X153223462Y-93692425D01*
X153117484Y-93638426D01*
X153114855Y-93637572D01*
X153075445Y-93613422D01*
X151014187Y-91552164D01*
X150986410Y-91497647D01*
X150985191Y-91482160D01*
X150985191Y-89499999D01*
X152119819Y-89499999D01*
X152119819Y-89500000D01*
X152138426Y-89617481D01*
X152138428Y-89617488D01*
X152176611Y-89692425D01*
X152192427Y-89723465D01*
X152276535Y-89807573D01*
X152276537Y-89807574D01*
X152382511Y-89861571D01*
X152382513Y-89861571D01*
X152382518Y-89861574D01*
X152500000Y-89880181D01*
X152617482Y-89861574D01*
X152723465Y-89807573D01*
X152807573Y-89723465D01*
X152861574Y-89617482D01*
X152880181Y-89500000D01*
X152861574Y-89382518D01*
X152861571Y-89382513D01*
X152861571Y-89382511D01*
X152807574Y-89276537D01*
X152807573Y-89276535D01*
X152723465Y-89192427D01*
X152723462Y-89192425D01*
X152617488Y-89138428D01*
X152617483Y-89138426D01*
X152617482Y-89138426D01*
X152500000Y-89119819D01*
X152382518Y-89138426D01*
X152382511Y-89138428D01*
X152276537Y-89192425D01*
X152192425Y-89276537D01*
X152138428Y-89382511D01*
X152138426Y-89382518D01*
X152119819Y-89499999D01*
X150985191Y-89499999D01*
X150985191Y-85361431D01*
X150995981Y-85316486D01*
X151020064Y-85269220D01*
X151020065Y-85269219D01*
X151038672Y-85151737D01*
X151020065Y-85034255D01*
X151020062Y-85034250D01*
X151020062Y-85034248D01*
X150966065Y-84928274D01*
X150966064Y-84928272D01*
X150881956Y-84844164D01*
X150881953Y-84844162D01*
X150775979Y-84790165D01*
X150775974Y-84790163D01*
X150775973Y-84790163D01*
X150658491Y-84771556D01*
X150541009Y-84790163D01*
X150541002Y-84790165D01*
X150435028Y-84844162D01*
X150350916Y-84928274D01*
X150296919Y-85034248D01*
X150296917Y-85034255D01*
X150278310Y-85151736D01*
X150278310Y-85151737D01*
X150296917Y-85269218D01*
X150296917Y-85269220D01*
X150321001Y-85316486D01*
X150331791Y-85361431D01*
X150331791Y-86086068D01*
X150312884Y-86144259D01*
X150263384Y-86180223D01*
X150202198Y-86180223D01*
X150187846Y-86174278D01*
X150117482Y-86138426D01*
X150000000Y-86119819D01*
X149882518Y-86138426D01*
X149882511Y-86138428D01*
X149776537Y-86192425D01*
X149692425Y-86276537D01*
X149638428Y-86382511D01*
X149638426Y-86382518D01*
X149619819Y-86499999D01*
X149326700Y-86499999D01*
X149326700Y-82956989D01*
X149307562Y-82885566D01*
X149307562Y-82885564D01*
X149304438Y-82873904D01*
X149304437Y-82873901D01*
X149304436Y-82873898D01*
X149293477Y-82854917D01*
X149261428Y-82799406D01*
X149261426Y-82799404D01*
X149261425Y-82799402D01*
X149001166Y-82539143D01*
X148973391Y-82484629D01*
X148982962Y-82424197D01*
X149026227Y-82380932D01*
X149055683Y-82371361D01*
X149117482Y-82361574D01*
X149223465Y-82307573D01*
X149307573Y-82223465D01*
X149361574Y-82117482D01*
X149380181Y-82000000D01*
X149361574Y-81882518D01*
X149361571Y-81882513D01*
X149361571Y-81882511D01*
X149307574Y-81776537D01*
X149307573Y-81776535D01*
X149223465Y-81692427D01*
X149223462Y-81692425D01*
X149117488Y-81638428D01*
X149117483Y-81638426D01*
X149117482Y-81638426D01*
X149000000Y-81619819D01*
X148882518Y-81638426D01*
X148882511Y-81638428D01*
X148776537Y-81692425D01*
X148692425Y-81776537D01*
X148638428Y-81882511D01*
X148638426Y-81882518D01*
X148619819Y-81999999D01*
X148619819Y-82000000D01*
X148621052Y-82007787D01*
X148611478Y-82068219D01*
X148568212Y-82111481D01*
X148507787Y-82121052D01*
X148500000Y-82119819D01*
X148382518Y-82138426D01*
X148382511Y-82138428D01*
X148276537Y-82192425D01*
X148192425Y-82276537D01*
X148138428Y-82382511D01*
X148136020Y-82389925D01*
X148134468Y-82389420D01*
X148110842Y-82435782D01*
X148056324Y-82463555D01*
X147995893Y-82453979D01*
X147970841Y-82435777D01*
X147773639Y-82238576D01*
X147768490Y-82234625D01*
X147768651Y-82234413D01*
X147754901Y-82223863D01*
X147754500Y-82223462D01*
X147723465Y-82192427D01*
X147723462Y-82192425D01*
X147617488Y-82138428D01*
X147617483Y-82138426D01*
X147617482Y-82138426D01*
X147500000Y-82119819D01*
X147382518Y-82138426D01*
X147382511Y-82138428D01*
X147276537Y-82192425D01*
X147192425Y-82276537D01*
X147138428Y-82382511D01*
X147138426Y-82382518D01*
X147119819Y-82499999D01*
X147119819Y-82500000D01*
X147138426Y-82617481D01*
X147138428Y-82617488D01*
X147176611Y-82692425D01*
X147192427Y-82723465D01*
X147276535Y-82807573D01*
X147276537Y-82807574D01*
X147382511Y-82861571D01*
X147382513Y-82861571D01*
X147382518Y-82861574D01*
X147457769Y-82873492D01*
X147512284Y-82901267D01*
X147719986Y-83108969D01*
X147747763Y-83163486D01*
X147738192Y-83223918D01*
X147719988Y-83248973D01*
X147692427Y-83276535D01*
X147692425Y-83276537D01*
X147638426Y-83382514D01*
X147637571Y-83385148D01*
X147613422Y-83424553D01*
X145238572Y-85799405D01*
X145238571Y-85799406D01*
X145195563Y-85873897D01*
X145195563Y-85873898D01*
X145195564Y-85873899D01*
X145173300Y-85956990D01*
X145173300Y-90290305D01*
X145162510Y-90335249D01*
X145138426Y-90382517D01*
X145119819Y-90499999D01*
X143962023Y-90499999D01*
X141071386Y-87609362D01*
X141043609Y-87554845D01*
X141042390Y-87539358D01*
X141042390Y-84312435D01*
X141061297Y-84254244D01*
X141110797Y-84218280D01*
X141171983Y-84218280D01*
X141211391Y-84242429D01*
X141276535Y-84307573D01*
X141276537Y-84307574D01*
X141382511Y-84361571D01*
X141382513Y-84361571D01*
X141382518Y-84361574D01*
X141500000Y-84380181D01*
X141617482Y-84361574D01*
X141664749Y-84337489D01*
X141709694Y-84326700D01*
X143531353Y-84326700D01*
X143589544Y-84345607D01*
X143625508Y-84395107D01*
X143629133Y-84441186D01*
X143619819Y-84500000D01*
X143637027Y-84608652D01*
X143638426Y-84617481D01*
X143638428Y-84617488D01*
X143688633Y-84716019D01*
X143692427Y-84723465D01*
X143776535Y-84807573D01*
X143776537Y-84807574D01*
X143882511Y-84861571D01*
X143882513Y-84861571D01*
X143882518Y-84861574D01*
X144000000Y-84880181D01*
X144117482Y-84861574D01*
X144223465Y-84807573D01*
X144307573Y-84723465D01*
X144361574Y-84617482D01*
X144380181Y-84500000D01*
X144619819Y-84500000D01*
X144637027Y-84608652D01*
X144638426Y-84617481D01*
X144638428Y-84617488D01*
X144688633Y-84716019D01*
X144692427Y-84723465D01*
X144776535Y-84807573D01*
X144776537Y-84807574D01*
X144882511Y-84861571D01*
X144882513Y-84861571D01*
X144882518Y-84861574D01*
X145000000Y-84880181D01*
X145117482Y-84861574D01*
X145223465Y-84807573D01*
X145307573Y-84723465D01*
X145361574Y-84617482D01*
X145380181Y-84500000D01*
X145361574Y-84382518D01*
X145361571Y-84382513D01*
X145361571Y-84382511D01*
X145307574Y-84276537D01*
X145307573Y-84276535D01*
X145223465Y-84192427D01*
X145223462Y-84192425D01*
X145117488Y-84138428D01*
X145117483Y-84138426D01*
X145117482Y-84138426D01*
X145000000Y-84119819D01*
X144882518Y-84138426D01*
X144882511Y-84138428D01*
X144776537Y-84192425D01*
X144692425Y-84276537D01*
X144638428Y-84382511D01*
X144638426Y-84382518D01*
X144619819Y-84500000D01*
X144380181Y-84500000D01*
X144361574Y-84382518D01*
X144361571Y-84382513D01*
X144361571Y-84382511D01*
X144307574Y-84276537D01*
X144307573Y-84276535D01*
X144223465Y-84192427D01*
X144210706Y-84185926D01*
X144183982Y-84172309D01*
X144140718Y-84129044D01*
X144131147Y-84068612D01*
X144158922Y-84014098D01*
X145752617Y-82420403D01*
X145792028Y-82396254D01*
X145794648Y-82395401D01*
X145794654Y-82395401D01*
X145900637Y-82341400D01*
X145984745Y-82257292D01*
X146038746Y-82151309D01*
X146057353Y-82033827D01*
X146038746Y-81916345D01*
X146038743Y-81916340D01*
X146038743Y-81916338D01*
X145984746Y-81810364D01*
X145984745Y-81810362D01*
X145900637Y-81726254D01*
X145900634Y-81726252D01*
X145794660Y-81672255D01*
X145794655Y-81672253D01*
X145794654Y-81672253D01*
X145677172Y-81653646D01*
X145559690Y-81672253D01*
X145559683Y-81672255D01*
X145453709Y-81726252D01*
X145425502Y-81754459D01*
X145370985Y-81782235D01*
X145310553Y-81772663D01*
X145285498Y-81754460D01*
X145223465Y-81692427D01*
X145223462Y-81692425D01*
X145117488Y-81638428D01*
X145117483Y-81638426D01*
X145117482Y-81638426D01*
X145000000Y-81619819D01*
X144882518Y-81638426D01*
X144882511Y-81638428D01*
X144776537Y-81692425D01*
X144692425Y-81776537D01*
X144638428Y-81882511D01*
X144638426Y-81882518D01*
X144619819Y-81999999D01*
X144619819Y-82000000D01*
X144638426Y-82117481D01*
X144638428Y-82117488D01*
X144676612Y-82192427D01*
X144692427Y-82223465D01*
X144776535Y-82307573D01*
X144776537Y-82307574D01*
X144778241Y-82308812D01*
X144779479Y-82310516D01*
X144782045Y-82313082D01*
X144781638Y-82313488D01*
X144814209Y-82358309D01*
X144814214Y-82419494D01*
X144790061Y-82458913D01*
X143604672Y-83644304D01*
X143550155Y-83672081D01*
X143534668Y-83673300D01*
X141709694Y-83673300D01*
X141664749Y-83662510D01*
X141617482Y-83638426D01*
X141500000Y-83619819D01*
X141382518Y-83638426D01*
X141382511Y-83638428D01*
X141276537Y-83692425D01*
X141276535Y-83692426D01*
X141276535Y-83692427D01*
X141211391Y-83757570D01*
X141156877Y-83785346D01*
X141096445Y-83775775D01*
X141053180Y-83732510D01*
X141042390Y-83687565D01*
X141042390Y-81999999D01*
X141619819Y-81999999D01*
X141619819Y-82000000D01*
X141638426Y-82117481D01*
X141638428Y-82117488D01*
X141676612Y-82192427D01*
X141692427Y-82223465D01*
X141776535Y-82307573D01*
X141776537Y-82307574D01*
X141882511Y-82361571D01*
X141882513Y-82361571D01*
X141882518Y-82361574D01*
X142000000Y-82380181D01*
X142117482Y-82361574D01*
X142223465Y-82307573D01*
X142307573Y-82223465D01*
X142361574Y-82117482D01*
X142380181Y-82000000D01*
X142361574Y-81882518D01*
X142361571Y-81882513D01*
X142361571Y-81882511D01*
X142307574Y-81776537D01*
X142307573Y-81776535D01*
X142223465Y-81692427D01*
X142223462Y-81692425D01*
X142117488Y-81638428D01*
X142117483Y-81638426D01*
X142117482Y-81638426D01*
X142000000Y-81619819D01*
X141882518Y-81638426D01*
X141882511Y-81638428D01*
X141776537Y-81692425D01*
X141692425Y-81776537D01*
X141638428Y-81882511D01*
X141638426Y-81882518D01*
X141619819Y-81999999D01*
X141042390Y-81999999D01*
X141042390Y-79499999D01*
X147119819Y-79499999D01*
X147119819Y-79500000D01*
X147138426Y-79617481D01*
X147138428Y-79617488D01*
X147192425Y-79723462D01*
X147192427Y-79723465D01*
X147276535Y-79807573D01*
X147276537Y-79807574D01*
X147382511Y-79861571D01*
X147382513Y-79861571D01*
X147382518Y-79861574D01*
X147500000Y-79880181D01*
X147507782Y-79878948D01*
X147568213Y-79888518D01*
X147611479Y-79931782D01*
X147621052Y-79992211D01*
X147619819Y-79999998D01*
X147619819Y-80000000D01*
X147638426Y-80117481D01*
X147638428Y-80117488D01*
X147678211Y-80195565D01*
X147692427Y-80223465D01*
X147776535Y-80307573D01*
X147882518Y-80361574D01*
X147882521Y-80361574D01*
X147885141Y-80362426D01*
X147924554Y-80386577D01*
X148184012Y-80646035D01*
X148211789Y-80700552D01*
X148202218Y-80760984D01*
X148194109Y-80774219D01*
X148192426Y-80776534D01*
X148138428Y-80882511D01*
X148138426Y-80882518D01*
X148119819Y-80999999D01*
X148119819Y-81000000D01*
X148138426Y-81117481D01*
X148138428Y-81117488D01*
X148192425Y-81223462D01*
X148192427Y-81223465D01*
X148276535Y-81307573D01*
X148276537Y-81307574D01*
X148382511Y-81361571D01*
X148382513Y-81361571D01*
X148382518Y-81361574D01*
X148500000Y-81380181D01*
X148617482Y-81361574D01*
X148723465Y-81307573D01*
X148807573Y-81223465D01*
X148861574Y-81117482D01*
X148880181Y-81000000D01*
X148870866Y-80941186D01*
X148880437Y-80880755D01*
X148923702Y-80837490D01*
X148968647Y-80826700D01*
X155253669Y-80826700D01*
X155311860Y-80845607D01*
X155323673Y-80855696D01*
X167123330Y-92655353D01*
X167151107Y-92709870D01*
X167141948Y-92769483D01*
X167117419Y-92818744D01*
X167097095Y-92890177D01*
X167061603Y-93014917D01*
X167042785Y-93218000D01*
X167061603Y-93421083D01*
X167117418Y-93617250D01*
X167208327Y-93799821D01*
X167331236Y-93962579D01*
X167481959Y-94099981D01*
X167655363Y-94207348D01*
X167845544Y-94281024D01*
X168046024Y-94318500D01*
X168249976Y-94318500D01*
X168450456Y-94281024D01*
X168640637Y-94207348D01*
X168814041Y-94099981D01*
X168964764Y-93962579D01*
X169087673Y-93799821D01*
X169178582Y-93617250D01*
X169234397Y-93421083D01*
X169253215Y-93218000D01*
X169234397Y-93014917D01*
X169178582Y-92818750D01*
X169087673Y-92636179D01*
X168964764Y-92473421D01*
X168814041Y-92336019D01*
X168640637Y-92228652D01*
X168450456Y-92154976D01*
X168450455Y-92154975D01*
X168450453Y-92154975D01*
X168249976Y-92117500D01*
X168046024Y-92117500D01*
X167845544Y-92154975D01*
X167690512Y-92215034D01*
X167629421Y-92218424D01*
X167584746Y-92192723D01*
X166070023Y-90678000D01*
X167042785Y-90678000D01*
X167061603Y-90881083D01*
X167117418Y-91077250D01*
X167208327Y-91259821D01*
X167331236Y-91422579D01*
X167481959Y-91559981D01*
X167655363Y-91667348D01*
X167845544Y-91741024D01*
X168046024Y-91778500D01*
X168249976Y-91778500D01*
X168450456Y-91741024D01*
X168640637Y-91667348D01*
X168814041Y-91559981D01*
X168964764Y-91422579D01*
X169087673Y-91259821D01*
X169178582Y-91077250D01*
X169234397Y-90881083D01*
X169253215Y-90678000D01*
X169234397Y-90474917D01*
X169178582Y-90278750D01*
X169087673Y-90096179D01*
X168964764Y-89933421D01*
X168814041Y-89796019D01*
X168640637Y-89688652D01*
X168450456Y-89614976D01*
X168450455Y-89614975D01*
X168450453Y-89614975D01*
X168249976Y-89577500D01*
X168046024Y-89577500D01*
X167845546Y-89614975D01*
X167793288Y-89635220D01*
X167655363Y-89688652D01*
X167513427Y-89776535D01*
X167481959Y-89796019D01*
X167331237Y-89933420D01*
X167208328Y-90096177D01*
X167208323Y-90096186D01*
X167144946Y-90223465D01*
X167117418Y-90278750D01*
X167061603Y-90474917D01*
X167042785Y-90678000D01*
X166070023Y-90678000D01*
X163530023Y-88138000D01*
X167042785Y-88138000D01*
X167061603Y-88341083D01*
X167117418Y-88537250D01*
X167208327Y-88719821D01*
X167331236Y-88882579D01*
X167481959Y-89019981D01*
X167655363Y-89127348D01*
X167845544Y-89201024D01*
X168046024Y-89238500D01*
X168249976Y-89238500D01*
X168450456Y-89201024D01*
X168640637Y-89127348D01*
X168814041Y-89019981D01*
X168964764Y-88882579D01*
X169087673Y-88719821D01*
X169178582Y-88537250D01*
X169234397Y-88341083D01*
X169253215Y-88138000D01*
X169234397Y-87934917D01*
X169178582Y-87738750D01*
X169087673Y-87556179D01*
X168964764Y-87393421D01*
X168814041Y-87256019D01*
X168640637Y-87148652D01*
X168450456Y-87074976D01*
X168450455Y-87074975D01*
X168450453Y-87074975D01*
X168249976Y-87037500D01*
X168046024Y-87037500D01*
X167845546Y-87074975D01*
X167775632Y-87102059D01*
X167655363Y-87148652D01*
X167481959Y-87256019D01*
X167331236Y-87393421D01*
X167291388Y-87446188D01*
X167208328Y-87556177D01*
X167208323Y-87556186D01*
X167117419Y-87738747D01*
X167117418Y-87738750D01*
X167061603Y-87934917D01*
X167042785Y-88138000D01*
X163530023Y-88138000D01*
X161668558Y-86276535D01*
X160990023Y-85598000D01*
X167042785Y-85598000D01*
X167061603Y-85801083D01*
X167117418Y-85997250D01*
X167208327Y-86179821D01*
X167331236Y-86342579D01*
X167481959Y-86479981D01*
X167655363Y-86587348D01*
X167845544Y-86661024D01*
X168046024Y-86698500D01*
X168249976Y-86698500D01*
X168450456Y-86661024D01*
X168640637Y-86587348D01*
X168814041Y-86479981D01*
X168964764Y-86342579D01*
X169087673Y-86179821D01*
X169178582Y-85997250D01*
X169234397Y-85801083D01*
X169253215Y-85598000D01*
X169234397Y-85394917D01*
X169178582Y-85198750D01*
X169087673Y-85016179D01*
X168964764Y-84853421D01*
X168814041Y-84716019D01*
X168640637Y-84608652D01*
X168450456Y-84534976D01*
X168450455Y-84534975D01*
X168450453Y-84534975D01*
X168249976Y-84497500D01*
X168046024Y-84497500D01*
X167845546Y-84534975D01*
X167775632Y-84562059D01*
X167655363Y-84608652D01*
X167481959Y-84716019D01*
X167331236Y-84853421D01*
X167325080Y-84861573D01*
X167208328Y-85016177D01*
X167208323Y-85016186D01*
X167117419Y-85198747D01*
X167117418Y-85198750D01*
X167061603Y-85394917D01*
X167042785Y-85598000D01*
X160990023Y-85598000D01*
X158450023Y-83058000D01*
X167042785Y-83058000D01*
X167061603Y-83261083D01*
X167117418Y-83457250D01*
X167208327Y-83639821D01*
X167331236Y-83802579D01*
X167481959Y-83939981D01*
X167655363Y-84047348D01*
X167845544Y-84121024D01*
X168046024Y-84158500D01*
X168249976Y-84158500D01*
X168450456Y-84121024D01*
X168640637Y-84047348D01*
X168814041Y-83939981D01*
X168964764Y-83802579D01*
X169087673Y-83639821D01*
X169178582Y-83457250D01*
X169234397Y-83261083D01*
X169253215Y-83058000D01*
X169234397Y-82854917D01*
X169178582Y-82658750D01*
X169087673Y-82476179D01*
X168964764Y-82313421D01*
X168814041Y-82176019D01*
X168640637Y-82068652D01*
X168450456Y-81994976D01*
X168450455Y-81994975D01*
X168450453Y-81994975D01*
X168249976Y-81957500D01*
X168046024Y-81957500D01*
X167845546Y-81994975D01*
X167775632Y-82022059D01*
X167655363Y-82068652D01*
X167481959Y-82176019D01*
X167331236Y-82313421D01*
X167310108Y-82341399D01*
X167208328Y-82476177D01*
X167208323Y-82476186D01*
X167136803Y-82619819D01*
X167117418Y-82658750D01*
X167061603Y-82854917D01*
X167042785Y-83058000D01*
X158450023Y-83058000D01*
X155910023Y-80518000D01*
X167042785Y-80518000D01*
X167061603Y-80721083D01*
X167117418Y-80917250D01*
X167208327Y-81099821D01*
X167331236Y-81262579D01*
X167481959Y-81399981D01*
X167655363Y-81507348D01*
X167845544Y-81581024D01*
X168046024Y-81618500D01*
X168249976Y-81618500D01*
X168450456Y-81581024D01*
X168640637Y-81507348D01*
X168814041Y-81399981D01*
X168964764Y-81262579D01*
X169087673Y-81099821D01*
X169178582Y-80917250D01*
X169234397Y-80721083D01*
X169253215Y-80518000D01*
X169234397Y-80314917D01*
X169178582Y-80118750D01*
X169087673Y-79936179D01*
X168964764Y-79773421D01*
X168814041Y-79636019D01*
X168640637Y-79528652D01*
X168450456Y-79454976D01*
X168450455Y-79454975D01*
X168450453Y-79454975D01*
X168249976Y-79417500D01*
X168046024Y-79417500D01*
X167845546Y-79454975D01*
X167775632Y-79482059D01*
X167655363Y-79528652D01*
X167511888Y-79617488D01*
X167481959Y-79636019D01*
X167403600Y-79707453D01*
X167331236Y-79773421D01*
X167307815Y-79804435D01*
X167208328Y-79936177D01*
X167208323Y-79936186D01*
X167118049Y-80117482D01*
X167117418Y-80118750D01*
X167061603Y-80314917D01*
X167042785Y-80518000D01*
X155910023Y-80518000D01*
X155630598Y-80238575D01*
X155604427Y-80223465D01*
X155556104Y-80195565D01*
X155556103Y-80195564D01*
X155556102Y-80195564D01*
X155473011Y-80173300D01*
X155473009Y-80173300D01*
X149096745Y-80173300D01*
X149038554Y-80154393D01*
X149002590Y-80104893D01*
X149002590Y-80043707D01*
X149026739Y-80004298D01*
X149057573Y-79973465D01*
X149111574Y-79867482D01*
X149130181Y-79750000D01*
X149111574Y-79632518D01*
X149111571Y-79632513D01*
X149111571Y-79632511D01*
X149057574Y-79526537D01*
X149057573Y-79526535D01*
X148973465Y-79442427D01*
X148973462Y-79442425D01*
X148867488Y-79388428D01*
X148867483Y-79388426D01*
X148867482Y-79388426D01*
X148750000Y-79369819D01*
X148632518Y-79388426D01*
X148632511Y-79388428D01*
X148526537Y-79442425D01*
X148442425Y-79526537D01*
X148388428Y-79632511D01*
X148388423Y-79632525D01*
X148388072Y-79634746D01*
X148387052Y-79636745D01*
X148386020Y-79639925D01*
X148385515Y-79639761D01*
X148360289Y-79689259D01*
X148305769Y-79717031D01*
X148245338Y-79707453D01*
X148230182Y-79696440D01*
X148229770Y-79697008D01*
X148223462Y-79692425D01*
X148117488Y-79638428D01*
X148117483Y-79638426D01*
X148117482Y-79638426D01*
X148000000Y-79619819D01*
X147999998Y-79619819D01*
X147992211Y-79621052D01*
X147931780Y-79611477D01*
X147888517Y-79568211D01*
X147878948Y-79507782D01*
X147880181Y-79500000D01*
X147861574Y-79382518D01*
X147861571Y-79382513D01*
X147861571Y-79382511D01*
X147807574Y-79276537D01*
X147807573Y-79276535D01*
X147723465Y-79192427D01*
X147723462Y-79192425D01*
X147617488Y-79138428D01*
X147617483Y-79138426D01*
X147617482Y-79138426D01*
X147500000Y-79119819D01*
X147382518Y-79138426D01*
X147382511Y-79138428D01*
X147276537Y-79192425D01*
X147192425Y-79276537D01*
X147138428Y-79382511D01*
X147138426Y-79382518D01*
X147119819Y-79499999D01*
X141042390Y-79499999D01*
X141042390Y-79487024D01*
X141053180Y-79442079D01*
X141077263Y-79394813D01*
X141077264Y-79394812D01*
X141095871Y-79277330D01*
X141095745Y-79276537D01*
X141093326Y-79261266D01*
X141077264Y-79159848D01*
X141077261Y-79159843D01*
X141077261Y-79159841D01*
X141023264Y-79053867D01*
X141023263Y-79053865D01*
X140939155Y-78969757D01*
X140939152Y-78969755D01*
X140833178Y-78915758D01*
X140833173Y-78915756D01*
X140833172Y-78915756D01*
X140715690Y-78897149D01*
X140598208Y-78915756D01*
X140598201Y-78915758D01*
X140492227Y-78969755D01*
X140408115Y-79053867D01*
X140354118Y-79159841D01*
X140354116Y-79159848D01*
X140335509Y-79277329D01*
X140335509Y-79277330D01*
X140354116Y-79394811D01*
X140354116Y-79394813D01*
X140378200Y-79442079D01*
X140388990Y-79487024D01*
X140388990Y-83618945D01*
X140370083Y-83677136D01*
X140320583Y-83713100D01*
X140259397Y-83713100D01*
X140230807Y-83695580D01*
X140229770Y-83697008D01*
X140223462Y-83692425D01*
X140117488Y-83638428D01*
X140117483Y-83638426D01*
X140117482Y-83638426D01*
X140000000Y-83619819D01*
X139882518Y-83638426D01*
X139882511Y-83638428D01*
X139776537Y-83692425D01*
X139692425Y-83776537D01*
X139638428Y-83882511D01*
X139638426Y-83882518D01*
X139619819Y-83999999D01*
X139380181Y-83999999D01*
X139361574Y-83882518D01*
X139361571Y-83882513D01*
X139361571Y-83882511D01*
X139307574Y-83776537D01*
X139307573Y-83776535D01*
X139223465Y-83692427D01*
X139223462Y-83692425D01*
X139117488Y-83638428D01*
X139117483Y-83638426D01*
X139117482Y-83638426D01*
X139000000Y-83619819D01*
X138882518Y-83638426D01*
X138882511Y-83638428D01*
X138776537Y-83692425D01*
X138692425Y-83776537D01*
X138638428Y-83882511D01*
X138638426Y-83882518D01*
X138619819Y-83999999D01*
X127500500Y-83999999D01*
X127500500Y-82999999D01*
X137619819Y-82999999D01*
X137619819Y-83000000D01*
X137638426Y-83117481D01*
X137638428Y-83117488D01*
X137671984Y-83183344D01*
X137692427Y-83223465D01*
X137776535Y-83307573D01*
X137776537Y-83307574D01*
X137882511Y-83361571D01*
X137882513Y-83361571D01*
X137882518Y-83361574D01*
X138000000Y-83380181D01*
X138117482Y-83361574D01*
X138223465Y-83307573D01*
X138307573Y-83223465D01*
X138361574Y-83117482D01*
X138380181Y-83000000D01*
X138361574Y-82882518D01*
X138361571Y-82882513D01*
X138361571Y-82882511D01*
X138307574Y-82776537D01*
X138307573Y-82776535D01*
X138223465Y-82692427D01*
X138223462Y-82692425D01*
X138117488Y-82638428D01*
X138117483Y-82638426D01*
X138117482Y-82638426D01*
X138000000Y-82619819D01*
X137882518Y-82638426D01*
X137882511Y-82638428D01*
X137776537Y-82692425D01*
X137692425Y-82776537D01*
X137638428Y-82882511D01*
X137638426Y-82882518D01*
X137619819Y-82999999D01*
X127500500Y-82999999D01*
X127500500Y-77500000D01*
X132619819Y-77500000D01*
X132637948Y-77614467D01*
X132638426Y-77617481D01*
X132638428Y-77617488D01*
X132666844Y-77673256D01*
X132692427Y-77723465D01*
X132776535Y-77807573D01*
X132776537Y-77807574D01*
X132882511Y-77861571D01*
X132882513Y-77861571D01*
X132882518Y-77861574D01*
X133000000Y-77880181D01*
X133117482Y-77861574D01*
X133223465Y-77807573D01*
X133307573Y-77723465D01*
X133361574Y-77617482D01*
X133380181Y-77500000D01*
X133619819Y-77500000D01*
X133637948Y-77614467D01*
X133638426Y-77617481D01*
X133638428Y-77617488D01*
X133666844Y-77673256D01*
X133692427Y-77723465D01*
X133776535Y-77807573D01*
X133882518Y-77861574D01*
X133882521Y-77861574D01*
X133885141Y-77862426D01*
X133924554Y-77886577D01*
X134238575Y-78200598D01*
X135799401Y-79761425D01*
X135820179Y-79773421D01*
X135825570Y-79776533D01*
X135825572Y-79776535D01*
X135825573Y-79776535D01*
X135873899Y-79804436D01*
X135956989Y-79826700D01*
X138290306Y-79826700D01*
X138335250Y-79837489D01*
X138382518Y-79861574D01*
X138500000Y-79880181D01*
X138617482Y-79861574D01*
X138723465Y-79807573D01*
X138807573Y-79723465D01*
X138861574Y-79617482D01*
X138880181Y-79500000D01*
X138861574Y-79382518D01*
X138861571Y-79382513D01*
X138861571Y-79382511D01*
X138807574Y-79276537D01*
X138807573Y-79276535D01*
X138723465Y-79192427D01*
X138723462Y-79192425D01*
X138617488Y-79138428D01*
X138617483Y-79138426D01*
X138617482Y-79138426D01*
X138500000Y-79119819D01*
X138382518Y-79138426D01*
X138382516Y-79138426D01*
X138335251Y-79162510D01*
X138290306Y-79173300D01*
X136176332Y-79173300D01*
X136118141Y-79154393D01*
X136106328Y-79144304D01*
X134700598Y-77738575D01*
X134386577Y-77424554D01*
X134362426Y-77385141D01*
X134361574Y-77382520D01*
X134361574Y-77382518D01*
X134307573Y-77276535D01*
X134223465Y-77192427D01*
X134223462Y-77192425D01*
X134117488Y-77138428D01*
X134117483Y-77138426D01*
X134117482Y-77138426D01*
X134000000Y-77119819D01*
X133882518Y-77138426D01*
X133882511Y-77138428D01*
X133776537Y-77192425D01*
X133692425Y-77276537D01*
X133638428Y-77382511D01*
X133638426Y-77382518D01*
X133624072Y-77473150D01*
X133619819Y-77500000D01*
X133380181Y-77500000D01*
X133361574Y-77382518D01*
X133361571Y-77382513D01*
X133361571Y-77382511D01*
X133307574Y-77276537D01*
X133307573Y-77276535D01*
X133223465Y-77192427D01*
X133223462Y-77192425D01*
X133117488Y-77138428D01*
X133117483Y-77138426D01*
X133117482Y-77138426D01*
X133000000Y-77119819D01*
X132882518Y-77138426D01*
X132882511Y-77138428D01*
X132776537Y-77192425D01*
X132692425Y-77276537D01*
X132638428Y-77382511D01*
X132638426Y-77382518D01*
X132624072Y-77473150D01*
X132619819Y-77500000D01*
X127500500Y-77500000D01*
X127500500Y-68999999D01*
X131119819Y-68999999D01*
X131119819Y-69000000D01*
X131138426Y-69117481D01*
X131138428Y-69117488D01*
X131192425Y-69223462D01*
X131192427Y-69223465D01*
X131276535Y-69307573D01*
X131276537Y-69307574D01*
X131382511Y-69361571D01*
X131382513Y-69361571D01*
X131382518Y-69361574D01*
X131500000Y-69380181D01*
X131617482Y-69361574D01*
X131723465Y-69307573D01*
X131807573Y-69223465D01*
X131861574Y-69117482D01*
X131880181Y-69000000D01*
X131861574Y-68882518D01*
X131861571Y-68882513D01*
X131861571Y-68882511D01*
X131807574Y-68776537D01*
X131807573Y-68776535D01*
X131723465Y-68692427D01*
X131723462Y-68692425D01*
X131617488Y-68638428D01*
X131617483Y-68638426D01*
X131617482Y-68638426D01*
X131500000Y-68619819D01*
X131382518Y-68638426D01*
X131382511Y-68638428D01*
X131276537Y-68692425D01*
X131192425Y-68776537D01*
X131138428Y-68882511D01*
X131138426Y-68882518D01*
X131119819Y-68999999D01*
X127500500Y-68999999D01*
X127500500Y-62499999D01*
X132119819Y-62499999D01*
X132119819Y-62500000D01*
X132138426Y-62617481D01*
X132138428Y-62617488D01*
X132176611Y-62692425D01*
X132192427Y-62723465D01*
X132276535Y-62807573D01*
X132382518Y-62861574D01*
X132382521Y-62861574D01*
X132385141Y-62862426D01*
X132424554Y-62886577D01*
X133144304Y-63606327D01*
X133172081Y-63660844D01*
X133173300Y-63676331D01*
X133173300Y-70031352D01*
X133154393Y-70089543D01*
X133104893Y-70125507D01*
X133058814Y-70129133D01*
X133000002Y-70119819D01*
X133000000Y-70119819D01*
X132882518Y-70138426D01*
X132882511Y-70138428D01*
X132776537Y-70192425D01*
X132692425Y-70276537D01*
X132638428Y-70382511D01*
X132638426Y-70382518D01*
X132619819Y-70499999D01*
X132619819Y-70500000D01*
X132638426Y-70617481D01*
X132638428Y-70617488D01*
X132692425Y-70723462D01*
X132692427Y-70723465D01*
X132776535Y-70807573D01*
X132776537Y-70807574D01*
X132882511Y-70861571D01*
X132882513Y-70861571D01*
X132882518Y-70861574D01*
X132983936Y-70877636D01*
X132999999Y-70880181D01*
X132999999Y-70880180D01*
X133000000Y-70880181D01*
X133058813Y-70870866D01*
X133119245Y-70880437D01*
X133162510Y-70923702D01*
X133173300Y-70968647D01*
X133173300Y-71956989D01*
X133173300Y-72043011D01*
X133195564Y-72126102D01*
X133238575Y-72200598D01*
X138447297Y-77409320D01*
X138475073Y-77463835D01*
X138465502Y-77524267D01*
X138422239Y-77567531D01*
X138379814Y-77589148D01*
X138295704Y-77673258D01*
X138241707Y-77779232D01*
X138241705Y-77779239D01*
X138223098Y-77896720D01*
X138223098Y-77896721D01*
X138241705Y-78014204D01*
X138241727Y-78014271D01*
X138241726Y-78014340D01*
X138242924Y-78021898D01*
X138241726Y-78022087D01*
X138241721Y-78075456D01*
X138205752Y-78124952D01*
X138186763Y-78134625D01*
X138186898Y-78134889D01*
X138132689Y-78162510D01*
X138087744Y-78173300D01*
X136676332Y-78173300D01*
X136618141Y-78154393D01*
X136606328Y-78144304D01*
X135386577Y-76924554D01*
X135362426Y-76885141D01*
X135361574Y-76882520D01*
X135361574Y-76882518D01*
X135307573Y-76776535D01*
X135223465Y-76692427D01*
X135223462Y-76692425D01*
X135117488Y-76638428D01*
X135117483Y-76638426D01*
X135117482Y-76638426D01*
X135000000Y-76619819D01*
X134882518Y-76638426D01*
X134882511Y-76638428D01*
X134776537Y-76692425D01*
X134692425Y-76776537D01*
X134638428Y-76882511D01*
X134638426Y-76882518D01*
X134619819Y-76999999D01*
X134619819Y-77000000D01*
X134638426Y-77117481D01*
X134638428Y-77117488D01*
X134676611Y-77192425D01*
X134692427Y-77223465D01*
X134776535Y-77307573D01*
X134882518Y-77361574D01*
X134882521Y-77361574D01*
X134885141Y-77362426D01*
X134924553Y-77386576D01*
X136299401Y-78761425D01*
X136342412Y-78786256D01*
X136373899Y-78804436D01*
X136456989Y-78826700D01*
X138087744Y-78826700D01*
X138132688Y-78837489D01*
X138179956Y-78861574D01*
X138297438Y-78880181D01*
X138414920Y-78861574D01*
X138418047Y-78859981D01*
X138425266Y-78856302D01*
X138520903Y-78807573D01*
X138605011Y-78723465D01*
X138659012Y-78617482D01*
X138677619Y-78500000D01*
X138659012Y-78382518D01*
X138659010Y-78382514D01*
X138658992Y-78382457D01*
X138658992Y-78382393D01*
X138657793Y-78374823D01*
X138658992Y-78374633D01*
X138658993Y-78321272D01*
X138694958Y-78271772D01*
X138713953Y-78262095D01*
X138713819Y-78261833D01*
X138784265Y-78225937D01*
X138826744Y-78204294D01*
X138910852Y-78120186D01*
X138964853Y-78014203D01*
X138981323Y-77910212D01*
X139009100Y-77855697D01*
X139063617Y-77827919D01*
X139079104Y-77826700D01*
X142518417Y-77826700D01*
X142518419Y-77826700D01*
X142601510Y-77804436D01*
X142676006Y-77761425D01*
X142801164Y-77636265D01*
X142840578Y-77612114D01*
X142843192Y-77611263D01*
X142843202Y-77611262D01*
X142949185Y-77557261D01*
X143033293Y-77473153D01*
X143087294Y-77367170D01*
X143105901Y-77249688D01*
X143087294Y-77132206D01*
X143087291Y-77132201D01*
X143087291Y-77132199D01*
X143033294Y-77026225D01*
X143033293Y-77026223D01*
X143007069Y-76999999D01*
X144119819Y-76999999D01*
X144119819Y-77000000D01*
X144138426Y-77117481D01*
X144138428Y-77117488D01*
X144176611Y-77192425D01*
X144192427Y-77223465D01*
X144276535Y-77307573D01*
X144276537Y-77307574D01*
X144382511Y-77361571D01*
X144382513Y-77361571D01*
X144382518Y-77361574D01*
X144500000Y-77380181D01*
X144617482Y-77361574D01*
X144723465Y-77307573D01*
X144807573Y-77223465D01*
X144861574Y-77117482D01*
X144880181Y-77000000D01*
X144880181Y-76999999D01*
X147619819Y-76999999D01*
X147619819Y-77000000D01*
X147638426Y-77117481D01*
X147638428Y-77117488D01*
X147676611Y-77192425D01*
X147692427Y-77223465D01*
X147776535Y-77307573D01*
X147776537Y-77307574D01*
X147882511Y-77361571D01*
X147882513Y-77361571D01*
X147882518Y-77361574D01*
X148000000Y-77380181D01*
X148117482Y-77361574D01*
X148223465Y-77307573D01*
X148307573Y-77223465D01*
X148361574Y-77117482D01*
X148380181Y-77000000D01*
X148361574Y-76882518D01*
X148361571Y-76882513D01*
X148361571Y-76882511D01*
X148307574Y-76776537D01*
X148307573Y-76776535D01*
X148223465Y-76692427D01*
X148223462Y-76692425D01*
X148117488Y-76638428D01*
X148117483Y-76638426D01*
X148117482Y-76638426D01*
X148000000Y-76619819D01*
X147882518Y-76638426D01*
X147882511Y-76638428D01*
X147776537Y-76692425D01*
X147692425Y-76776537D01*
X147638428Y-76882511D01*
X147638426Y-76882518D01*
X147619819Y-76999999D01*
X144880181Y-76999999D01*
X144861574Y-76882518D01*
X144861571Y-76882513D01*
X144861571Y-76882511D01*
X144807574Y-76776537D01*
X144807573Y-76776535D01*
X144723465Y-76692427D01*
X144723462Y-76692425D01*
X144617488Y-76638428D01*
X144617483Y-76638426D01*
X144617482Y-76638426D01*
X144500000Y-76619819D01*
X144382518Y-76638426D01*
X144382511Y-76638428D01*
X144276537Y-76692425D01*
X144192425Y-76776537D01*
X144138428Y-76882511D01*
X144138426Y-76882518D01*
X144119819Y-76999999D01*
X143007069Y-76999999D01*
X142949185Y-76942115D01*
X142949182Y-76942113D01*
X142843208Y-76888116D01*
X142843203Y-76888114D01*
X142843202Y-76888114D01*
X142725720Y-76869507D01*
X142608238Y-76888114D01*
X142608236Y-76888114D01*
X142501450Y-76942525D01*
X142441018Y-76952096D01*
X142386501Y-76924318D01*
X142365133Y-76889448D01*
X142365112Y-76889460D01*
X142364970Y-76889182D01*
X142362350Y-76884906D01*
X142361574Y-76882520D01*
X142361574Y-76882518D01*
X142307573Y-76776535D01*
X142223465Y-76692427D01*
X142223462Y-76692425D01*
X142117488Y-76638428D01*
X142117483Y-76638426D01*
X142117482Y-76638426D01*
X142000000Y-76619819D01*
X141882518Y-76638426D01*
X141882511Y-76638428D01*
X141776537Y-76692425D01*
X141692425Y-76776537D01*
X141638428Y-76882511D01*
X141638426Y-76882518D01*
X141619819Y-76999999D01*
X141619819Y-77000000D01*
X141629134Y-77058813D01*
X141619563Y-77119245D01*
X141576298Y-77162510D01*
X141531353Y-77173300D01*
X139176331Y-77173300D01*
X139118140Y-77154393D01*
X139106327Y-77144304D01*
X137962022Y-75999999D01*
X138619819Y-75999999D01*
X138619819Y-76000000D01*
X138638426Y-76117481D01*
X138638428Y-76117488D01*
X138692425Y-76223462D01*
X138692427Y-76223465D01*
X138776535Y-76307573D01*
X138776537Y-76307574D01*
X138882511Y-76361571D01*
X138882513Y-76361571D01*
X138882518Y-76361574D01*
X139000000Y-76380181D01*
X139117482Y-76361574D01*
X139223465Y-76307573D01*
X139307573Y-76223465D01*
X139361574Y-76117482D01*
X139380181Y-76000000D01*
X139361574Y-75882518D01*
X139361571Y-75882513D01*
X139361571Y-75882511D01*
X139307574Y-75776537D01*
X139307573Y-75776535D01*
X139223465Y-75692427D01*
X139223462Y-75692425D01*
X139117488Y-75638428D01*
X139117483Y-75638426D01*
X139117482Y-75638426D01*
X139000000Y-75619819D01*
X138882518Y-75638426D01*
X138882511Y-75638428D01*
X138776537Y-75692425D01*
X138692425Y-75776537D01*
X138638428Y-75882511D01*
X138638426Y-75882518D01*
X138619819Y-75999999D01*
X137962022Y-75999999D01*
X133855696Y-71893673D01*
X133827919Y-71839156D01*
X133826700Y-71823669D01*
X133826700Y-70968647D01*
X133845607Y-70910456D01*
X133895107Y-70874492D01*
X133941186Y-70870866D01*
X134000000Y-70880181D01*
X134117482Y-70861574D01*
X134223465Y-70807573D01*
X134307573Y-70723465D01*
X134361574Y-70617482D01*
X134380181Y-70500000D01*
X134361574Y-70382518D01*
X134361571Y-70382513D01*
X134361571Y-70382511D01*
X134307574Y-70276537D01*
X134307573Y-70276535D01*
X134223465Y-70192427D01*
X134223462Y-70192425D01*
X134117488Y-70138428D01*
X134117483Y-70138426D01*
X134117482Y-70138426D01*
X134000000Y-70119819D01*
X133999998Y-70119819D01*
X133941186Y-70129133D01*
X133880754Y-70119561D01*
X133837490Y-70076296D01*
X133826700Y-70031352D01*
X133826700Y-68926893D01*
X137944700Y-68926893D01*
X137944700Y-70926893D01*
X137944700Y-71073107D01*
X137978073Y-71197659D01*
X137982543Y-71214342D01*
X138055645Y-71340957D01*
X138055646Y-71340958D01*
X138055647Y-71340959D01*
X138055649Y-71340962D01*
X140155891Y-73441204D01*
X141081149Y-74366462D01*
X141140370Y-74425683D01*
X141168147Y-74480200D01*
X141158576Y-74540632D01*
X141140370Y-74565690D01*
X141050045Y-74656016D01*
X140995529Y-74683794D01*
X140935096Y-74674223D01*
X140910040Y-74656019D01*
X140899710Y-74645689D01*
X140899707Y-74645687D01*
X140793733Y-74591690D01*
X140793728Y-74591688D01*
X140793727Y-74591688D01*
X140676245Y-74573081D01*
X140558763Y-74591688D01*
X140558756Y-74591690D01*
X140452782Y-74645687D01*
X140452778Y-74645690D01*
X140384756Y-74713712D01*
X140330239Y-74741489D01*
X140269807Y-74731917D01*
X140244752Y-74713714D01*
X140223465Y-74692427D01*
X140223462Y-74692425D01*
X140117488Y-74638428D01*
X140117483Y-74638426D01*
X140117482Y-74638426D01*
X140000000Y-74619819D01*
X139882518Y-74638426D01*
X139882511Y-74638428D01*
X139776537Y-74692425D01*
X139692425Y-74776537D01*
X139638428Y-74882511D01*
X139638426Y-74882518D01*
X139619819Y-75000000D01*
X139635780Y-75100778D01*
X139638426Y-75117481D01*
X139638428Y-75117488D01*
X139692424Y-75223460D01*
X139692427Y-75223465D01*
X139776535Y-75307573D01*
X139776537Y-75307574D01*
X139882511Y-75361571D01*
X139882513Y-75361571D01*
X139882518Y-75361574D01*
X140000000Y-75380181D01*
X140117482Y-75361574D01*
X140223465Y-75307573D01*
X140291489Y-75239548D01*
X140346003Y-75211772D01*
X140406435Y-75221343D01*
X140431491Y-75239546D01*
X140452780Y-75260835D01*
X140452782Y-75260836D01*
X140558756Y-75314833D01*
X140558758Y-75314833D01*
X140558763Y-75314836D01*
X140676245Y-75333443D01*
X140793727Y-75314836D01*
X140899710Y-75260835D01*
X140983818Y-75176727D01*
X140983819Y-75176724D01*
X140985986Y-75174558D01*
X141040503Y-75146781D01*
X141100935Y-75156352D01*
X141125990Y-75174555D01*
X141136321Y-75184886D01*
X141136323Y-75184887D01*
X141242297Y-75238884D01*
X141242299Y-75238884D01*
X141242304Y-75238887D01*
X141359786Y-75257494D01*
X141477268Y-75238887D01*
X141567136Y-75193096D01*
X141627566Y-75183525D01*
X141682083Y-75211302D01*
X141692171Y-75223113D01*
X141692423Y-75223460D01*
X141692425Y-75223462D01*
X141692427Y-75223465D01*
X141776535Y-75307573D01*
X141776537Y-75307574D01*
X141882511Y-75361571D01*
X141882513Y-75361571D01*
X141882518Y-75361574D01*
X142000000Y-75380181D01*
X142117482Y-75361574D01*
X142223465Y-75307573D01*
X142307573Y-75223465D01*
X142341769Y-75156352D01*
X142365112Y-75110540D01*
X142368035Y-75112029D01*
X142395513Y-75074209D01*
X142453704Y-75055300D01*
X145926893Y-75055300D01*
X151728979Y-75055300D01*
X151787170Y-75074207D01*
X151798983Y-75084296D01*
X155159038Y-78444351D01*
X155159040Y-78444352D01*
X155285657Y-78517456D01*
X155285658Y-78517456D01*
X155285661Y-78517458D01*
X155426893Y-78555300D01*
X155426895Y-78555300D01*
X156073106Y-78555300D01*
X156073107Y-78555300D01*
X156142626Y-78536673D01*
X156168248Y-78533300D01*
X167139003Y-78533300D01*
X167197194Y-78552207D01*
X167218005Y-78572637D01*
X167331236Y-78722579D01*
X167481959Y-78859981D01*
X167655363Y-78967348D01*
X167845544Y-79041024D01*
X168046024Y-79078500D01*
X168249976Y-79078500D01*
X168450456Y-79041024D01*
X168640637Y-78967348D01*
X168814041Y-78859981D01*
X168964764Y-78722579D01*
X169087673Y-78559821D01*
X169178582Y-78377250D01*
X169234397Y-78181083D01*
X169253215Y-77978000D01*
X169234397Y-77774917D01*
X169178582Y-77578750D01*
X169087673Y-77396179D01*
X168964764Y-77233421D01*
X168814041Y-77096019D01*
X168640637Y-76988652D01*
X168450456Y-76914976D01*
X168450455Y-76914975D01*
X168450453Y-76914975D01*
X168249976Y-76877500D01*
X168046024Y-76877500D01*
X167845546Y-76914975D01*
X167821429Y-76924318D01*
X167655363Y-76988652D01*
X167542049Y-77058813D01*
X167481959Y-77096019D01*
X167342161Y-77223462D01*
X167331236Y-77233421D01*
X167218644Y-77382518D01*
X167218007Y-77383361D01*
X167167850Y-77418404D01*
X167139003Y-77422700D01*
X156095107Y-77422700D01*
X155948893Y-77422700D01*
X155941974Y-77424554D01*
X155879374Y-77441327D01*
X155853752Y-77444700D01*
X155771021Y-77444700D01*
X155712830Y-77425793D01*
X155701017Y-77415704D01*
X154098314Y-75813001D01*
X167048000Y-75813001D01*
X167048000Y-76312624D01*
X167062506Y-76385546D01*
X167062507Y-76385548D01*
X167117758Y-76468237D01*
X167117762Y-76468241D01*
X167200451Y-76523492D01*
X167200453Y-76523493D01*
X167273375Y-76537999D01*
X167273377Y-76538000D01*
X167772999Y-76538000D01*
X167773000Y-76537999D01*
X167773000Y-75813001D01*
X167772999Y-75813000D01*
X167048001Y-75813000D01*
X167048000Y-75813001D01*
X154098314Y-75813001D01*
X154030320Y-75745007D01*
X153657487Y-75372174D01*
X167648000Y-75372174D01*
X167648000Y-75503826D01*
X167682075Y-75630993D01*
X167747901Y-75745007D01*
X167840993Y-75838099D01*
X167955007Y-75903925D01*
X168082174Y-75938000D01*
X168213826Y-75938000D01*
X168340993Y-75903925D01*
X168455007Y-75838099D01*
X168480105Y-75813001D01*
X168523000Y-75813001D01*
X168523000Y-76537999D01*
X168523001Y-76538000D01*
X169022623Y-76538000D01*
X169022624Y-76537999D01*
X169095546Y-76523493D01*
X169095548Y-76523492D01*
X169178237Y-76468241D01*
X169178241Y-76468237D01*
X169233492Y-76385548D01*
X169233493Y-76385546D01*
X169247999Y-76312624D01*
X169248000Y-76312622D01*
X169248000Y-75813001D01*
X169247999Y-75813000D01*
X168523001Y-75813000D01*
X168523000Y-75813001D01*
X168480105Y-75813001D01*
X168548099Y-75745007D01*
X168613925Y-75630993D01*
X168648000Y-75503826D01*
X168648000Y-75372174D01*
X168613925Y-75245007D01*
X168548099Y-75130993D01*
X168455007Y-75037901D01*
X168340993Y-74972075D01*
X168213826Y-74938000D01*
X168082174Y-74938000D01*
X167955007Y-74972075D01*
X167840993Y-75037901D01*
X167747901Y-75130993D01*
X167682075Y-75245007D01*
X167648000Y-75372174D01*
X153657487Y-75372174D01*
X152848688Y-74563375D01*
X167048000Y-74563375D01*
X167048000Y-75062999D01*
X167048001Y-75063000D01*
X167772999Y-75063000D01*
X167773000Y-75062999D01*
X167773000Y-74338001D01*
X168523000Y-74338001D01*
X168523000Y-75062999D01*
X168523001Y-75063000D01*
X169247999Y-75063000D01*
X169248000Y-75062999D01*
X169248000Y-74563377D01*
X169247999Y-74563375D01*
X169233493Y-74490453D01*
X169233492Y-74490451D01*
X169178241Y-74407762D01*
X169178237Y-74407758D01*
X169095548Y-74352507D01*
X169095546Y-74352506D01*
X169022624Y-74338000D01*
X168523001Y-74338000D01*
X168523000Y-74338001D01*
X167773000Y-74338001D01*
X167772999Y-74338000D01*
X167273375Y-74338000D01*
X167200453Y-74352506D01*
X167200451Y-74352507D01*
X167117762Y-74407758D01*
X167117758Y-74407762D01*
X167062507Y-74490451D01*
X167062506Y-74490453D01*
X167048000Y-74563375D01*
X152848688Y-74563375D01*
X152340962Y-74055649D01*
X152340959Y-74055647D01*
X152340958Y-74055646D01*
X152340957Y-74055645D01*
X152214341Y-73982543D01*
X152214343Y-73982543D01*
X152159545Y-73967860D01*
X152073107Y-73944700D01*
X152073105Y-73944700D01*
X142745521Y-73944700D01*
X142687330Y-73925793D01*
X142675518Y-73915704D01*
X142340962Y-73581149D01*
X142340957Y-73581145D01*
X142214341Y-73508043D01*
X142214343Y-73508043D01*
X142159545Y-73493360D01*
X142073107Y-73470200D01*
X142073105Y-73470200D01*
X141796521Y-73470200D01*
X141738330Y-73451293D01*
X141726517Y-73441204D01*
X140285310Y-71999997D01*
X165541635Y-71999997D01*
X165541635Y-72000002D01*
X165560200Y-72129130D01*
X165560201Y-72129133D01*
X165560201Y-72129134D01*
X165560202Y-72129136D01*
X165614399Y-72247811D01*
X165699835Y-72346409D01*
X165699837Y-72346410D01*
X165699839Y-72346412D01*
X165809586Y-72416942D01*
X165809588Y-72416943D01*
X165934768Y-72453700D01*
X165934769Y-72453700D01*
X166065231Y-72453700D01*
X166065232Y-72453700D01*
X166190412Y-72416943D01*
X166300165Y-72346409D01*
X166385601Y-72247811D01*
X166431661Y-72146949D01*
X166451706Y-72118078D01*
X170240275Y-68329510D01*
X170240280Y-68329506D01*
X170247383Y-68322402D01*
X170247387Y-68322401D01*
X170322401Y-68247387D01*
X170375443Y-68155514D01*
X170381245Y-68133858D01*
X170402901Y-68053043D01*
X170402901Y-67946957D01*
X170402901Y-67940895D01*
X170402900Y-67940877D01*
X170402900Y-66231467D01*
X170411846Y-66190341D01*
X170439798Y-66129136D01*
X170458365Y-66000000D01*
X170439798Y-65870864D01*
X170385601Y-65752189D01*
X170300165Y-65653591D01*
X170300162Y-65653589D01*
X170300160Y-65653587D01*
X170190413Y-65583057D01*
X170065233Y-65546300D01*
X170065232Y-65546300D01*
X169934768Y-65546300D01*
X169934766Y-65546300D01*
X169809586Y-65583057D01*
X169699839Y-65653587D01*
X169699837Y-65653589D01*
X169614399Y-65752189D01*
X169560201Y-65870866D01*
X169560200Y-65870869D01*
X169541635Y-65999997D01*
X169541635Y-66000002D01*
X169560200Y-66129130D01*
X169560201Y-66129133D01*
X169588154Y-66190341D01*
X169597100Y-66231467D01*
X169597100Y-67792105D01*
X169578193Y-67850296D01*
X169568104Y-67862109D01*
X165880639Y-71549573D01*
X165838530Y-71574558D01*
X165809588Y-71583057D01*
X165809583Y-71583059D01*
X165699839Y-71653587D01*
X165699837Y-71653589D01*
X165614399Y-71752189D01*
X165560201Y-71870866D01*
X165560200Y-71870869D01*
X165541635Y-71999997D01*
X140285310Y-71999997D01*
X139084296Y-70798983D01*
X139056519Y-70744466D01*
X139055300Y-70728979D01*
X139055300Y-68926894D01*
X139043408Y-68882511D01*
X139017458Y-68785662D01*
X139017456Y-68785659D01*
X139017456Y-68785657D01*
X138944354Y-68659042D01*
X138944352Y-68659040D01*
X138944351Y-68659038D01*
X138840962Y-68555649D01*
X138840959Y-68555647D01*
X138840957Y-68555645D01*
X138714341Y-68482543D01*
X138714343Y-68482543D01*
X138659545Y-68467860D01*
X138573107Y-68444700D01*
X138426893Y-68444700D01*
X138340454Y-68467860D01*
X138285657Y-68482543D01*
X138159042Y-68555645D01*
X138055645Y-68659042D01*
X137982543Y-68785657D01*
X137982542Y-68785662D01*
X137944700Y-68926893D01*
X133826700Y-68926893D01*
X133826700Y-64499999D01*
X147119819Y-64499999D01*
X147119819Y-64500000D01*
X147138426Y-64617481D01*
X147138428Y-64617488D01*
X147192425Y-64723462D01*
X147192427Y-64723465D01*
X147276535Y-64807573D01*
X147276537Y-64807574D01*
X147382511Y-64861571D01*
X147382513Y-64861571D01*
X147382518Y-64861574D01*
X147500000Y-64880181D01*
X147617482Y-64861574D01*
X147723465Y-64807573D01*
X147807573Y-64723465D01*
X147861574Y-64617482D01*
X147880181Y-64500000D01*
X147861574Y-64382518D01*
X147861571Y-64382513D01*
X147861571Y-64382511D01*
X147807574Y-64276537D01*
X147807573Y-64276535D01*
X147723465Y-64192427D01*
X147723462Y-64192425D01*
X147617488Y-64138428D01*
X147617483Y-64138426D01*
X147617482Y-64138426D01*
X147500000Y-64119819D01*
X147382518Y-64138426D01*
X147382511Y-64138428D01*
X147276537Y-64192425D01*
X147192425Y-64276537D01*
X147138428Y-64382511D01*
X147138426Y-64382518D01*
X147119819Y-64499999D01*
X133826700Y-64499999D01*
X133826700Y-63999999D01*
X139619819Y-63999999D01*
X139619819Y-64000000D01*
X139638426Y-64117481D01*
X139638428Y-64117488D01*
X139676611Y-64192425D01*
X139692427Y-64223465D01*
X139776535Y-64307573D01*
X139776537Y-64307574D01*
X139882511Y-64361571D01*
X139882513Y-64361571D01*
X139882518Y-64361574D01*
X140000000Y-64380181D01*
X140117482Y-64361574D01*
X140223465Y-64307573D01*
X140307573Y-64223465D01*
X140361574Y-64117482D01*
X140380181Y-64000000D01*
X140361574Y-63882518D01*
X140361571Y-63882513D01*
X140361571Y-63882511D01*
X140307574Y-63776537D01*
X140307573Y-63776535D01*
X140223465Y-63692427D01*
X140223462Y-63692425D01*
X140117488Y-63638428D01*
X140117483Y-63638426D01*
X140117482Y-63638426D01*
X140000000Y-63619819D01*
X139882518Y-63638426D01*
X139882511Y-63638428D01*
X139776537Y-63692425D01*
X139692425Y-63776537D01*
X139638428Y-63882511D01*
X139638426Y-63882518D01*
X139619819Y-63999999D01*
X133826700Y-63999999D01*
X133826700Y-63456990D01*
X133826700Y-63456989D01*
X133804436Y-63373898D01*
X133761425Y-63299402D01*
X133462022Y-62999999D01*
X135119819Y-62999999D01*
X135119819Y-63000000D01*
X135138426Y-63117481D01*
X135138428Y-63117488D01*
X135192425Y-63223462D01*
X135192427Y-63223465D01*
X135276535Y-63307573D01*
X135276537Y-63307574D01*
X135382511Y-63361571D01*
X135382513Y-63361571D01*
X135382518Y-63361574D01*
X135500000Y-63380181D01*
X135617482Y-63361574D01*
X135723465Y-63307573D01*
X135807573Y-63223465D01*
X135861574Y-63117482D01*
X135880181Y-63000000D01*
X135861574Y-62882518D01*
X135861571Y-62882513D01*
X135861571Y-62882511D01*
X135807574Y-62776537D01*
X135807573Y-62776535D01*
X135723465Y-62692427D01*
X135723462Y-62692425D01*
X135617488Y-62638428D01*
X135617483Y-62638426D01*
X135617482Y-62638426D01*
X135500000Y-62619819D01*
X135382518Y-62638426D01*
X135382511Y-62638428D01*
X135276537Y-62692425D01*
X135192425Y-62776537D01*
X135138428Y-62882511D01*
X135138426Y-62882518D01*
X135119819Y-62999999D01*
X133462022Y-62999999D01*
X132962022Y-62499999D01*
X133619819Y-62499999D01*
X133619819Y-62500000D01*
X133638426Y-62617481D01*
X133638428Y-62617488D01*
X133676611Y-62692425D01*
X133692427Y-62723465D01*
X133776535Y-62807573D01*
X133776537Y-62807574D01*
X133882511Y-62861571D01*
X133882513Y-62861571D01*
X133882518Y-62861574D01*
X134000000Y-62880181D01*
X134117482Y-62861574D01*
X134223465Y-62807573D01*
X134307573Y-62723465D01*
X134361574Y-62617482D01*
X134380181Y-62500000D01*
X134361574Y-62382518D01*
X134361571Y-62382513D01*
X134361571Y-62382511D01*
X134307574Y-62276537D01*
X134307573Y-62276535D01*
X134223465Y-62192427D01*
X134223462Y-62192425D01*
X134117488Y-62138428D01*
X134117483Y-62138426D01*
X134117482Y-62138426D01*
X134000000Y-62119819D01*
X133882518Y-62138426D01*
X133882511Y-62138428D01*
X133776537Y-62192425D01*
X133692425Y-62276537D01*
X133638428Y-62382511D01*
X133638426Y-62382518D01*
X133619819Y-62499999D01*
X132962022Y-62499999D01*
X132886577Y-62424554D01*
X132862426Y-62385141D01*
X132861574Y-62382520D01*
X132861574Y-62382518D01*
X132807573Y-62276535D01*
X132723465Y-62192427D01*
X132723462Y-62192425D01*
X132617488Y-62138428D01*
X132617483Y-62138426D01*
X132617482Y-62138426D01*
X132500000Y-62119819D01*
X132382518Y-62138426D01*
X132382511Y-62138428D01*
X132276537Y-62192425D01*
X132192425Y-62276537D01*
X132138428Y-62382511D01*
X132138426Y-62382518D01*
X132119819Y-62499999D01*
X127500500Y-62499999D01*
X127500500Y-59999999D01*
X141619819Y-59999999D01*
X141619819Y-60000000D01*
X141638426Y-60117481D01*
X141638428Y-60117488D01*
X141692425Y-60223462D01*
X141692427Y-60223465D01*
X141776535Y-60307573D01*
X141776537Y-60307574D01*
X141882511Y-60361571D01*
X141882513Y-60361571D01*
X141882518Y-60361574D01*
X142000000Y-60380181D01*
X142117482Y-60361574D01*
X142164749Y-60337489D01*
X142209694Y-60326700D01*
X142823669Y-60326700D01*
X142881860Y-60345607D01*
X142893673Y-60355696D01*
X143799402Y-61261425D01*
X143873898Y-61304436D01*
X143956989Y-61326700D01*
X149790306Y-61326700D01*
X149835250Y-61337489D01*
X149882518Y-61361574D01*
X150000000Y-61380181D01*
X150117482Y-61361574D01*
X150223465Y-61307573D01*
X150307573Y-61223465D01*
X150361574Y-61117482D01*
X150380181Y-61000000D01*
X150361574Y-60882518D01*
X150361571Y-60882513D01*
X150361571Y-60882511D01*
X150307574Y-60776537D01*
X150307573Y-60776535D01*
X150223465Y-60692427D01*
X150223462Y-60692425D01*
X150117488Y-60638428D01*
X150117483Y-60638426D01*
X150117482Y-60638426D01*
X150000000Y-60619819D01*
X149882518Y-60638426D01*
X149882516Y-60638426D01*
X149835251Y-60662510D01*
X149790306Y-60673300D01*
X144176331Y-60673300D01*
X144118140Y-60654393D01*
X144106327Y-60644304D01*
X143685485Y-60223462D01*
X143200598Y-59738575D01*
X143126102Y-59695564D01*
X143043011Y-59673300D01*
X143043009Y-59673300D01*
X142209694Y-59673300D01*
X142164749Y-59662510D01*
X142117482Y-59638426D01*
X142000000Y-59619819D01*
X141882518Y-59638426D01*
X141882511Y-59638428D01*
X141776537Y-59692425D01*
X141692425Y-59776537D01*
X141638428Y-59882511D01*
X141638426Y-59882518D01*
X141619819Y-59999999D01*
X127500500Y-59999999D01*
X127500500Y-59426893D01*
X144944700Y-59426893D01*
X144944700Y-59573107D01*
X144968655Y-59662510D01*
X144982543Y-59714342D01*
X145055645Y-59840957D01*
X145055647Y-59840959D01*
X145055649Y-59840962D01*
X145159038Y-59944351D01*
X145159040Y-59944352D01*
X145159042Y-59944354D01*
X145285658Y-60017456D01*
X145285656Y-60017456D01*
X145285660Y-60017457D01*
X145285662Y-60017458D01*
X145426893Y-60055300D01*
X145426895Y-60055300D01*
X160573105Y-60055300D01*
X160573107Y-60055300D01*
X160714338Y-60017458D01*
X160714340Y-60017456D01*
X160714342Y-60017456D01*
X160840957Y-59944354D01*
X160840957Y-59944353D01*
X160840962Y-59944351D01*
X160944351Y-59840962D01*
X161017458Y-59714338D01*
X161055300Y-59573107D01*
X161055300Y-59426893D01*
X161017458Y-59285662D01*
X161017456Y-59285659D01*
X161017456Y-59285657D01*
X160944354Y-59159042D01*
X160944352Y-59159040D01*
X160944351Y-59159038D01*
X160840962Y-59055649D01*
X160840959Y-59055647D01*
X160840957Y-59055645D01*
X160714341Y-58982543D01*
X160714343Y-58982543D01*
X160659545Y-58967860D01*
X160573107Y-58944700D01*
X145426893Y-58944700D01*
X145340454Y-58967860D01*
X145285657Y-58982543D01*
X145159042Y-59055645D01*
X145055645Y-59159042D01*
X144982543Y-59285657D01*
X144982542Y-59285662D01*
X144944700Y-59426893D01*
X127500500Y-59426893D01*
X127500500Y-55880000D01*
X129625156Y-55880000D01*
X129644513Y-56187679D01*
X129702277Y-56490486D01*
X129702280Y-56490496D01*
X129797546Y-56783694D01*
X129928804Y-57062630D01*
X129928811Y-57062643D01*
X130093989Y-57322921D01*
X130099764Y-57329903D01*
X131083145Y-56346521D01*
X131139196Y-56456525D01*
X131240967Y-56596602D01*
X131363398Y-56719033D01*
X131503475Y-56820804D01*
X131613476Y-56876852D01*
X130633156Y-57857173D01*
X130764624Y-57952690D01*
X130764644Y-57952702D01*
X131034776Y-58101208D01*
X131034779Y-58101210D01*
X131321410Y-58214694D01*
X131620012Y-58291362D01*
X131925859Y-58330000D01*
X132234141Y-58330000D01*
X132539987Y-58291362D01*
X132838589Y-58214694D01*
X133125218Y-58101210D01*
X133395362Y-57952697D01*
X133395375Y-57952689D01*
X133526841Y-57857172D01*
X133474670Y-57805001D01*
X137907000Y-57805001D01*
X137907000Y-58031333D01*
X137936783Y-58181058D01*
X137936783Y-58181060D01*
X137995202Y-58322097D01*
X138080015Y-58449030D01*
X138187969Y-58556984D01*
X138306999Y-58636516D01*
X138307000Y-58636516D01*
X138307000Y-57805001D01*
X138306999Y-57805000D01*
X137907001Y-57805000D01*
X137907000Y-57805001D01*
X133474670Y-57805001D01*
X132546522Y-56876853D01*
X132656525Y-56820804D01*
X132796602Y-56719033D01*
X132919033Y-56596602D01*
X133020804Y-56456525D01*
X133076853Y-56346523D01*
X134060233Y-57329903D01*
X134066009Y-57322922D01*
X134066013Y-57322917D01*
X134231188Y-57062643D01*
X134231195Y-57062630D01*
X134341291Y-56828666D01*
X137907000Y-56828666D01*
X137907000Y-57054999D01*
X137907001Y-57055000D01*
X138306999Y-57055000D01*
X138307000Y-57054999D01*
X138307000Y-56840504D01*
X138382000Y-56840504D01*
X138382000Y-58019496D01*
X138402444Y-58095796D01*
X138441940Y-58164205D01*
X138497795Y-58220060D01*
X138566204Y-58259556D01*
X138642504Y-58280000D01*
X138721496Y-58280000D01*
X138797796Y-58259556D01*
X138866205Y-58220060D01*
X138922060Y-58164205D01*
X138961556Y-58095796D01*
X138982000Y-58019496D01*
X138982000Y-57805001D01*
X139057000Y-57805001D01*
X139057000Y-58636516D01*
X139176030Y-58556984D01*
X139283984Y-58449030D01*
X139368797Y-58322097D01*
X139427216Y-58181060D01*
X139427216Y-58181058D01*
X139456999Y-58031333D01*
X139457000Y-58031329D01*
X139457000Y-57805001D01*
X139456999Y-57805000D01*
X139057001Y-57805000D01*
X139057000Y-57805001D01*
X138982000Y-57805001D01*
X138982000Y-57688984D01*
X143868044Y-57688984D01*
X143868044Y-57688985D01*
X143886651Y-57806466D01*
X143886653Y-57806473D01*
X143938894Y-57909000D01*
X143940652Y-57912450D01*
X144024760Y-57996558D01*
X144024762Y-57996559D01*
X144130736Y-58050556D01*
X144130738Y-58050556D01*
X144130743Y-58050559D01*
X144248225Y-58069166D01*
X144365707Y-58050559D01*
X144471690Y-57996558D01*
X144555798Y-57912450D01*
X144609799Y-57806467D01*
X144610031Y-57805001D01*
X146547000Y-57805001D01*
X146547000Y-58031333D01*
X146576783Y-58181058D01*
X146576783Y-58181060D01*
X146635202Y-58322097D01*
X146720015Y-58449030D01*
X146827969Y-58556984D01*
X146946999Y-58636516D01*
X146947000Y-58636516D01*
X146947000Y-57805001D01*
X146946999Y-57805000D01*
X146547001Y-57805000D01*
X146547000Y-57805001D01*
X144610031Y-57805001D01*
X144628406Y-57688985D01*
X144609799Y-57571503D01*
X144609796Y-57571498D01*
X144609796Y-57571496D01*
X144555799Y-57465522D01*
X144555798Y-57465520D01*
X144471690Y-57381412D01*
X144471687Y-57381410D01*
X144365713Y-57327413D01*
X144365708Y-57327411D01*
X144365707Y-57327411D01*
X144248225Y-57308804D01*
X144130743Y-57327411D01*
X144130736Y-57327413D01*
X144024762Y-57381410D01*
X143940650Y-57465522D01*
X143886653Y-57571496D01*
X143886651Y-57571503D01*
X143868044Y-57688984D01*
X138982000Y-57688984D01*
X138982000Y-57054999D01*
X139057000Y-57054999D01*
X139057001Y-57055000D01*
X139469586Y-57055000D01*
X139527777Y-57073907D01*
X139563741Y-57123407D01*
X139565213Y-57128377D01*
X139571993Y-57153682D01*
X139648281Y-57285816D01*
X139648283Y-57285818D01*
X139648285Y-57285821D01*
X139756179Y-57393715D01*
X139756181Y-57393716D01*
X139756183Y-57393718D01*
X139888318Y-57470006D01*
X139888319Y-57470006D01*
X139888322Y-57470008D01*
X140035707Y-57509500D01*
X140035708Y-57509500D01*
X140188292Y-57509500D01*
X140188293Y-57509500D01*
X140335678Y-57470008D01*
X140335680Y-57470006D01*
X140335682Y-57470006D01*
X140467816Y-57393718D01*
X140467816Y-57393717D01*
X140467821Y-57393715D01*
X140575715Y-57285821D01*
X140652008Y-57153678D01*
X140691500Y-57006293D01*
X140691500Y-56853707D01*
X145312500Y-56853707D01*
X145312500Y-57006293D01*
X145319924Y-57033999D01*
X145351993Y-57153682D01*
X145428281Y-57285816D01*
X145428283Y-57285818D01*
X145428285Y-57285821D01*
X145536179Y-57393715D01*
X145536181Y-57393716D01*
X145536183Y-57393718D01*
X145668318Y-57470006D01*
X145668319Y-57470006D01*
X145668322Y-57470008D01*
X145815707Y-57509500D01*
X145815708Y-57509500D01*
X145968292Y-57509500D01*
X145968293Y-57509500D01*
X146115678Y-57470008D01*
X146115680Y-57470006D01*
X146115682Y-57470006D01*
X146247816Y-57393718D01*
X146247816Y-57393717D01*
X146247821Y-57393715D01*
X146355715Y-57285821D01*
X146432008Y-57153678D01*
X146438787Y-57128375D01*
X146472112Y-57077062D01*
X146529233Y-57055136D01*
X146534414Y-57055000D01*
X146946999Y-57055000D01*
X146947000Y-57054999D01*
X146947000Y-56840504D01*
X147022000Y-56840504D01*
X147022000Y-58019496D01*
X147042444Y-58095796D01*
X147081940Y-58164205D01*
X147137795Y-58220060D01*
X147206204Y-58259556D01*
X147282504Y-58280000D01*
X147361496Y-58280000D01*
X147437796Y-58259556D01*
X147506205Y-58220060D01*
X147562060Y-58164205D01*
X147601556Y-58095796D01*
X147622000Y-58019496D01*
X147622000Y-57805001D01*
X147697000Y-57805001D01*
X147697000Y-58636516D01*
X147816030Y-58556984D01*
X147923984Y-58449030D01*
X148008797Y-58322097D01*
X148067216Y-58181060D01*
X148067216Y-58181058D01*
X148096999Y-58031333D01*
X148097000Y-58031329D01*
X148097000Y-57805001D01*
X148096999Y-57805000D01*
X147697001Y-57805000D01*
X147697000Y-57805001D01*
X147622000Y-57805001D01*
X147622000Y-57779001D01*
X157650000Y-57779001D01*
X157650000Y-58278624D01*
X157664506Y-58351546D01*
X157664507Y-58351548D01*
X157719758Y-58434237D01*
X157719762Y-58434241D01*
X157802451Y-58489492D01*
X157802453Y-58489493D01*
X157875375Y-58503999D01*
X157875377Y-58504000D01*
X158374999Y-58504000D01*
X158375000Y-58503999D01*
X158375000Y-57779001D01*
X158374999Y-57779000D01*
X157650001Y-57779000D01*
X157650000Y-57779001D01*
X147622000Y-57779001D01*
X147622000Y-57338174D01*
X158250000Y-57338174D01*
X158250000Y-57469826D01*
X158284075Y-57596993D01*
X158349901Y-57711007D01*
X158442993Y-57804099D01*
X158557007Y-57869925D01*
X158684174Y-57904000D01*
X158815826Y-57904000D01*
X158942993Y-57869925D01*
X159057007Y-57804099D01*
X159082105Y-57779001D01*
X159125000Y-57779001D01*
X159125000Y-58503999D01*
X159125001Y-58504000D01*
X159624623Y-58504000D01*
X159624624Y-58503999D01*
X159697546Y-58489493D01*
X159697548Y-58489492D01*
X159780237Y-58434241D01*
X159780241Y-58434237D01*
X159835492Y-58351548D01*
X159835493Y-58351546D01*
X159849999Y-58278624D01*
X159850000Y-58278622D01*
X159850000Y-57784001D01*
X161460000Y-57784001D01*
X161460000Y-58283624D01*
X161474506Y-58356546D01*
X161474507Y-58356548D01*
X161529758Y-58439237D01*
X161529762Y-58439241D01*
X161612451Y-58494492D01*
X161612453Y-58494493D01*
X161685375Y-58508999D01*
X161685377Y-58509000D01*
X162184999Y-58509000D01*
X162185000Y-58508999D01*
X162185000Y-57784001D01*
X162184999Y-57784000D01*
X161460001Y-57784000D01*
X161460000Y-57784001D01*
X159850000Y-57784001D01*
X159850000Y-57779001D01*
X159849999Y-57779000D01*
X159125001Y-57779000D01*
X159125000Y-57779001D01*
X159082105Y-57779001D01*
X159150099Y-57711007D01*
X159215925Y-57596993D01*
X159250000Y-57469826D01*
X159250000Y-57343174D01*
X162060000Y-57343174D01*
X162060000Y-57474826D01*
X162094075Y-57601993D01*
X162159901Y-57716007D01*
X162252993Y-57809099D01*
X162367007Y-57874925D01*
X162494174Y-57909000D01*
X162625826Y-57909000D01*
X162752993Y-57874925D01*
X162867007Y-57809099D01*
X162892105Y-57784001D01*
X162935000Y-57784001D01*
X162935000Y-58508999D01*
X162935001Y-58509000D01*
X163434623Y-58509000D01*
X163434624Y-58508999D01*
X163507546Y-58494493D01*
X163507548Y-58494492D01*
X163590237Y-58439241D01*
X163590241Y-58439237D01*
X163645492Y-58356548D01*
X163645493Y-58356546D01*
X163659999Y-58283624D01*
X163660000Y-58283622D01*
X163660000Y-57784001D01*
X163659999Y-57784000D01*
X162935001Y-57784000D01*
X162935000Y-57784001D01*
X162892105Y-57784001D01*
X162960099Y-57716007D01*
X163025925Y-57601993D01*
X163060000Y-57474826D01*
X163060000Y-57343174D01*
X163025925Y-57216007D01*
X162960099Y-57101993D01*
X162867007Y-57008901D01*
X162752993Y-56943075D01*
X162625826Y-56909000D01*
X162494174Y-56909000D01*
X162367007Y-56943075D01*
X162252993Y-57008901D01*
X162159901Y-57101993D01*
X162094075Y-57216007D01*
X162060000Y-57343174D01*
X159250000Y-57343174D01*
X159250000Y-57338174D01*
X159215925Y-57211007D01*
X159150099Y-57096993D01*
X159057007Y-57003901D01*
X158942993Y-56938075D01*
X158815826Y-56904000D01*
X158684174Y-56904000D01*
X158557007Y-56938075D01*
X158442993Y-57003901D01*
X158349901Y-57096993D01*
X158284075Y-57211007D01*
X158250000Y-57338174D01*
X147622000Y-57338174D01*
X147622000Y-57054999D01*
X147697000Y-57054999D01*
X147697001Y-57055000D01*
X148096999Y-57055000D01*
X148097000Y-57054999D01*
X148097000Y-56828670D01*
X148096999Y-56828666D01*
X148067216Y-56678941D01*
X148067216Y-56678939D01*
X148008797Y-56537902D01*
X148003100Y-56529375D01*
X157650000Y-56529375D01*
X157650000Y-57028999D01*
X157650001Y-57029000D01*
X158374999Y-57029000D01*
X158375000Y-57028999D01*
X158375000Y-56304001D01*
X159125000Y-56304001D01*
X159125000Y-57028999D01*
X159125001Y-57029000D01*
X159849999Y-57029000D01*
X159850000Y-57028999D01*
X159850000Y-56534375D01*
X161460000Y-56534375D01*
X161460000Y-57033999D01*
X161460001Y-57034000D01*
X162184999Y-57034000D01*
X162185000Y-57033999D01*
X162185000Y-56309001D01*
X162935000Y-56309001D01*
X162935000Y-57033999D01*
X162935001Y-57034000D01*
X163659999Y-57034000D01*
X163660000Y-57033999D01*
X163660000Y-56534377D01*
X163659999Y-56534375D01*
X163645493Y-56461453D01*
X163645492Y-56461451D01*
X163590241Y-56378762D01*
X163590237Y-56378758D01*
X163507548Y-56323507D01*
X163507546Y-56323506D01*
X163434624Y-56309000D01*
X162935001Y-56309000D01*
X162935000Y-56309001D01*
X162185000Y-56309001D01*
X162184999Y-56309000D01*
X161685375Y-56309000D01*
X161612453Y-56323506D01*
X161612451Y-56323507D01*
X161529762Y-56378758D01*
X161529758Y-56378762D01*
X161474507Y-56461451D01*
X161474506Y-56461453D01*
X161460000Y-56534375D01*
X159850000Y-56534375D01*
X159850000Y-56529377D01*
X159849999Y-56529375D01*
X159835493Y-56456453D01*
X159835492Y-56456451D01*
X159780241Y-56373762D01*
X159780237Y-56373758D01*
X159697548Y-56318507D01*
X159697546Y-56318506D01*
X159624624Y-56304000D01*
X159125001Y-56304000D01*
X159125000Y-56304001D01*
X158375000Y-56304001D01*
X158374999Y-56304000D01*
X157875375Y-56304000D01*
X157802453Y-56318506D01*
X157802451Y-56318507D01*
X157719762Y-56373758D01*
X157719758Y-56373762D01*
X157664507Y-56456451D01*
X157664506Y-56456453D01*
X157650000Y-56529375D01*
X148003100Y-56529375D01*
X147923982Y-56410966D01*
X147816042Y-56303025D01*
X147816033Y-56303018D01*
X147697000Y-56223482D01*
X147697000Y-57054999D01*
X147622000Y-57054999D01*
X147622000Y-56840504D01*
X147601556Y-56764204D01*
X147562060Y-56695795D01*
X147506205Y-56639940D01*
X147437796Y-56600444D01*
X147361496Y-56580000D01*
X147282504Y-56580000D01*
X147206204Y-56600444D01*
X147137795Y-56639940D01*
X147081940Y-56695795D01*
X147042444Y-56764204D01*
X147022000Y-56840504D01*
X146947000Y-56840504D01*
X146947000Y-56223482D01*
X146827966Y-56303018D01*
X146827957Y-56303025D01*
X146720017Y-56410966D01*
X146635203Y-56537900D01*
X146586525Y-56655420D01*
X146546788Y-56701946D01*
X146487293Y-56716229D01*
X146430765Y-56692814D01*
X146409327Y-56667037D01*
X146355715Y-56574179D01*
X146247821Y-56466285D01*
X146247818Y-56466283D01*
X146247816Y-56466281D01*
X146115681Y-56389993D01*
X146115682Y-56389993D01*
X146055092Y-56373758D01*
X145968293Y-56350500D01*
X145815707Y-56350500D01*
X145750720Y-56367913D01*
X145668317Y-56389993D01*
X145536183Y-56466281D01*
X145428281Y-56574183D01*
X145351993Y-56706317D01*
X145351992Y-56706322D01*
X145312500Y-56853707D01*
X140691500Y-56853707D01*
X140652008Y-56706322D01*
X140652006Y-56706319D01*
X140652006Y-56706317D01*
X140575718Y-56574183D01*
X140575716Y-56574181D01*
X140575715Y-56574179D01*
X140467821Y-56466285D01*
X140467818Y-56466283D01*
X140467816Y-56466281D01*
X140335681Y-56389993D01*
X140335682Y-56389993D01*
X140275092Y-56373758D01*
X140188293Y-56350500D01*
X140035707Y-56350500D01*
X139970720Y-56367913D01*
X139888317Y-56389993D01*
X139756183Y-56466281D01*
X139648281Y-56574183D01*
X139594674Y-56667034D01*
X139549205Y-56707975D01*
X139488354Y-56714371D01*
X139435366Y-56683778D01*
X139417474Y-56655419D01*
X139368797Y-56537902D01*
X139283982Y-56410966D01*
X139176042Y-56303025D01*
X139176033Y-56303018D01*
X139057000Y-56223482D01*
X139057000Y-57054999D01*
X138982000Y-57054999D01*
X138982000Y-56840504D01*
X138961556Y-56764204D01*
X138922060Y-56695795D01*
X138866205Y-56639940D01*
X138797796Y-56600444D01*
X138721496Y-56580000D01*
X138642504Y-56580000D01*
X138566204Y-56600444D01*
X138497795Y-56639940D01*
X138441940Y-56695795D01*
X138402444Y-56764204D01*
X138382000Y-56840504D01*
X138307000Y-56840504D01*
X138307000Y-56223482D01*
X138187966Y-56303018D01*
X138187957Y-56303025D01*
X138080017Y-56410966D01*
X137995202Y-56537902D01*
X137936783Y-56678939D01*
X137936783Y-56678941D01*
X137907000Y-56828666D01*
X134341291Y-56828666D01*
X134362453Y-56783694D01*
X134457719Y-56490496D01*
X134457722Y-56490486D01*
X134515486Y-56187679D01*
X134534843Y-55880000D01*
X134515486Y-55572320D01*
X134457722Y-55269513D01*
X134457719Y-55269503D01*
X134362453Y-54976305D01*
X134231195Y-54697369D01*
X134231188Y-54697356D01*
X134175749Y-54609999D01*
X137414819Y-54609999D01*
X137414819Y-54610000D01*
X137433426Y-54727481D01*
X137433428Y-54727488D01*
X137471616Y-54802435D01*
X137487427Y-54833465D01*
X137571535Y-54917573D01*
X137571537Y-54917574D01*
X137677511Y-54971571D01*
X137677513Y-54971571D01*
X137677518Y-54971574D01*
X137795000Y-54990181D01*
X137912482Y-54971574D01*
X138018465Y-54917573D01*
X138072038Y-54864000D01*
X157644785Y-54864000D01*
X157663603Y-55067083D01*
X157719418Y-55263250D01*
X157810327Y-55445821D01*
X157933236Y-55608579D01*
X158083959Y-55745981D01*
X158257363Y-55853348D01*
X158447544Y-55927024D01*
X158648024Y-55964500D01*
X158851976Y-55964500D01*
X159052456Y-55927024D01*
X159242637Y-55853348D01*
X159416041Y-55745981D01*
X159566764Y-55608579D01*
X159689673Y-55445821D01*
X159780582Y-55263250D01*
X159836397Y-55067083D01*
X159854752Y-54869000D01*
X161454785Y-54869000D01*
X161473603Y-55072083D01*
X161529418Y-55268250D01*
X161620327Y-55450821D01*
X161743236Y-55613579D01*
X161893959Y-55750981D01*
X162067363Y-55858348D01*
X162257544Y-55932024D01*
X162458024Y-55969500D01*
X162661976Y-55969500D01*
X162862456Y-55932024D01*
X162996746Y-55880000D01*
X165185156Y-55880000D01*
X165204513Y-56187679D01*
X165262277Y-56490486D01*
X165262280Y-56490496D01*
X165357546Y-56783694D01*
X165488804Y-57062630D01*
X165488811Y-57062643D01*
X165653989Y-57322921D01*
X165659764Y-57329903D01*
X166643145Y-56346521D01*
X166699196Y-56456525D01*
X166800967Y-56596602D01*
X166923398Y-56719033D01*
X167063475Y-56820804D01*
X167173476Y-56876852D01*
X166193156Y-57857173D01*
X166324624Y-57952690D01*
X166324644Y-57952702D01*
X166594776Y-58101208D01*
X166594779Y-58101210D01*
X166881410Y-58214694D01*
X167180012Y-58291362D01*
X167485859Y-58330000D01*
X167794141Y-58330000D01*
X168099987Y-58291362D01*
X168398589Y-58214694D01*
X168685218Y-58101210D01*
X168955362Y-57952697D01*
X168955375Y-57952689D01*
X169086841Y-57857172D01*
X168106522Y-56876853D01*
X168216525Y-56820804D01*
X168356602Y-56719033D01*
X168479033Y-56596602D01*
X168580804Y-56456525D01*
X168636853Y-56346523D01*
X169620233Y-57329903D01*
X169626009Y-57322922D01*
X169626013Y-57322917D01*
X169791188Y-57062643D01*
X169791195Y-57062630D01*
X169922453Y-56783694D01*
X170017719Y-56490496D01*
X170017722Y-56490486D01*
X170075486Y-56187679D01*
X170094843Y-55880000D01*
X170075486Y-55572320D01*
X170017722Y-55269513D01*
X170017719Y-55269503D01*
X169922453Y-54976305D01*
X169791195Y-54697369D01*
X169791188Y-54697356D01*
X169626012Y-54437082D01*
X169626005Y-54437072D01*
X169620234Y-54430095D01*
X168636853Y-55413476D01*
X168580804Y-55303475D01*
X168479033Y-55163398D01*
X168356602Y-55040967D01*
X168216525Y-54939196D01*
X168106521Y-54883145D01*
X169086842Y-53902825D01*
X168955372Y-53807308D01*
X168955358Y-53807299D01*
X168685223Y-53658791D01*
X168685220Y-53658789D01*
X168398589Y-53545305D01*
X168099987Y-53468637D01*
X167794141Y-53430000D01*
X167485859Y-53430000D01*
X167180012Y-53468637D01*
X166881410Y-53545305D01*
X166594779Y-53658789D01*
X166594776Y-53658791D01*
X166324641Y-53807299D01*
X166324627Y-53807308D01*
X166193156Y-53902825D01*
X167173477Y-54883146D01*
X167063475Y-54939196D01*
X166923398Y-55040967D01*
X166800967Y-55163398D01*
X166699196Y-55303475D01*
X166643146Y-55413477D01*
X165659764Y-54430095D01*
X165653985Y-54437084D01*
X165488811Y-54697356D01*
X165488804Y-54697369D01*
X165357546Y-54976305D01*
X165262280Y-55269503D01*
X165262277Y-55269513D01*
X165204513Y-55572320D01*
X165185156Y-55880000D01*
X162996746Y-55880000D01*
X163052637Y-55858348D01*
X163226041Y-55750981D01*
X163376764Y-55613579D01*
X163499673Y-55450821D01*
X163590582Y-55268250D01*
X163646397Y-55072083D01*
X163665215Y-54869000D01*
X163646397Y-54665917D01*
X163590582Y-54469750D01*
X163499673Y-54287179D01*
X163376764Y-54124421D01*
X163226041Y-53987019D01*
X163052637Y-53879652D01*
X162862456Y-53805976D01*
X162862455Y-53805975D01*
X162862453Y-53805975D01*
X162661976Y-53768500D01*
X162458024Y-53768500D01*
X162257546Y-53805975D01*
X162208476Y-53824985D01*
X162067363Y-53879652D01*
X161953747Y-53950000D01*
X161893959Y-53987019D01*
X161743237Y-54124420D01*
X161620328Y-54287177D01*
X161620323Y-54287186D01*
X161529419Y-54469747D01*
X161529418Y-54469750D01*
X161473603Y-54665917D01*
X161454785Y-54869000D01*
X159854752Y-54869000D01*
X159855215Y-54864000D01*
X159836397Y-54660917D01*
X159780582Y-54464750D01*
X159689673Y-54282179D01*
X159566764Y-54119421D01*
X159416041Y-53982019D01*
X159242637Y-53874652D01*
X159052456Y-53800976D01*
X159052455Y-53800975D01*
X159052453Y-53800975D01*
X158851976Y-53763500D01*
X158648024Y-53763500D01*
X158447546Y-53800975D01*
X158434640Y-53805975D01*
X158257363Y-53874652D01*
X158209669Y-53904183D01*
X158083959Y-53982019D01*
X157933237Y-54119420D01*
X157810328Y-54282177D01*
X157810323Y-54282186D01*
X157725682Y-54452170D01*
X157719418Y-54464750D01*
X157663603Y-54660917D01*
X157644785Y-54864000D01*
X138072038Y-54864000D01*
X138102573Y-54833465D01*
X138156574Y-54727482D01*
X138175181Y-54610000D01*
X138156574Y-54492518D01*
X138156571Y-54492513D01*
X138156571Y-54492511D01*
X138102573Y-54386535D01*
X138101102Y-54384510D01*
X138100329Y-54382130D01*
X138099036Y-54379593D01*
X138099438Y-54379388D01*
X138082198Y-54326318D01*
X138087634Y-54309591D01*
X138053735Y-54314960D01*
X138024277Y-54305389D01*
X138018466Y-54302428D01*
X138018465Y-54302427D01*
X137912482Y-54248426D01*
X137795000Y-54229819D01*
X137677518Y-54248426D01*
X137677511Y-54248428D01*
X137571537Y-54302425D01*
X137487425Y-54386537D01*
X137433428Y-54492511D01*
X137433426Y-54492518D01*
X137414819Y-54609999D01*
X134175749Y-54609999D01*
X134066012Y-54437082D01*
X134066005Y-54437072D01*
X134060234Y-54430095D01*
X133076853Y-55413476D01*
X133020804Y-55303475D01*
X132919033Y-55163398D01*
X132796602Y-55040967D01*
X132656525Y-54939196D01*
X132546521Y-54883145D01*
X133526842Y-53902825D01*
X133395372Y-53807308D01*
X133395358Y-53807299D01*
X133125223Y-53658791D01*
X133125220Y-53658789D01*
X133039880Y-53625001D01*
X137982000Y-53625001D01*
X137982000Y-53768944D01*
X138008901Y-53904183D01*
X138061666Y-54031571D01*
X138138271Y-54146220D01*
X138139226Y-54147175D01*
X138139507Y-54147727D01*
X138141357Y-54149981D01*
X138140862Y-54150386D01*
X138167003Y-54201692D01*
X138162176Y-54232168D01*
X138211796Y-54232171D01*
X138236199Y-54244008D01*
X138307000Y-54291314D01*
X138307000Y-53625001D01*
X138306999Y-53625000D01*
X137982001Y-53625000D01*
X137982000Y-53625001D01*
X133039880Y-53625001D01*
X132838589Y-53545305D01*
X132539987Y-53468637D01*
X132234141Y-53430000D01*
X131925859Y-53430000D01*
X131620012Y-53468637D01*
X131321410Y-53545305D01*
X131034779Y-53658789D01*
X131034776Y-53658791D01*
X130764641Y-53807299D01*
X130764627Y-53807308D01*
X130633156Y-53902825D01*
X131613477Y-54883146D01*
X131503475Y-54939196D01*
X131363398Y-55040967D01*
X131240967Y-55163398D01*
X131139196Y-55303475D01*
X131083146Y-55413477D01*
X130099764Y-54430095D01*
X130093985Y-54437084D01*
X129928811Y-54697356D01*
X129928804Y-54697369D01*
X129797546Y-54976305D01*
X129702280Y-55269503D01*
X129702277Y-55269513D01*
X129644513Y-55572320D01*
X129625156Y-55880000D01*
X127500500Y-55880000D01*
X127500500Y-54802435D01*
X127500619Y-54797578D01*
X127504062Y-54727488D01*
X127517113Y-54461824D01*
X127518063Y-54452186D01*
X127567029Y-54122080D01*
X127568918Y-54112582D01*
X127650009Y-53788849D01*
X127652818Y-53779590D01*
X127765249Y-53465367D01*
X127768958Y-53456412D01*
X127911644Y-53154728D01*
X127916211Y-53146185D01*
X128087780Y-52859938D01*
X128093163Y-52851883D01*
X128182775Y-52731055D01*
X137982000Y-52731055D01*
X137982000Y-52874999D01*
X137982001Y-52875000D01*
X138306999Y-52875000D01*
X138307000Y-52874999D01*
X138307000Y-52810504D01*
X138382000Y-52810504D01*
X138382000Y-53689496D01*
X138402444Y-53765796D01*
X138441940Y-53834205D01*
X138497795Y-53890060D01*
X138566204Y-53929556D01*
X138642504Y-53950000D01*
X138721496Y-53950000D01*
X138797796Y-53929556D01*
X138866205Y-53890060D01*
X138922060Y-53834205D01*
X138961556Y-53765796D01*
X138982000Y-53689496D01*
X138982000Y-53625001D01*
X139057000Y-53625001D01*
X139057000Y-54291315D01*
X139128218Y-54243730D01*
X139225728Y-54146220D01*
X139302333Y-54031571D01*
X139355098Y-53904183D01*
X139381999Y-53768944D01*
X139382000Y-53768942D01*
X139382000Y-53625001D01*
X146622000Y-53625001D01*
X146622000Y-53768944D01*
X146648901Y-53904183D01*
X146701666Y-54031571D01*
X146778271Y-54146220D01*
X146875781Y-54243730D01*
X146946999Y-54291315D01*
X146947000Y-54291315D01*
X146947000Y-53625001D01*
X146946999Y-53625000D01*
X146622001Y-53625000D01*
X146622000Y-53625001D01*
X139382000Y-53625001D01*
X139381999Y-53625000D01*
X139057001Y-53625000D01*
X139057000Y-53625001D01*
X138982000Y-53625001D01*
X138982000Y-52874999D01*
X139057000Y-52874999D01*
X139057001Y-52875000D01*
X139381999Y-52875000D01*
X139382000Y-52874999D01*
X139382000Y-52731057D01*
X139381999Y-52731055D01*
X146622000Y-52731055D01*
X146622000Y-52874999D01*
X146622001Y-52875000D01*
X146946999Y-52875000D01*
X146947000Y-52874999D01*
X146947000Y-52810504D01*
X147022000Y-52810504D01*
X147022000Y-53689496D01*
X147042444Y-53765796D01*
X147081940Y-53834205D01*
X147137795Y-53890060D01*
X147206204Y-53929556D01*
X147282504Y-53950000D01*
X147361496Y-53950000D01*
X147437796Y-53929556D01*
X147506205Y-53890060D01*
X147562060Y-53834205D01*
X147601556Y-53765796D01*
X147622000Y-53689496D01*
X147622000Y-53625001D01*
X147697000Y-53625001D01*
X147697000Y-54291315D01*
X147768218Y-54243730D01*
X147865728Y-54146220D01*
X147942333Y-54031571D01*
X147995098Y-53904183D01*
X148021999Y-53768944D01*
X148022000Y-53768942D01*
X148022000Y-53625001D01*
X148021999Y-53625000D01*
X147697001Y-53625000D01*
X147697000Y-53625001D01*
X147622000Y-53625001D01*
X147622000Y-52874999D01*
X147697000Y-52874999D01*
X147697001Y-52875000D01*
X148021999Y-52875000D01*
X148022000Y-52874999D01*
X148022000Y-52731057D01*
X148021999Y-52731055D01*
X147995098Y-52595816D01*
X147942333Y-52468428D01*
X147865728Y-52353779D01*
X147768220Y-52256271D01*
X147697000Y-52208684D01*
X147697000Y-52874999D01*
X147622000Y-52874999D01*
X147622000Y-52810504D01*
X147601556Y-52734204D01*
X147562060Y-52665795D01*
X147506205Y-52609940D01*
X147437796Y-52570444D01*
X147361496Y-52550000D01*
X147282504Y-52550000D01*
X147206204Y-52570444D01*
X147137795Y-52609940D01*
X147081940Y-52665795D01*
X147042444Y-52734204D01*
X147022000Y-52810504D01*
X146947000Y-52810504D01*
X146947000Y-52208684D01*
X146946999Y-52208684D01*
X146875779Y-52256271D01*
X146778271Y-52353779D01*
X146701666Y-52468428D01*
X146648901Y-52595816D01*
X146622000Y-52731055D01*
X139381999Y-52731055D01*
X139355098Y-52595816D01*
X139302333Y-52468428D01*
X139225728Y-52353779D01*
X139128220Y-52256271D01*
X139057000Y-52208684D01*
X139057000Y-52874999D01*
X138982000Y-52874999D01*
X138982000Y-52810504D01*
X138961556Y-52734204D01*
X138922060Y-52665795D01*
X138866205Y-52609940D01*
X138797796Y-52570444D01*
X138721496Y-52550000D01*
X138642504Y-52550000D01*
X138566204Y-52570444D01*
X138497795Y-52609940D01*
X138441940Y-52665795D01*
X138402444Y-52734204D01*
X138382000Y-52810504D01*
X138307000Y-52810504D01*
X138307000Y-52208684D01*
X138306999Y-52208684D01*
X138235779Y-52256271D01*
X138138271Y-52353779D01*
X138061666Y-52468428D01*
X138008901Y-52595816D01*
X137982000Y-52731055D01*
X128182775Y-52731055D01*
X128291957Y-52583841D01*
X128298107Y-52576346D01*
X128522228Y-52329067D01*
X128529067Y-52322228D01*
X128776346Y-52098107D01*
X128783841Y-52091957D01*
X129051883Y-51893163D01*
X129059938Y-51887780D01*
X129346185Y-51716211D01*
X129354728Y-51711644D01*
X129656412Y-51568958D01*
X129665367Y-51565249D01*
X129979590Y-51452818D01*
X129988849Y-51450009D01*
X130312582Y-51368918D01*
X130322080Y-51367029D01*
X130652186Y-51318063D01*
X130661824Y-51317113D01*
X130970606Y-51301944D01*
X130997579Y-51300619D01*
X131002436Y-51300500D01*
X131065892Y-51300500D01*
X168654108Y-51300500D01*
X168717564Y-51300500D01*
X168722421Y-51300619D01*
G37*
G04 #@! TD.AperFunction*
M02*
