G04 #@! TF.GenerationSoftware,KiCad,Pcbnew,8.0.3*
G04 #@! TF.CreationDate,2024-06-17T15:15:03-04:00*
G04 #@! TF.ProjectId,node_v3_2,6e6f6465-5f76-4335-9f32-2e6b69636164,rev?*
G04 #@! TF.SameCoordinates,Original*
G04 #@! TF.FileFunction,Soldermask,Bot*
G04 #@! TF.FilePolarity,Negative*
%FSLAX46Y46*%
G04 Gerber Fmt 4.6, Leading zero omitted, Abs format (unit mm)*
G04 Created by KiCad (PCBNEW 8.0.3) date 2024-06-17 15:15:03*
%MOMM*%
%LPD*%
G01*
G04 APERTURE LIST*
G04 Aperture macros list*
%AMRoundRect*
0 Rectangle with rounded corners*
0 $1 Rounding radius*
0 $2 $3 $4 $5 $6 $7 $8 $9 X,Y pos of 4 corners*
0 Add a 4 corners polygon primitive as box body*
4,1,4,$2,$3,$4,$5,$6,$7,$8,$9,$2,$3,0*
0 Add four circle primitives for the rounded corners*
1,1,$1+$1,$2,$3*
1,1,$1+$1,$4,$5*
1,1,$1+$1,$6,$7*
1,1,$1+$1,$8,$9*
0 Add four rect primitives between the rounded corners*
20,1,$1+$1,$2,$3,$4,$5,0*
20,1,$1+$1,$4,$5,$6,$7,0*
20,1,$1+$1,$6,$7,$8,$9,0*
20,1,$1+$1,$8,$9,$2,$3,0*%
G04 Aperture macros list end*
%ADD10R,1.700000X1.700000*%
%ADD11O,1.700000X1.700000*%
%ADD12C,4.400000*%
%ADD13RoundRect,0.250000X-0.425000X-1.600000X0.425000X-1.600000X0.425000X1.600000X-0.425000X1.600000X0*%
%ADD14C,0.650000*%
%ADD15O,1.254000X2.304000*%
%ADD16O,1.104000X2.004000*%
%ADD17C,18.004000*%
%ADD18C,2.504000*%
%ADD19C,0.304800*%
%ADD20C,0.406400*%
%ADD21C,0.250000*%
%ADD22C,0.508000*%
G04 APERTURE END LIST*
D10*
X162560000Y-57409000D03*
D11*
X162560000Y-54869000D03*
D12*
X132080000Y-121920000D03*
D10*
X158750000Y-57404000D03*
D11*
X158750000Y-54864000D03*
D12*
X132080000Y-55880000D03*
D13*
X145319000Y-124464000D03*
X139669000Y-124464000D03*
D12*
X167640000Y-121920000D03*
X167640000Y-55880000D03*
D10*
X168148000Y-75438000D03*
D11*
X168148000Y-77978000D03*
X168148000Y-80518000D03*
X168148000Y-83058000D03*
X168148000Y-85598000D03*
X168148000Y-88138000D03*
X168148000Y-90678000D03*
X168148000Y-93218000D03*
X168148000Y-95758000D03*
X168148000Y-98298000D03*
X168148000Y-100838000D03*
X168148000Y-103378000D03*
X168148000Y-105918000D03*
X168148000Y-108458000D03*
X168148000Y-110998000D03*
X168148000Y-113538000D03*
D10*
X135890000Y-93472000D03*
D11*
X138430000Y-93472000D03*
X140970000Y-93472000D03*
D14*
X145892000Y-56930000D03*
X140112000Y-56930000D03*
D15*
X147322000Y-57430000D03*
X138682000Y-57430000D03*
D16*
X147322000Y-53250000D03*
X138682000Y-53250000D03*
D17*
X140208000Y-107696000D03*
D18*
X141708000Y-118096000D03*
X138608000Y-118096000D03*
X138608000Y-97296000D03*
X141708000Y-97296000D03*
D19*
X143002000Y-54864000D03*
D20*
X142240000Y-80264000D03*
X144272000Y-78486000D03*
D21*
X136000000Y-82000000D03*
D22*
X159004000Y-99568000D03*
D20*
X144272000Y-79502000D03*
D22*
X129540000Y-124460000D03*
D20*
X144272000Y-80264000D03*
D22*
X134620000Y-98298000D03*
D20*
X142240000Y-79502000D03*
D22*
X149352000Y-77216000D03*
X134112000Y-117094000D03*
X170180000Y-124460000D03*
D20*
X143256000Y-80264000D03*
D22*
X158242000Y-87376000D03*
X129540000Y-53086000D03*
D20*
X143256000Y-78486000D03*
D21*
X139700000Y-59055000D03*
X142000000Y-84500000D03*
D20*
X143256000Y-79502000D03*
X142240000Y-78486000D03*
D22*
X154686000Y-89662000D03*
X155194000Y-74422000D03*
D21*
X131000000Y-78000000D03*
D22*
X147574000Y-121412000D03*
X163830000Y-84582000D03*
D19*
X156464000Y-94234000D03*
D22*
X130302000Y-91948000D03*
X154940000Y-118110000D03*
X170180000Y-53340000D03*
D21*
X145000000Y-82000000D03*
X144500000Y-77000000D03*
D19*
X146000000Y-74500000D03*
D22*
X142000000Y-74025500D03*
X138500000Y-69000000D03*
X155500000Y-78000000D03*
X160500000Y-59500000D03*
D20*
X145500000Y-59500000D03*
X170000000Y-66000000D03*
X166000000Y-72000000D03*
D21*
X129500000Y-104500000D03*
X149000000Y-89000000D03*
X148500000Y-82500000D03*
D19*
X159000000Y-112500000D03*
D21*
X154000000Y-98000000D03*
D19*
X158000000Y-122500000D03*
D21*
X145677172Y-82033827D03*
D19*
X154519000Y-113500000D03*
D21*
X141500000Y-84000000D03*
X129500000Y-102000000D03*
D19*
X153000000Y-112500000D03*
X160000000Y-124000000D03*
X157500000Y-113000000D03*
D21*
X148500000Y-81000000D03*
X153000000Y-94000000D03*
D19*
X159000000Y-123500000D03*
D21*
X150658491Y-85151737D03*
X147500000Y-82500000D03*
X155500000Y-122000000D03*
X147500000Y-96774000D03*
X147500000Y-90000000D03*
X129500000Y-106500000D03*
X144000000Y-84500000D03*
X145000000Y-84500000D03*
X139000000Y-84000000D03*
X160000000Y-107000000D03*
X148000000Y-80000000D03*
X139000000Y-76000000D03*
X152500000Y-89500000D03*
X148750000Y-79750000D03*
X135000000Y-77000000D03*
X138297438Y-78500000D03*
X140000000Y-84000000D03*
X134000000Y-77500000D03*
X138500000Y-79500000D03*
X138603279Y-77896721D03*
X154000000Y-105500000D03*
X146000000Y-91440000D03*
X155500000Y-87500000D03*
X166500000Y-95000000D03*
X147500000Y-79500000D03*
X140000000Y-64000000D03*
X140000000Y-75000000D03*
X131500000Y-69000000D03*
X142000000Y-60000000D03*
X150000000Y-61000000D03*
X150611278Y-96361972D03*
X157000000Y-97000000D03*
X138000000Y-83000000D03*
X144402157Y-93980000D03*
X147500000Y-64500000D03*
X148000000Y-77000000D03*
X140715690Y-79277330D03*
X154500000Y-101500000D03*
X142000000Y-77000000D03*
X134000000Y-62500000D03*
X134000000Y-70500000D03*
X141359786Y-74877313D03*
X140676245Y-74953262D03*
X133000000Y-70500000D03*
X132500000Y-62500000D03*
X142725720Y-77249688D03*
X135500000Y-63000000D03*
X142000000Y-75000000D03*
X133000000Y-77500000D03*
X142000000Y-82000000D03*
X145500000Y-90500000D03*
X148000000Y-83500000D03*
X129500000Y-108500000D03*
X150000000Y-86500000D03*
X129500000Y-110500000D03*
X149000000Y-82000000D03*
X150000000Y-89500000D03*
D22*
X147000000Y-115000000D03*
X142500000Y-124500000D03*
D21*
X157000000Y-118000000D03*
X160500000Y-112500000D03*
X152500000Y-122500000D03*
X144248225Y-57688985D03*
X137795000Y-54610000D03*
M02*
