G04 #@! TF.GenerationSoftware,KiCad,Pcbnew,8.0.3*
G04 #@! TF.CreationDate,2024-06-17T15:15:02-04:00*
G04 #@! TF.ProjectId,node_v3_2,6e6f6465-5f76-4335-9f32-2e6b69636164,rev?*
G04 #@! TF.SameCoordinates,Original*
G04 #@! TF.FileFunction,Copper,L2,Inr*
G04 #@! TF.FilePolarity,Positive*
%FSLAX46Y46*%
G04 Gerber Fmt 4.6, Leading zero omitted, Abs format (unit mm)*
G04 Created by KiCad (PCBNEW 8.0.3) date 2024-06-17 15:15:02*
%MOMM*%
%LPD*%
G01*
G04 APERTURE LIST*
G04 #@! TA.AperFunction,ComponentPad*
%ADD10R,1.700000X1.700000*%
G04 #@! TD*
G04 #@! TA.AperFunction,ComponentPad*
%ADD11O,1.700000X1.700000*%
G04 #@! TD*
G04 #@! TA.AperFunction,ComponentPad*
%ADD12C,4.400000*%
G04 #@! TD*
G04 #@! TA.AperFunction,ComponentPad*
%ADD13O,1.050000X2.100000*%
G04 #@! TD*
G04 #@! TA.AperFunction,ComponentPad*
%ADD14O,0.900000X1.800000*%
G04 #@! TD*
G04 #@! TA.AperFunction,ComponentPad*
%ADD15C,2.300000*%
G04 #@! TD*
G04 #@! TA.AperFunction,ViaPad*
%ADD16C,0.304800*%
G04 #@! TD*
G04 #@! TA.AperFunction,ViaPad*
%ADD17C,0.406400*%
G04 #@! TD*
G04 #@! TA.AperFunction,ViaPad*
%ADD18C,0.250000*%
G04 #@! TD*
G04 #@! TA.AperFunction,ViaPad*
%ADD19C,0.508000*%
G04 #@! TD*
G04 #@! TA.AperFunction,Conductor*
%ADD20C,0.152400*%
G04 #@! TD*
G04 #@! TA.AperFunction,Conductor*
%ADD21C,0.254000*%
G04 #@! TD*
G04 #@! TA.AperFunction,Conductor*
%ADD22C,0.685800*%
G04 #@! TD*
G04 #@! TA.AperFunction,Conductor*
%ADD23C,0.203200*%
G04 #@! TD*
G04 #@! TA.AperFunction,Conductor*
%ADD24C,0.200000*%
G04 #@! TD*
G04 APERTURE END LIST*
D10*
X162560000Y-57409000D03*
D11*
X162560000Y-54869000D03*
D12*
X132080000Y-121920000D03*
D10*
X158750000Y-57404000D03*
D11*
X158750000Y-54864000D03*
D12*
X132080000Y-55880000D03*
X167640000Y-121920000D03*
X167640000Y-55880000D03*
D10*
X168148000Y-75438000D03*
D11*
X168148000Y-77978000D03*
X168148000Y-80518000D03*
X168148000Y-83058000D03*
X168148000Y-85598000D03*
X168148000Y-88138000D03*
X168148000Y-90678000D03*
X168148000Y-93218000D03*
X168148000Y-95758000D03*
X168148000Y-98298000D03*
X168148000Y-100838000D03*
X168148000Y-103378000D03*
X168148000Y-105918000D03*
X168148000Y-108458000D03*
X168148000Y-110998000D03*
X168148000Y-113538000D03*
D10*
X135890000Y-93472000D03*
D11*
X138430000Y-93472000D03*
X140970000Y-93472000D03*
D13*
X147322000Y-57430000D03*
X138682000Y-57430000D03*
D14*
X147322000Y-53250000D03*
X138682000Y-53250000D03*
D15*
X141708000Y-118096000D03*
X138608000Y-118096000D03*
X138608000Y-97296000D03*
X141708000Y-97296000D03*
D16*
X143002000Y-54864000D03*
D17*
X142240000Y-80264000D03*
X144272000Y-78486000D03*
D18*
X136000000Y-82000000D03*
D19*
X159004000Y-99568000D03*
D17*
X144272000Y-79502000D03*
D19*
X129540000Y-124460000D03*
D17*
X144272000Y-80264000D03*
D19*
X134620000Y-98298000D03*
D17*
X142240000Y-79502000D03*
D19*
X149352000Y-77216000D03*
X134112000Y-117094000D03*
X170180000Y-124460000D03*
D17*
X143256000Y-80264000D03*
D19*
X158242000Y-87376000D03*
X129540000Y-53086000D03*
D17*
X143256000Y-78486000D03*
D18*
X139700000Y-59055000D03*
X142000000Y-84500000D03*
D17*
X143256000Y-79502000D03*
X142240000Y-78486000D03*
D19*
X154686000Y-89662000D03*
X155194000Y-74422000D03*
D18*
X131000000Y-78000000D03*
D19*
X147574000Y-121412000D03*
X163830000Y-84582000D03*
D16*
X156464000Y-94234000D03*
D19*
X130302000Y-91948000D03*
X154940000Y-118110000D03*
X170180000Y-53340000D03*
D18*
X145000000Y-82000000D03*
X144500000Y-77000000D03*
D16*
X146000000Y-74500000D03*
D19*
X142000000Y-74025500D03*
X138500000Y-69000000D03*
X155500000Y-78000000D03*
X160500000Y-59500000D03*
D17*
X145500000Y-59500000D03*
X170000000Y-66000000D03*
X166000000Y-72000000D03*
D18*
X129500000Y-104500000D03*
X149000000Y-89000000D03*
X148500000Y-82500000D03*
D16*
X159000000Y-112500000D03*
D18*
X154000000Y-98000000D03*
D16*
X158000000Y-122500000D03*
D18*
X145677172Y-82033827D03*
D16*
X154519000Y-113500000D03*
D18*
X141500000Y-84000000D03*
X129500000Y-102000000D03*
D16*
X153000000Y-112500000D03*
X160000000Y-124000000D03*
X157500000Y-113000000D03*
D18*
X148500000Y-81000000D03*
X153000000Y-94000000D03*
D16*
X159000000Y-123500000D03*
D18*
X150658491Y-85151737D03*
X147500000Y-82500000D03*
X155500000Y-122000000D03*
X147500000Y-96774000D03*
X147500000Y-90000000D03*
X129500000Y-106500000D03*
X144000000Y-84500000D03*
X145000000Y-84500000D03*
X139000000Y-84000000D03*
X160000000Y-107000000D03*
X148000000Y-80000000D03*
X139000000Y-76000000D03*
X152500000Y-89500000D03*
X148750000Y-79750000D03*
X135000000Y-77000000D03*
X138297438Y-78500000D03*
X140000000Y-84000000D03*
X134000000Y-77500000D03*
X138500000Y-79500000D03*
X138603279Y-77896721D03*
X154000000Y-105500000D03*
X146000000Y-91440000D03*
X155500000Y-87500000D03*
X166500000Y-95000000D03*
X147500000Y-79500000D03*
X140000000Y-64000000D03*
X140000000Y-75000000D03*
X131500000Y-69000000D03*
X142000000Y-60000000D03*
X150000000Y-61000000D03*
X150611278Y-96361972D03*
X157000000Y-97000000D03*
X138000000Y-83000000D03*
X144402157Y-93980000D03*
X147500000Y-64500000D03*
X148000000Y-77000000D03*
X140715690Y-79277330D03*
X154500000Y-101500000D03*
X142000000Y-77000000D03*
X134000000Y-62500000D03*
X134000000Y-70500000D03*
X141359786Y-74877313D03*
X140676245Y-74953262D03*
X133000000Y-70500000D03*
X132500000Y-62500000D03*
X142725720Y-77249688D03*
X135500000Y-63000000D03*
X142000000Y-75000000D03*
X133000000Y-77500000D03*
X142000000Y-82000000D03*
X145500000Y-90500000D03*
X148000000Y-83500000D03*
X129500000Y-108500000D03*
X150000000Y-86500000D03*
X129500000Y-110500000D03*
X149000000Y-82000000D03*
X150000000Y-89500000D03*
D19*
X147000000Y-115000000D03*
X142500000Y-124500000D03*
D18*
X157000000Y-118000000D03*
X160500000Y-112500000D03*
X152500000Y-122500000D03*
X144248225Y-57688985D03*
X137795000Y-54610000D03*
D20*
X149000000Y-93000000D02*
X149000000Y-89000000D01*
X154000000Y-98000000D02*
X149000000Y-93000000D01*
D21*
X129000000Y-102500000D02*
X129500000Y-102000000D01*
X130500000Y-113500000D02*
X129000000Y-112000000D01*
D20*
X141500000Y-84000000D02*
X129500000Y-96000000D01*
X129500000Y-96000000D02*
X129500000Y-102000000D01*
D21*
X129000000Y-112000000D02*
X129000000Y-102500000D01*
X154519000Y-113500000D02*
X130500000Y-113500000D01*
X155000000Y-112500000D02*
X156000000Y-113500000D01*
X160000000Y-123000000D02*
X160000000Y-124000000D01*
X156000000Y-113500000D02*
X156000000Y-119000000D01*
X153000000Y-112500000D02*
X155000000Y-112500000D01*
X156000000Y-119000000D02*
X160000000Y-123000000D01*
D20*
X150658491Y-85151737D02*
X150658491Y-85118688D01*
X148500000Y-81000000D02*
X148573040Y-81000000D01*
X148573040Y-81000000D02*
X150658491Y-83085451D01*
X150658491Y-83085451D02*
X150658491Y-85151737D01*
X166538000Y-113538000D02*
X168148000Y-113538000D01*
X160000000Y-107000000D02*
X166538000Y-113538000D01*
X153484960Y-83058000D02*
X168148000Y-83058000D01*
X146426960Y-76000000D02*
X153484960Y-83058000D01*
X139000000Y-76000000D02*
X146426960Y-76000000D01*
X168148000Y-103378000D02*
X164878000Y-103378000D01*
X152500000Y-91000000D02*
X152500000Y-89500000D01*
X153250000Y-91750000D02*
X152500000Y-91000000D01*
X164878000Y-103378000D02*
X153250000Y-91750000D01*
X168148000Y-88138000D02*
X147638000Y-88138000D01*
X140073040Y-79500000D02*
X138500000Y-79500000D01*
X147638000Y-88138000D02*
X144405200Y-84905200D01*
X144405200Y-83832160D02*
X140073040Y-79500000D01*
X144405200Y-84905200D02*
X144405200Y-83832160D01*
X138603279Y-77896721D02*
X138706558Y-78000000D01*
X155526592Y-85598000D02*
X168148000Y-85598000D01*
X147928592Y-78000000D02*
X155526592Y-85598000D01*
X138706558Y-78000000D02*
X147928592Y-78000000D01*
X146000000Y-97500000D02*
X154000000Y-105500000D01*
X146000000Y-91440000D02*
X146000000Y-97500000D01*
X147000000Y-80000000D02*
X147000000Y-84500000D01*
X149500000Y-87000000D02*
X155000000Y-87000000D01*
X147000000Y-84500000D02*
X149500000Y-87000000D01*
X155000000Y-87000000D02*
X155500000Y-87500000D01*
X147500000Y-79500000D02*
X147000000Y-80000000D01*
X140000000Y-75000000D02*
X136500000Y-75000000D01*
X136500000Y-75000000D02*
X131500000Y-70000000D01*
X131500000Y-70000000D02*
X131500000Y-69000000D01*
X143000000Y-84000000D02*
X142000000Y-83000000D01*
X144402157Y-93980000D02*
X143000000Y-92577843D01*
X142000000Y-83000000D02*
X138000000Y-83000000D01*
X143000000Y-92577843D02*
X143000000Y-84000000D01*
X148000000Y-65000000D02*
X147500000Y-64500000D01*
X148000000Y-77000000D02*
X148000000Y-65000000D01*
X137500000Y-74000000D02*
X134000000Y-70500000D01*
X141359786Y-74859786D02*
X140500000Y-74000000D01*
X140000000Y-74000000D02*
X137500000Y-74000000D01*
X140500000Y-74000000D02*
X140000000Y-74000000D01*
X141359786Y-74877313D02*
X141359786Y-74859786D01*
X140676245Y-74953262D02*
X140222983Y-74500000D01*
X137000000Y-74500000D02*
X133000000Y-70500000D01*
X138000000Y-74500000D02*
X137000000Y-74500000D01*
X140222983Y-74500000D02*
X138000000Y-74500000D01*
X142000000Y-75000000D02*
X142000000Y-74944487D01*
X135500000Y-70000000D02*
X135500000Y-69500000D01*
X137500000Y-73000000D02*
X135500000Y-71000000D01*
X138000000Y-73500000D02*
X137500000Y-73000000D01*
X140555513Y-73500000D02*
X138000000Y-73500000D01*
X135500000Y-69500000D02*
X135500000Y-63000000D01*
X142000000Y-74944487D02*
X140555513Y-73500000D01*
X135500000Y-71000000D02*
X135500000Y-70000000D01*
X133000000Y-77500000D02*
X137500000Y-82000000D01*
X137500000Y-82000000D02*
X142000000Y-82000000D01*
X132520952Y-108500000D02*
X129500000Y-108500000D01*
X145500000Y-90500000D02*
X145500000Y-95520952D01*
X145500000Y-95520952D02*
X132520952Y-108500000D01*
D22*
X142500000Y-121500000D02*
X147000000Y-117000000D01*
X142500000Y-124500000D02*
X142500000Y-121500000D01*
X147000000Y-117000000D02*
X147000000Y-115000000D01*
D23*
X160500000Y-114500000D02*
X157000000Y-118000000D01*
X160500000Y-112500000D02*
X160500000Y-114500000D01*
D24*
X138504600Y-55319600D02*
X137795000Y-54610000D01*
X144248225Y-57688985D02*
X144248225Y-56618225D01*
X142875000Y-55319600D02*
X138504600Y-55319600D01*
X142949600Y-55319600D02*
X142875000Y-55319600D01*
X144248225Y-56618225D02*
X142949600Y-55319600D01*
M02*
