G04 #@! TF.GenerationSoftware,KiCad,Pcbnew,8.0.3*
G04 #@! TF.CreationDate,2024-06-17T15:15:03-04:00*
G04 #@! TF.ProjectId,node_v3_2,6e6f6465-5f76-4335-9f32-2e6b69636164,rev?*
G04 #@! TF.SameCoordinates,Original*
G04 #@! TF.FileFunction,Legend,Top*
G04 #@! TF.FilePolarity,Positive*
%FSLAX46Y46*%
G04 Gerber Fmt 4.6, Leading zero omitted, Abs format (unit mm)*
G04 Created by KiCad (PCBNEW 8.0.3) date 2024-06-17 15:15:03*
%MOMM*%
%LPD*%
G01*
G04 APERTURE LIST*
G04 Aperture macros list*
%AMRoundRect*
0 Rectangle with rounded corners*
0 $1 Rounding radius*
0 $2 $3 $4 $5 $6 $7 $8 $9 X,Y pos of 4 corners*
0 Add a 4 corners polygon primitive as box body*
4,1,4,$2,$3,$4,$5,$6,$7,$8,$9,$2,$3,0*
0 Add four circle primitives for the rounded corners*
1,1,$1+$1,$2,$3*
1,1,$1+$1,$4,$5*
1,1,$1+$1,$6,$7*
1,1,$1+$1,$8,$9*
0 Add four rect primitives between the rounded corners*
20,1,$1+$1,$2,$3,$4,$5,0*
20,1,$1+$1,$4,$5,$6,$7,0*
20,1,$1+$1,$6,$7,$8,$9,0*
20,1,$1+$1,$8,$9,$2,$3,0*%
G04 Aperture macros list end*
%ADD10C,0.100000*%
%ADD11C,0.200000*%
%ADD12C,0.150000*%
%ADD13C,0.152400*%
%ADD14C,0.120000*%
%ADD15C,0.127000*%
%ADD16RoundRect,0.102000X0.635000X0.279400X-0.635000X0.279400X-0.635000X-0.279400X0.635000X-0.279400X0*%
%ADD17R,1.700000X1.700000*%
%ADD18O,1.700000X1.700000*%
%ADD19RoundRect,0.250000X0.350000X0.450000X-0.350000X0.450000X-0.350000X-0.450000X0.350000X-0.450000X0*%
%ADD20RoundRect,0.140000X-0.170000X0.140000X-0.170000X-0.140000X0.170000X-0.140000X0.170000X0.140000X0*%
%ADD21RoundRect,0.250000X-0.450000X0.350000X-0.450000X-0.350000X0.450000X-0.350000X0.450000X0.350000X0*%
%ADD22RoundRect,0.250000X0.475000X-0.337500X0.475000X0.337500X-0.475000X0.337500X-0.475000X-0.337500X0*%
%ADD23RoundRect,0.150000X0.512500X0.150000X-0.512500X0.150000X-0.512500X-0.150000X0.512500X-0.150000X0*%
%ADD24RoundRect,0.155000X0.155000X-0.212500X0.155000X0.212500X-0.155000X0.212500X-0.155000X-0.212500X0*%
%ADD25RoundRect,0.050000X-0.387500X-0.050000X0.387500X-0.050000X0.387500X0.050000X-0.387500X0.050000X0*%
%ADD26RoundRect,0.050000X-0.050000X-0.387500X0.050000X-0.387500X0.050000X0.387500X-0.050000X0.387500X0*%
%ADD27R,3.200000X3.200000*%
%ADD28RoundRect,0.250000X-0.475000X0.337500X-0.475000X-0.337500X0.475000X-0.337500X0.475000X0.337500X0*%
%ADD29RoundRect,0.150000X0.150000X-0.825000X0.150000X0.825000X-0.150000X0.825000X-0.150000X-0.825000X0*%
%ADD30C,4.400000*%
%ADD31RoundRect,0.150000X-0.512500X-0.150000X0.512500X-0.150000X0.512500X0.150000X-0.512500X0.150000X0*%
%ADD32RoundRect,0.250000X-0.385000X-1.350000X0.385000X-1.350000X0.385000X1.350000X-0.385000X1.350000X0*%
%ADD33RoundRect,0.250000X-0.425000X-1.600000X0.425000X-1.600000X0.425000X1.600000X-0.425000X1.600000X0*%
%ADD34R,0.558800X0.952500*%
%ADD35RoundRect,0.250000X-0.350000X-0.450000X0.350000X-0.450000X0.350000X0.450000X-0.350000X0.450000X0*%
%ADD36RoundRect,0.237500X-0.237500X0.300000X-0.237500X-0.300000X0.237500X-0.300000X0.237500X0.300000X0*%
%ADD37RoundRect,0.250001X0.462499X0.624999X-0.462499X0.624999X-0.462499X-0.624999X0.462499X-0.624999X0*%
%ADD38R,0.850000X1.100000*%
%ADD39R,0.750000X1.100000*%
%ADD40R,1.200000X1.000000*%
%ADD41R,1.550000X1.350000*%
%ADD42R,1.900000X1.350000*%
%ADD43R,1.170000X1.800000*%
%ADD44RoundRect,0.317500X-1.157500X-0.317500X1.157500X-0.317500X1.157500X0.317500X-1.157500X0.317500X0*%
%ADD45RoundRect,0.250000X0.337500X0.475000X-0.337500X0.475000X-0.337500X-0.475000X0.337500X-0.475000X0*%
%ADD46C,0.650000*%
%ADD47RoundRect,0.102000X0.300000X0.570000X-0.300000X0.570000X-0.300000X-0.570000X0.300000X-0.570000X0*%
%ADD48RoundRect,0.102000X0.150000X0.570000X-0.150000X0.570000X-0.150000X-0.570000X0.150000X-0.570000X0*%
%ADD49O,1.254000X2.304000*%
%ADD50O,1.104000X2.004000*%
%ADD51RoundRect,0.250001X0.849999X-0.462499X0.849999X0.462499X-0.849999X0.462499X-0.849999X-0.462499X0*%
%ADD52RoundRect,0.250000X0.450000X-0.350000X0.450000X0.350000X-0.450000X0.350000X-0.450000X-0.350000X0*%
%ADD53RoundRect,0.150000X0.150000X-0.650000X0.150000X0.650000X-0.150000X0.650000X-0.150000X-0.650000X0*%
%ADD54RoundRect,0.250000X-0.337500X-0.475000X0.337500X-0.475000X0.337500X0.475000X-0.337500X0.475000X0*%
%ADD55RoundRect,0.270000X-0.630000X-0.930000X0.630000X-0.930000X0.630000X0.930000X-0.630000X0.930000X0*%
%ADD56RoundRect,0.155000X0.212500X0.155000X-0.212500X0.155000X-0.212500X-0.155000X0.212500X-0.155000X0*%
%ADD57RoundRect,0.155000X-0.212500X-0.155000X0.212500X-0.155000X0.212500X0.155000X-0.212500X0.155000X0*%
%ADD58R,1.168400X1.600200*%
%ADD59C,2.504000*%
%ADD60C,0.304800*%
%ADD61C,0.406400*%
%ADD62C,0.250000*%
%ADD63C,0.508000*%
G04 APERTURE END LIST*
D10*
X156718000Y-60452000D02*
X169926000Y-60452000D01*
X169926000Y-72644000D01*
X156718000Y-72644000D01*
X156718000Y-60452000D01*
X163068000Y-67843400D02*
X163322000Y-68072000D01*
X151913500Y-75438000D02*
X165121500Y-75438000D01*
X165121500Y-86360000D01*
X151913500Y-86360000D01*
X151913500Y-75438000D01*
X135128000Y-102108000D02*
X139700000Y-102108000D01*
X139700000Y-106172000D01*
X135128000Y-106172000D01*
X135128000Y-102108000D01*
X163322000Y-68072000D02*
X162814000Y-68072000D01*
X162814000Y-68072000D02*
X163068000Y-67843400D01*
X151881000Y-88392000D02*
X164835000Y-88392000D01*
X164835000Y-97282000D01*
X151881000Y-97282000D01*
X151881000Y-88392000D01*
X128920419Y-67502853D02*
X129920419Y-67264758D01*
X129920419Y-67264758D02*
X129206133Y-67074282D01*
X129206133Y-67074282D02*
X129920419Y-66883806D01*
X129920419Y-66883806D02*
X128920419Y-66645711D01*
X129015657Y-66312377D02*
X128968038Y-66264758D01*
X128968038Y-66264758D02*
X128920419Y-66169520D01*
X128920419Y-66169520D02*
X128920419Y-65931425D01*
X128920419Y-65931425D02*
X128968038Y-65836187D01*
X128968038Y-65836187D02*
X129015657Y-65788568D01*
X129015657Y-65788568D02*
X129110895Y-65740949D01*
X129110895Y-65740949D02*
X129206133Y-65740949D01*
X129206133Y-65740949D02*
X129348990Y-65788568D01*
X129348990Y-65788568D02*
X129920419Y-66359996D01*
X129920419Y-66359996D02*
X129920419Y-65740949D01*
X128920419Y-64836187D02*
X128920419Y-65312377D01*
X128920419Y-65312377D02*
X129396609Y-65359996D01*
X129396609Y-65359996D02*
X129348990Y-65312377D01*
X129348990Y-65312377D02*
X129301371Y-65217139D01*
X129301371Y-65217139D02*
X129301371Y-64979044D01*
X129301371Y-64979044D02*
X129348990Y-64883806D01*
X129348990Y-64883806D02*
X129396609Y-64836187D01*
X129396609Y-64836187D02*
X129491847Y-64788568D01*
X129491847Y-64788568D02*
X129729942Y-64788568D01*
X129729942Y-64788568D02*
X129825180Y-64836187D01*
X129825180Y-64836187D02*
X129872800Y-64883806D01*
X129872800Y-64883806D02*
X129920419Y-64979044D01*
X129920419Y-64979044D02*
X129920419Y-65217139D01*
X129920419Y-65217139D02*
X129872800Y-65312377D01*
X129872800Y-65312377D02*
X129825180Y-65359996D01*
X130015657Y-63693330D02*
X129968038Y-63788568D01*
X129968038Y-63788568D02*
X129872800Y-63883806D01*
X129872800Y-63883806D02*
X129729942Y-64026663D01*
X129729942Y-64026663D02*
X129682323Y-64121901D01*
X129682323Y-64121901D02*
X129682323Y-64217139D01*
X129920419Y-64169520D02*
X129872800Y-64264758D01*
X129872800Y-64264758D02*
X129777561Y-64359996D01*
X129777561Y-64359996D02*
X129587085Y-64407615D01*
X129587085Y-64407615D02*
X129253752Y-64407615D01*
X129253752Y-64407615D02*
X129063276Y-64359996D01*
X129063276Y-64359996D02*
X128968038Y-64264758D01*
X128968038Y-64264758D02*
X128920419Y-64169520D01*
X128920419Y-64169520D02*
X128920419Y-63979044D01*
X128920419Y-63979044D02*
X128968038Y-63883806D01*
X128968038Y-63883806D02*
X129063276Y-63788568D01*
X129063276Y-63788568D02*
X129253752Y-63740949D01*
X129253752Y-63740949D02*
X129587085Y-63740949D01*
X129587085Y-63740949D02*
X129777561Y-63788568D01*
X129777561Y-63788568D02*
X129872800Y-63883806D01*
X129872800Y-63883806D02*
X129920419Y-63979044D01*
X129920419Y-63979044D02*
X129920419Y-64169520D01*
X129920419Y-62788568D02*
X129920419Y-63359996D01*
X129920419Y-63074282D02*
X128920419Y-63074282D01*
X128920419Y-63074282D02*
X129063276Y-63169520D01*
X129063276Y-63169520D02*
X129158514Y-63264758D01*
X129158514Y-63264758D02*
X129206133Y-63359996D01*
X129015657Y-62407615D02*
X128968038Y-62359996D01*
X128968038Y-62359996D02*
X128920419Y-62264758D01*
X128920419Y-62264758D02*
X128920419Y-62026663D01*
X128920419Y-62026663D02*
X128968038Y-61931425D01*
X128968038Y-61931425D02*
X129015657Y-61883806D01*
X129015657Y-61883806D02*
X129110895Y-61836187D01*
X129110895Y-61836187D02*
X129206133Y-61836187D01*
X129206133Y-61836187D02*
X129348990Y-61883806D01*
X129348990Y-61883806D02*
X129920419Y-62455234D01*
X129920419Y-62455234D02*
X129920419Y-61836187D01*
X129348990Y-61264758D02*
X129301371Y-61359996D01*
X129301371Y-61359996D02*
X129253752Y-61407615D01*
X129253752Y-61407615D02*
X129158514Y-61455234D01*
X129158514Y-61455234D02*
X129110895Y-61455234D01*
X129110895Y-61455234D02*
X129015657Y-61407615D01*
X129015657Y-61407615D02*
X128968038Y-61359996D01*
X128968038Y-61359996D02*
X128920419Y-61264758D01*
X128920419Y-61264758D02*
X128920419Y-61074282D01*
X128920419Y-61074282D02*
X128968038Y-60979044D01*
X128968038Y-60979044D02*
X129015657Y-60931425D01*
X129015657Y-60931425D02*
X129110895Y-60883806D01*
X129110895Y-60883806D02*
X129158514Y-60883806D01*
X129158514Y-60883806D02*
X129253752Y-60931425D01*
X129253752Y-60931425D02*
X129301371Y-60979044D01*
X129301371Y-60979044D02*
X129348990Y-61074282D01*
X129348990Y-61074282D02*
X129348990Y-61264758D01*
X129348990Y-61264758D02*
X129396609Y-61359996D01*
X129396609Y-61359996D02*
X129444228Y-61407615D01*
X129444228Y-61407615D02*
X129539466Y-61455234D01*
X129539466Y-61455234D02*
X129729942Y-61455234D01*
X129729942Y-61455234D02*
X129825180Y-61407615D01*
X129825180Y-61407615D02*
X129872800Y-61359996D01*
X129872800Y-61359996D02*
X129920419Y-61264758D01*
X129920419Y-61264758D02*
X129920419Y-61074282D01*
X129920419Y-61074282D02*
X129872800Y-60979044D01*
X129872800Y-60979044D02*
X129825180Y-60931425D01*
X129825180Y-60931425D02*
X129729942Y-60883806D01*
X129729942Y-60883806D02*
X129539466Y-60883806D01*
X129539466Y-60883806D02*
X129444228Y-60931425D01*
X129444228Y-60931425D02*
X129396609Y-60979044D01*
X129396609Y-60979044D02*
X129348990Y-61074282D01*
X141734265Y-70087657D02*
X141781884Y-70040038D01*
X141781884Y-70040038D02*
X141877122Y-69992419D01*
X141877122Y-69992419D02*
X142115217Y-69992419D01*
X142115217Y-69992419D02*
X142210455Y-70040038D01*
X142210455Y-70040038D02*
X142258074Y-70087657D01*
X142258074Y-70087657D02*
X142305693Y-70182895D01*
X142305693Y-70182895D02*
X142305693Y-70278133D01*
X142305693Y-70278133D02*
X142258074Y-70420990D01*
X142258074Y-70420990D02*
X141686646Y-70992419D01*
X141686646Y-70992419D02*
X142305693Y-70992419D01*
X142639027Y-69992419D02*
X143305693Y-69992419D01*
X143305693Y-69992419D02*
X142877122Y-70992419D01*
X143686646Y-70897180D02*
X143734265Y-70944800D01*
X143734265Y-70944800D02*
X143686646Y-70992419D01*
X143686646Y-70992419D02*
X143639027Y-70944800D01*
X143639027Y-70944800D02*
X143686646Y-70897180D01*
X143686646Y-70897180D02*
X143686646Y-70992419D01*
X144591407Y-70325752D02*
X144591407Y-70992419D01*
X144353312Y-69944800D02*
X144115217Y-70659085D01*
X144115217Y-70659085D02*
X144734264Y-70659085D01*
X161863693Y-78866419D02*
X161292265Y-78866419D01*
X161577979Y-78866419D02*
X161577979Y-77866419D01*
X161577979Y-77866419D02*
X161482741Y-78009276D01*
X161482741Y-78009276D02*
X161387503Y-78104514D01*
X161387503Y-78104514D02*
X161292265Y-78152133D01*
X162482741Y-77866419D02*
X162577979Y-77866419D01*
X162577979Y-77866419D02*
X162673217Y-77914038D01*
X162673217Y-77914038D02*
X162720836Y-77961657D01*
X162720836Y-77961657D02*
X162768455Y-78056895D01*
X162768455Y-78056895D02*
X162816074Y-78247371D01*
X162816074Y-78247371D02*
X162816074Y-78485466D01*
X162816074Y-78485466D02*
X162768455Y-78675942D01*
X162768455Y-78675942D02*
X162720836Y-78771180D01*
X162720836Y-78771180D02*
X162673217Y-78818800D01*
X162673217Y-78818800D02*
X162577979Y-78866419D01*
X162577979Y-78866419D02*
X162482741Y-78866419D01*
X162482741Y-78866419D02*
X162387503Y-78818800D01*
X162387503Y-78818800D02*
X162339884Y-78771180D01*
X162339884Y-78771180D02*
X162292265Y-78675942D01*
X162292265Y-78675942D02*
X162244646Y-78485466D01*
X162244646Y-78485466D02*
X162244646Y-78247371D01*
X162244646Y-78247371D02*
X162292265Y-78056895D01*
X162292265Y-78056895D02*
X162339884Y-77961657D01*
X162339884Y-77961657D02*
X162387503Y-77914038D01*
X162387503Y-77914038D02*
X162482741Y-77866419D01*
X163673217Y-78199752D02*
X163673217Y-78866419D01*
X163244646Y-78199752D02*
X163244646Y-78723561D01*
X163244646Y-78723561D02*
X163292265Y-78818800D01*
X163292265Y-78818800D02*
X163387503Y-78866419D01*
X163387503Y-78866419D02*
X163530360Y-78866419D01*
X163530360Y-78866419D02*
X163625598Y-78818800D01*
X163625598Y-78818800D02*
X163673217Y-78771180D01*
X164482741Y-78342609D02*
X164149408Y-78342609D01*
X164149408Y-78866419D02*
X164149408Y-77866419D01*
X164149408Y-77866419D02*
X164625598Y-77866419D01*
X134606360Y-70246419D02*
X134701598Y-70246419D01*
X134701598Y-70246419D02*
X134796836Y-70294038D01*
X134796836Y-70294038D02*
X134844455Y-70341657D01*
X134844455Y-70341657D02*
X134892074Y-70436895D01*
X134892074Y-70436895D02*
X134939693Y-70627371D01*
X134939693Y-70627371D02*
X134939693Y-70865466D01*
X134939693Y-70865466D02*
X134892074Y-71055942D01*
X134892074Y-71055942D02*
X134844455Y-71151180D01*
X134844455Y-71151180D02*
X134796836Y-71198800D01*
X134796836Y-71198800D02*
X134701598Y-71246419D01*
X134701598Y-71246419D02*
X134606360Y-71246419D01*
X134606360Y-71246419D02*
X134511122Y-71198800D01*
X134511122Y-71198800D02*
X134463503Y-71151180D01*
X134463503Y-71151180D02*
X134415884Y-71055942D01*
X134415884Y-71055942D02*
X134368265Y-70865466D01*
X134368265Y-70865466D02*
X134368265Y-70627371D01*
X134368265Y-70627371D02*
X134415884Y-70436895D01*
X134415884Y-70436895D02*
X134463503Y-70341657D01*
X134463503Y-70341657D02*
X134511122Y-70294038D01*
X134511122Y-70294038D02*
X134606360Y-70246419D01*
X135368265Y-71151180D02*
X135415884Y-71198800D01*
X135415884Y-71198800D02*
X135368265Y-71246419D01*
X135368265Y-71246419D02*
X135320646Y-71198800D01*
X135320646Y-71198800D02*
X135368265Y-71151180D01*
X135368265Y-71151180D02*
X135368265Y-71246419D01*
X136368264Y-71246419D02*
X135796836Y-71246419D01*
X136082550Y-71246419D02*
X136082550Y-70246419D01*
X136082550Y-70246419D02*
X135987312Y-70389276D01*
X135987312Y-70389276D02*
X135892074Y-70484514D01*
X135892074Y-70484514D02*
X135796836Y-70532133D01*
X137225407Y-70579752D02*
X137225407Y-71246419D01*
X136796836Y-70579752D02*
X136796836Y-71103561D01*
X136796836Y-71103561D02*
X136844455Y-71198800D01*
X136844455Y-71198800D02*
X136939693Y-71246419D01*
X136939693Y-71246419D02*
X137082550Y-71246419D01*
X137082550Y-71246419D02*
X137177788Y-71198800D01*
X137177788Y-71198800D02*
X137225407Y-71151180D01*
X146877693Y-90677419D02*
X146306265Y-90677419D01*
X146591979Y-90677419D02*
X146591979Y-89677419D01*
X146591979Y-89677419D02*
X146496741Y-89820276D01*
X146496741Y-89820276D02*
X146401503Y-89915514D01*
X146401503Y-89915514D02*
X146306265Y-89963133D01*
X147782455Y-89677419D02*
X147306265Y-89677419D01*
X147306265Y-89677419D02*
X147258646Y-90153609D01*
X147258646Y-90153609D02*
X147306265Y-90105990D01*
X147306265Y-90105990D02*
X147401503Y-90058371D01*
X147401503Y-90058371D02*
X147639598Y-90058371D01*
X147639598Y-90058371D02*
X147734836Y-90105990D01*
X147734836Y-90105990D02*
X147782455Y-90153609D01*
X147782455Y-90153609D02*
X147830074Y-90248847D01*
X147830074Y-90248847D02*
X147830074Y-90486942D01*
X147830074Y-90486942D02*
X147782455Y-90582180D01*
X147782455Y-90582180D02*
X147734836Y-90629800D01*
X147734836Y-90629800D02*
X147639598Y-90677419D01*
X147639598Y-90677419D02*
X147401503Y-90677419D01*
X147401503Y-90677419D02*
X147306265Y-90629800D01*
X147306265Y-90629800D02*
X147258646Y-90582180D01*
X148258646Y-90010752D02*
X148258646Y-91010752D01*
X148258646Y-90058371D02*
X148353884Y-90010752D01*
X148353884Y-90010752D02*
X148544360Y-90010752D01*
X148544360Y-90010752D02*
X148639598Y-90058371D01*
X148639598Y-90058371D02*
X148687217Y-90105990D01*
X148687217Y-90105990D02*
X148734836Y-90201228D01*
X148734836Y-90201228D02*
X148734836Y-90486942D01*
X148734836Y-90486942D02*
X148687217Y-90582180D01*
X148687217Y-90582180D02*
X148639598Y-90629800D01*
X148639598Y-90629800D02*
X148544360Y-90677419D01*
X148544360Y-90677419D02*
X148353884Y-90677419D01*
X148353884Y-90677419D02*
X148258646Y-90629800D01*
X170077122Y-75611214D02*
X170010455Y-75573357D01*
X170010455Y-75573357D02*
X169910455Y-75573357D01*
X169910455Y-75573357D02*
X169810455Y-75611214D01*
X169810455Y-75611214D02*
X169743789Y-75686928D01*
X169743789Y-75686928D02*
X169710455Y-75762642D01*
X169710455Y-75762642D02*
X169677122Y-75914071D01*
X169677122Y-75914071D02*
X169677122Y-76027642D01*
X169677122Y-76027642D02*
X169710455Y-76179071D01*
X169710455Y-76179071D02*
X169743789Y-76254785D01*
X169743789Y-76254785D02*
X169810455Y-76330500D01*
X169810455Y-76330500D02*
X169910455Y-76368357D01*
X169910455Y-76368357D02*
X169977122Y-76368357D01*
X169977122Y-76368357D02*
X170077122Y-76330500D01*
X170077122Y-76330500D02*
X170110455Y-76292642D01*
X170110455Y-76292642D02*
X170110455Y-76027642D01*
X170110455Y-76027642D02*
X169977122Y-76027642D01*
X170410455Y-76368357D02*
X170410455Y-75573357D01*
X170410455Y-75573357D02*
X170810455Y-76368357D01*
X170810455Y-76368357D02*
X170810455Y-75573357D01*
X171143788Y-76368357D02*
X171143788Y-75573357D01*
X171143788Y-75573357D02*
X171310455Y-75573357D01*
X171310455Y-75573357D02*
X171410455Y-75611214D01*
X171410455Y-75611214D02*
X171477122Y-75686928D01*
X171477122Y-75686928D02*
X171510455Y-75762642D01*
X171510455Y-75762642D02*
X171543788Y-75914071D01*
X171543788Y-75914071D02*
X171543788Y-76027642D01*
X171543788Y-76027642D02*
X171510455Y-76179071D01*
X171510455Y-76179071D02*
X171477122Y-76254785D01*
X171477122Y-76254785D02*
X171410455Y-76330500D01*
X171410455Y-76330500D02*
X171310455Y-76368357D01*
X171310455Y-76368357D02*
X171143788Y-76368357D01*
X169643789Y-78133167D02*
X170077122Y-78133167D01*
X170077122Y-78133167D02*
X169843789Y-78436024D01*
X169843789Y-78436024D02*
X169943789Y-78436024D01*
X169943789Y-78436024D02*
X170010455Y-78473881D01*
X170010455Y-78473881D02*
X170043789Y-78511738D01*
X170043789Y-78511738D02*
X170077122Y-78587452D01*
X170077122Y-78587452D02*
X170077122Y-78776738D01*
X170077122Y-78776738D02*
X170043789Y-78852452D01*
X170043789Y-78852452D02*
X170010455Y-78890310D01*
X170010455Y-78890310D02*
X169943789Y-78928167D01*
X169943789Y-78928167D02*
X169743789Y-78928167D01*
X169743789Y-78928167D02*
X169677122Y-78890310D01*
X169677122Y-78890310D02*
X169643789Y-78852452D01*
X170277122Y-78133167D02*
X170510456Y-78928167D01*
X170510456Y-78928167D02*
X170743789Y-78133167D01*
X170910456Y-78133167D02*
X171343789Y-78133167D01*
X171343789Y-78133167D02*
X171110456Y-78436024D01*
X171110456Y-78436024D02*
X171210456Y-78436024D01*
X171210456Y-78436024D02*
X171277122Y-78473881D01*
X171277122Y-78473881D02*
X171310456Y-78511738D01*
X171310456Y-78511738D02*
X171343789Y-78587452D01*
X171343789Y-78587452D02*
X171343789Y-78776738D01*
X171343789Y-78776738D02*
X171310456Y-78852452D01*
X171310456Y-78852452D02*
X171277122Y-78890310D01*
X171277122Y-78890310D02*
X171210456Y-78928167D01*
X171210456Y-78928167D02*
X171010456Y-78928167D01*
X171010456Y-78928167D02*
X170943789Y-78890310D01*
X170943789Y-78890310D02*
X170910456Y-78852452D01*
X170043789Y-80692977D02*
X169710455Y-80692977D01*
X169710455Y-80692977D02*
X169677122Y-81071548D01*
X169677122Y-81071548D02*
X169710455Y-81033691D01*
X169710455Y-81033691D02*
X169777122Y-80995834D01*
X169777122Y-80995834D02*
X169943789Y-80995834D01*
X169943789Y-80995834D02*
X170010455Y-81033691D01*
X170010455Y-81033691D02*
X170043789Y-81071548D01*
X170043789Y-81071548D02*
X170077122Y-81147262D01*
X170077122Y-81147262D02*
X170077122Y-81336548D01*
X170077122Y-81336548D02*
X170043789Y-81412262D01*
X170043789Y-81412262D02*
X170010455Y-81450120D01*
X170010455Y-81450120D02*
X169943789Y-81487977D01*
X169943789Y-81487977D02*
X169777122Y-81487977D01*
X169777122Y-81487977D02*
X169710455Y-81450120D01*
X169710455Y-81450120D02*
X169677122Y-81412262D01*
X170277122Y-80692977D02*
X170510456Y-81487977D01*
X170510456Y-81487977D02*
X170743789Y-80692977D01*
X169610455Y-83252787D02*
X170010455Y-83252787D01*
X169810455Y-84047787D02*
X169810455Y-83252787D01*
X170177122Y-83252787D02*
X170643788Y-84047787D01*
X170643788Y-83252787D02*
X170177122Y-84047787D01*
X170110455Y-86607597D02*
X169877122Y-86229025D01*
X169710455Y-86607597D02*
X169710455Y-85812597D01*
X169710455Y-85812597D02*
X169977122Y-85812597D01*
X169977122Y-85812597D02*
X170043789Y-85850454D01*
X170043789Y-85850454D02*
X170077122Y-85888311D01*
X170077122Y-85888311D02*
X170110455Y-85964025D01*
X170110455Y-85964025D02*
X170110455Y-86077597D01*
X170110455Y-86077597D02*
X170077122Y-86153311D01*
X170077122Y-86153311D02*
X170043789Y-86191168D01*
X170043789Y-86191168D02*
X169977122Y-86229025D01*
X169977122Y-86229025D02*
X169710455Y-86229025D01*
X170343789Y-85812597D02*
X170810455Y-86607597D01*
X170810455Y-85812597D02*
X170343789Y-86607597D01*
X169677122Y-89129550D02*
X169777122Y-89167407D01*
X169777122Y-89167407D02*
X169943789Y-89167407D01*
X169943789Y-89167407D02*
X170010455Y-89129550D01*
X170010455Y-89129550D02*
X170043789Y-89091692D01*
X170043789Y-89091692D02*
X170077122Y-89015978D01*
X170077122Y-89015978D02*
X170077122Y-88940264D01*
X170077122Y-88940264D02*
X170043789Y-88864550D01*
X170043789Y-88864550D02*
X170010455Y-88826692D01*
X170010455Y-88826692D02*
X169943789Y-88788835D01*
X169943789Y-88788835D02*
X169810455Y-88750978D01*
X169810455Y-88750978D02*
X169743789Y-88713121D01*
X169743789Y-88713121D02*
X169710455Y-88675264D01*
X169710455Y-88675264D02*
X169677122Y-88599550D01*
X169677122Y-88599550D02*
X169677122Y-88523835D01*
X169677122Y-88523835D02*
X169710455Y-88448121D01*
X169710455Y-88448121D02*
X169743789Y-88410264D01*
X169743789Y-88410264D02*
X169810455Y-88372407D01*
X169810455Y-88372407D02*
X169977122Y-88372407D01*
X169977122Y-88372407D02*
X170077122Y-88410264D01*
X170777122Y-89091692D02*
X170743789Y-89129550D01*
X170743789Y-89129550D02*
X170643789Y-89167407D01*
X170643789Y-89167407D02*
X170577122Y-89167407D01*
X170577122Y-89167407D02*
X170477122Y-89129550D01*
X170477122Y-89129550D02*
X170410456Y-89053835D01*
X170410456Y-89053835D02*
X170377122Y-88978121D01*
X170377122Y-88978121D02*
X170343789Y-88826692D01*
X170343789Y-88826692D02*
X170343789Y-88713121D01*
X170343789Y-88713121D02*
X170377122Y-88561692D01*
X170377122Y-88561692D02*
X170410456Y-88485978D01*
X170410456Y-88485978D02*
X170477122Y-88410264D01*
X170477122Y-88410264D02*
X170577122Y-88372407D01*
X170577122Y-88372407D02*
X170643789Y-88372407D01*
X170643789Y-88372407D02*
X170743789Y-88410264D01*
X170743789Y-88410264D02*
X170777122Y-88448121D01*
X171077122Y-89167407D02*
X171077122Y-88372407D01*
X171477122Y-89167407D02*
X171177122Y-88713121D01*
X171477122Y-88372407D02*
X171077122Y-88826692D01*
X169677122Y-91689360D02*
X169777122Y-91727217D01*
X169777122Y-91727217D02*
X169943789Y-91727217D01*
X169943789Y-91727217D02*
X170010455Y-91689360D01*
X170010455Y-91689360D02*
X170043789Y-91651502D01*
X170043789Y-91651502D02*
X170077122Y-91575788D01*
X170077122Y-91575788D02*
X170077122Y-91500074D01*
X170077122Y-91500074D02*
X170043789Y-91424360D01*
X170043789Y-91424360D02*
X170010455Y-91386502D01*
X170010455Y-91386502D02*
X169943789Y-91348645D01*
X169943789Y-91348645D02*
X169810455Y-91310788D01*
X169810455Y-91310788D02*
X169743789Y-91272931D01*
X169743789Y-91272931D02*
X169710455Y-91235074D01*
X169710455Y-91235074D02*
X169677122Y-91159360D01*
X169677122Y-91159360D02*
X169677122Y-91083645D01*
X169677122Y-91083645D02*
X169710455Y-91007931D01*
X169710455Y-91007931D02*
X169743789Y-90970074D01*
X169743789Y-90970074D02*
X169810455Y-90932217D01*
X169810455Y-90932217D02*
X169977122Y-90932217D01*
X169977122Y-90932217D02*
X170077122Y-90970074D01*
X170377122Y-91727217D02*
X170377122Y-90932217D01*
X170377122Y-90932217D02*
X170543789Y-90932217D01*
X170543789Y-90932217D02*
X170643789Y-90970074D01*
X170643789Y-90970074D02*
X170710456Y-91045788D01*
X170710456Y-91045788D02*
X170743789Y-91121502D01*
X170743789Y-91121502D02*
X170777122Y-91272931D01*
X170777122Y-91272931D02*
X170777122Y-91386502D01*
X170777122Y-91386502D02*
X170743789Y-91537931D01*
X170743789Y-91537931D02*
X170710456Y-91613645D01*
X170710456Y-91613645D02*
X170643789Y-91689360D01*
X170643789Y-91689360D02*
X170543789Y-91727217D01*
X170543789Y-91727217D02*
X170377122Y-91727217D01*
X171043789Y-91500074D02*
X171377122Y-91500074D01*
X170977122Y-91727217D02*
X171210456Y-90932217D01*
X171210456Y-90932217D02*
X171443789Y-91727217D01*
X170110455Y-94211312D02*
X170077122Y-94249170D01*
X170077122Y-94249170D02*
X169977122Y-94287027D01*
X169977122Y-94287027D02*
X169910455Y-94287027D01*
X169910455Y-94287027D02*
X169810455Y-94249170D01*
X169810455Y-94249170D02*
X169743789Y-94173455D01*
X169743789Y-94173455D02*
X169710455Y-94097741D01*
X169710455Y-94097741D02*
X169677122Y-93946312D01*
X169677122Y-93946312D02*
X169677122Y-93832741D01*
X169677122Y-93832741D02*
X169710455Y-93681312D01*
X169710455Y-93681312D02*
X169743789Y-93605598D01*
X169743789Y-93605598D02*
X169810455Y-93529884D01*
X169810455Y-93529884D02*
X169910455Y-93492027D01*
X169910455Y-93492027D02*
X169977122Y-93492027D01*
X169977122Y-93492027D02*
X170077122Y-93529884D01*
X170077122Y-93529884D02*
X170110455Y-93567741D01*
X170377122Y-94249170D02*
X170477122Y-94287027D01*
X170477122Y-94287027D02*
X170643789Y-94287027D01*
X170643789Y-94287027D02*
X170710455Y-94249170D01*
X170710455Y-94249170D02*
X170743789Y-94211312D01*
X170743789Y-94211312D02*
X170777122Y-94135598D01*
X170777122Y-94135598D02*
X170777122Y-94059884D01*
X170777122Y-94059884D02*
X170743789Y-93984170D01*
X170743789Y-93984170D02*
X170710455Y-93946312D01*
X170710455Y-93946312D02*
X170643789Y-93908455D01*
X170643789Y-93908455D02*
X170510455Y-93870598D01*
X170510455Y-93870598D02*
X170443789Y-93832741D01*
X170443789Y-93832741D02*
X170410455Y-93794884D01*
X170410455Y-93794884D02*
X170377122Y-93719170D01*
X170377122Y-93719170D02*
X170377122Y-93643455D01*
X170377122Y-93643455D02*
X170410455Y-93567741D01*
X170410455Y-93567741D02*
X170443789Y-93529884D01*
X170443789Y-93529884D02*
X170510455Y-93492027D01*
X170510455Y-93492027D02*
X170677122Y-93492027D01*
X170677122Y-93492027D02*
X170777122Y-93529884D01*
X169677122Y-96808980D02*
X169777122Y-96846837D01*
X169777122Y-96846837D02*
X169943789Y-96846837D01*
X169943789Y-96846837D02*
X170010455Y-96808980D01*
X170010455Y-96808980D02*
X170043789Y-96771122D01*
X170043789Y-96771122D02*
X170077122Y-96695408D01*
X170077122Y-96695408D02*
X170077122Y-96619694D01*
X170077122Y-96619694D02*
X170043789Y-96543980D01*
X170043789Y-96543980D02*
X170010455Y-96506122D01*
X170010455Y-96506122D02*
X169943789Y-96468265D01*
X169943789Y-96468265D02*
X169810455Y-96430408D01*
X169810455Y-96430408D02*
X169743789Y-96392551D01*
X169743789Y-96392551D02*
X169710455Y-96354694D01*
X169710455Y-96354694D02*
X169677122Y-96278980D01*
X169677122Y-96278980D02*
X169677122Y-96203265D01*
X169677122Y-96203265D02*
X169710455Y-96127551D01*
X169710455Y-96127551D02*
X169743789Y-96089694D01*
X169743789Y-96089694D02*
X169810455Y-96051837D01*
X169810455Y-96051837D02*
X169977122Y-96051837D01*
X169977122Y-96051837D02*
X170077122Y-96089694D01*
X170777122Y-96771122D02*
X170743789Y-96808980D01*
X170743789Y-96808980D02*
X170643789Y-96846837D01*
X170643789Y-96846837D02*
X170577122Y-96846837D01*
X170577122Y-96846837D02*
X170477122Y-96808980D01*
X170477122Y-96808980D02*
X170410456Y-96733265D01*
X170410456Y-96733265D02*
X170377122Y-96657551D01*
X170377122Y-96657551D02*
X170343789Y-96506122D01*
X170343789Y-96506122D02*
X170343789Y-96392551D01*
X170343789Y-96392551D02*
X170377122Y-96241122D01*
X170377122Y-96241122D02*
X170410456Y-96165408D01*
X170410456Y-96165408D02*
X170477122Y-96089694D01*
X170477122Y-96089694D02*
X170577122Y-96051837D01*
X170577122Y-96051837D02*
X170643789Y-96051837D01*
X170643789Y-96051837D02*
X170743789Y-96089694D01*
X170743789Y-96089694D02*
X170777122Y-96127551D01*
X171077122Y-96846837D02*
X171077122Y-96051837D01*
X171477122Y-96846837D02*
X171177122Y-96392551D01*
X171477122Y-96051837D02*
X171077122Y-96506122D01*
X169710455Y-99406647D02*
X169710455Y-98611647D01*
X169710455Y-98611647D02*
X169943789Y-99179504D01*
X169943789Y-99179504D02*
X170177122Y-98611647D01*
X170177122Y-98611647D02*
X170177122Y-99406647D01*
X170643789Y-98611647D02*
X170777122Y-98611647D01*
X170777122Y-98611647D02*
X170843789Y-98649504D01*
X170843789Y-98649504D02*
X170910455Y-98725218D01*
X170910455Y-98725218D02*
X170943789Y-98876647D01*
X170943789Y-98876647D02*
X170943789Y-99141647D01*
X170943789Y-99141647D02*
X170910455Y-99293075D01*
X170910455Y-99293075D02*
X170843789Y-99368790D01*
X170843789Y-99368790D02*
X170777122Y-99406647D01*
X170777122Y-99406647D02*
X170643789Y-99406647D01*
X170643789Y-99406647D02*
X170577122Y-99368790D01*
X170577122Y-99368790D02*
X170510455Y-99293075D01*
X170510455Y-99293075D02*
X170477122Y-99141647D01*
X170477122Y-99141647D02*
X170477122Y-98876647D01*
X170477122Y-98876647D02*
X170510455Y-98725218D01*
X170510455Y-98725218D02*
X170577122Y-98649504D01*
X170577122Y-98649504D02*
X170643789Y-98611647D01*
X171210455Y-99368790D02*
X171310455Y-99406647D01*
X171310455Y-99406647D02*
X171477122Y-99406647D01*
X171477122Y-99406647D02*
X171543788Y-99368790D01*
X171543788Y-99368790D02*
X171577122Y-99330932D01*
X171577122Y-99330932D02*
X171610455Y-99255218D01*
X171610455Y-99255218D02*
X171610455Y-99179504D01*
X171610455Y-99179504D02*
X171577122Y-99103790D01*
X171577122Y-99103790D02*
X171543788Y-99065932D01*
X171543788Y-99065932D02*
X171477122Y-99028075D01*
X171477122Y-99028075D02*
X171343788Y-98990218D01*
X171343788Y-98990218D02*
X171277122Y-98952361D01*
X171277122Y-98952361D02*
X171243788Y-98914504D01*
X171243788Y-98914504D02*
X171210455Y-98838790D01*
X171210455Y-98838790D02*
X171210455Y-98763075D01*
X171210455Y-98763075D02*
X171243788Y-98687361D01*
X171243788Y-98687361D02*
X171277122Y-98649504D01*
X171277122Y-98649504D02*
X171343788Y-98611647D01*
X171343788Y-98611647D02*
X171510455Y-98611647D01*
X171510455Y-98611647D02*
X171610455Y-98649504D01*
X171910455Y-99406647D02*
X171910455Y-98611647D01*
X169710455Y-101966457D02*
X169710455Y-101171457D01*
X169710455Y-101171457D02*
X169943789Y-101739314D01*
X169943789Y-101739314D02*
X170177122Y-101171457D01*
X170177122Y-101171457D02*
X170177122Y-101966457D01*
X170510455Y-101966457D02*
X170510455Y-101171457D01*
X170810455Y-101928600D02*
X170910455Y-101966457D01*
X170910455Y-101966457D02*
X171077122Y-101966457D01*
X171077122Y-101966457D02*
X171143788Y-101928600D01*
X171143788Y-101928600D02*
X171177122Y-101890742D01*
X171177122Y-101890742D02*
X171210455Y-101815028D01*
X171210455Y-101815028D02*
X171210455Y-101739314D01*
X171210455Y-101739314D02*
X171177122Y-101663600D01*
X171177122Y-101663600D02*
X171143788Y-101625742D01*
X171143788Y-101625742D02*
X171077122Y-101587885D01*
X171077122Y-101587885D02*
X170943788Y-101550028D01*
X170943788Y-101550028D02*
X170877122Y-101512171D01*
X170877122Y-101512171D02*
X170843788Y-101474314D01*
X170843788Y-101474314D02*
X170810455Y-101398600D01*
X170810455Y-101398600D02*
X170810455Y-101322885D01*
X170810455Y-101322885D02*
X170843788Y-101247171D01*
X170843788Y-101247171D02*
X170877122Y-101209314D01*
X170877122Y-101209314D02*
X170943788Y-101171457D01*
X170943788Y-101171457D02*
X171110455Y-101171457D01*
X171110455Y-101171457D02*
X171210455Y-101209314D01*
X171643789Y-101171457D02*
X171777122Y-101171457D01*
X171777122Y-101171457D02*
X171843789Y-101209314D01*
X171843789Y-101209314D02*
X171910455Y-101285028D01*
X171910455Y-101285028D02*
X171943789Y-101436457D01*
X171943789Y-101436457D02*
X171943789Y-101701457D01*
X171943789Y-101701457D02*
X171910455Y-101852885D01*
X171910455Y-101852885D02*
X171843789Y-101928600D01*
X171843789Y-101928600D02*
X171777122Y-101966457D01*
X171777122Y-101966457D02*
X171643789Y-101966457D01*
X171643789Y-101966457D02*
X171577122Y-101928600D01*
X171577122Y-101928600D02*
X171510455Y-101852885D01*
X171510455Y-101852885D02*
X171477122Y-101701457D01*
X171477122Y-101701457D02*
X171477122Y-101436457D01*
X171477122Y-101436457D02*
X171510455Y-101285028D01*
X171510455Y-101285028D02*
X171577122Y-101209314D01*
X171577122Y-101209314D02*
X171643789Y-101171457D01*
X170077122Y-103769124D02*
X170010455Y-103731267D01*
X170010455Y-103731267D02*
X169910455Y-103731267D01*
X169910455Y-103731267D02*
X169810455Y-103769124D01*
X169810455Y-103769124D02*
X169743789Y-103844838D01*
X169743789Y-103844838D02*
X169710455Y-103920552D01*
X169710455Y-103920552D02*
X169677122Y-104071981D01*
X169677122Y-104071981D02*
X169677122Y-104185552D01*
X169677122Y-104185552D02*
X169710455Y-104336981D01*
X169710455Y-104336981D02*
X169743789Y-104412695D01*
X169743789Y-104412695D02*
X169810455Y-104488410D01*
X169810455Y-104488410D02*
X169910455Y-104526267D01*
X169910455Y-104526267D02*
X169977122Y-104526267D01*
X169977122Y-104526267D02*
X170077122Y-104488410D01*
X170077122Y-104488410D02*
X170110455Y-104450552D01*
X170110455Y-104450552D02*
X170110455Y-104185552D01*
X170110455Y-104185552D02*
X169977122Y-104185552D01*
X170410455Y-104526267D02*
X170410455Y-103731267D01*
X170410455Y-103731267D02*
X170677122Y-103731267D01*
X170677122Y-103731267D02*
X170743789Y-103769124D01*
X170743789Y-103769124D02*
X170777122Y-103806981D01*
X170777122Y-103806981D02*
X170810455Y-103882695D01*
X170810455Y-103882695D02*
X170810455Y-103996267D01*
X170810455Y-103996267D02*
X170777122Y-104071981D01*
X170777122Y-104071981D02*
X170743789Y-104109838D01*
X170743789Y-104109838D02*
X170677122Y-104147695D01*
X170677122Y-104147695D02*
X170410455Y-104147695D01*
X171077122Y-103806981D02*
X171110455Y-103769124D01*
X171110455Y-103769124D02*
X171177122Y-103731267D01*
X171177122Y-103731267D02*
X171343789Y-103731267D01*
X171343789Y-103731267D02*
X171410455Y-103769124D01*
X171410455Y-103769124D02*
X171443789Y-103806981D01*
X171443789Y-103806981D02*
X171477122Y-103882695D01*
X171477122Y-103882695D02*
X171477122Y-103958410D01*
X171477122Y-103958410D02*
X171443789Y-104071981D01*
X171443789Y-104071981D02*
X171043789Y-104526267D01*
X171043789Y-104526267D02*
X171477122Y-104526267D01*
X171710456Y-103731267D02*
X172177122Y-103731267D01*
X172177122Y-103731267D02*
X171877122Y-104526267D01*
X170077122Y-106328934D02*
X170010455Y-106291077D01*
X170010455Y-106291077D02*
X169910455Y-106291077D01*
X169910455Y-106291077D02*
X169810455Y-106328934D01*
X169810455Y-106328934D02*
X169743789Y-106404648D01*
X169743789Y-106404648D02*
X169710455Y-106480362D01*
X169710455Y-106480362D02*
X169677122Y-106631791D01*
X169677122Y-106631791D02*
X169677122Y-106745362D01*
X169677122Y-106745362D02*
X169710455Y-106896791D01*
X169710455Y-106896791D02*
X169743789Y-106972505D01*
X169743789Y-106972505D02*
X169810455Y-107048220D01*
X169810455Y-107048220D02*
X169910455Y-107086077D01*
X169910455Y-107086077D02*
X169977122Y-107086077D01*
X169977122Y-107086077D02*
X170077122Y-107048220D01*
X170077122Y-107048220D02*
X170110455Y-107010362D01*
X170110455Y-107010362D02*
X170110455Y-106745362D01*
X170110455Y-106745362D02*
X169977122Y-106745362D01*
X170410455Y-107086077D02*
X170410455Y-106291077D01*
X170410455Y-106291077D02*
X170677122Y-106291077D01*
X170677122Y-106291077D02*
X170743789Y-106328934D01*
X170743789Y-106328934D02*
X170777122Y-106366791D01*
X170777122Y-106366791D02*
X170810455Y-106442505D01*
X170810455Y-106442505D02*
X170810455Y-106556077D01*
X170810455Y-106556077D02*
X170777122Y-106631791D01*
X170777122Y-106631791D02*
X170743789Y-106669648D01*
X170743789Y-106669648D02*
X170677122Y-106707505D01*
X170677122Y-106707505D02*
X170410455Y-106707505D01*
X171077122Y-106366791D02*
X171110455Y-106328934D01*
X171110455Y-106328934D02*
X171177122Y-106291077D01*
X171177122Y-106291077D02*
X171343789Y-106291077D01*
X171343789Y-106291077D02*
X171410455Y-106328934D01*
X171410455Y-106328934D02*
X171443789Y-106366791D01*
X171443789Y-106366791D02*
X171477122Y-106442505D01*
X171477122Y-106442505D02*
X171477122Y-106518220D01*
X171477122Y-106518220D02*
X171443789Y-106631791D01*
X171443789Y-106631791D02*
X171043789Y-107086077D01*
X171043789Y-107086077D02*
X171477122Y-107086077D01*
X172077122Y-106291077D02*
X171943789Y-106291077D01*
X171943789Y-106291077D02*
X171877122Y-106328934D01*
X171877122Y-106328934D02*
X171843789Y-106366791D01*
X171843789Y-106366791D02*
X171777122Y-106480362D01*
X171777122Y-106480362D02*
X171743789Y-106631791D01*
X171743789Y-106631791D02*
X171743789Y-106934648D01*
X171743789Y-106934648D02*
X171777122Y-107010362D01*
X171777122Y-107010362D02*
X171810456Y-107048220D01*
X171810456Y-107048220D02*
X171877122Y-107086077D01*
X171877122Y-107086077D02*
X172010456Y-107086077D01*
X172010456Y-107086077D02*
X172077122Y-107048220D01*
X172077122Y-107048220D02*
X172110456Y-107010362D01*
X172110456Y-107010362D02*
X172143789Y-106934648D01*
X172143789Y-106934648D02*
X172143789Y-106745362D01*
X172143789Y-106745362D02*
X172110456Y-106669648D01*
X172110456Y-106669648D02*
X172077122Y-106631791D01*
X172077122Y-106631791D02*
X172010456Y-106593934D01*
X172010456Y-106593934D02*
X171877122Y-106593934D01*
X171877122Y-106593934D02*
X171810456Y-106631791D01*
X171810456Y-106631791D02*
X171777122Y-106669648D01*
X171777122Y-106669648D02*
X171743789Y-106745362D01*
X170077122Y-108888744D02*
X170010455Y-108850887D01*
X170010455Y-108850887D02*
X169910455Y-108850887D01*
X169910455Y-108850887D02*
X169810455Y-108888744D01*
X169810455Y-108888744D02*
X169743789Y-108964458D01*
X169743789Y-108964458D02*
X169710455Y-109040172D01*
X169710455Y-109040172D02*
X169677122Y-109191601D01*
X169677122Y-109191601D02*
X169677122Y-109305172D01*
X169677122Y-109305172D02*
X169710455Y-109456601D01*
X169710455Y-109456601D02*
X169743789Y-109532315D01*
X169743789Y-109532315D02*
X169810455Y-109608030D01*
X169810455Y-109608030D02*
X169910455Y-109645887D01*
X169910455Y-109645887D02*
X169977122Y-109645887D01*
X169977122Y-109645887D02*
X170077122Y-109608030D01*
X170077122Y-109608030D02*
X170110455Y-109570172D01*
X170110455Y-109570172D02*
X170110455Y-109305172D01*
X170110455Y-109305172D02*
X169977122Y-109305172D01*
X170410455Y-109645887D02*
X170410455Y-108850887D01*
X170410455Y-108850887D02*
X170677122Y-108850887D01*
X170677122Y-108850887D02*
X170743789Y-108888744D01*
X170743789Y-108888744D02*
X170777122Y-108926601D01*
X170777122Y-108926601D02*
X170810455Y-109002315D01*
X170810455Y-109002315D02*
X170810455Y-109115887D01*
X170810455Y-109115887D02*
X170777122Y-109191601D01*
X170777122Y-109191601D02*
X170743789Y-109229458D01*
X170743789Y-109229458D02*
X170677122Y-109267315D01*
X170677122Y-109267315D02*
X170410455Y-109267315D01*
X171410455Y-108850887D02*
X171277122Y-108850887D01*
X171277122Y-108850887D02*
X171210455Y-108888744D01*
X171210455Y-108888744D02*
X171177122Y-108926601D01*
X171177122Y-108926601D02*
X171110455Y-109040172D01*
X171110455Y-109040172D02*
X171077122Y-109191601D01*
X171077122Y-109191601D02*
X171077122Y-109494458D01*
X171077122Y-109494458D02*
X171110455Y-109570172D01*
X171110455Y-109570172D02*
X171143789Y-109608030D01*
X171143789Y-109608030D02*
X171210455Y-109645887D01*
X171210455Y-109645887D02*
X171343789Y-109645887D01*
X171343789Y-109645887D02*
X171410455Y-109608030D01*
X171410455Y-109608030D02*
X171443789Y-109570172D01*
X171443789Y-109570172D02*
X171477122Y-109494458D01*
X171477122Y-109494458D02*
X171477122Y-109305172D01*
X171477122Y-109305172D02*
X171443789Y-109229458D01*
X171443789Y-109229458D02*
X171410455Y-109191601D01*
X171410455Y-109191601D02*
X171343789Y-109153744D01*
X171343789Y-109153744D02*
X171210455Y-109153744D01*
X171210455Y-109153744D02*
X171143789Y-109191601D01*
X171143789Y-109191601D02*
X171110455Y-109229458D01*
X171110455Y-109229458D02*
X171077122Y-109305172D01*
X170077122Y-111448554D02*
X170010455Y-111410697D01*
X170010455Y-111410697D02*
X169910455Y-111410697D01*
X169910455Y-111410697D02*
X169810455Y-111448554D01*
X169810455Y-111448554D02*
X169743789Y-111524268D01*
X169743789Y-111524268D02*
X169710455Y-111599982D01*
X169710455Y-111599982D02*
X169677122Y-111751411D01*
X169677122Y-111751411D02*
X169677122Y-111864982D01*
X169677122Y-111864982D02*
X169710455Y-112016411D01*
X169710455Y-112016411D02*
X169743789Y-112092125D01*
X169743789Y-112092125D02*
X169810455Y-112167840D01*
X169810455Y-112167840D02*
X169910455Y-112205697D01*
X169910455Y-112205697D02*
X169977122Y-112205697D01*
X169977122Y-112205697D02*
X170077122Y-112167840D01*
X170077122Y-112167840D02*
X170110455Y-112129982D01*
X170110455Y-112129982D02*
X170110455Y-111864982D01*
X170110455Y-111864982D02*
X169977122Y-111864982D01*
X170410455Y-112205697D02*
X170410455Y-111410697D01*
X170410455Y-111410697D02*
X170677122Y-111410697D01*
X170677122Y-111410697D02*
X170743789Y-111448554D01*
X170743789Y-111448554D02*
X170777122Y-111486411D01*
X170777122Y-111486411D02*
X170810455Y-111562125D01*
X170810455Y-111562125D02*
X170810455Y-111675697D01*
X170810455Y-111675697D02*
X170777122Y-111751411D01*
X170777122Y-111751411D02*
X170743789Y-111789268D01*
X170743789Y-111789268D02*
X170677122Y-111827125D01*
X170677122Y-111827125D02*
X170410455Y-111827125D01*
X171477122Y-112205697D02*
X171077122Y-112205697D01*
X171277122Y-112205697D02*
X171277122Y-111410697D01*
X171277122Y-111410697D02*
X171210455Y-111524268D01*
X171210455Y-111524268D02*
X171143789Y-111599982D01*
X171143789Y-111599982D02*
X171077122Y-111637840D01*
X171710456Y-111410697D02*
X172143789Y-111410697D01*
X172143789Y-111410697D02*
X171910456Y-111713554D01*
X171910456Y-111713554D02*
X172010456Y-111713554D01*
X172010456Y-111713554D02*
X172077122Y-111751411D01*
X172077122Y-111751411D02*
X172110456Y-111789268D01*
X172110456Y-111789268D02*
X172143789Y-111864982D01*
X172143789Y-111864982D02*
X172143789Y-112054268D01*
X172143789Y-112054268D02*
X172110456Y-112129982D01*
X172110456Y-112129982D02*
X172077122Y-112167840D01*
X172077122Y-112167840D02*
X172010456Y-112205697D01*
X172010456Y-112205697D02*
X171810456Y-112205697D01*
X171810456Y-112205697D02*
X171743789Y-112167840D01*
X171743789Y-112167840D02*
X171710456Y-112129982D01*
X170077122Y-114008364D02*
X170010455Y-113970507D01*
X170010455Y-113970507D02*
X169910455Y-113970507D01*
X169910455Y-113970507D02*
X169810455Y-114008364D01*
X169810455Y-114008364D02*
X169743789Y-114084078D01*
X169743789Y-114084078D02*
X169710455Y-114159792D01*
X169710455Y-114159792D02*
X169677122Y-114311221D01*
X169677122Y-114311221D02*
X169677122Y-114424792D01*
X169677122Y-114424792D02*
X169710455Y-114576221D01*
X169710455Y-114576221D02*
X169743789Y-114651935D01*
X169743789Y-114651935D02*
X169810455Y-114727650D01*
X169810455Y-114727650D02*
X169910455Y-114765507D01*
X169910455Y-114765507D02*
X169977122Y-114765507D01*
X169977122Y-114765507D02*
X170077122Y-114727650D01*
X170077122Y-114727650D02*
X170110455Y-114689792D01*
X170110455Y-114689792D02*
X170110455Y-114424792D01*
X170110455Y-114424792D02*
X169977122Y-114424792D01*
X170410455Y-114765507D02*
X170410455Y-113970507D01*
X170410455Y-113970507D02*
X170677122Y-113970507D01*
X170677122Y-113970507D02*
X170743789Y-114008364D01*
X170743789Y-114008364D02*
X170777122Y-114046221D01*
X170777122Y-114046221D02*
X170810455Y-114121935D01*
X170810455Y-114121935D02*
X170810455Y-114235507D01*
X170810455Y-114235507D02*
X170777122Y-114311221D01*
X170777122Y-114311221D02*
X170743789Y-114349078D01*
X170743789Y-114349078D02*
X170677122Y-114386935D01*
X170677122Y-114386935D02*
X170410455Y-114386935D01*
X171477122Y-114765507D02*
X171077122Y-114765507D01*
X171277122Y-114765507D02*
X171277122Y-113970507D01*
X171277122Y-113970507D02*
X171210455Y-114084078D01*
X171210455Y-114084078D02*
X171143789Y-114159792D01*
X171143789Y-114159792D02*
X171077122Y-114197650D01*
X171743789Y-114046221D02*
X171777122Y-114008364D01*
X171777122Y-114008364D02*
X171843789Y-113970507D01*
X171843789Y-113970507D02*
X172010456Y-113970507D01*
X172010456Y-113970507D02*
X172077122Y-114008364D01*
X172077122Y-114008364D02*
X172110456Y-114046221D01*
X172110456Y-114046221D02*
X172143789Y-114121935D01*
X172143789Y-114121935D02*
X172143789Y-114197650D01*
X172143789Y-114197650D02*
X172110456Y-114311221D01*
X172110456Y-114311221D02*
X171710456Y-114765507D01*
X171710456Y-114765507D02*
X172143789Y-114765507D01*
X132812455Y-89804419D02*
X132621979Y-89804419D01*
X132621979Y-89804419D02*
X132526741Y-89852038D01*
X132526741Y-89852038D02*
X132479122Y-89899657D01*
X132479122Y-89899657D02*
X132383884Y-90042514D01*
X132383884Y-90042514D02*
X132336265Y-90232990D01*
X132336265Y-90232990D02*
X132336265Y-90613942D01*
X132336265Y-90613942D02*
X132383884Y-90709180D01*
X132383884Y-90709180D02*
X132431503Y-90756800D01*
X132431503Y-90756800D02*
X132526741Y-90804419D01*
X132526741Y-90804419D02*
X132717217Y-90804419D01*
X132717217Y-90804419D02*
X132812455Y-90756800D01*
X132812455Y-90756800D02*
X132860074Y-90709180D01*
X132860074Y-90709180D02*
X132907693Y-90613942D01*
X132907693Y-90613942D02*
X132907693Y-90375847D01*
X132907693Y-90375847D02*
X132860074Y-90280609D01*
X132860074Y-90280609D02*
X132812455Y-90232990D01*
X132812455Y-90232990D02*
X132717217Y-90185371D01*
X132717217Y-90185371D02*
X132526741Y-90185371D01*
X132526741Y-90185371D02*
X132431503Y-90232990D01*
X132431503Y-90232990D02*
X132383884Y-90280609D01*
X132383884Y-90280609D02*
X132336265Y-90375847D01*
X133336265Y-90137752D02*
X133336265Y-91137752D01*
X133336265Y-90185371D02*
X133431503Y-90137752D01*
X133431503Y-90137752D02*
X133621979Y-90137752D01*
X133621979Y-90137752D02*
X133717217Y-90185371D01*
X133717217Y-90185371D02*
X133764836Y-90232990D01*
X133764836Y-90232990D02*
X133812455Y-90328228D01*
X133812455Y-90328228D02*
X133812455Y-90613942D01*
X133812455Y-90613942D02*
X133764836Y-90709180D01*
X133764836Y-90709180D02*
X133717217Y-90756800D01*
X133717217Y-90756800D02*
X133621979Y-90804419D01*
X133621979Y-90804419D02*
X133431503Y-90804419D01*
X133431503Y-90804419D02*
X133336265Y-90756800D01*
D11*
X151309101Y-71749219D02*
X150975768Y-71273028D01*
X150737673Y-71749219D02*
X150737673Y-70749219D01*
X150737673Y-70749219D02*
X151118625Y-70749219D01*
X151118625Y-70749219D02*
X151213863Y-70796838D01*
X151213863Y-70796838D02*
X151261482Y-70844457D01*
X151261482Y-70844457D02*
X151309101Y-70939695D01*
X151309101Y-70939695D02*
X151309101Y-71082552D01*
X151309101Y-71082552D02*
X151261482Y-71177790D01*
X151261482Y-71177790D02*
X151213863Y-71225409D01*
X151213863Y-71225409D02*
X151118625Y-71273028D01*
X151118625Y-71273028D02*
X150737673Y-71273028D01*
X151737673Y-71225409D02*
X152071006Y-71225409D01*
X152213863Y-71749219D02*
X151737673Y-71749219D01*
X151737673Y-71749219D02*
X151737673Y-70749219D01*
X151737673Y-70749219D02*
X152213863Y-70749219D01*
X152594816Y-71701600D02*
X152737673Y-71749219D01*
X152737673Y-71749219D02*
X152975768Y-71749219D01*
X152975768Y-71749219D02*
X153071006Y-71701600D01*
X153071006Y-71701600D02*
X153118625Y-71653980D01*
X153118625Y-71653980D02*
X153166244Y-71558742D01*
X153166244Y-71558742D02*
X153166244Y-71463504D01*
X153166244Y-71463504D02*
X153118625Y-71368266D01*
X153118625Y-71368266D02*
X153071006Y-71320647D01*
X153071006Y-71320647D02*
X152975768Y-71273028D01*
X152975768Y-71273028D02*
X152785292Y-71225409D01*
X152785292Y-71225409D02*
X152690054Y-71177790D01*
X152690054Y-71177790D02*
X152642435Y-71130171D01*
X152642435Y-71130171D02*
X152594816Y-71034933D01*
X152594816Y-71034933D02*
X152594816Y-70939695D01*
X152594816Y-70939695D02*
X152642435Y-70844457D01*
X152642435Y-70844457D02*
X152690054Y-70796838D01*
X152690054Y-70796838D02*
X152785292Y-70749219D01*
X152785292Y-70749219D02*
X153023387Y-70749219D01*
X153023387Y-70749219D02*
X153166244Y-70796838D01*
X153594816Y-71225409D02*
X153928149Y-71225409D01*
X154071006Y-71749219D02*
X153594816Y-71749219D01*
X153594816Y-71749219D02*
X153594816Y-70749219D01*
X153594816Y-70749219D02*
X154071006Y-70749219D01*
X154356721Y-70749219D02*
X154928149Y-70749219D01*
X154642435Y-71749219D02*
X154642435Y-70749219D01*
D10*
X130079180Y-72276687D02*
X130126800Y-72324306D01*
X130126800Y-72324306D02*
X130174419Y-72467163D01*
X130174419Y-72467163D02*
X130174419Y-72562401D01*
X130174419Y-72562401D02*
X130126800Y-72705258D01*
X130126800Y-72705258D02*
X130031561Y-72800496D01*
X130031561Y-72800496D02*
X129936323Y-72848115D01*
X129936323Y-72848115D02*
X129745847Y-72895734D01*
X129745847Y-72895734D02*
X129602990Y-72895734D01*
X129602990Y-72895734D02*
X129412514Y-72848115D01*
X129412514Y-72848115D02*
X129317276Y-72800496D01*
X129317276Y-72800496D02*
X129222038Y-72705258D01*
X129222038Y-72705258D02*
X129174419Y-72562401D01*
X129174419Y-72562401D02*
X129174419Y-72467163D01*
X129174419Y-72467163D02*
X129222038Y-72324306D01*
X129222038Y-72324306D02*
X129269657Y-72276687D01*
X129269657Y-71895734D02*
X129222038Y-71848115D01*
X129222038Y-71848115D02*
X129174419Y-71752877D01*
X129174419Y-71752877D02*
X129174419Y-71514782D01*
X129174419Y-71514782D02*
X129222038Y-71419544D01*
X129222038Y-71419544D02*
X129269657Y-71371925D01*
X129269657Y-71371925D02*
X129364895Y-71324306D01*
X129364895Y-71324306D02*
X129460133Y-71324306D01*
X129460133Y-71324306D02*
X129602990Y-71371925D01*
X129602990Y-71371925D02*
X130174419Y-71943353D01*
X130174419Y-71943353D02*
X130174419Y-71324306D01*
X129269657Y-70943353D02*
X129222038Y-70895734D01*
X129222038Y-70895734D02*
X129174419Y-70800496D01*
X129174419Y-70800496D02*
X129174419Y-70562401D01*
X129174419Y-70562401D02*
X129222038Y-70467163D01*
X129222038Y-70467163D02*
X129269657Y-70419544D01*
X129269657Y-70419544D02*
X129364895Y-70371925D01*
X129364895Y-70371925D02*
X129460133Y-70371925D01*
X129460133Y-70371925D02*
X129602990Y-70419544D01*
X129602990Y-70419544D02*
X130174419Y-70990972D01*
X130174419Y-70990972D02*
X130174419Y-70371925D01*
X141908884Y-91312419D02*
X141908884Y-90312419D01*
X141908884Y-90312419D02*
X142242217Y-91026704D01*
X142242217Y-91026704D02*
X142575550Y-90312419D01*
X142575550Y-90312419D02*
X142575550Y-91312419D01*
X143480312Y-90645752D02*
X143480312Y-91312419D01*
X143242217Y-90264800D02*
X143004122Y-90979085D01*
X143004122Y-90979085D02*
X143623169Y-90979085D01*
X144432693Y-90645752D02*
X144432693Y-91312419D01*
X144194598Y-90264800D02*
X143956503Y-90979085D01*
X143956503Y-90979085D02*
X144575550Y-90979085D01*
X145432693Y-90312419D02*
X144956503Y-90312419D01*
X144956503Y-90312419D02*
X144908884Y-90788609D01*
X144908884Y-90788609D02*
X144956503Y-90740990D01*
X144956503Y-90740990D02*
X145051741Y-90693371D01*
X145051741Y-90693371D02*
X145289836Y-90693371D01*
X145289836Y-90693371D02*
X145385074Y-90740990D01*
X145385074Y-90740990D02*
X145432693Y-90788609D01*
X145432693Y-90788609D02*
X145480312Y-90883847D01*
X145480312Y-90883847D02*
X145480312Y-91121942D01*
X145480312Y-91121942D02*
X145432693Y-91217180D01*
X145432693Y-91217180D02*
X145385074Y-91264800D01*
X145385074Y-91264800D02*
X145289836Y-91312419D01*
X145289836Y-91312419D02*
X145051741Y-91312419D01*
X145051741Y-91312419D02*
X144956503Y-91264800D01*
X144956503Y-91264800D02*
X144908884Y-91217180D01*
X148616074Y-71061609D02*
X148663693Y-71061609D01*
X148663693Y-71061609D02*
X148711312Y-71085419D01*
X148711312Y-71085419D02*
X148735122Y-71109228D01*
X148735122Y-71109228D02*
X148758931Y-71156847D01*
X148758931Y-71156847D02*
X148782741Y-71252085D01*
X148782741Y-71252085D02*
X148782741Y-71371133D01*
X148782741Y-71371133D02*
X148758931Y-71466371D01*
X148758931Y-71466371D02*
X148735122Y-71513990D01*
X148735122Y-71513990D02*
X148711312Y-71537800D01*
X148711312Y-71537800D02*
X148663693Y-71561609D01*
X148663693Y-71561609D02*
X148616074Y-71561609D01*
X148616074Y-71561609D02*
X148568455Y-71537800D01*
X148568455Y-71537800D02*
X148544646Y-71513990D01*
X148544646Y-71513990D02*
X148520836Y-71466371D01*
X148520836Y-71466371D02*
X148497027Y-71371133D01*
X148497027Y-71371133D02*
X148497027Y-71252085D01*
X148497027Y-71252085D02*
X148520836Y-71156847D01*
X148520836Y-71156847D02*
X148544646Y-71109228D01*
X148544646Y-71109228D02*
X148568455Y-71085419D01*
X148568455Y-71085419D02*
X148616074Y-71061609D01*
X148997026Y-71513990D02*
X149020836Y-71537800D01*
X149020836Y-71537800D02*
X148997026Y-71561609D01*
X148997026Y-71561609D02*
X148973217Y-71537800D01*
X148973217Y-71537800D02*
X148997026Y-71513990D01*
X148997026Y-71513990D02*
X148997026Y-71561609D01*
X149497026Y-71561609D02*
X149211312Y-71561609D01*
X149354169Y-71561609D02*
X149354169Y-71061609D01*
X149354169Y-71061609D02*
X149306550Y-71133038D01*
X149306550Y-71133038D02*
X149258931Y-71180657D01*
X149258931Y-71180657D02*
X149211312Y-71204466D01*
X149925597Y-71228276D02*
X149925597Y-71561609D01*
X149711311Y-71228276D02*
X149711311Y-71490180D01*
X149711311Y-71490180D02*
X149735121Y-71537800D01*
X149735121Y-71537800D02*
X149782740Y-71561609D01*
X149782740Y-71561609D02*
X149854168Y-71561609D01*
X149854168Y-71561609D02*
X149901787Y-71537800D01*
X149901787Y-71537800D02*
X149925597Y-71513990D01*
X149886074Y-109669609D02*
X149933693Y-109669609D01*
X149933693Y-109669609D02*
X149981312Y-109693419D01*
X149981312Y-109693419D02*
X150005122Y-109717228D01*
X150005122Y-109717228D02*
X150028931Y-109764847D01*
X150028931Y-109764847D02*
X150052741Y-109860085D01*
X150052741Y-109860085D02*
X150052741Y-109979133D01*
X150052741Y-109979133D02*
X150028931Y-110074371D01*
X150028931Y-110074371D02*
X150005122Y-110121990D01*
X150005122Y-110121990D02*
X149981312Y-110145800D01*
X149981312Y-110145800D02*
X149933693Y-110169609D01*
X149933693Y-110169609D02*
X149886074Y-110169609D01*
X149886074Y-110169609D02*
X149838455Y-110145800D01*
X149838455Y-110145800D02*
X149814646Y-110121990D01*
X149814646Y-110121990D02*
X149790836Y-110074371D01*
X149790836Y-110074371D02*
X149767027Y-109979133D01*
X149767027Y-109979133D02*
X149767027Y-109860085D01*
X149767027Y-109860085D02*
X149790836Y-109764847D01*
X149790836Y-109764847D02*
X149814646Y-109717228D01*
X149814646Y-109717228D02*
X149838455Y-109693419D01*
X149838455Y-109693419D02*
X149886074Y-109669609D01*
X150267026Y-110121990D02*
X150290836Y-110145800D01*
X150290836Y-110145800D02*
X150267026Y-110169609D01*
X150267026Y-110169609D02*
X150243217Y-110145800D01*
X150243217Y-110145800D02*
X150267026Y-110121990D01*
X150267026Y-110121990D02*
X150267026Y-110169609D01*
X150767026Y-110169609D02*
X150481312Y-110169609D01*
X150624169Y-110169609D02*
X150624169Y-109669609D01*
X150624169Y-109669609D02*
X150576550Y-109741038D01*
X150576550Y-109741038D02*
X150528931Y-109788657D01*
X150528931Y-109788657D02*
X150481312Y-109812466D01*
X151195597Y-109836276D02*
X151195597Y-110169609D01*
X150981311Y-109836276D02*
X150981311Y-110098180D01*
X150981311Y-110098180D02*
X151005121Y-110145800D01*
X151005121Y-110145800D02*
X151052740Y-110169609D01*
X151052740Y-110169609D02*
X151124168Y-110169609D01*
X151124168Y-110169609D02*
X151171787Y-110145800D01*
X151171787Y-110145800D02*
X151195597Y-110121990D01*
X165232455Y-71205752D02*
X165232455Y-71872419D01*
X164994360Y-70824800D02*
X164756265Y-71539085D01*
X164756265Y-71539085D02*
X165375312Y-71539085D01*
X165661027Y-70872419D02*
X166327693Y-70872419D01*
X166327693Y-70872419D02*
X165899122Y-71872419D01*
X166899122Y-70872419D02*
X166994360Y-70872419D01*
X166994360Y-70872419D02*
X167089598Y-70920038D01*
X167089598Y-70920038D02*
X167137217Y-70967657D01*
X167137217Y-70967657D02*
X167184836Y-71062895D01*
X167184836Y-71062895D02*
X167232455Y-71253371D01*
X167232455Y-71253371D02*
X167232455Y-71491466D01*
X167232455Y-71491466D02*
X167184836Y-71681942D01*
X167184836Y-71681942D02*
X167137217Y-71777180D01*
X167137217Y-71777180D02*
X167089598Y-71824800D01*
X167089598Y-71824800D02*
X166994360Y-71872419D01*
X166994360Y-71872419D02*
X166899122Y-71872419D01*
X166899122Y-71872419D02*
X166803884Y-71824800D01*
X166803884Y-71824800D02*
X166756265Y-71777180D01*
X166756265Y-71777180D02*
X166708646Y-71681942D01*
X166708646Y-71681942D02*
X166661027Y-71491466D01*
X166661027Y-71491466D02*
X166661027Y-71253371D01*
X166661027Y-71253371D02*
X166708646Y-71062895D01*
X166708646Y-71062895D02*
X166756265Y-70967657D01*
X166756265Y-70967657D02*
X166803884Y-70920038D01*
X166803884Y-70920038D02*
X166899122Y-70872419D01*
X143766265Y-115410704D02*
X144242455Y-115410704D01*
X143671027Y-115696419D02*
X144004360Y-114696419D01*
X144004360Y-114696419D02*
X144337693Y-115696419D01*
X144671027Y-115696419D02*
X144671027Y-114696419D01*
X144671027Y-114696419D02*
X145242455Y-115696419D01*
X145242455Y-115696419D02*
X145242455Y-114696419D01*
X145575789Y-114696419D02*
X146147217Y-114696419D01*
X145861503Y-115696419D02*
X145861503Y-114696419D01*
X153481693Y-84962419D02*
X152910265Y-84962419D01*
X153195979Y-84962419D02*
X153195979Y-83962419D01*
X153195979Y-83962419D02*
X153100741Y-84105276D01*
X153100741Y-84105276D02*
X153005503Y-84200514D01*
X153005503Y-84200514D02*
X152910265Y-84248133D01*
X154338836Y-84295752D02*
X154338836Y-84962419D01*
X153910265Y-84295752D02*
X153910265Y-84819561D01*
X153910265Y-84819561D02*
X153957884Y-84914800D01*
X153957884Y-84914800D02*
X154053122Y-84962419D01*
X154053122Y-84962419D02*
X154195979Y-84962419D01*
X154195979Y-84962419D02*
X154291217Y-84914800D01*
X154291217Y-84914800D02*
X154338836Y-84867180D01*
X159756265Y-71467657D02*
X159803884Y-71420038D01*
X159803884Y-71420038D02*
X159899122Y-71372419D01*
X159899122Y-71372419D02*
X160137217Y-71372419D01*
X160137217Y-71372419D02*
X160232455Y-71420038D01*
X160232455Y-71420038D02*
X160280074Y-71467657D01*
X160280074Y-71467657D02*
X160327693Y-71562895D01*
X160327693Y-71562895D02*
X160327693Y-71658133D01*
X160327693Y-71658133D02*
X160280074Y-71800990D01*
X160280074Y-71800990D02*
X159708646Y-72372419D01*
X159708646Y-72372419D02*
X160327693Y-72372419D01*
X160756265Y-72372419D02*
X160756265Y-71372419D01*
X161327693Y-72372419D02*
X160899122Y-71800990D01*
X161327693Y-71372419D02*
X160756265Y-71943847D01*
X161609693Y-91820419D02*
X161038265Y-91820419D01*
X161323979Y-91820419D02*
X161323979Y-90820419D01*
X161323979Y-90820419D02*
X161228741Y-90963276D01*
X161228741Y-90963276D02*
X161133503Y-91058514D01*
X161133503Y-91058514D02*
X161038265Y-91106133D01*
X162466836Y-91153752D02*
X162466836Y-91820419D01*
X162038265Y-91153752D02*
X162038265Y-91677561D01*
X162038265Y-91677561D02*
X162085884Y-91772800D01*
X162085884Y-91772800D02*
X162181122Y-91820419D01*
X162181122Y-91820419D02*
X162323979Y-91820419D01*
X162323979Y-91820419D02*
X162419217Y-91772800D01*
X162419217Y-91772800D02*
X162466836Y-91725180D01*
X163276360Y-91296609D02*
X162943027Y-91296609D01*
X162943027Y-91820419D02*
X162943027Y-90820419D01*
X162943027Y-90820419D02*
X163419217Y-90820419D01*
X162752741Y-112201609D02*
X162467027Y-112201609D01*
X162609884Y-112201609D02*
X162609884Y-111701609D01*
X162609884Y-111701609D02*
X162562265Y-111773038D01*
X162562265Y-111773038D02*
X162514646Y-111820657D01*
X162514646Y-111820657D02*
X162467027Y-111844466D01*
X163062264Y-111701609D02*
X163109883Y-111701609D01*
X163109883Y-111701609D02*
X163157502Y-111725419D01*
X163157502Y-111725419D02*
X163181312Y-111749228D01*
X163181312Y-111749228D02*
X163205121Y-111796847D01*
X163205121Y-111796847D02*
X163228931Y-111892085D01*
X163228931Y-111892085D02*
X163228931Y-112011133D01*
X163228931Y-112011133D02*
X163205121Y-112106371D01*
X163205121Y-112106371D02*
X163181312Y-112153990D01*
X163181312Y-112153990D02*
X163157502Y-112177800D01*
X163157502Y-112177800D02*
X163109883Y-112201609D01*
X163109883Y-112201609D02*
X163062264Y-112201609D01*
X163062264Y-112201609D02*
X163014645Y-112177800D01*
X163014645Y-112177800D02*
X162990836Y-112153990D01*
X162990836Y-112153990D02*
X162967026Y-112106371D01*
X162967026Y-112106371D02*
X162943217Y-112011133D01*
X162943217Y-112011133D02*
X162943217Y-111892085D01*
X162943217Y-111892085D02*
X162967026Y-111796847D01*
X162967026Y-111796847D02*
X162990836Y-111749228D01*
X162990836Y-111749228D02*
X163014645Y-111725419D01*
X163014645Y-111725419D02*
X163062264Y-111701609D01*
X163657502Y-111868276D02*
X163657502Y-112201609D01*
X163443216Y-111868276D02*
X163443216Y-112130180D01*
X163443216Y-112130180D02*
X163467026Y-112177800D01*
X163467026Y-112177800D02*
X163514645Y-112201609D01*
X163514645Y-112201609D02*
X163586073Y-112201609D01*
X163586073Y-112201609D02*
X163633692Y-112177800D01*
X163633692Y-112177800D02*
X163657502Y-112153990D01*
X160228646Y-104028419D02*
X160847693Y-104028419D01*
X160847693Y-104028419D02*
X160514360Y-104409371D01*
X160514360Y-104409371D02*
X160657217Y-104409371D01*
X160657217Y-104409371D02*
X160752455Y-104456990D01*
X160752455Y-104456990D02*
X160800074Y-104504609D01*
X160800074Y-104504609D02*
X160847693Y-104599847D01*
X160847693Y-104599847D02*
X160847693Y-104837942D01*
X160847693Y-104837942D02*
X160800074Y-104933180D01*
X160800074Y-104933180D02*
X160752455Y-104980800D01*
X160752455Y-104980800D02*
X160657217Y-105028419D01*
X160657217Y-105028419D02*
X160371503Y-105028419D01*
X160371503Y-105028419D02*
X160276265Y-104980800D01*
X160276265Y-104980800D02*
X160228646Y-104933180D01*
X161323884Y-105028419D02*
X161514360Y-105028419D01*
X161514360Y-105028419D02*
X161609598Y-104980800D01*
X161609598Y-104980800D02*
X161657217Y-104933180D01*
X161657217Y-104933180D02*
X161752455Y-104790323D01*
X161752455Y-104790323D02*
X161800074Y-104599847D01*
X161800074Y-104599847D02*
X161800074Y-104218895D01*
X161800074Y-104218895D02*
X161752455Y-104123657D01*
X161752455Y-104123657D02*
X161704836Y-104076038D01*
X161704836Y-104076038D02*
X161609598Y-104028419D01*
X161609598Y-104028419D02*
X161419122Y-104028419D01*
X161419122Y-104028419D02*
X161323884Y-104076038D01*
X161323884Y-104076038D02*
X161276265Y-104123657D01*
X161276265Y-104123657D02*
X161228646Y-104218895D01*
X161228646Y-104218895D02*
X161228646Y-104456990D01*
X161228646Y-104456990D02*
X161276265Y-104552228D01*
X161276265Y-104552228D02*
X161323884Y-104599847D01*
X161323884Y-104599847D02*
X161419122Y-104647466D01*
X161419122Y-104647466D02*
X161609598Y-104647466D01*
X161609598Y-104647466D02*
X161704836Y-104599847D01*
X161704836Y-104599847D02*
X161752455Y-104552228D01*
X161752455Y-104552228D02*
X161800074Y-104456990D01*
X162419122Y-104028419D02*
X162514360Y-104028419D01*
X162514360Y-104028419D02*
X162609598Y-104076038D01*
X162609598Y-104076038D02*
X162657217Y-104123657D01*
X162657217Y-104123657D02*
X162704836Y-104218895D01*
X162704836Y-104218895D02*
X162752455Y-104409371D01*
X162752455Y-104409371D02*
X162752455Y-104647466D01*
X162752455Y-104647466D02*
X162704836Y-104837942D01*
X162704836Y-104837942D02*
X162657217Y-104933180D01*
X162657217Y-104933180D02*
X162609598Y-104980800D01*
X162609598Y-104980800D02*
X162514360Y-105028419D01*
X162514360Y-105028419D02*
X162419122Y-105028419D01*
X162419122Y-105028419D02*
X162323884Y-104980800D01*
X162323884Y-104980800D02*
X162276265Y-104933180D01*
X162276265Y-104933180D02*
X162228646Y-104837942D01*
X162228646Y-104837942D02*
X162181027Y-104647466D01*
X162181027Y-104647466D02*
X162181027Y-104409371D01*
X162181027Y-104409371D02*
X162228646Y-104218895D01*
X162228646Y-104218895D02*
X162276265Y-104123657D01*
X162276265Y-104123657D02*
X162323884Y-104076038D01*
X162323884Y-104076038D02*
X162419122Y-104028419D01*
X163609598Y-104361752D02*
X163609598Y-105028419D01*
X163371503Y-103980800D02*
X163133408Y-104695085D01*
X163133408Y-104695085D02*
X163752455Y-104695085D01*
X137987693Y-86232419D02*
X137416265Y-86232419D01*
X137701979Y-86232419D02*
X137701979Y-85232419D01*
X137701979Y-85232419D02*
X137606741Y-85375276D01*
X137606741Y-85375276D02*
X137511503Y-85470514D01*
X137511503Y-85470514D02*
X137416265Y-85518133D01*
X138892455Y-85232419D02*
X138416265Y-85232419D01*
X138416265Y-85232419D02*
X138368646Y-85708609D01*
X138368646Y-85708609D02*
X138416265Y-85660990D01*
X138416265Y-85660990D02*
X138511503Y-85613371D01*
X138511503Y-85613371D02*
X138749598Y-85613371D01*
X138749598Y-85613371D02*
X138844836Y-85660990D01*
X138844836Y-85660990D02*
X138892455Y-85708609D01*
X138892455Y-85708609D02*
X138940074Y-85803847D01*
X138940074Y-85803847D02*
X138940074Y-86041942D01*
X138940074Y-86041942D02*
X138892455Y-86137180D01*
X138892455Y-86137180D02*
X138844836Y-86184800D01*
X138844836Y-86184800D02*
X138749598Y-86232419D01*
X138749598Y-86232419D02*
X138511503Y-86232419D01*
X138511503Y-86232419D02*
X138416265Y-86184800D01*
X138416265Y-86184800D02*
X138368646Y-86137180D01*
X139368646Y-85565752D02*
X139368646Y-86565752D01*
X139368646Y-85613371D02*
X139463884Y-85565752D01*
X139463884Y-85565752D02*
X139654360Y-85565752D01*
X139654360Y-85565752D02*
X139749598Y-85613371D01*
X139749598Y-85613371D02*
X139797217Y-85660990D01*
X139797217Y-85660990D02*
X139844836Y-85756228D01*
X139844836Y-85756228D02*
X139844836Y-86041942D01*
X139844836Y-86041942D02*
X139797217Y-86137180D01*
X139797217Y-86137180D02*
X139749598Y-86184800D01*
X139749598Y-86184800D02*
X139654360Y-86232419D01*
X139654360Y-86232419D02*
X139463884Y-86232419D01*
X139463884Y-86232419D02*
X139368646Y-86184800D01*
X155910646Y-107314419D02*
X156434455Y-106647752D01*
X155910646Y-106647752D02*
X156434455Y-107314419D01*
X157291598Y-106314419D02*
X156815408Y-106314419D01*
X156815408Y-106314419D02*
X156767789Y-106790609D01*
X156767789Y-106790609D02*
X156815408Y-106742990D01*
X156815408Y-106742990D02*
X156910646Y-106695371D01*
X156910646Y-106695371D02*
X157148741Y-106695371D01*
X157148741Y-106695371D02*
X157243979Y-106742990D01*
X157243979Y-106742990D02*
X157291598Y-106790609D01*
X157291598Y-106790609D02*
X157339217Y-106885847D01*
X157339217Y-106885847D02*
X157339217Y-107123942D01*
X157339217Y-107123942D02*
X157291598Y-107219180D01*
X157291598Y-107219180D02*
X157243979Y-107266800D01*
X157243979Y-107266800D02*
X157148741Y-107314419D01*
X157148741Y-107314419D02*
X156910646Y-107314419D01*
X156910646Y-107314419D02*
X156815408Y-107266800D01*
X156815408Y-107266800D02*
X156767789Y-107219180D01*
X154243693Y-91820419D02*
X153672265Y-91820419D01*
X153957979Y-91820419D02*
X153957979Y-90820419D01*
X153957979Y-90820419D02*
X153862741Y-90963276D01*
X153862741Y-90963276D02*
X153767503Y-91058514D01*
X153767503Y-91058514D02*
X153672265Y-91106133D01*
X155100836Y-91153752D02*
X155100836Y-91820419D01*
X154672265Y-91153752D02*
X154672265Y-91677561D01*
X154672265Y-91677561D02*
X154719884Y-91772800D01*
X154719884Y-91772800D02*
X154815122Y-91820419D01*
X154815122Y-91820419D02*
X154957979Y-91820419D01*
X154957979Y-91820419D02*
X155053217Y-91772800D01*
X155053217Y-91772800D02*
X155100836Y-91725180D01*
X155910360Y-91296609D02*
X155577027Y-91296609D01*
X155577027Y-91820419D02*
X155577027Y-90820419D01*
X155577027Y-90820419D02*
X156053217Y-90820419D01*
X152973693Y-107314419D02*
X152402265Y-107314419D01*
X152687979Y-107314419D02*
X152687979Y-106314419D01*
X152687979Y-106314419D02*
X152592741Y-106457276D01*
X152592741Y-106457276D02*
X152497503Y-106552514D01*
X152497503Y-106552514D02*
X152402265Y-106600133D01*
X153592741Y-106314419D02*
X153687979Y-106314419D01*
X153687979Y-106314419D02*
X153783217Y-106362038D01*
X153783217Y-106362038D02*
X153830836Y-106409657D01*
X153830836Y-106409657D02*
X153878455Y-106504895D01*
X153878455Y-106504895D02*
X153926074Y-106695371D01*
X153926074Y-106695371D02*
X153926074Y-106933466D01*
X153926074Y-106933466D02*
X153878455Y-107123942D01*
X153878455Y-107123942D02*
X153830836Y-107219180D01*
X153830836Y-107219180D02*
X153783217Y-107266800D01*
X153783217Y-107266800D02*
X153687979Y-107314419D01*
X153687979Y-107314419D02*
X153592741Y-107314419D01*
X153592741Y-107314419D02*
X153497503Y-107266800D01*
X153497503Y-107266800D02*
X153449884Y-107219180D01*
X153449884Y-107219180D02*
X153402265Y-107123942D01*
X153402265Y-107123942D02*
X153354646Y-106933466D01*
X153354646Y-106933466D02*
X153354646Y-106695371D01*
X153354646Y-106695371D02*
X153402265Y-106504895D01*
X153402265Y-106504895D02*
X153449884Y-106409657D01*
X153449884Y-106409657D02*
X153497503Y-106362038D01*
X153497503Y-106362038D02*
X153592741Y-106314419D01*
X154354646Y-107314419D02*
X154354646Y-106314419D01*
X154926074Y-107314419D02*
X154497503Y-106742990D01*
X154926074Y-106314419D02*
X154354646Y-106885847D01*
X136847609Y-65251925D02*
X136847609Y-65204306D01*
X136847609Y-65204306D02*
X136871419Y-65156687D01*
X136871419Y-65156687D02*
X136895228Y-65132877D01*
X136895228Y-65132877D02*
X136942847Y-65109068D01*
X136942847Y-65109068D02*
X137038085Y-65085258D01*
X137038085Y-65085258D02*
X137157133Y-65085258D01*
X137157133Y-65085258D02*
X137252371Y-65109068D01*
X137252371Y-65109068D02*
X137299990Y-65132877D01*
X137299990Y-65132877D02*
X137323800Y-65156687D01*
X137323800Y-65156687D02*
X137347609Y-65204306D01*
X137347609Y-65204306D02*
X137347609Y-65251925D01*
X137347609Y-65251925D02*
X137323800Y-65299544D01*
X137323800Y-65299544D02*
X137299990Y-65323353D01*
X137299990Y-65323353D02*
X137252371Y-65347163D01*
X137252371Y-65347163D02*
X137157133Y-65370972D01*
X137157133Y-65370972D02*
X137038085Y-65370972D01*
X137038085Y-65370972D02*
X136942847Y-65347163D01*
X136942847Y-65347163D02*
X136895228Y-65323353D01*
X136895228Y-65323353D02*
X136871419Y-65299544D01*
X136871419Y-65299544D02*
X136847609Y-65251925D01*
X137299990Y-64870973D02*
X137323800Y-64847163D01*
X137323800Y-64847163D02*
X137347609Y-64870973D01*
X137347609Y-64870973D02*
X137323800Y-64894782D01*
X137323800Y-64894782D02*
X137299990Y-64870973D01*
X137299990Y-64870973D02*
X137347609Y-64870973D01*
X137347609Y-64370973D02*
X137347609Y-64656687D01*
X137347609Y-64513830D02*
X136847609Y-64513830D01*
X136847609Y-64513830D02*
X136919038Y-64561449D01*
X136919038Y-64561449D02*
X136966657Y-64609068D01*
X136966657Y-64609068D02*
X136990466Y-64656687D01*
X137014276Y-63942402D02*
X137347609Y-63942402D01*
X137014276Y-64156688D02*
X137276180Y-64156688D01*
X137276180Y-64156688D02*
X137323800Y-64132878D01*
X137323800Y-64132878D02*
X137347609Y-64085259D01*
X137347609Y-64085259D02*
X137347609Y-64013831D01*
X137347609Y-64013831D02*
X137323800Y-63966212D01*
X137323800Y-63966212D02*
X137299990Y-63942402D01*
D11*
X158357673Y-51810266D02*
X159119578Y-51810266D01*
X158738625Y-52191219D02*
X158738625Y-51429314D01*
D10*
X141972360Y-84740228D02*
X141972360Y-85216419D01*
X141639027Y-84216419D02*
X141972360Y-84740228D01*
X141972360Y-84740228D02*
X142305693Y-84216419D01*
X143162836Y-85216419D02*
X142591408Y-85216419D01*
X142877122Y-85216419D02*
X142877122Y-84216419D01*
X142877122Y-84216419D02*
X142781884Y-84359276D01*
X142781884Y-84359276D02*
X142686646Y-84454514D01*
X142686646Y-84454514D02*
X142591408Y-84502133D01*
X157205752Y-68267544D02*
X157872419Y-68267544D01*
X156824800Y-68505639D02*
X157539085Y-68743734D01*
X157539085Y-68743734D02*
X157539085Y-68124687D01*
X157777180Y-67743734D02*
X157824800Y-67696115D01*
X157824800Y-67696115D02*
X157872419Y-67743734D01*
X157872419Y-67743734D02*
X157824800Y-67791353D01*
X157824800Y-67791353D02*
X157777180Y-67743734D01*
X157777180Y-67743734D02*
X157872419Y-67743734D01*
X156872419Y-67362782D02*
X156872419Y-66696116D01*
X156872419Y-66696116D02*
X157872419Y-67124687D01*
X157205752Y-65886592D02*
X157872419Y-65886592D01*
X157205752Y-66315163D02*
X157729561Y-66315163D01*
X157729561Y-66315163D02*
X157824800Y-66267544D01*
X157824800Y-66267544D02*
X157872419Y-66172306D01*
X157872419Y-66172306D02*
X157872419Y-66029449D01*
X157872419Y-66029449D02*
X157824800Y-65934211D01*
X157824800Y-65934211D02*
X157777180Y-65886592D01*
X157348609Y-65077068D02*
X157348609Y-65410401D01*
X157872419Y-65410401D02*
X156872419Y-65410401D01*
X156872419Y-65410401D02*
X156872419Y-64934211D01*
X163803884Y-62991466D02*
X164565789Y-62991466D01*
X164184836Y-63372419D02*
X164184836Y-62610514D01*
X143439329Y-94773312D02*
X143486948Y-94630455D01*
X143486948Y-94630455D02*
X143486948Y-94392360D01*
X143486948Y-94392360D02*
X143439329Y-94297122D01*
X143439329Y-94297122D02*
X143391709Y-94249503D01*
X143391709Y-94249503D02*
X143296471Y-94201884D01*
X143296471Y-94201884D02*
X143201233Y-94201884D01*
X143201233Y-94201884D02*
X143105995Y-94249503D01*
X143105995Y-94249503D02*
X143058376Y-94297122D01*
X143058376Y-94297122D02*
X143010757Y-94392360D01*
X143010757Y-94392360D02*
X142963138Y-94582836D01*
X142963138Y-94582836D02*
X142915519Y-94678074D01*
X142915519Y-94678074D02*
X142867900Y-94725693D01*
X142867900Y-94725693D02*
X142772662Y-94773312D01*
X142772662Y-94773312D02*
X142677424Y-94773312D01*
X142677424Y-94773312D02*
X142582186Y-94725693D01*
X142582186Y-94725693D02*
X142534567Y-94678074D01*
X142534567Y-94678074D02*
X142486948Y-94582836D01*
X142486948Y-94582836D02*
X142486948Y-94344741D01*
X142486948Y-94344741D02*
X142534567Y-94201884D01*
X142486948Y-93868550D02*
X143486948Y-93630455D01*
X143486948Y-93630455D02*
X142772662Y-93439979D01*
X142772662Y-93439979D02*
X143486948Y-93249503D01*
X143486948Y-93249503D02*
X142486948Y-93011408D01*
X143486948Y-92630455D02*
X142486948Y-92630455D01*
X142486948Y-92630455D02*
X142486948Y-92392360D01*
X142486948Y-92392360D02*
X142534567Y-92249503D01*
X142534567Y-92249503D02*
X142629805Y-92154265D01*
X142629805Y-92154265D02*
X142725043Y-92106646D01*
X142725043Y-92106646D02*
X142915519Y-92059027D01*
X142915519Y-92059027D02*
X143058376Y-92059027D01*
X143058376Y-92059027D02*
X143248852Y-92106646D01*
X143248852Y-92106646D02*
X143344090Y-92154265D01*
X143344090Y-92154265D02*
X143439329Y-92249503D01*
X143439329Y-92249503D02*
X143486948Y-92392360D01*
X143486948Y-92392360D02*
X143486948Y-92630455D01*
X161867217Y-52887609D02*
X162010074Y-52935228D01*
X162010074Y-52935228D02*
X162057693Y-52982847D01*
X162057693Y-52982847D02*
X162105312Y-53078085D01*
X162105312Y-53078085D02*
X162105312Y-53220942D01*
X162105312Y-53220942D02*
X162057693Y-53316180D01*
X162057693Y-53316180D02*
X162010074Y-53363800D01*
X162010074Y-53363800D02*
X161914836Y-53411419D01*
X161914836Y-53411419D02*
X161533884Y-53411419D01*
X161533884Y-53411419D02*
X161533884Y-52411419D01*
X161533884Y-52411419D02*
X161867217Y-52411419D01*
X161867217Y-52411419D02*
X161962455Y-52459038D01*
X161962455Y-52459038D02*
X162010074Y-52506657D01*
X162010074Y-52506657D02*
X162057693Y-52601895D01*
X162057693Y-52601895D02*
X162057693Y-52697133D01*
X162057693Y-52697133D02*
X162010074Y-52792371D01*
X162010074Y-52792371D02*
X161962455Y-52839990D01*
X161962455Y-52839990D02*
X161867217Y-52887609D01*
X161867217Y-52887609D02*
X161533884Y-52887609D01*
X162486265Y-53125704D02*
X162962455Y-53125704D01*
X162391027Y-53411419D02*
X162724360Y-52411419D01*
X162724360Y-52411419D02*
X163057693Y-53411419D01*
X163248170Y-52411419D02*
X163819598Y-52411419D01*
X163533884Y-53411419D02*
X163533884Y-52411419D01*
X157021884Y-61848419D02*
X157021884Y-60848419D01*
X157021884Y-60848419D02*
X157355217Y-61562704D01*
X157355217Y-61562704D02*
X157688550Y-60848419D01*
X157688550Y-60848419D02*
X157688550Y-61848419D01*
X158736169Y-61753180D02*
X158688550Y-61800800D01*
X158688550Y-61800800D02*
X158545693Y-61848419D01*
X158545693Y-61848419D02*
X158450455Y-61848419D01*
X158450455Y-61848419D02*
X158307598Y-61800800D01*
X158307598Y-61800800D02*
X158212360Y-61705561D01*
X158212360Y-61705561D02*
X158164741Y-61610323D01*
X158164741Y-61610323D02*
X158117122Y-61419847D01*
X158117122Y-61419847D02*
X158117122Y-61276990D01*
X158117122Y-61276990D02*
X158164741Y-61086514D01*
X158164741Y-61086514D02*
X158212360Y-60991276D01*
X158212360Y-60991276D02*
X158307598Y-60896038D01*
X158307598Y-60896038D02*
X158450455Y-60848419D01*
X158450455Y-60848419D02*
X158545693Y-60848419D01*
X158545693Y-60848419D02*
X158688550Y-60896038D01*
X158688550Y-60896038D02*
X158736169Y-60943657D01*
X159164741Y-61848419D02*
X159164741Y-60848419D01*
X159164741Y-60848419D02*
X159545693Y-60848419D01*
X159545693Y-60848419D02*
X159640931Y-60896038D01*
X159640931Y-60896038D02*
X159688550Y-60943657D01*
X159688550Y-60943657D02*
X159736169Y-61038895D01*
X159736169Y-61038895D02*
X159736169Y-61181752D01*
X159736169Y-61181752D02*
X159688550Y-61276990D01*
X159688550Y-61276990D02*
X159640931Y-61324609D01*
X159640931Y-61324609D02*
X159545693Y-61372228D01*
X159545693Y-61372228D02*
X159164741Y-61372228D01*
X160069503Y-60848419D02*
X160736169Y-60848419D01*
X160736169Y-60848419D02*
X160307598Y-61848419D01*
X161021884Y-60848419D02*
X161640931Y-60848419D01*
X161640931Y-60848419D02*
X161307598Y-61229371D01*
X161307598Y-61229371D02*
X161450455Y-61229371D01*
X161450455Y-61229371D02*
X161545693Y-61276990D01*
X161545693Y-61276990D02*
X161593312Y-61324609D01*
X161593312Y-61324609D02*
X161640931Y-61419847D01*
X161640931Y-61419847D02*
X161640931Y-61657942D01*
X161640931Y-61657942D02*
X161593312Y-61753180D01*
X161593312Y-61753180D02*
X161545693Y-61800800D01*
X161545693Y-61800800D02*
X161450455Y-61848419D01*
X161450455Y-61848419D02*
X161164741Y-61848419D01*
X161164741Y-61848419D02*
X161069503Y-61800800D01*
X161069503Y-61800800D02*
X161021884Y-61753180D01*
X162212360Y-61276990D02*
X162117122Y-61229371D01*
X162117122Y-61229371D02*
X162069503Y-61181752D01*
X162069503Y-61181752D02*
X162021884Y-61086514D01*
X162021884Y-61086514D02*
X162021884Y-61038895D01*
X162021884Y-61038895D02*
X162069503Y-60943657D01*
X162069503Y-60943657D02*
X162117122Y-60896038D01*
X162117122Y-60896038D02*
X162212360Y-60848419D01*
X162212360Y-60848419D02*
X162402836Y-60848419D01*
X162402836Y-60848419D02*
X162498074Y-60896038D01*
X162498074Y-60896038D02*
X162545693Y-60943657D01*
X162545693Y-60943657D02*
X162593312Y-61038895D01*
X162593312Y-61038895D02*
X162593312Y-61086514D01*
X162593312Y-61086514D02*
X162545693Y-61181752D01*
X162545693Y-61181752D02*
X162498074Y-61229371D01*
X162498074Y-61229371D02*
X162402836Y-61276990D01*
X162402836Y-61276990D02*
X162212360Y-61276990D01*
X162212360Y-61276990D02*
X162117122Y-61324609D01*
X162117122Y-61324609D02*
X162069503Y-61372228D01*
X162069503Y-61372228D02*
X162021884Y-61467466D01*
X162021884Y-61467466D02*
X162021884Y-61657942D01*
X162021884Y-61657942D02*
X162069503Y-61753180D01*
X162069503Y-61753180D02*
X162117122Y-61800800D01*
X162117122Y-61800800D02*
X162212360Y-61848419D01*
X162212360Y-61848419D02*
X162402836Y-61848419D01*
X162402836Y-61848419D02*
X162498074Y-61800800D01*
X162498074Y-61800800D02*
X162545693Y-61753180D01*
X162545693Y-61753180D02*
X162593312Y-61657942D01*
X162593312Y-61657942D02*
X162593312Y-61467466D01*
X162593312Y-61467466D02*
X162545693Y-61372228D01*
X162545693Y-61372228D02*
X162498074Y-61324609D01*
X162498074Y-61324609D02*
X162402836Y-61276990D01*
X162926646Y-60848419D02*
X163545693Y-60848419D01*
X163545693Y-60848419D02*
X163212360Y-61229371D01*
X163212360Y-61229371D02*
X163355217Y-61229371D01*
X163355217Y-61229371D02*
X163450455Y-61276990D01*
X163450455Y-61276990D02*
X163498074Y-61324609D01*
X163498074Y-61324609D02*
X163545693Y-61419847D01*
X163545693Y-61419847D02*
X163545693Y-61657942D01*
X163545693Y-61657942D02*
X163498074Y-61753180D01*
X163498074Y-61753180D02*
X163450455Y-61800800D01*
X163450455Y-61800800D02*
X163355217Y-61848419D01*
X163355217Y-61848419D02*
X163069503Y-61848419D01*
X163069503Y-61848419D02*
X162974265Y-61800800D01*
X162974265Y-61800800D02*
X162926646Y-61753180D01*
X164498074Y-61848419D02*
X163926646Y-61848419D01*
X164212360Y-61848419D02*
X164212360Y-60848419D01*
X164212360Y-60848419D02*
X164117122Y-60991276D01*
X164117122Y-60991276D02*
X164021884Y-61086514D01*
X164021884Y-61086514D02*
X163926646Y-61134133D01*
X157581027Y-52406419D02*
X157914360Y-53406419D01*
X157914360Y-53406419D02*
X158247693Y-52406419D01*
X158581027Y-53406419D02*
X158581027Y-52406419D01*
X159057217Y-53406419D02*
X159057217Y-52406419D01*
X159057217Y-52406419D02*
X159628645Y-53406419D01*
X159628645Y-53406419D02*
X159628645Y-52406419D01*
X159233312Y-97059180D02*
X159185693Y-97106800D01*
X159185693Y-97106800D02*
X159042836Y-97154419D01*
X159042836Y-97154419D02*
X158947598Y-97154419D01*
X158947598Y-97154419D02*
X158804741Y-97106800D01*
X158804741Y-97106800D02*
X158709503Y-97011561D01*
X158709503Y-97011561D02*
X158661884Y-96916323D01*
X158661884Y-96916323D02*
X158614265Y-96725847D01*
X158614265Y-96725847D02*
X158614265Y-96582990D01*
X158614265Y-96582990D02*
X158661884Y-96392514D01*
X158661884Y-96392514D02*
X158709503Y-96297276D01*
X158709503Y-96297276D02*
X158804741Y-96202038D01*
X158804741Y-96202038D02*
X158947598Y-96154419D01*
X158947598Y-96154419D02*
X159042836Y-96154419D01*
X159042836Y-96154419D02*
X159185693Y-96202038D01*
X159185693Y-96202038D02*
X159233312Y-96249657D01*
X159614265Y-96868704D02*
X160090455Y-96868704D01*
X159519027Y-97154419D02*
X159852360Y-96154419D01*
X159852360Y-96154419D02*
X160185693Y-97154419D01*
X160376170Y-96154419D02*
X160947598Y-96154419D01*
X160661884Y-97154419D02*
X160661884Y-96154419D01*
X161185694Y-96154419D02*
X161804741Y-96154419D01*
X161804741Y-96154419D02*
X161471408Y-96535371D01*
X161471408Y-96535371D02*
X161614265Y-96535371D01*
X161614265Y-96535371D02*
X161709503Y-96582990D01*
X161709503Y-96582990D02*
X161757122Y-96630609D01*
X161757122Y-96630609D02*
X161804741Y-96725847D01*
X161804741Y-96725847D02*
X161804741Y-96963942D01*
X161804741Y-96963942D02*
X161757122Y-97059180D01*
X161757122Y-97059180D02*
X161709503Y-97106800D01*
X161709503Y-97106800D02*
X161614265Y-97154419D01*
X161614265Y-97154419D02*
X161328551Y-97154419D01*
X161328551Y-97154419D02*
X161233313Y-97106800D01*
X161233313Y-97106800D02*
X161185694Y-97059180D01*
X162185694Y-96249657D02*
X162233313Y-96202038D01*
X162233313Y-96202038D02*
X162328551Y-96154419D01*
X162328551Y-96154419D02*
X162566646Y-96154419D01*
X162566646Y-96154419D02*
X162661884Y-96202038D01*
X162661884Y-96202038D02*
X162709503Y-96249657D01*
X162709503Y-96249657D02*
X162757122Y-96344895D01*
X162757122Y-96344895D02*
X162757122Y-96440133D01*
X162757122Y-96440133D02*
X162709503Y-96582990D01*
X162709503Y-96582990D02*
X162138075Y-97154419D01*
X162138075Y-97154419D02*
X162757122Y-97154419D01*
X163376170Y-96154419D02*
X163471408Y-96154419D01*
X163471408Y-96154419D02*
X163566646Y-96202038D01*
X163566646Y-96202038D02*
X163614265Y-96249657D01*
X163614265Y-96249657D02*
X163661884Y-96344895D01*
X163661884Y-96344895D02*
X163709503Y-96535371D01*
X163709503Y-96535371D02*
X163709503Y-96773466D01*
X163709503Y-96773466D02*
X163661884Y-96963942D01*
X163661884Y-96963942D02*
X163614265Y-97059180D01*
X163614265Y-97059180D02*
X163566646Y-97106800D01*
X163566646Y-97106800D02*
X163471408Y-97154419D01*
X163471408Y-97154419D02*
X163376170Y-97154419D01*
X163376170Y-97154419D02*
X163280932Y-97106800D01*
X163280932Y-97106800D02*
X163233313Y-97059180D01*
X163233313Y-97059180D02*
X163185694Y-96963942D01*
X163185694Y-96963942D02*
X163138075Y-96773466D01*
X163138075Y-96773466D02*
X163138075Y-96535371D01*
X163138075Y-96535371D02*
X163185694Y-96344895D01*
X163185694Y-96344895D02*
X163233313Y-96249657D01*
X163233313Y-96249657D02*
X163280932Y-96202038D01*
X163280932Y-96202038D02*
X163376170Y-96154419D01*
X164328551Y-96154419D02*
X164423789Y-96154419D01*
X164423789Y-96154419D02*
X164519027Y-96202038D01*
X164519027Y-96202038D02*
X164566646Y-96249657D01*
X164566646Y-96249657D02*
X164614265Y-96344895D01*
X164614265Y-96344895D02*
X164661884Y-96535371D01*
X164661884Y-96535371D02*
X164661884Y-96773466D01*
X164661884Y-96773466D02*
X164614265Y-96963942D01*
X164614265Y-96963942D02*
X164566646Y-97059180D01*
X164566646Y-97059180D02*
X164519027Y-97106800D01*
X164519027Y-97106800D02*
X164423789Y-97154419D01*
X164423789Y-97154419D02*
X164328551Y-97154419D01*
X164328551Y-97154419D02*
X164233313Y-97106800D01*
X164233313Y-97106800D02*
X164185694Y-97059180D01*
X164185694Y-97059180D02*
X164138075Y-96963942D01*
X164138075Y-96963942D02*
X164090456Y-96773466D01*
X164090456Y-96773466D02*
X164090456Y-96535371D01*
X164090456Y-96535371D02*
X164138075Y-96344895D01*
X164138075Y-96344895D02*
X164185694Y-96249657D01*
X164185694Y-96249657D02*
X164233313Y-96202038D01*
X164233313Y-96202038D02*
X164328551Y-96154419D01*
X157291693Y-105282419D02*
X156720265Y-105282419D01*
X157005979Y-105282419D02*
X157005979Y-104282419D01*
X157005979Y-104282419D02*
X156910741Y-104425276D01*
X156910741Y-104425276D02*
X156815503Y-104520514D01*
X156815503Y-104520514D02*
X156720265Y-104568133D01*
X157720265Y-105282419D02*
X157720265Y-104282419D01*
X158291693Y-105282419D02*
X157863122Y-104710990D01*
X158291693Y-104282419D02*
X157720265Y-104853847D01*
X146623693Y-70230419D02*
X146052265Y-70230419D01*
X146337979Y-70230419D02*
X146337979Y-69230419D01*
X146337979Y-69230419D02*
X146242741Y-69373276D01*
X146242741Y-69373276D02*
X146147503Y-69468514D01*
X146147503Y-69468514D02*
X146052265Y-69516133D01*
X147480836Y-69563752D02*
X147480836Y-70230419D01*
X147052265Y-69563752D02*
X147052265Y-70087561D01*
X147052265Y-70087561D02*
X147099884Y-70182800D01*
X147099884Y-70182800D02*
X147195122Y-70230419D01*
X147195122Y-70230419D02*
X147337979Y-70230419D01*
X147337979Y-70230419D02*
X147433217Y-70182800D01*
X147433217Y-70182800D02*
X147480836Y-70135180D01*
X145001752Y-63783544D02*
X145668419Y-63783544D01*
X144620800Y-64021639D02*
X145335085Y-64259734D01*
X145335085Y-64259734D02*
X145335085Y-63640687D01*
X144668419Y-63354972D02*
X144668419Y-62688306D01*
X144668419Y-62688306D02*
X145668419Y-63116877D01*
X144668419Y-62116877D02*
X144668419Y-62021639D01*
X144668419Y-62021639D02*
X144716038Y-61926401D01*
X144716038Y-61926401D02*
X144763657Y-61878782D01*
X144763657Y-61878782D02*
X144858895Y-61831163D01*
X144858895Y-61831163D02*
X145049371Y-61783544D01*
X145049371Y-61783544D02*
X145287466Y-61783544D01*
X145287466Y-61783544D02*
X145477942Y-61831163D01*
X145477942Y-61831163D02*
X145573180Y-61878782D01*
X145573180Y-61878782D02*
X145620800Y-61926401D01*
X145620800Y-61926401D02*
X145668419Y-62021639D01*
X145668419Y-62021639D02*
X145668419Y-62116877D01*
X145668419Y-62116877D02*
X145620800Y-62212115D01*
X145620800Y-62212115D02*
X145573180Y-62259734D01*
X145573180Y-62259734D02*
X145477942Y-62307353D01*
X145477942Y-62307353D02*
X145287466Y-62354972D01*
X145287466Y-62354972D02*
X145049371Y-62354972D01*
X145049371Y-62354972D02*
X144858895Y-62307353D01*
X144858895Y-62307353D02*
X144763657Y-62259734D01*
X144763657Y-62259734D02*
X144716038Y-62212115D01*
X144716038Y-62212115D02*
X144668419Y-62116877D01*
X145668419Y-61354972D02*
X144668419Y-61354972D01*
X145668419Y-60783544D02*
X145096990Y-61212115D01*
X144668419Y-60783544D02*
X145239847Y-61354972D01*
D11*
X162167673Y-51810266D02*
X162929578Y-51810266D01*
X162548625Y-52191219D02*
X162548625Y-51429314D01*
D10*
X133480038Y-93974306D02*
X133432419Y-94069544D01*
X133432419Y-94069544D02*
X133432419Y-94212401D01*
X133432419Y-94212401D02*
X133480038Y-94355258D01*
X133480038Y-94355258D02*
X133575276Y-94450496D01*
X133575276Y-94450496D02*
X133670514Y-94498115D01*
X133670514Y-94498115D02*
X133860990Y-94545734D01*
X133860990Y-94545734D02*
X134003847Y-94545734D01*
X134003847Y-94545734D02*
X134194323Y-94498115D01*
X134194323Y-94498115D02*
X134289561Y-94450496D01*
X134289561Y-94450496D02*
X134384800Y-94355258D01*
X134384800Y-94355258D02*
X134432419Y-94212401D01*
X134432419Y-94212401D02*
X134432419Y-94117163D01*
X134432419Y-94117163D02*
X134384800Y-93974306D01*
X134384800Y-93974306D02*
X134337180Y-93926687D01*
X134337180Y-93926687D02*
X134003847Y-93926687D01*
X134003847Y-93926687D02*
X134003847Y-94117163D01*
X134432419Y-93498115D02*
X133432419Y-93498115D01*
X133432419Y-93498115D02*
X134432419Y-92926687D01*
X134432419Y-92926687D02*
X133432419Y-92926687D01*
X134432419Y-92450496D02*
X133432419Y-92450496D01*
X133432419Y-92450496D02*
X133432419Y-92212401D01*
X133432419Y-92212401D02*
X133480038Y-92069544D01*
X133480038Y-92069544D02*
X133575276Y-91974306D01*
X133575276Y-91974306D02*
X133670514Y-91926687D01*
X133670514Y-91926687D02*
X133860990Y-91879068D01*
X133860990Y-91879068D02*
X134003847Y-91879068D01*
X134003847Y-91879068D02*
X134194323Y-91926687D01*
X134194323Y-91926687D02*
X134289561Y-91974306D01*
X134289561Y-91974306D02*
X134384800Y-92069544D01*
X134384800Y-92069544D02*
X134432419Y-92212401D01*
X134432419Y-92212401D02*
X134432419Y-92450496D01*
X130558265Y-86184800D02*
X130701122Y-86232419D01*
X130701122Y-86232419D02*
X130939217Y-86232419D01*
X130939217Y-86232419D02*
X131034455Y-86184800D01*
X131034455Y-86184800D02*
X131082074Y-86137180D01*
X131082074Y-86137180D02*
X131129693Y-86041942D01*
X131129693Y-86041942D02*
X131129693Y-85946704D01*
X131129693Y-85946704D02*
X131082074Y-85851466D01*
X131082074Y-85851466D02*
X131034455Y-85803847D01*
X131034455Y-85803847D02*
X130939217Y-85756228D01*
X130939217Y-85756228D02*
X130748741Y-85708609D01*
X130748741Y-85708609D02*
X130653503Y-85660990D01*
X130653503Y-85660990D02*
X130605884Y-85613371D01*
X130605884Y-85613371D02*
X130558265Y-85518133D01*
X130558265Y-85518133D02*
X130558265Y-85422895D01*
X130558265Y-85422895D02*
X130605884Y-85327657D01*
X130605884Y-85327657D02*
X130653503Y-85280038D01*
X130653503Y-85280038D02*
X130748741Y-85232419D01*
X130748741Y-85232419D02*
X130986836Y-85232419D01*
X130986836Y-85232419D02*
X131129693Y-85280038D01*
X132129693Y-86137180D02*
X132082074Y-86184800D01*
X132082074Y-86184800D02*
X131939217Y-86232419D01*
X131939217Y-86232419D02*
X131843979Y-86232419D01*
X131843979Y-86232419D02*
X131701122Y-86184800D01*
X131701122Y-86184800D02*
X131605884Y-86089561D01*
X131605884Y-86089561D02*
X131558265Y-85994323D01*
X131558265Y-85994323D02*
X131510646Y-85803847D01*
X131510646Y-85803847D02*
X131510646Y-85660990D01*
X131510646Y-85660990D02*
X131558265Y-85470514D01*
X131558265Y-85470514D02*
X131605884Y-85375276D01*
X131605884Y-85375276D02*
X131701122Y-85280038D01*
X131701122Y-85280038D02*
X131843979Y-85232419D01*
X131843979Y-85232419D02*
X131939217Y-85232419D01*
X131939217Y-85232419D02*
X132082074Y-85280038D01*
X132082074Y-85280038D02*
X132129693Y-85327657D01*
X132463027Y-85232419D02*
X133082074Y-85232419D01*
X133082074Y-85232419D02*
X132748741Y-85613371D01*
X132748741Y-85613371D02*
X132891598Y-85613371D01*
X132891598Y-85613371D02*
X132986836Y-85660990D01*
X132986836Y-85660990D02*
X133034455Y-85708609D01*
X133034455Y-85708609D02*
X133082074Y-85803847D01*
X133082074Y-85803847D02*
X133082074Y-86041942D01*
X133082074Y-86041942D02*
X133034455Y-86137180D01*
X133034455Y-86137180D02*
X132986836Y-86184800D01*
X132986836Y-86184800D02*
X132891598Y-86232419D01*
X132891598Y-86232419D02*
X132605884Y-86232419D01*
X132605884Y-86232419D02*
X132510646Y-86184800D01*
X132510646Y-86184800D02*
X132463027Y-86137180D01*
X133463027Y-85327657D02*
X133510646Y-85280038D01*
X133510646Y-85280038D02*
X133605884Y-85232419D01*
X133605884Y-85232419D02*
X133843979Y-85232419D01*
X133843979Y-85232419D02*
X133939217Y-85280038D01*
X133939217Y-85280038D02*
X133986836Y-85327657D01*
X133986836Y-85327657D02*
X134034455Y-85422895D01*
X134034455Y-85422895D02*
X134034455Y-85518133D01*
X134034455Y-85518133D02*
X133986836Y-85660990D01*
X133986836Y-85660990D02*
X133415408Y-86232419D01*
X133415408Y-86232419D02*
X134034455Y-86232419D01*
X134415408Y-86184800D02*
X134558265Y-86232419D01*
X134558265Y-86232419D02*
X134796360Y-86232419D01*
X134796360Y-86232419D02*
X134891598Y-86184800D01*
X134891598Y-86184800D02*
X134939217Y-86137180D01*
X134939217Y-86137180D02*
X134986836Y-86041942D01*
X134986836Y-86041942D02*
X134986836Y-85946704D01*
X134986836Y-85946704D02*
X134939217Y-85851466D01*
X134939217Y-85851466D02*
X134891598Y-85803847D01*
X134891598Y-85803847D02*
X134796360Y-85756228D01*
X134796360Y-85756228D02*
X134605884Y-85708609D01*
X134605884Y-85708609D02*
X134510646Y-85660990D01*
X134510646Y-85660990D02*
X134463027Y-85613371D01*
X134463027Y-85613371D02*
X134415408Y-85518133D01*
X134415408Y-85518133D02*
X134415408Y-85422895D01*
X134415408Y-85422895D02*
X134463027Y-85327657D01*
X134463027Y-85327657D02*
X134510646Y-85280038D01*
X134510646Y-85280038D02*
X134605884Y-85232419D01*
X134605884Y-85232419D02*
X134843979Y-85232419D01*
X134843979Y-85232419D02*
X134986836Y-85280038D01*
X131129693Y-69722419D02*
X130558265Y-69722419D01*
X130843979Y-69722419D02*
X130843979Y-68722419D01*
X130843979Y-68722419D02*
X130748741Y-68865276D01*
X130748741Y-68865276D02*
X130653503Y-68960514D01*
X130653503Y-68960514D02*
X130558265Y-69008133D01*
X131986836Y-69055752D02*
X131986836Y-69722419D01*
X131558265Y-69055752D02*
X131558265Y-69579561D01*
X131558265Y-69579561D02*
X131605884Y-69674800D01*
X131605884Y-69674800D02*
X131701122Y-69722419D01*
X131701122Y-69722419D02*
X131843979Y-69722419D01*
X131843979Y-69722419D02*
X131939217Y-69674800D01*
X131939217Y-69674800D02*
X131986836Y-69627180D01*
X138302419Y-76134306D02*
X138302419Y-76705734D01*
X138302419Y-76420020D02*
X137302419Y-76420020D01*
X137302419Y-76420020D02*
X137445276Y-76515258D01*
X137445276Y-76515258D02*
X137540514Y-76610496D01*
X137540514Y-76610496D02*
X137588133Y-76705734D01*
X137302419Y-75515258D02*
X137302419Y-75420020D01*
X137302419Y-75420020D02*
X137350038Y-75324782D01*
X137350038Y-75324782D02*
X137397657Y-75277163D01*
X137397657Y-75277163D02*
X137492895Y-75229544D01*
X137492895Y-75229544D02*
X137683371Y-75181925D01*
X137683371Y-75181925D02*
X137921466Y-75181925D01*
X137921466Y-75181925D02*
X138111942Y-75229544D01*
X138111942Y-75229544D02*
X138207180Y-75277163D01*
X138207180Y-75277163D02*
X138254800Y-75324782D01*
X138254800Y-75324782D02*
X138302419Y-75420020D01*
X138302419Y-75420020D02*
X138302419Y-75515258D01*
X138302419Y-75515258D02*
X138254800Y-75610496D01*
X138254800Y-75610496D02*
X138207180Y-75658115D01*
X138207180Y-75658115D02*
X138111942Y-75705734D01*
X138111942Y-75705734D02*
X137921466Y-75753353D01*
X137921466Y-75753353D02*
X137683371Y-75753353D01*
X137683371Y-75753353D02*
X137492895Y-75705734D01*
X137492895Y-75705734D02*
X137397657Y-75658115D01*
X137397657Y-75658115D02*
X137350038Y-75610496D01*
X137350038Y-75610496D02*
X137302419Y-75515258D01*
X137635752Y-74324782D02*
X138302419Y-74324782D01*
X137635752Y-74753353D02*
X138159561Y-74753353D01*
X138159561Y-74753353D02*
X138254800Y-74705734D01*
X138254800Y-74705734D02*
X138302419Y-74610496D01*
X138302419Y-74610496D02*
X138302419Y-74467639D01*
X138302419Y-74467639D02*
X138254800Y-74372401D01*
X138254800Y-74372401D02*
X138207180Y-74324782D01*
X164618074Y-110939609D02*
X164665693Y-110939609D01*
X164665693Y-110939609D02*
X164713312Y-110963419D01*
X164713312Y-110963419D02*
X164737122Y-110987228D01*
X164737122Y-110987228D02*
X164760931Y-111034847D01*
X164760931Y-111034847D02*
X164784741Y-111130085D01*
X164784741Y-111130085D02*
X164784741Y-111249133D01*
X164784741Y-111249133D02*
X164760931Y-111344371D01*
X164760931Y-111344371D02*
X164737122Y-111391990D01*
X164737122Y-111391990D02*
X164713312Y-111415800D01*
X164713312Y-111415800D02*
X164665693Y-111439609D01*
X164665693Y-111439609D02*
X164618074Y-111439609D01*
X164618074Y-111439609D02*
X164570455Y-111415800D01*
X164570455Y-111415800D02*
X164546646Y-111391990D01*
X164546646Y-111391990D02*
X164522836Y-111344371D01*
X164522836Y-111344371D02*
X164499027Y-111249133D01*
X164499027Y-111249133D02*
X164499027Y-111130085D01*
X164499027Y-111130085D02*
X164522836Y-111034847D01*
X164522836Y-111034847D02*
X164546646Y-110987228D01*
X164546646Y-110987228D02*
X164570455Y-110963419D01*
X164570455Y-110963419D02*
X164618074Y-110939609D01*
X164999026Y-111391990D02*
X165022836Y-111415800D01*
X165022836Y-111415800D02*
X164999026Y-111439609D01*
X164999026Y-111439609D02*
X164975217Y-111415800D01*
X164975217Y-111415800D02*
X164999026Y-111391990D01*
X164999026Y-111391990D02*
X164999026Y-111439609D01*
X165499026Y-111439609D02*
X165213312Y-111439609D01*
X165356169Y-111439609D02*
X165356169Y-110939609D01*
X165356169Y-110939609D02*
X165308550Y-111011038D01*
X165308550Y-111011038D02*
X165260931Y-111058657D01*
X165260931Y-111058657D02*
X165213312Y-111082466D01*
X165927597Y-111106276D02*
X165927597Y-111439609D01*
X165713311Y-111106276D02*
X165713311Y-111368180D01*
X165713311Y-111368180D02*
X165737121Y-111415800D01*
X165737121Y-111415800D02*
X165784740Y-111439609D01*
X165784740Y-111439609D02*
X165856168Y-111439609D01*
X165856168Y-111439609D02*
X165903787Y-111415800D01*
X165903787Y-111415800D02*
X165927597Y-111391990D01*
X166232455Y-63705752D02*
X166232455Y-64372419D01*
X165994360Y-63324800D02*
X165756265Y-64039085D01*
X165756265Y-64039085D02*
X166375312Y-64039085D01*
X166756265Y-64277180D02*
X166803884Y-64324800D01*
X166803884Y-64324800D02*
X166756265Y-64372419D01*
X166756265Y-64372419D02*
X166708646Y-64324800D01*
X166708646Y-64324800D02*
X166756265Y-64277180D01*
X166756265Y-64277180D02*
X166756265Y-64372419D01*
X167137217Y-63372419D02*
X167803883Y-63372419D01*
X167803883Y-63372419D02*
X167375312Y-64372419D01*
X168613407Y-63705752D02*
X168613407Y-64372419D01*
X168184836Y-63705752D02*
X168184836Y-64229561D01*
X168184836Y-64229561D02*
X168232455Y-64324800D01*
X168232455Y-64324800D02*
X168327693Y-64372419D01*
X168327693Y-64372419D02*
X168470550Y-64372419D01*
X168470550Y-64372419D02*
X168565788Y-64324800D01*
X168565788Y-64324800D02*
X168613407Y-64277180D01*
X169422931Y-63848609D02*
X169089598Y-63848609D01*
X169089598Y-64372419D02*
X169089598Y-63372419D01*
X169089598Y-63372419D02*
X169565788Y-63372419D01*
X140019693Y-60578419D02*
X139448265Y-60578419D01*
X139733979Y-60578419D02*
X139733979Y-59578419D01*
X139733979Y-59578419D02*
X139638741Y-59721276D01*
X139638741Y-59721276D02*
X139543503Y-59816514D01*
X139543503Y-59816514D02*
X139448265Y-59864133D01*
X140448265Y-60578419D02*
X140448265Y-59578419D01*
X140543503Y-60197466D02*
X140829217Y-60578419D01*
X140829217Y-59911752D02*
X140448265Y-60292704D01*
X130097884Y-82676419D02*
X130097884Y-81676419D01*
X130097884Y-81676419D02*
X130431217Y-82390704D01*
X130431217Y-82390704D02*
X130764550Y-81676419D01*
X130764550Y-81676419D02*
X130764550Y-82676419D01*
X131812169Y-82581180D02*
X131764550Y-82628800D01*
X131764550Y-82628800D02*
X131621693Y-82676419D01*
X131621693Y-82676419D02*
X131526455Y-82676419D01*
X131526455Y-82676419D02*
X131383598Y-82628800D01*
X131383598Y-82628800D02*
X131288360Y-82533561D01*
X131288360Y-82533561D02*
X131240741Y-82438323D01*
X131240741Y-82438323D02*
X131193122Y-82247847D01*
X131193122Y-82247847D02*
X131193122Y-82104990D01*
X131193122Y-82104990D02*
X131240741Y-81914514D01*
X131240741Y-81914514D02*
X131288360Y-81819276D01*
X131288360Y-81819276D02*
X131383598Y-81724038D01*
X131383598Y-81724038D02*
X131526455Y-81676419D01*
X131526455Y-81676419D02*
X131621693Y-81676419D01*
X131621693Y-81676419D02*
X131764550Y-81724038D01*
X131764550Y-81724038D02*
X131812169Y-81771657D01*
X132240741Y-82676419D02*
X132240741Y-81676419D01*
X132240741Y-81676419D02*
X132621693Y-81676419D01*
X132621693Y-81676419D02*
X132716931Y-81724038D01*
X132716931Y-81724038D02*
X132764550Y-81771657D01*
X132764550Y-81771657D02*
X132812169Y-81866895D01*
X132812169Y-81866895D02*
X132812169Y-82009752D01*
X132812169Y-82009752D02*
X132764550Y-82104990D01*
X132764550Y-82104990D02*
X132716931Y-82152609D01*
X132716931Y-82152609D02*
X132621693Y-82200228D01*
X132621693Y-82200228D02*
X132240741Y-82200228D01*
X133145503Y-81676419D02*
X133812169Y-81676419D01*
X133812169Y-81676419D02*
X133383598Y-82676419D01*
X134240741Y-82676419D02*
X134431217Y-82676419D01*
X134431217Y-82676419D02*
X134526455Y-82628800D01*
X134526455Y-82628800D02*
X134574074Y-82581180D01*
X134574074Y-82581180D02*
X134669312Y-82438323D01*
X134669312Y-82438323D02*
X134716931Y-82247847D01*
X134716931Y-82247847D02*
X134716931Y-81866895D01*
X134716931Y-81866895D02*
X134669312Y-81771657D01*
X134669312Y-81771657D02*
X134621693Y-81724038D01*
X134621693Y-81724038D02*
X134526455Y-81676419D01*
X134526455Y-81676419D02*
X134335979Y-81676419D01*
X134335979Y-81676419D02*
X134240741Y-81724038D01*
X134240741Y-81724038D02*
X134193122Y-81771657D01*
X134193122Y-81771657D02*
X134145503Y-81866895D01*
X134145503Y-81866895D02*
X134145503Y-82104990D01*
X134145503Y-82104990D02*
X134193122Y-82200228D01*
X134193122Y-82200228D02*
X134240741Y-82247847D01*
X134240741Y-82247847D02*
X134335979Y-82295466D01*
X134335979Y-82295466D02*
X134526455Y-82295466D01*
X134526455Y-82295466D02*
X134621693Y-82247847D01*
X134621693Y-82247847D02*
X134669312Y-82200228D01*
X134669312Y-82200228D02*
X134716931Y-82104990D01*
X135574074Y-82009752D02*
X135574074Y-82676419D01*
X135335979Y-81628800D02*
X135097884Y-82343085D01*
X135097884Y-82343085D02*
X135716931Y-82343085D01*
X136288360Y-81676419D02*
X136383598Y-81676419D01*
X136383598Y-81676419D02*
X136478836Y-81724038D01*
X136478836Y-81724038D02*
X136526455Y-81771657D01*
X136526455Y-81771657D02*
X136574074Y-81866895D01*
X136574074Y-81866895D02*
X136621693Y-82057371D01*
X136621693Y-82057371D02*
X136621693Y-82295466D01*
X136621693Y-82295466D02*
X136574074Y-82485942D01*
X136574074Y-82485942D02*
X136526455Y-82581180D01*
X136526455Y-82581180D02*
X136478836Y-82628800D01*
X136478836Y-82628800D02*
X136383598Y-82676419D01*
X136383598Y-82676419D02*
X136288360Y-82676419D01*
X136288360Y-82676419D02*
X136193122Y-82628800D01*
X136193122Y-82628800D02*
X136145503Y-82581180D01*
X136145503Y-82581180D02*
X136097884Y-82485942D01*
X136097884Y-82485942D02*
X136050265Y-82295466D01*
X136050265Y-82295466D02*
X136050265Y-82057371D01*
X136050265Y-82057371D02*
X136097884Y-81866895D01*
X136097884Y-81866895D02*
X136145503Y-81771657D01*
X136145503Y-81771657D02*
X136193122Y-81724038D01*
X136193122Y-81724038D02*
X136288360Y-81676419D01*
X155196265Y-85692704D02*
X155672455Y-85692704D01*
X155101027Y-85978419D02*
X155434360Y-84978419D01*
X155434360Y-84978419D02*
X155767693Y-85978419D01*
X156101027Y-85978419D02*
X156101027Y-84978419D01*
X156101027Y-84978419D02*
X156339122Y-84978419D01*
X156339122Y-84978419D02*
X156481979Y-85026038D01*
X156481979Y-85026038D02*
X156577217Y-85121276D01*
X156577217Y-85121276D02*
X156624836Y-85216514D01*
X156624836Y-85216514D02*
X156672455Y-85406990D01*
X156672455Y-85406990D02*
X156672455Y-85549847D01*
X156672455Y-85549847D02*
X156624836Y-85740323D01*
X156624836Y-85740323D02*
X156577217Y-85835561D01*
X156577217Y-85835561D02*
X156481979Y-85930800D01*
X156481979Y-85930800D02*
X156339122Y-85978419D01*
X156339122Y-85978419D02*
X156101027Y-85978419D01*
X157101027Y-85978419D02*
X157101027Y-84978419D01*
X157101027Y-84978419D02*
X157481979Y-84978419D01*
X157481979Y-84978419D02*
X157577217Y-85026038D01*
X157577217Y-85026038D02*
X157624836Y-85073657D01*
X157624836Y-85073657D02*
X157672455Y-85168895D01*
X157672455Y-85168895D02*
X157672455Y-85311752D01*
X157672455Y-85311752D02*
X157624836Y-85406990D01*
X157624836Y-85406990D02*
X157577217Y-85454609D01*
X157577217Y-85454609D02*
X157481979Y-85502228D01*
X157481979Y-85502228D02*
X157101027Y-85502228D01*
X158053408Y-85073657D02*
X158101027Y-85026038D01*
X158101027Y-85026038D02*
X158196265Y-84978419D01*
X158196265Y-84978419D02*
X158434360Y-84978419D01*
X158434360Y-84978419D02*
X158529598Y-85026038D01*
X158529598Y-85026038D02*
X158577217Y-85073657D01*
X158577217Y-85073657D02*
X158624836Y-85168895D01*
X158624836Y-85168895D02*
X158624836Y-85264133D01*
X158624836Y-85264133D02*
X158577217Y-85406990D01*
X158577217Y-85406990D02*
X158005789Y-85978419D01*
X158005789Y-85978419D02*
X158624836Y-85978419D01*
X159577217Y-85978419D02*
X159005789Y-85978419D01*
X159291503Y-85978419D02*
X159291503Y-84978419D01*
X159291503Y-84978419D02*
X159196265Y-85121276D01*
X159196265Y-85121276D02*
X159101027Y-85216514D01*
X159101027Y-85216514D02*
X159005789Y-85264133D01*
X160196265Y-84978419D02*
X160291503Y-84978419D01*
X160291503Y-84978419D02*
X160386741Y-85026038D01*
X160386741Y-85026038D02*
X160434360Y-85073657D01*
X160434360Y-85073657D02*
X160481979Y-85168895D01*
X160481979Y-85168895D02*
X160529598Y-85359371D01*
X160529598Y-85359371D02*
X160529598Y-85597466D01*
X160529598Y-85597466D02*
X160481979Y-85787942D01*
X160481979Y-85787942D02*
X160434360Y-85883180D01*
X160434360Y-85883180D02*
X160386741Y-85930800D01*
X160386741Y-85930800D02*
X160291503Y-85978419D01*
X160291503Y-85978419D02*
X160196265Y-85978419D01*
X160196265Y-85978419D02*
X160101027Y-85930800D01*
X160101027Y-85930800D02*
X160053408Y-85883180D01*
X160053408Y-85883180D02*
X160005789Y-85787942D01*
X160005789Y-85787942D02*
X159958170Y-85597466D01*
X159958170Y-85597466D02*
X159958170Y-85359371D01*
X159958170Y-85359371D02*
X160005789Y-85168895D01*
X160005789Y-85168895D02*
X160053408Y-85073657D01*
X160053408Y-85073657D02*
X160101027Y-85026038D01*
X160101027Y-85026038D02*
X160196265Y-84978419D01*
X161101027Y-85406990D02*
X161005789Y-85359371D01*
X161005789Y-85359371D02*
X160958170Y-85311752D01*
X160958170Y-85311752D02*
X160910551Y-85216514D01*
X160910551Y-85216514D02*
X160910551Y-85168895D01*
X160910551Y-85168895D02*
X160958170Y-85073657D01*
X160958170Y-85073657D02*
X161005789Y-85026038D01*
X161005789Y-85026038D02*
X161101027Y-84978419D01*
X161101027Y-84978419D02*
X161291503Y-84978419D01*
X161291503Y-84978419D02*
X161386741Y-85026038D01*
X161386741Y-85026038D02*
X161434360Y-85073657D01*
X161434360Y-85073657D02*
X161481979Y-85168895D01*
X161481979Y-85168895D02*
X161481979Y-85216514D01*
X161481979Y-85216514D02*
X161434360Y-85311752D01*
X161434360Y-85311752D02*
X161386741Y-85359371D01*
X161386741Y-85359371D02*
X161291503Y-85406990D01*
X161291503Y-85406990D02*
X161101027Y-85406990D01*
X161101027Y-85406990D02*
X161005789Y-85454609D01*
X161005789Y-85454609D02*
X160958170Y-85502228D01*
X160958170Y-85502228D02*
X160910551Y-85597466D01*
X160910551Y-85597466D02*
X160910551Y-85787942D01*
X160910551Y-85787942D02*
X160958170Y-85883180D01*
X160958170Y-85883180D02*
X161005789Y-85930800D01*
X161005789Y-85930800D02*
X161101027Y-85978419D01*
X161101027Y-85978419D02*
X161291503Y-85978419D01*
X161291503Y-85978419D02*
X161386741Y-85930800D01*
X161386741Y-85930800D02*
X161434360Y-85883180D01*
X161434360Y-85883180D02*
X161481979Y-85787942D01*
X161481979Y-85787942D02*
X161481979Y-85597466D01*
X161481979Y-85597466D02*
X161434360Y-85502228D01*
X161434360Y-85502228D02*
X161386741Y-85454609D01*
X161386741Y-85454609D02*
X161291503Y-85406990D01*
X138035312Y-91919180D02*
X137987693Y-91966800D01*
X137987693Y-91966800D02*
X137844836Y-92014419D01*
X137844836Y-92014419D02*
X137749598Y-92014419D01*
X137749598Y-92014419D02*
X137606741Y-91966800D01*
X137606741Y-91966800D02*
X137511503Y-91871561D01*
X137511503Y-91871561D02*
X137463884Y-91776323D01*
X137463884Y-91776323D02*
X137416265Y-91585847D01*
X137416265Y-91585847D02*
X137416265Y-91442990D01*
X137416265Y-91442990D02*
X137463884Y-91252514D01*
X137463884Y-91252514D02*
X137511503Y-91157276D01*
X137511503Y-91157276D02*
X137606741Y-91062038D01*
X137606741Y-91062038D02*
X137749598Y-91014419D01*
X137749598Y-91014419D02*
X137844836Y-91014419D01*
X137844836Y-91014419D02*
X137987693Y-91062038D01*
X137987693Y-91062038D02*
X138035312Y-91109657D01*
X138940074Y-92014419D02*
X138463884Y-92014419D01*
X138463884Y-92014419D02*
X138463884Y-91014419D01*
X139273408Y-92014419D02*
X139273408Y-91014419D01*
X139844836Y-92014419D02*
X139416265Y-91442990D01*
X139844836Y-91014419D02*
X139273408Y-91585847D01*
D11*
X150055006Y-61065409D02*
X150197863Y-61113028D01*
X150197863Y-61113028D02*
X150245482Y-61160647D01*
X150245482Y-61160647D02*
X150293101Y-61255885D01*
X150293101Y-61255885D02*
X150293101Y-61398742D01*
X150293101Y-61398742D02*
X150245482Y-61493980D01*
X150245482Y-61493980D02*
X150197863Y-61541600D01*
X150197863Y-61541600D02*
X150102625Y-61589219D01*
X150102625Y-61589219D02*
X149721673Y-61589219D01*
X149721673Y-61589219D02*
X149721673Y-60589219D01*
X149721673Y-60589219D02*
X150055006Y-60589219D01*
X150055006Y-60589219D02*
X150150244Y-60636838D01*
X150150244Y-60636838D02*
X150197863Y-60684457D01*
X150197863Y-60684457D02*
X150245482Y-60779695D01*
X150245482Y-60779695D02*
X150245482Y-60874933D01*
X150245482Y-60874933D02*
X150197863Y-60970171D01*
X150197863Y-60970171D02*
X150150244Y-61017790D01*
X150150244Y-61017790D02*
X150055006Y-61065409D01*
X150055006Y-61065409D02*
X149721673Y-61065409D01*
X150912149Y-60589219D02*
X151102625Y-60589219D01*
X151102625Y-60589219D02*
X151197863Y-60636838D01*
X151197863Y-60636838D02*
X151293101Y-60732076D01*
X151293101Y-60732076D02*
X151340720Y-60922552D01*
X151340720Y-60922552D02*
X151340720Y-61255885D01*
X151340720Y-61255885D02*
X151293101Y-61446361D01*
X151293101Y-61446361D02*
X151197863Y-61541600D01*
X151197863Y-61541600D02*
X151102625Y-61589219D01*
X151102625Y-61589219D02*
X150912149Y-61589219D01*
X150912149Y-61589219D02*
X150816911Y-61541600D01*
X150816911Y-61541600D02*
X150721673Y-61446361D01*
X150721673Y-61446361D02*
X150674054Y-61255885D01*
X150674054Y-61255885D02*
X150674054Y-60922552D01*
X150674054Y-60922552D02*
X150721673Y-60732076D01*
X150721673Y-60732076D02*
X150816911Y-60636838D01*
X150816911Y-60636838D02*
X150912149Y-60589219D01*
X151959768Y-60589219D02*
X152150244Y-60589219D01*
X152150244Y-60589219D02*
X152245482Y-60636838D01*
X152245482Y-60636838D02*
X152340720Y-60732076D01*
X152340720Y-60732076D02*
X152388339Y-60922552D01*
X152388339Y-60922552D02*
X152388339Y-61255885D01*
X152388339Y-61255885D02*
X152340720Y-61446361D01*
X152340720Y-61446361D02*
X152245482Y-61541600D01*
X152245482Y-61541600D02*
X152150244Y-61589219D01*
X152150244Y-61589219D02*
X151959768Y-61589219D01*
X151959768Y-61589219D02*
X151864530Y-61541600D01*
X151864530Y-61541600D02*
X151769292Y-61446361D01*
X151769292Y-61446361D02*
X151721673Y-61255885D01*
X151721673Y-61255885D02*
X151721673Y-60922552D01*
X151721673Y-60922552D02*
X151769292Y-60732076D01*
X151769292Y-60732076D02*
X151864530Y-60636838D01*
X151864530Y-60636838D02*
X151959768Y-60589219D01*
X152674054Y-60589219D02*
X153245482Y-60589219D01*
X152959768Y-61589219D02*
X152959768Y-60589219D01*
X153531197Y-61541600D02*
X153674054Y-61589219D01*
X153674054Y-61589219D02*
X153912149Y-61589219D01*
X153912149Y-61589219D02*
X154007387Y-61541600D01*
X154007387Y-61541600D02*
X154055006Y-61493980D01*
X154055006Y-61493980D02*
X154102625Y-61398742D01*
X154102625Y-61398742D02*
X154102625Y-61303504D01*
X154102625Y-61303504D02*
X154055006Y-61208266D01*
X154055006Y-61208266D02*
X154007387Y-61160647D01*
X154007387Y-61160647D02*
X153912149Y-61113028D01*
X153912149Y-61113028D02*
X153721673Y-61065409D01*
X153721673Y-61065409D02*
X153626435Y-61017790D01*
X153626435Y-61017790D02*
X153578816Y-60970171D01*
X153578816Y-60970171D02*
X153531197Y-60874933D01*
X153531197Y-60874933D02*
X153531197Y-60779695D01*
X153531197Y-60779695D02*
X153578816Y-60684457D01*
X153578816Y-60684457D02*
X153626435Y-60636838D01*
X153626435Y-60636838D02*
X153721673Y-60589219D01*
X153721673Y-60589219D02*
X153959768Y-60589219D01*
X153959768Y-60589219D02*
X154102625Y-60636838D01*
X154531197Y-61065409D02*
X154864530Y-61065409D01*
X155007387Y-61589219D02*
X154531197Y-61589219D01*
X154531197Y-61589219D02*
X154531197Y-60589219D01*
X154531197Y-60589219D02*
X155007387Y-60589219D01*
X155912149Y-61589219D02*
X155435959Y-61589219D01*
X155435959Y-61589219D02*
X155435959Y-60589219D01*
D10*
X147827419Y-86167306D02*
X147827419Y-86738734D01*
X147827419Y-86453020D02*
X146827419Y-86453020D01*
X146827419Y-86453020D02*
X146970276Y-86548258D01*
X146970276Y-86548258D02*
X147065514Y-86643496D01*
X147065514Y-86643496D02*
X147113133Y-86738734D01*
X147827419Y-85738734D02*
X146827419Y-85738734D01*
X147446466Y-85643496D02*
X147827419Y-85357782D01*
X147160752Y-85357782D02*
X147541704Y-85738734D01*
D12*
X168954819Y-71142857D02*
X168478628Y-71476190D01*
X168954819Y-71714285D02*
X167954819Y-71714285D01*
X167954819Y-71714285D02*
X167954819Y-71333333D01*
X167954819Y-71333333D02*
X168002438Y-71238095D01*
X168002438Y-71238095D02*
X168050057Y-71190476D01*
X168050057Y-71190476D02*
X168145295Y-71142857D01*
X168145295Y-71142857D02*
X168288152Y-71142857D01*
X168288152Y-71142857D02*
X168383390Y-71190476D01*
X168383390Y-71190476D02*
X168431009Y-71238095D01*
X168431009Y-71238095D02*
X168478628Y-71333333D01*
X168478628Y-71333333D02*
X168478628Y-71714285D01*
X168954819Y-70190476D02*
X168954819Y-70761904D01*
X168954819Y-70476190D02*
X167954819Y-70476190D01*
X167954819Y-70476190D02*
X168097676Y-70571428D01*
X168097676Y-70571428D02*
X168192914Y-70666666D01*
X168192914Y-70666666D02*
X168240533Y-70761904D01*
X168288152Y-69333333D02*
X168954819Y-69333333D01*
X167907200Y-69571428D02*
X168621485Y-69809523D01*
X168621485Y-69809523D02*
X168621485Y-69190476D01*
X150859580Y-106642857D02*
X150907200Y-106690476D01*
X150907200Y-106690476D02*
X150954819Y-106833333D01*
X150954819Y-106833333D02*
X150954819Y-106928571D01*
X150954819Y-106928571D02*
X150907200Y-107071428D01*
X150907200Y-107071428D02*
X150811961Y-107166666D01*
X150811961Y-107166666D02*
X150716723Y-107214285D01*
X150716723Y-107214285D02*
X150526247Y-107261904D01*
X150526247Y-107261904D02*
X150383390Y-107261904D01*
X150383390Y-107261904D02*
X150192914Y-107214285D01*
X150192914Y-107214285D02*
X150097676Y-107166666D01*
X150097676Y-107166666D02*
X150002438Y-107071428D01*
X150002438Y-107071428D02*
X149954819Y-106928571D01*
X149954819Y-106928571D02*
X149954819Y-106833333D01*
X149954819Y-106833333D02*
X150002438Y-106690476D01*
X150002438Y-106690476D02*
X150050057Y-106642857D01*
X150954819Y-105690476D02*
X150954819Y-106261904D01*
X150954819Y-105976190D02*
X149954819Y-105976190D01*
X149954819Y-105976190D02*
X150097676Y-106071428D01*
X150097676Y-106071428D02*
X150192914Y-106166666D01*
X150192914Y-106166666D02*
X150240533Y-106261904D01*
X149954819Y-105357142D02*
X149954819Y-104690476D01*
X149954819Y-104690476D02*
X150954819Y-105119047D01*
X140803333Y-63700819D02*
X140470000Y-63224628D01*
X140231905Y-63700819D02*
X140231905Y-62700819D01*
X140231905Y-62700819D02*
X140612857Y-62700819D01*
X140612857Y-62700819D02*
X140708095Y-62748438D01*
X140708095Y-62748438D02*
X140755714Y-62796057D01*
X140755714Y-62796057D02*
X140803333Y-62891295D01*
X140803333Y-62891295D02*
X140803333Y-63034152D01*
X140803333Y-63034152D02*
X140755714Y-63129390D01*
X140755714Y-63129390D02*
X140708095Y-63177009D01*
X140708095Y-63177009D02*
X140612857Y-63224628D01*
X140612857Y-63224628D02*
X140231905Y-63224628D01*
X141184286Y-62796057D02*
X141231905Y-62748438D01*
X141231905Y-62748438D02*
X141327143Y-62700819D01*
X141327143Y-62700819D02*
X141565238Y-62700819D01*
X141565238Y-62700819D02*
X141660476Y-62748438D01*
X141660476Y-62748438D02*
X141708095Y-62796057D01*
X141708095Y-62796057D02*
X141755714Y-62891295D01*
X141755714Y-62891295D02*
X141755714Y-62986533D01*
X141755714Y-62986533D02*
X141708095Y-63129390D01*
X141708095Y-63129390D02*
X141136667Y-63700819D01*
X141136667Y-63700819D02*
X141755714Y-63700819D01*
X144510819Y-65444666D02*
X144034628Y-65777999D01*
X144510819Y-66016094D02*
X143510819Y-66016094D01*
X143510819Y-66016094D02*
X143510819Y-65635142D01*
X143510819Y-65635142D02*
X143558438Y-65539904D01*
X143558438Y-65539904D02*
X143606057Y-65492285D01*
X143606057Y-65492285D02*
X143701295Y-65444666D01*
X143701295Y-65444666D02*
X143844152Y-65444666D01*
X143844152Y-65444666D02*
X143939390Y-65492285D01*
X143939390Y-65492285D02*
X143987009Y-65539904D01*
X143987009Y-65539904D02*
X144034628Y-65635142D01*
X144034628Y-65635142D02*
X144034628Y-66016094D01*
X143510819Y-64587523D02*
X143510819Y-64777999D01*
X143510819Y-64777999D02*
X143558438Y-64873237D01*
X143558438Y-64873237D02*
X143606057Y-64920856D01*
X143606057Y-64920856D02*
X143748914Y-65016094D01*
X143748914Y-65016094D02*
X143939390Y-65063713D01*
X143939390Y-65063713D02*
X144320342Y-65063713D01*
X144320342Y-65063713D02*
X144415580Y-65016094D01*
X144415580Y-65016094D02*
X144463200Y-64968475D01*
X144463200Y-64968475D02*
X144510819Y-64873237D01*
X144510819Y-64873237D02*
X144510819Y-64682761D01*
X144510819Y-64682761D02*
X144463200Y-64587523D01*
X144463200Y-64587523D02*
X144415580Y-64539904D01*
X144415580Y-64539904D02*
X144320342Y-64492285D01*
X144320342Y-64492285D02*
X144082247Y-64492285D01*
X144082247Y-64492285D02*
X143987009Y-64539904D01*
X143987009Y-64539904D02*
X143939390Y-64587523D01*
X143939390Y-64587523D02*
X143891771Y-64682761D01*
X143891771Y-64682761D02*
X143891771Y-64873237D01*
X143891771Y-64873237D02*
X143939390Y-64968475D01*
X143939390Y-64968475D02*
X143987009Y-65016094D01*
X143987009Y-65016094D02*
X144082247Y-65063713D01*
X157501595Y-83388819D02*
X157501595Y-84198342D01*
X157501595Y-84198342D02*
X157549214Y-84293580D01*
X157549214Y-84293580D02*
X157596833Y-84341200D01*
X157596833Y-84341200D02*
X157692071Y-84388819D01*
X157692071Y-84388819D02*
X157882547Y-84388819D01*
X157882547Y-84388819D02*
X157977785Y-84341200D01*
X157977785Y-84341200D02*
X158025404Y-84293580D01*
X158025404Y-84293580D02*
X158073023Y-84198342D01*
X158073023Y-84198342D02*
X158073023Y-83388819D01*
X158453976Y-83388819D02*
X159073023Y-83388819D01*
X159073023Y-83388819D02*
X158739690Y-83769771D01*
X158739690Y-83769771D02*
X158882547Y-83769771D01*
X158882547Y-83769771D02*
X158977785Y-83817390D01*
X158977785Y-83817390D02*
X159025404Y-83865009D01*
X159025404Y-83865009D02*
X159073023Y-83960247D01*
X159073023Y-83960247D02*
X159073023Y-84198342D01*
X159073023Y-84198342D02*
X159025404Y-84293580D01*
X159025404Y-84293580D02*
X158977785Y-84341200D01*
X158977785Y-84341200D02*
X158882547Y-84388819D01*
X158882547Y-84388819D02*
X158596833Y-84388819D01*
X158596833Y-84388819D02*
X158501595Y-84341200D01*
X158501595Y-84341200D02*
X158453976Y-84293580D01*
X142748095Y-73974319D02*
X142748095Y-74783842D01*
X142748095Y-74783842D02*
X142795714Y-74879080D01*
X142795714Y-74879080D02*
X142843333Y-74926700D01*
X142843333Y-74926700D02*
X142938571Y-74974319D01*
X142938571Y-74974319D02*
X143129047Y-74974319D01*
X143129047Y-74974319D02*
X143224285Y-74926700D01*
X143224285Y-74926700D02*
X143271904Y-74879080D01*
X143271904Y-74879080D02*
X143319523Y-74783842D01*
X143319523Y-74783842D02*
X143319523Y-73974319D01*
X144224285Y-74307652D02*
X144224285Y-74974319D01*
X143986190Y-73926700D02*
X143748095Y-74640985D01*
X143748095Y-74640985D02*
X144367142Y-74640985D01*
X137011580Y-76269857D02*
X137059200Y-76317476D01*
X137059200Y-76317476D02*
X137106819Y-76460333D01*
X137106819Y-76460333D02*
X137106819Y-76555571D01*
X137106819Y-76555571D02*
X137059200Y-76698428D01*
X137059200Y-76698428D02*
X136963961Y-76793666D01*
X136963961Y-76793666D02*
X136868723Y-76841285D01*
X136868723Y-76841285D02*
X136678247Y-76888904D01*
X136678247Y-76888904D02*
X136535390Y-76888904D01*
X136535390Y-76888904D02*
X136344914Y-76841285D01*
X136344914Y-76841285D02*
X136249676Y-76793666D01*
X136249676Y-76793666D02*
X136154438Y-76698428D01*
X136154438Y-76698428D02*
X136106819Y-76555571D01*
X136106819Y-76555571D02*
X136106819Y-76460333D01*
X136106819Y-76460333D02*
X136154438Y-76317476D01*
X136154438Y-76317476D02*
X136202057Y-76269857D01*
X136202057Y-75888904D02*
X136154438Y-75841285D01*
X136154438Y-75841285D02*
X136106819Y-75746047D01*
X136106819Y-75746047D02*
X136106819Y-75507952D01*
X136106819Y-75507952D02*
X136154438Y-75412714D01*
X136154438Y-75412714D02*
X136202057Y-75365095D01*
X136202057Y-75365095D02*
X136297295Y-75317476D01*
X136297295Y-75317476D02*
X136392533Y-75317476D01*
X136392533Y-75317476D02*
X136535390Y-75365095D01*
X136535390Y-75365095D02*
X137106819Y-75936523D01*
X137106819Y-75936523D02*
X137106819Y-75317476D01*
X136440152Y-74460333D02*
X137106819Y-74460333D01*
X136059200Y-74698428D02*
X136773485Y-74936523D01*
X136773485Y-74936523D02*
X136773485Y-74317476D01*
X129121819Y-78485904D02*
X129931342Y-78485904D01*
X129931342Y-78485904D02*
X130026580Y-78438285D01*
X130026580Y-78438285D02*
X130074200Y-78390666D01*
X130074200Y-78390666D02*
X130121819Y-78295428D01*
X130121819Y-78295428D02*
X130121819Y-78104952D01*
X130121819Y-78104952D02*
X130074200Y-78009714D01*
X130074200Y-78009714D02*
X130026580Y-77962095D01*
X130026580Y-77962095D02*
X129931342Y-77914476D01*
X129931342Y-77914476D02*
X129121819Y-77914476D01*
X129121819Y-77533523D02*
X129121819Y-76866857D01*
X129121819Y-76866857D02*
X130121819Y-77295428D01*
X158357142Y-63859580D02*
X158309523Y-63907200D01*
X158309523Y-63907200D02*
X158166666Y-63954819D01*
X158166666Y-63954819D02*
X158071428Y-63954819D01*
X158071428Y-63954819D02*
X157928571Y-63907200D01*
X157928571Y-63907200D02*
X157833333Y-63811961D01*
X157833333Y-63811961D02*
X157785714Y-63716723D01*
X157785714Y-63716723D02*
X157738095Y-63526247D01*
X157738095Y-63526247D02*
X157738095Y-63383390D01*
X157738095Y-63383390D02*
X157785714Y-63192914D01*
X157785714Y-63192914D02*
X157833333Y-63097676D01*
X157833333Y-63097676D02*
X157928571Y-63002438D01*
X157928571Y-63002438D02*
X158071428Y-62954819D01*
X158071428Y-62954819D02*
X158166666Y-62954819D01*
X158166666Y-62954819D02*
X158309523Y-63002438D01*
X158309523Y-63002438D02*
X158357142Y-63050057D01*
X158738095Y-63050057D02*
X158785714Y-63002438D01*
X158785714Y-63002438D02*
X158880952Y-62954819D01*
X158880952Y-62954819D02*
X159119047Y-62954819D01*
X159119047Y-62954819D02*
X159214285Y-63002438D01*
X159214285Y-63002438D02*
X159261904Y-63050057D01*
X159261904Y-63050057D02*
X159309523Y-63145295D01*
X159309523Y-63145295D02*
X159309523Y-63240533D01*
X159309523Y-63240533D02*
X159261904Y-63383390D01*
X159261904Y-63383390D02*
X158690476Y-63954819D01*
X158690476Y-63954819D02*
X159309523Y-63954819D01*
X159880952Y-63383390D02*
X159785714Y-63335771D01*
X159785714Y-63335771D02*
X159738095Y-63288152D01*
X159738095Y-63288152D02*
X159690476Y-63192914D01*
X159690476Y-63192914D02*
X159690476Y-63145295D01*
X159690476Y-63145295D02*
X159738095Y-63050057D01*
X159738095Y-63050057D02*
X159785714Y-63002438D01*
X159785714Y-63002438D02*
X159880952Y-62954819D01*
X159880952Y-62954819D02*
X160071428Y-62954819D01*
X160071428Y-62954819D02*
X160166666Y-63002438D01*
X160166666Y-63002438D02*
X160214285Y-63050057D01*
X160214285Y-63050057D02*
X160261904Y-63145295D01*
X160261904Y-63145295D02*
X160261904Y-63192914D01*
X160261904Y-63192914D02*
X160214285Y-63288152D01*
X160214285Y-63288152D02*
X160166666Y-63335771D01*
X160166666Y-63335771D02*
X160071428Y-63383390D01*
X160071428Y-63383390D02*
X159880952Y-63383390D01*
X159880952Y-63383390D02*
X159785714Y-63431009D01*
X159785714Y-63431009D02*
X159738095Y-63478628D01*
X159738095Y-63478628D02*
X159690476Y-63573866D01*
X159690476Y-63573866D02*
X159690476Y-63764342D01*
X159690476Y-63764342D02*
X159738095Y-63859580D01*
X159738095Y-63859580D02*
X159785714Y-63907200D01*
X159785714Y-63907200D02*
X159880952Y-63954819D01*
X159880952Y-63954819D02*
X160071428Y-63954819D01*
X160071428Y-63954819D02*
X160166666Y-63907200D01*
X160166666Y-63907200D02*
X160214285Y-63859580D01*
X160214285Y-63859580D02*
X160261904Y-63764342D01*
X160261904Y-63764342D02*
X160261904Y-63573866D01*
X160261904Y-63573866D02*
X160214285Y-63478628D01*
X160214285Y-63478628D02*
X160166666Y-63431009D01*
X160166666Y-63431009D02*
X160071428Y-63383390D01*
X157855595Y-91222819D02*
X157855595Y-92032342D01*
X157855595Y-92032342D02*
X157903214Y-92127580D01*
X157903214Y-92127580D02*
X157950833Y-92175200D01*
X157950833Y-92175200D02*
X158046071Y-92222819D01*
X158046071Y-92222819D02*
X158236547Y-92222819D01*
X158236547Y-92222819D02*
X158331785Y-92175200D01*
X158331785Y-92175200D02*
X158379404Y-92127580D01*
X158379404Y-92127580D02*
X158427023Y-92032342D01*
X158427023Y-92032342D02*
X158427023Y-91222819D01*
X159331785Y-91222819D02*
X159141309Y-91222819D01*
X159141309Y-91222819D02*
X159046071Y-91270438D01*
X159046071Y-91270438D02*
X158998452Y-91318057D01*
X158998452Y-91318057D02*
X158903214Y-91460914D01*
X158903214Y-91460914D02*
X158855595Y-91651390D01*
X158855595Y-91651390D02*
X158855595Y-92032342D01*
X158855595Y-92032342D02*
X158903214Y-92127580D01*
X158903214Y-92127580D02*
X158950833Y-92175200D01*
X158950833Y-92175200D02*
X159046071Y-92222819D01*
X159046071Y-92222819D02*
X159236547Y-92222819D01*
X159236547Y-92222819D02*
X159331785Y-92175200D01*
X159331785Y-92175200D02*
X159379404Y-92127580D01*
X159379404Y-92127580D02*
X159427023Y-92032342D01*
X159427023Y-92032342D02*
X159427023Y-91794247D01*
X159427023Y-91794247D02*
X159379404Y-91699009D01*
X159379404Y-91699009D02*
X159331785Y-91651390D01*
X159331785Y-91651390D02*
X159236547Y-91603771D01*
X159236547Y-91603771D02*
X159046071Y-91603771D01*
X159046071Y-91603771D02*
X158950833Y-91651390D01*
X158950833Y-91651390D02*
X158903214Y-91699009D01*
X158903214Y-91699009D02*
X158855595Y-91794247D01*
X140962142Y-86814819D02*
X140628809Y-86338628D01*
X140390714Y-86814819D02*
X140390714Y-85814819D01*
X140390714Y-85814819D02*
X140771666Y-85814819D01*
X140771666Y-85814819D02*
X140866904Y-85862438D01*
X140866904Y-85862438D02*
X140914523Y-85910057D01*
X140914523Y-85910057D02*
X140962142Y-86005295D01*
X140962142Y-86005295D02*
X140962142Y-86148152D01*
X140962142Y-86148152D02*
X140914523Y-86243390D01*
X140914523Y-86243390D02*
X140866904Y-86291009D01*
X140866904Y-86291009D02*
X140771666Y-86338628D01*
X140771666Y-86338628D02*
X140390714Y-86338628D01*
X141914523Y-86814819D02*
X141343095Y-86814819D01*
X141628809Y-86814819D02*
X141628809Y-85814819D01*
X141628809Y-85814819D02*
X141533571Y-85957676D01*
X141533571Y-85957676D02*
X141438333Y-86052914D01*
X141438333Y-86052914D02*
X141343095Y-86100533D01*
X142247857Y-85814819D02*
X142914523Y-85814819D01*
X142914523Y-85814819D02*
X142485952Y-86814819D01*
X156853142Y-101928819D02*
X156519809Y-101452628D01*
X156281714Y-101928819D02*
X156281714Y-100928819D01*
X156281714Y-100928819D02*
X156662666Y-100928819D01*
X156662666Y-100928819D02*
X156757904Y-100976438D01*
X156757904Y-100976438D02*
X156805523Y-101024057D01*
X156805523Y-101024057D02*
X156853142Y-101119295D01*
X156853142Y-101119295D02*
X156853142Y-101262152D01*
X156853142Y-101262152D02*
X156805523Y-101357390D01*
X156805523Y-101357390D02*
X156757904Y-101405009D01*
X156757904Y-101405009D02*
X156662666Y-101452628D01*
X156662666Y-101452628D02*
X156281714Y-101452628D01*
X157805523Y-101928819D02*
X157234095Y-101928819D01*
X157519809Y-101928819D02*
X157519809Y-100928819D01*
X157519809Y-100928819D02*
X157424571Y-101071676D01*
X157424571Y-101071676D02*
X157329333Y-101166914D01*
X157329333Y-101166914D02*
X157234095Y-101214533D01*
X158710285Y-100928819D02*
X158234095Y-100928819D01*
X158234095Y-100928819D02*
X158186476Y-101405009D01*
X158186476Y-101405009D02*
X158234095Y-101357390D01*
X158234095Y-101357390D02*
X158329333Y-101309771D01*
X158329333Y-101309771D02*
X158567428Y-101309771D01*
X158567428Y-101309771D02*
X158662666Y-101357390D01*
X158662666Y-101357390D02*
X158710285Y-101405009D01*
X158710285Y-101405009D02*
X158757904Y-101500247D01*
X158757904Y-101500247D02*
X158757904Y-101738342D01*
X158757904Y-101738342D02*
X158710285Y-101833580D01*
X158710285Y-101833580D02*
X158662666Y-101881200D01*
X158662666Y-101881200D02*
X158567428Y-101928819D01*
X158567428Y-101928819D02*
X158329333Y-101928819D01*
X158329333Y-101928819D02*
X158234095Y-101881200D01*
X158234095Y-101881200D02*
X158186476Y-101833580D01*
X164465080Y-81700666D02*
X164512700Y-81748285D01*
X164512700Y-81748285D02*
X164560319Y-81891142D01*
X164560319Y-81891142D02*
X164560319Y-81986380D01*
X164560319Y-81986380D02*
X164512700Y-82129237D01*
X164512700Y-82129237D02*
X164417461Y-82224475D01*
X164417461Y-82224475D02*
X164322223Y-82272094D01*
X164322223Y-82272094D02*
X164131747Y-82319713D01*
X164131747Y-82319713D02*
X163988890Y-82319713D01*
X163988890Y-82319713D02*
X163798414Y-82272094D01*
X163798414Y-82272094D02*
X163703176Y-82224475D01*
X163703176Y-82224475D02*
X163607938Y-82129237D01*
X163607938Y-82129237D02*
X163560319Y-81986380D01*
X163560319Y-81986380D02*
X163560319Y-81891142D01*
X163560319Y-81891142D02*
X163607938Y-81748285D01*
X163607938Y-81748285D02*
X163655557Y-81700666D01*
X163560319Y-81367332D02*
X163560319Y-80700666D01*
X163560319Y-80700666D02*
X164560319Y-81129237D01*
X168663580Y-66936857D02*
X168711200Y-66984476D01*
X168711200Y-66984476D02*
X168758819Y-67127333D01*
X168758819Y-67127333D02*
X168758819Y-67222571D01*
X168758819Y-67222571D02*
X168711200Y-67365428D01*
X168711200Y-67365428D02*
X168615961Y-67460666D01*
X168615961Y-67460666D02*
X168520723Y-67508285D01*
X168520723Y-67508285D02*
X168330247Y-67555904D01*
X168330247Y-67555904D02*
X168187390Y-67555904D01*
X168187390Y-67555904D02*
X167996914Y-67508285D01*
X167996914Y-67508285D02*
X167901676Y-67460666D01*
X167901676Y-67460666D02*
X167806438Y-67365428D01*
X167806438Y-67365428D02*
X167758819Y-67222571D01*
X167758819Y-67222571D02*
X167758819Y-67127333D01*
X167758819Y-67127333D02*
X167806438Y-66984476D01*
X167806438Y-66984476D02*
X167854057Y-66936857D01*
X167854057Y-66555904D02*
X167806438Y-66508285D01*
X167806438Y-66508285D02*
X167758819Y-66413047D01*
X167758819Y-66413047D02*
X167758819Y-66174952D01*
X167758819Y-66174952D02*
X167806438Y-66079714D01*
X167806438Y-66079714D02*
X167854057Y-66032095D01*
X167854057Y-66032095D02*
X167949295Y-65984476D01*
X167949295Y-65984476D02*
X168044533Y-65984476D01*
X168044533Y-65984476D02*
X168187390Y-66032095D01*
X168187390Y-66032095D02*
X168758819Y-66603523D01*
X168758819Y-66603523D02*
X168758819Y-65984476D01*
X168758819Y-65508285D02*
X168758819Y-65317809D01*
X168758819Y-65317809D02*
X168711200Y-65222571D01*
X168711200Y-65222571D02*
X168663580Y-65174952D01*
X168663580Y-65174952D02*
X168520723Y-65079714D01*
X168520723Y-65079714D02*
X168330247Y-65032095D01*
X168330247Y-65032095D02*
X167949295Y-65032095D01*
X167949295Y-65032095D02*
X167854057Y-65079714D01*
X167854057Y-65079714D02*
X167806438Y-65127333D01*
X167806438Y-65127333D02*
X167758819Y-65222571D01*
X167758819Y-65222571D02*
X167758819Y-65413047D01*
X167758819Y-65413047D02*
X167806438Y-65508285D01*
X167806438Y-65508285D02*
X167854057Y-65555904D01*
X167854057Y-65555904D02*
X167949295Y-65603523D01*
X167949295Y-65603523D02*
X168187390Y-65603523D01*
X168187390Y-65603523D02*
X168282628Y-65555904D01*
X168282628Y-65555904D02*
X168330247Y-65508285D01*
X168330247Y-65508285D02*
X168377866Y-65413047D01*
X168377866Y-65413047D02*
X168377866Y-65222571D01*
X168377866Y-65222571D02*
X168330247Y-65127333D01*
X168330247Y-65127333D02*
X168282628Y-65079714D01*
X168282628Y-65079714D02*
X168187390Y-65032095D01*
X147833333Y-93804819D02*
X147500000Y-93328628D01*
X147261905Y-93804819D02*
X147261905Y-92804819D01*
X147261905Y-92804819D02*
X147642857Y-92804819D01*
X147642857Y-92804819D02*
X147738095Y-92852438D01*
X147738095Y-92852438D02*
X147785714Y-92900057D01*
X147785714Y-92900057D02*
X147833333Y-92995295D01*
X147833333Y-92995295D02*
X147833333Y-93138152D01*
X147833333Y-93138152D02*
X147785714Y-93233390D01*
X147785714Y-93233390D02*
X147738095Y-93281009D01*
X147738095Y-93281009D02*
X147642857Y-93328628D01*
X147642857Y-93328628D02*
X147261905Y-93328628D01*
X148166667Y-92804819D02*
X148833333Y-92804819D01*
X148833333Y-92804819D02*
X148404762Y-93804819D01*
X137519580Y-60618666D02*
X137567200Y-60666285D01*
X137567200Y-60666285D02*
X137614819Y-60809142D01*
X137614819Y-60809142D02*
X137614819Y-60904380D01*
X137614819Y-60904380D02*
X137567200Y-61047237D01*
X137567200Y-61047237D02*
X137471961Y-61142475D01*
X137471961Y-61142475D02*
X137376723Y-61190094D01*
X137376723Y-61190094D02*
X137186247Y-61237713D01*
X137186247Y-61237713D02*
X137043390Y-61237713D01*
X137043390Y-61237713D02*
X136852914Y-61190094D01*
X136852914Y-61190094D02*
X136757676Y-61142475D01*
X136757676Y-61142475D02*
X136662438Y-61047237D01*
X136662438Y-61047237D02*
X136614819Y-60904380D01*
X136614819Y-60904380D02*
X136614819Y-60809142D01*
X136614819Y-60809142D02*
X136662438Y-60666285D01*
X136662438Y-60666285D02*
X136710057Y-60618666D01*
X137043390Y-60047237D02*
X136995771Y-60142475D01*
X136995771Y-60142475D02*
X136948152Y-60190094D01*
X136948152Y-60190094D02*
X136852914Y-60237713D01*
X136852914Y-60237713D02*
X136805295Y-60237713D01*
X136805295Y-60237713D02*
X136710057Y-60190094D01*
X136710057Y-60190094D02*
X136662438Y-60142475D01*
X136662438Y-60142475D02*
X136614819Y-60047237D01*
X136614819Y-60047237D02*
X136614819Y-59856761D01*
X136614819Y-59856761D02*
X136662438Y-59761523D01*
X136662438Y-59761523D02*
X136710057Y-59713904D01*
X136710057Y-59713904D02*
X136805295Y-59666285D01*
X136805295Y-59666285D02*
X136852914Y-59666285D01*
X136852914Y-59666285D02*
X136948152Y-59713904D01*
X136948152Y-59713904D02*
X136995771Y-59761523D01*
X136995771Y-59761523D02*
X137043390Y-59856761D01*
X137043390Y-59856761D02*
X137043390Y-60047237D01*
X137043390Y-60047237D02*
X137091009Y-60142475D01*
X137091009Y-60142475D02*
X137138628Y-60190094D01*
X137138628Y-60190094D02*
X137233866Y-60237713D01*
X137233866Y-60237713D02*
X137424342Y-60237713D01*
X137424342Y-60237713D02*
X137519580Y-60190094D01*
X137519580Y-60190094D02*
X137567200Y-60142475D01*
X137567200Y-60142475D02*
X137614819Y-60047237D01*
X137614819Y-60047237D02*
X137614819Y-59856761D01*
X137614819Y-59856761D02*
X137567200Y-59761523D01*
X137567200Y-59761523D02*
X137519580Y-59713904D01*
X137519580Y-59713904D02*
X137424342Y-59666285D01*
X137424342Y-59666285D02*
X137233866Y-59666285D01*
X137233866Y-59666285D02*
X137138628Y-59713904D01*
X137138628Y-59713904D02*
X137091009Y-59761523D01*
X137091009Y-59761523D02*
X137043390Y-59856761D01*
X130407580Y-88780857D02*
X130455200Y-88828476D01*
X130455200Y-88828476D02*
X130502819Y-88971333D01*
X130502819Y-88971333D02*
X130502819Y-89066571D01*
X130502819Y-89066571D02*
X130455200Y-89209428D01*
X130455200Y-89209428D02*
X130359961Y-89304666D01*
X130359961Y-89304666D02*
X130264723Y-89352285D01*
X130264723Y-89352285D02*
X130074247Y-89399904D01*
X130074247Y-89399904D02*
X129931390Y-89399904D01*
X129931390Y-89399904D02*
X129740914Y-89352285D01*
X129740914Y-89352285D02*
X129645676Y-89304666D01*
X129645676Y-89304666D02*
X129550438Y-89209428D01*
X129550438Y-89209428D02*
X129502819Y-89066571D01*
X129502819Y-89066571D02*
X129502819Y-88971333D01*
X129502819Y-88971333D02*
X129550438Y-88828476D01*
X129550438Y-88828476D02*
X129598057Y-88780857D01*
X129598057Y-88399904D02*
X129550438Y-88352285D01*
X129550438Y-88352285D02*
X129502819Y-88257047D01*
X129502819Y-88257047D02*
X129502819Y-88018952D01*
X129502819Y-88018952D02*
X129550438Y-87923714D01*
X129550438Y-87923714D02*
X129598057Y-87876095D01*
X129598057Y-87876095D02*
X129693295Y-87828476D01*
X129693295Y-87828476D02*
X129788533Y-87828476D01*
X129788533Y-87828476D02*
X129931390Y-87876095D01*
X129931390Y-87876095D02*
X130502819Y-88447523D01*
X130502819Y-88447523D02*
X130502819Y-87828476D01*
X129502819Y-86971333D02*
X129502819Y-87161809D01*
X129502819Y-87161809D02*
X129550438Y-87257047D01*
X129550438Y-87257047D02*
X129598057Y-87304666D01*
X129598057Y-87304666D02*
X129740914Y-87399904D01*
X129740914Y-87399904D02*
X129931390Y-87447523D01*
X129931390Y-87447523D02*
X130312342Y-87447523D01*
X130312342Y-87447523D02*
X130407580Y-87399904D01*
X130407580Y-87399904D02*
X130455200Y-87352285D01*
X130455200Y-87352285D02*
X130502819Y-87257047D01*
X130502819Y-87257047D02*
X130502819Y-87066571D01*
X130502819Y-87066571D02*
X130455200Y-86971333D01*
X130455200Y-86971333D02*
X130407580Y-86923714D01*
X130407580Y-86923714D02*
X130312342Y-86876095D01*
X130312342Y-86876095D02*
X130074247Y-86876095D01*
X130074247Y-86876095D02*
X129979009Y-86923714D01*
X129979009Y-86923714D02*
X129931390Y-86971333D01*
X129931390Y-86971333D02*
X129883771Y-87066571D01*
X129883771Y-87066571D02*
X129883771Y-87257047D01*
X129883771Y-87257047D02*
X129931390Y-87352285D01*
X129931390Y-87352285D02*
X129979009Y-87399904D01*
X129979009Y-87399904D02*
X130074247Y-87447523D01*
X154043142Y-96879580D02*
X153995523Y-96927200D01*
X153995523Y-96927200D02*
X153852666Y-96974819D01*
X153852666Y-96974819D02*
X153757428Y-96974819D01*
X153757428Y-96974819D02*
X153614571Y-96927200D01*
X153614571Y-96927200D02*
X153519333Y-96831961D01*
X153519333Y-96831961D02*
X153471714Y-96736723D01*
X153471714Y-96736723D02*
X153424095Y-96546247D01*
X153424095Y-96546247D02*
X153424095Y-96403390D01*
X153424095Y-96403390D02*
X153471714Y-96212914D01*
X153471714Y-96212914D02*
X153519333Y-96117676D01*
X153519333Y-96117676D02*
X153614571Y-96022438D01*
X153614571Y-96022438D02*
X153757428Y-95974819D01*
X153757428Y-95974819D02*
X153852666Y-95974819D01*
X153852666Y-95974819D02*
X153995523Y-96022438D01*
X153995523Y-96022438D02*
X154043142Y-96070057D01*
X154995523Y-96974819D02*
X154424095Y-96974819D01*
X154709809Y-96974819D02*
X154709809Y-95974819D01*
X154709809Y-95974819D02*
X154614571Y-96117676D01*
X154614571Y-96117676D02*
X154519333Y-96212914D01*
X154519333Y-96212914D02*
X154424095Y-96260533D01*
X155471714Y-96974819D02*
X155662190Y-96974819D01*
X155662190Y-96974819D02*
X155757428Y-96927200D01*
X155757428Y-96927200D02*
X155805047Y-96879580D01*
X155805047Y-96879580D02*
X155900285Y-96736723D01*
X155900285Y-96736723D02*
X155947904Y-96546247D01*
X155947904Y-96546247D02*
X155947904Y-96165295D01*
X155947904Y-96165295D02*
X155900285Y-96070057D01*
X155900285Y-96070057D02*
X155852666Y-96022438D01*
X155852666Y-96022438D02*
X155757428Y-95974819D01*
X155757428Y-95974819D02*
X155566952Y-95974819D01*
X155566952Y-95974819D02*
X155471714Y-96022438D01*
X155471714Y-96022438D02*
X155424095Y-96070057D01*
X155424095Y-96070057D02*
X155376476Y-96165295D01*
X155376476Y-96165295D02*
X155376476Y-96403390D01*
X155376476Y-96403390D02*
X155424095Y-96498628D01*
X155424095Y-96498628D02*
X155471714Y-96546247D01*
X155471714Y-96546247D02*
X155566952Y-96593866D01*
X155566952Y-96593866D02*
X155757428Y-96593866D01*
X155757428Y-96593866D02*
X155852666Y-96546247D01*
X155852666Y-96546247D02*
X155900285Y-96498628D01*
X155900285Y-96498628D02*
X155947904Y-96403390D01*
X158454819Y-71166666D02*
X157978628Y-71499999D01*
X158454819Y-71738094D02*
X157454819Y-71738094D01*
X157454819Y-71738094D02*
X157454819Y-71357142D01*
X157454819Y-71357142D02*
X157502438Y-71261904D01*
X157502438Y-71261904D02*
X157550057Y-71214285D01*
X157550057Y-71214285D02*
X157645295Y-71166666D01*
X157645295Y-71166666D02*
X157788152Y-71166666D01*
X157788152Y-71166666D02*
X157883390Y-71214285D01*
X157883390Y-71214285D02*
X157931009Y-71261904D01*
X157931009Y-71261904D02*
X157978628Y-71357142D01*
X157978628Y-71357142D02*
X157978628Y-71738094D01*
X158454819Y-70214285D02*
X158454819Y-70785713D01*
X158454819Y-70499999D02*
X157454819Y-70499999D01*
X157454819Y-70499999D02*
X157597676Y-70595237D01*
X157597676Y-70595237D02*
X157692914Y-70690475D01*
X157692914Y-70690475D02*
X157740533Y-70785713D01*
X148954819Y-66482666D02*
X148478628Y-66815999D01*
X148954819Y-67054094D02*
X147954819Y-67054094D01*
X147954819Y-67054094D02*
X147954819Y-66673142D01*
X147954819Y-66673142D02*
X148002438Y-66577904D01*
X148002438Y-66577904D02*
X148050057Y-66530285D01*
X148050057Y-66530285D02*
X148145295Y-66482666D01*
X148145295Y-66482666D02*
X148288152Y-66482666D01*
X148288152Y-66482666D02*
X148383390Y-66530285D01*
X148383390Y-66530285D02*
X148431009Y-66577904D01*
X148431009Y-66577904D02*
X148478628Y-66673142D01*
X148478628Y-66673142D02*
X148478628Y-67054094D01*
X148954819Y-66006475D02*
X148954819Y-65815999D01*
X148954819Y-65815999D02*
X148907200Y-65720761D01*
X148907200Y-65720761D02*
X148859580Y-65673142D01*
X148859580Y-65673142D02*
X148716723Y-65577904D01*
X148716723Y-65577904D02*
X148526247Y-65530285D01*
X148526247Y-65530285D02*
X148145295Y-65530285D01*
X148145295Y-65530285D02*
X148050057Y-65577904D01*
X148050057Y-65577904D02*
X148002438Y-65625523D01*
X148002438Y-65625523D02*
X147954819Y-65720761D01*
X147954819Y-65720761D02*
X147954819Y-65911237D01*
X147954819Y-65911237D02*
X148002438Y-66006475D01*
X148002438Y-66006475D02*
X148050057Y-66054094D01*
X148050057Y-66054094D02*
X148145295Y-66101713D01*
X148145295Y-66101713D02*
X148383390Y-66101713D01*
X148383390Y-66101713D02*
X148478628Y-66054094D01*
X148478628Y-66054094D02*
X148526247Y-66006475D01*
X148526247Y-66006475D02*
X148573866Y-65911237D01*
X148573866Y-65911237D02*
X148573866Y-65720761D01*
X148573866Y-65720761D02*
X148526247Y-65625523D01*
X148526247Y-65625523D02*
X148478628Y-65577904D01*
X148478628Y-65577904D02*
X148383390Y-65530285D01*
X162425142Y-107293580D02*
X162377523Y-107341200D01*
X162377523Y-107341200D02*
X162234666Y-107388819D01*
X162234666Y-107388819D02*
X162139428Y-107388819D01*
X162139428Y-107388819D02*
X161996571Y-107341200D01*
X161996571Y-107341200D02*
X161901333Y-107245961D01*
X161901333Y-107245961D02*
X161853714Y-107150723D01*
X161853714Y-107150723D02*
X161806095Y-106960247D01*
X161806095Y-106960247D02*
X161806095Y-106817390D01*
X161806095Y-106817390D02*
X161853714Y-106626914D01*
X161853714Y-106626914D02*
X161901333Y-106531676D01*
X161901333Y-106531676D02*
X161996571Y-106436438D01*
X161996571Y-106436438D02*
X162139428Y-106388819D01*
X162139428Y-106388819D02*
X162234666Y-106388819D01*
X162234666Y-106388819D02*
X162377523Y-106436438D01*
X162377523Y-106436438D02*
X162425142Y-106484057D01*
X162806095Y-106484057D02*
X162853714Y-106436438D01*
X162853714Y-106436438D02*
X162948952Y-106388819D01*
X162948952Y-106388819D02*
X163187047Y-106388819D01*
X163187047Y-106388819D02*
X163282285Y-106436438D01*
X163282285Y-106436438D02*
X163329904Y-106484057D01*
X163329904Y-106484057D02*
X163377523Y-106579295D01*
X163377523Y-106579295D02*
X163377523Y-106674533D01*
X163377523Y-106674533D02*
X163329904Y-106817390D01*
X163329904Y-106817390D02*
X162758476Y-107388819D01*
X162758476Y-107388819D02*
X163377523Y-107388819D01*
X163710857Y-106388819D02*
X164329904Y-106388819D01*
X164329904Y-106388819D02*
X163996571Y-106769771D01*
X163996571Y-106769771D02*
X164139428Y-106769771D01*
X164139428Y-106769771D02*
X164234666Y-106817390D01*
X164234666Y-106817390D02*
X164282285Y-106865009D01*
X164282285Y-106865009D02*
X164329904Y-106960247D01*
X164329904Y-106960247D02*
X164329904Y-107198342D01*
X164329904Y-107198342D02*
X164282285Y-107293580D01*
X164282285Y-107293580D02*
X164234666Y-107341200D01*
X164234666Y-107341200D02*
X164139428Y-107388819D01*
X164139428Y-107388819D02*
X163853714Y-107388819D01*
X163853714Y-107388819D02*
X163758476Y-107341200D01*
X163758476Y-107341200D02*
X163710857Y-107293580D01*
X161409142Y-90021580D02*
X161361523Y-90069200D01*
X161361523Y-90069200D02*
X161218666Y-90116819D01*
X161218666Y-90116819D02*
X161123428Y-90116819D01*
X161123428Y-90116819D02*
X160980571Y-90069200D01*
X160980571Y-90069200D02*
X160885333Y-89973961D01*
X160885333Y-89973961D02*
X160837714Y-89878723D01*
X160837714Y-89878723D02*
X160790095Y-89688247D01*
X160790095Y-89688247D02*
X160790095Y-89545390D01*
X160790095Y-89545390D02*
X160837714Y-89354914D01*
X160837714Y-89354914D02*
X160885333Y-89259676D01*
X160885333Y-89259676D02*
X160980571Y-89164438D01*
X160980571Y-89164438D02*
X161123428Y-89116819D01*
X161123428Y-89116819D02*
X161218666Y-89116819D01*
X161218666Y-89116819D02*
X161361523Y-89164438D01*
X161361523Y-89164438D02*
X161409142Y-89212057D01*
X162361523Y-90116819D02*
X161790095Y-90116819D01*
X162075809Y-90116819D02*
X162075809Y-89116819D01*
X162075809Y-89116819D02*
X161980571Y-89259676D01*
X161980571Y-89259676D02*
X161885333Y-89354914D01*
X161885333Y-89354914D02*
X161790095Y-89402533D01*
X162742476Y-89212057D02*
X162790095Y-89164438D01*
X162790095Y-89164438D02*
X162885333Y-89116819D01*
X162885333Y-89116819D02*
X163123428Y-89116819D01*
X163123428Y-89116819D02*
X163218666Y-89164438D01*
X163218666Y-89164438D02*
X163266285Y-89212057D01*
X163266285Y-89212057D02*
X163313904Y-89307295D01*
X163313904Y-89307295D02*
X163313904Y-89402533D01*
X163313904Y-89402533D02*
X163266285Y-89545390D01*
X163266285Y-89545390D02*
X162694857Y-90116819D01*
X162694857Y-90116819D02*
X163313904Y-90116819D01*
X164334580Y-94855357D02*
X164382200Y-94902976D01*
X164382200Y-94902976D02*
X164429819Y-95045833D01*
X164429819Y-95045833D02*
X164429819Y-95141071D01*
X164429819Y-95141071D02*
X164382200Y-95283928D01*
X164382200Y-95283928D02*
X164286961Y-95379166D01*
X164286961Y-95379166D02*
X164191723Y-95426785D01*
X164191723Y-95426785D02*
X164001247Y-95474404D01*
X164001247Y-95474404D02*
X163858390Y-95474404D01*
X163858390Y-95474404D02*
X163667914Y-95426785D01*
X163667914Y-95426785D02*
X163572676Y-95379166D01*
X163572676Y-95379166D02*
X163477438Y-95283928D01*
X163477438Y-95283928D02*
X163429819Y-95141071D01*
X163429819Y-95141071D02*
X163429819Y-95045833D01*
X163429819Y-95045833D02*
X163477438Y-94902976D01*
X163477438Y-94902976D02*
X163525057Y-94855357D01*
X164429819Y-93902976D02*
X164429819Y-94474404D01*
X164429819Y-94188690D02*
X163429819Y-94188690D01*
X163429819Y-94188690D02*
X163572676Y-94283928D01*
X163572676Y-94283928D02*
X163667914Y-94379166D01*
X163667914Y-94379166D02*
X163715533Y-94474404D01*
X163763152Y-93045833D02*
X164429819Y-93045833D01*
X163382200Y-93283928D02*
X164096485Y-93522023D01*
X164096485Y-93522023D02*
X164096485Y-92902976D01*
X153524833Y-79194819D02*
X153048643Y-79194819D01*
X153048643Y-79194819D02*
X153048643Y-78194819D01*
X154381976Y-79194819D02*
X153810548Y-79194819D01*
X154096262Y-79194819D02*
X154096262Y-78194819D01*
X154096262Y-78194819D02*
X154001024Y-78337676D01*
X154001024Y-78337676D02*
X153905786Y-78432914D01*
X153905786Y-78432914D02*
X153810548Y-78480533D01*
X165459580Y-107830857D02*
X165507200Y-107878476D01*
X165507200Y-107878476D02*
X165554819Y-108021333D01*
X165554819Y-108021333D02*
X165554819Y-108116571D01*
X165554819Y-108116571D02*
X165507200Y-108259428D01*
X165507200Y-108259428D02*
X165411961Y-108354666D01*
X165411961Y-108354666D02*
X165316723Y-108402285D01*
X165316723Y-108402285D02*
X165126247Y-108449904D01*
X165126247Y-108449904D02*
X164983390Y-108449904D01*
X164983390Y-108449904D02*
X164792914Y-108402285D01*
X164792914Y-108402285D02*
X164697676Y-108354666D01*
X164697676Y-108354666D02*
X164602438Y-108259428D01*
X164602438Y-108259428D02*
X164554819Y-108116571D01*
X164554819Y-108116571D02*
X164554819Y-108021333D01*
X164554819Y-108021333D02*
X164602438Y-107878476D01*
X164602438Y-107878476D02*
X164650057Y-107830857D01*
X164650057Y-107449904D02*
X164602438Y-107402285D01*
X164602438Y-107402285D02*
X164554819Y-107307047D01*
X164554819Y-107307047D02*
X164554819Y-107068952D01*
X164554819Y-107068952D02*
X164602438Y-106973714D01*
X164602438Y-106973714D02*
X164650057Y-106926095D01*
X164650057Y-106926095D02*
X164745295Y-106878476D01*
X164745295Y-106878476D02*
X164840533Y-106878476D01*
X164840533Y-106878476D02*
X164983390Y-106926095D01*
X164983390Y-106926095D02*
X165554819Y-107497523D01*
X165554819Y-107497523D02*
X165554819Y-106878476D01*
X164554819Y-105973714D02*
X164554819Y-106449904D01*
X164554819Y-106449904D02*
X165031009Y-106497523D01*
X165031009Y-106497523D02*
X164983390Y-106449904D01*
X164983390Y-106449904D02*
X164935771Y-106354666D01*
X164935771Y-106354666D02*
X164935771Y-106116571D01*
X164935771Y-106116571D02*
X164983390Y-106021333D01*
X164983390Y-106021333D02*
X165031009Y-105973714D01*
X165031009Y-105973714D02*
X165126247Y-105926095D01*
X165126247Y-105926095D02*
X165364342Y-105926095D01*
X165364342Y-105926095D02*
X165459580Y-105973714D01*
X165459580Y-105973714D02*
X165507200Y-106021333D01*
X165507200Y-106021333D02*
X165554819Y-106116571D01*
X165554819Y-106116571D02*
X165554819Y-106354666D01*
X165554819Y-106354666D02*
X165507200Y-106449904D01*
X165507200Y-106449904D02*
X165459580Y-106497523D01*
X133604095Y-58128819D02*
X133604095Y-58938342D01*
X133604095Y-58938342D02*
X133651714Y-59033580D01*
X133651714Y-59033580D02*
X133699333Y-59081200D01*
X133699333Y-59081200D02*
X133794571Y-59128819D01*
X133794571Y-59128819D02*
X133985047Y-59128819D01*
X133985047Y-59128819D02*
X134080285Y-59081200D01*
X134080285Y-59081200D02*
X134127904Y-59033580D01*
X134127904Y-59033580D02*
X134175523Y-58938342D01*
X134175523Y-58938342D02*
X134175523Y-58128819D01*
X134604095Y-58224057D02*
X134651714Y-58176438D01*
X134651714Y-58176438D02*
X134746952Y-58128819D01*
X134746952Y-58128819D02*
X134985047Y-58128819D01*
X134985047Y-58128819D02*
X135080285Y-58176438D01*
X135080285Y-58176438D02*
X135127904Y-58224057D01*
X135127904Y-58224057D02*
X135175523Y-58319295D01*
X135175523Y-58319295D02*
X135175523Y-58414533D01*
X135175523Y-58414533D02*
X135127904Y-58557390D01*
X135127904Y-58557390D02*
X134556476Y-59128819D01*
X134556476Y-59128819D02*
X135175523Y-59128819D01*
X157599142Y-76911580D02*
X157551523Y-76959200D01*
X157551523Y-76959200D02*
X157408666Y-77006819D01*
X157408666Y-77006819D02*
X157313428Y-77006819D01*
X157313428Y-77006819D02*
X157170571Y-76959200D01*
X157170571Y-76959200D02*
X157075333Y-76863961D01*
X157075333Y-76863961D02*
X157027714Y-76768723D01*
X157027714Y-76768723D02*
X156980095Y-76578247D01*
X156980095Y-76578247D02*
X156980095Y-76435390D01*
X156980095Y-76435390D02*
X157027714Y-76244914D01*
X157027714Y-76244914D02*
X157075333Y-76149676D01*
X157075333Y-76149676D02*
X157170571Y-76054438D01*
X157170571Y-76054438D02*
X157313428Y-76006819D01*
X157313428Y-76006819D02*
X157408666Y-76006819D01*
X157408666Y-76006819D02*
X157551523Y-76054438D01*
X157551523Y-76054438D02*
X157599142Y-76102057D01*
X158551523Y-77006819D02*
X157980095Y-77006819D01*
X158265809Y-77006819D02*
X158265809Y-76006819D01*
X158265809Y-76006819D02*
X158170571Y-76149676D01*
X158170571Y-76149676D02*
X158075333Y-76244914D01*
X158075333Y-76244914D02*
X157980095Y-76292533D01*
X159170571Y-76006819D02*
X159265809Y-76006819D01*
X159265809Y-76006819D02*
X159361047Y-76054438D01*
X159361047Y-76054438D02*
X159408666Y-76102057D01*
X159408666Y-76102057D02*
X159456285Y-76197295D01*
X159456285Y-76197295D02*
X159503904Y-76387771D01*
X159503904Y-76387771D02*
X159503904Y-76625866D01*
X159503904Y-76625866D02*
X159456285Y-76816342D01*
X159456285Y-76816342D02*
X159408666Y-76911580D01*
X159408666Y-76911580D02*
X159361047Y-76959200D01*
X159361047Y-76959200D02*
X159265809Y-77006819D01*
X159265809Y-77006819D02*
X159170571Y-77006819D01*
X159170571Y-77006819D02*
X159075333Y-76959200D01*
X159075333Y-76959200D02*
X159027714Y-76911580D01*
X159027714Y-76911580D02*
X158980095Y-76816342D01*
X158980095Y-76816342D02*
X158932476Y-76625866D01*
X158932476Y-76625866D02*
X158932476Y-76387771D01*
X158932476Y-76387771D02*
X158980095Y-76197295D01*
X158980095Y-76197295D02*
X159027714Y-76102057D01*
X159027714Y-76102057D02*
X159075333Y-76054438D01*
X159075333Y-76054438D02*
X159170571Y-76006819D01*
X133455580Y-88780857D02*
X133503200Y-88828476D01*
X133503200Y-88828476D02*
X133550819Y-88971333D01*
X133550819Y-88971333D02*
X133550819Y-89066571D01*
X133550819Y-89066571D02*
X133503200Y-89209428D01*
X133503200Y-89209428D02*
X133407961Y-89304666D01*
X133407961Y-89304666D02*
X133312723Y-89352285D01*
X133312723Y-89352285D02*
X133122247Y-89399904D01*
X133122247Y-89399904D02*
X132979390Y-89399904D01*
X132979390Y-89399904D02*
X132788914Y-89352285D01*
X132788914Y-89352285D02*
X132693676Y-89304666D01*
X132693676Y-89304666D02*
X132598438Y-89209428D01*
X132598438Y-89209428D02*
X132550819Y-89066571D01*
X132550819Y-89066571D02*
X132550819Y-88971333D01*
X132550819Y-88971333D02*
X132598438Y-88828476D01*
X132598438Y-88828476D02*
X132646057Y-88780857D01*
X132646057Y-88399904D02*
X132598438Y-88352285D01*
X132598438Y-88352285D02*
X132550819Y-88257047D01*
X132550819Y-88257047D02*
X132550819Y-88018952D01*
X132550819Y-88018952D02*
X132598438Y-87923714D01*
X132598438Y-87923714D02*
X132646057Y-87876095D01*
X132646057Y-87876095D02*
X132741295Y-87828476D01*
X132741295Y-87828476D02*
X132836533Y-87828476D01*
X132836533Y-87828476D02*
X132979390Y-87876095D01*
X132979390Y-87876095D02*
X133550819Y-88447523D01*
X133550819Y-88447523D02*
X133550819Y-87828476D01*
X132550819Y-87495142D02*
X132550819Y-86828476D01*
X132550819Y-86828476D02*
X133550819Y-87257047D01*
X161835261Y-100324057D02*
X161740023Y-100276438D01*
X161740023Y-100276438D02*
X161644785Y-100181200D01*
X161644785Y-100181200D02*
X161501928Y-100038342D01*
X161501928Y-100038342D02*
X161406690Y-99990723D01*
X161406690Y-99990723D02*
X161311452Y-99990723D01*
X161359071Y-100228819D02*
X161263833Y-100181200D01*
X161263833Y-100181200D02*
X161168595Y-100085961D01*
X161168595Y-100085961D02*
X161120976Y-99895485D01*
X161120976Y-99895485D02*
X161120976Y-99562152D01*
X161120976Y-99562152D02*
X161168595Y-99371676D01*
X161168595Y-99371676D02*
X161263833Y-99276438D01*
X161263833Y-99276438D02*
X161359071Y-99228819D01*
X161359071Y-99228819D02*
X161549547Y-99228819D01*
X161549547Y-99228819D02*
X161644785Y-99276438D01*
X161644785Y-99276438D02*
X161740023Y-99371676D01*
X161740023Y-99371676D02*
X161787642Y-99562152D01*
X161787642Y-99562152D02*
X161787642Y-99895485D01*
X161787642Y-99895485D02*
X161740023Y-100085961D01*
X161740023Y-100085961D02*
X161644785Y-100181200D01*
X161644785Y-100181200D02*
X161549547Y-100228819D01*
X161549547Y-100228819D02*
X161359071Y-100228819D01*
X162740023Y-100228819D02*
X162168595Y-100228819D01*
X162454309Y-100228819D02*
X162454309Y-99228819D01*
X162454309Y-99228819D02*
X162359071Y-99371676D01*
X162359071Y-99371676D02*
X162263833Y-99466914D01*
X162263833Y-99466914D02*
X162168595Y-99514533D01*
X142478819Y-65428666D02*
X142002628Y-65761999D01*
X142478819Y-66000094D02*
X141478819Y-66000094D01*
X141478819Y-66000094D02*
X141478819Y-65619142D01*
X141478819Y-65619142D02*
X141526438Y-65523904D01*
X141526438Y-65523904D02*
X141574057Y-65476285D01*
X141574057Y-65476285D02*
X141669295Y-65428666D01*
X141669295Y-65428666D02*
X141812152Y-65428666D01*
X141812152Y-65428666D02*
X141907390Y-65476285D01*
X141907390Y-65476285D02*
X141955009Y-65523904D01*
X141955009Y-65523904D02*
X142002628Y-65619142D01*
X142002628Y-65619142D02*
X142002628Y-66000094D01*
X141478819Y-64523904D02*
X141478819Y-65000094D01*
X141478819Y-65000094D02*
X141955009Y-65047713D01*
X141955009Y-65047713D02*
X141907390Y-65000094D01*
X141907390Y-65000094D02*
X141859771Y-64904856D01*
X141859771Y-64904856D02*
X141859771Y-64666761D01*
X141859771Y-64666761D02*
X141907390Y-64571523D01*
X141907390Y-64571523D02*
X141955009Y-64523904D01*
X141955009Y-64523904D02*
X142050247Y-64476285D01*
X142050247Y-64476285D02*
X142288342Y-64476285D01*
X142288342Y-64476285D02*
X142383580Y-64523904D01*
X142383580Y-64523904D02*
X142431200Y-64571523D01*
X142431200Y-64571523D02*
X142478819Y-64666761D01*
X142478819Y-64666761D02*
X142478819Y-64904856D01*
X142478819Y-64904856D02*
X142431200Y-65000094D01*
X142431200Y-65000094D02*
X142383580Y-65047713D01*
X147476483Y-88211997D02*
X147428864Y-88259617D01*
X147428864Y-88259617D02*
X147286007Y-88307236D01*
X147286007Y-88307236D02*
X147190769Y-88307236D01*
X147190769Y-88307236D02*
X147047912Y-88259617D01*
X147047912Y-88259617D02*
X146952674Y-88164378D01*
X146952674Y-88164378D02*
X146905055Y-88069140D01*
X146905055Y-88069140D02*
X146857436Y-87878664D01*
X146857436Y-87878664D02*
X146857436Y-87735807D01*
X146857436Y-87735807D02*
X146905055Y-87545331D01*
X146905055Y-87545331D02*
X146952674Y-87450093D01*
X146952674Y-87450093D02*
X147047912Y-87354855D01*
X147047912Y-87354855D02*
X147190769Y-87307236D01*
X147190769Y-87307236D02*
X147286007Y-87307236D01*
X147286007Y-87307236D02*
X147428864Y-87354855D01*
X147428864Y-87354855D02*
X147476483Y-87402474D01*
X148333626Y-87640569D02*
X148333626Y-88307236D01*
X148095531Y-87259617D02*
X147857436Y-87973902D01*
X147857436Y-87973902D02*
X148476483Y-87973902D01*
X138332333Y-88099580D02*
X138284714Y-88147200D01*
X138284714Y-88147200D02*
X138141857Y-88194819D01*
X138141857Y-88194819D02*
X138046619Y-88194819D01*
X138046619Y-88194819D02*
X137903762Y-88147200D01*
X137903762Y-88147200D02*
X137808524Y-88051961D01*
X137808524Y-88051961D02*
X137760905Y-87956723D01*
X137760905Y-87956723D02*
X137713286Y-87766247D01*
X137713286Y-87766247D02*
X137713286Y-87623390D01*
X137713286Y-87623390D02*
X137760905Y-87432914D01*
X137760905Y-87432914D02*
X137808524Y-87337676D01*
X137808524Y-87337676D02*
X137903762Y-87242438D01*
X137903762Y-87242438D02*
X138046619Y-87194819D01*
X138046619Y-87194819D02*
X138141857Y-87194819D01*
X138141857Y-87194819D02*
X138284714Y-87242438D01*
X138284714Y-87242438D02*
X138332333Y-87290057D01*
X138665667Y-87194819D02*
X139284714Y-87194819D01*
X139284714Y-87194819D02*
X138951381Y-87575771D01*
X138951381Y-87575771D02*
X139094238Y-87575771D01*
X139094238Y-87575771D02*
X139189476Y-87623390D01*
X139189476Y-87623390D02*
X139237095Y-87671009D01*
X139237095Y-87671009D02*
X139284714Y-87766247D01*
X139284714Y-87766247D02*
X139284714Y-88004342D01*
X139284714Y-88004342D02*
X139237095Y-88099580D01*
X139237095Y-88099580D02*
X139189476Y-88147200D01*
X139189476Y-88147200D02*
X139094238Y-88194819D01*
X139094238Y-88194819D02*
X138808524Y-88194819D01*
X138808524Y-88194819D02*
X138713286Y-88147200D01*
X138713286Y-88147200D02*
X138665667Y-88099580D01*
X138517333Y-68272819D02*
X138184000Y-67796628D01*
X137945905Y-68272819D02*
X137945905Y-67272819D01*
X137945905Y-67272819D02*
X138326857Y-67272819D01*
X138326857Y-67272819D02*
X138422095Y-67320438D01*
X138422095Y-67320438D02*
X138469714Y-67368057D01*
X138469714Y-67368057D02*
X138517333Y-67463295D01*
X138517333Y-67463295D02*
X138517333Y-67606152D01*
X138517333Y-67606152D02*
X138469714Y-67701390D01*
X138469714Y-67701390D02*
X138422095Y-67749009D01*
X138422095Y-67749009D02*
X138326857Y-67796628D01*
X138326857Y-67796628D02*
X137945905Y-67796628D01*
X139374476Y-67606152D02*
X139374476Y-68272819D01*
X139136381Y-67225200D02*
X138898286Y-67939485D01*
X138898286Y-67939485D02*
X139517333Y-67939485D01*
X130077428Y-84550190D02*
X130553619Y-84550190D01*
X129553619Y-84883523D02*
X130077428Y-84550190D01*
X130077428Y-84550190D02*
X129553619Y-84216857D01*
X129648857Y-83931142D02*
X129601238Y-83883523D01*
X129601238Y-83883523D02*
X129553619Y-83788285D01*
X129553619Y-83788285D02*
X129553619Y-83550190D01*
X129553619Y-83550190D02*
X129601238Y-83454952D01*
X129601238Y-83454952D02*
X129648857Y-83407333D01*
X129648857Y-83407333D02*
X129744095Y-83359714D01*
X129744095Y-83359714D02*
X129839333Y-83359714D01*
X129839333Y-83359714D02*
X129982190Y-83407333D01*
X129982190Y-83407333D02*
X130553619Y-83978761D01*
X130553619Y-83978761D02*
X130553619Y-83359714D01*
X148954819Y-62672666D02*
X148478628Y-63005999D01*
X148954819Y-63244094D02*
X147954819Y-63244094D01*
X147954819Y-63244094D02*
X147954819Y-62863142D01*
X147954819Y-62863142D02*
X148002438Y-62767904D01*
X148002438Y-62767904D02*
X148050057Y-62720285D01*
X148050057Y-62720285D02*
X148145295Y-62672666D01*
X148145295Y-62672666D02*
X148288152Y-62672666D01*
X148288152Y-62672666D02*
X148383390Y-62720285D01*
X148383390Y-62720285D02*
X148431009Y-62767904D01*
X148431009Y-62767904D02*
X148478628Y-62863142D01*
X148478628Y-62863142D02*
X148478628Y-63244094D01*
X148383390Y-62101237D02*
X148335771Y-62196475D01*
X148335771Y-62196475D02*
X148288152Y-62244094D01*
X148288152Y-62244094D02*
X148192914Y-62291713D01*
X148192914Y-62291713D02*
X148145295Y-62291713D01*
X148145295Y-62291713D02*
X148050057Y-62244094D01*
X148050057Y-62244094D02*
X148002438Y-62196475D01*
X148002438Y-62196475D02*
X147954819Y-62101237D01*
X147954819Y-62101237D02*
X147954819Y-61910761D01*
X147954819Y-61910761D02*
X148002438Y-61815523D01*
X148002438Y-61815523D02*
X148050057Y-61767904D01*
X148050057Y-61767904D02*
X148145295Y-61720285D01*
X148145295Y-61720285D02*
X148192914Y-61720285D01*
X148192914Y-61720285D02*
X148288152Y-61767904D01*
X148288152Y-61767904D02*
X148335771Y-61815523D01*
X148335771Y-61815523D02*
X148383390Y-61910761D01*
X148383390Y-61910761D02*
X148383390Y-62101237D01*
X148383390Y-62101237D02*
X148431009Y-62196475D01*
X148431009Y-62196475D02*
X148478628Y-62244094D01*
X148478628Y-62244094D02*
X148573866Y-62291713D01*
X148573866Y-62291713D02*
X148764342Y-62291713D01*
X148764342Y-62291713D02*
X148859580Y-62244094D01*
X148859580Y-62244094D02*
X148907200Y-62196475D01*
X148907200Y-62196475D02*
X148954819Y-62101237D01*
X148954819Y-62101237D02*
X148954819Y-61910761D01*
X148954819Y-61910761D02*
X148907200Y-61815523D01*
X148907200Y-61815523D02*
X148859580Y-61767904D01*
X148859580Y-61767904D02*
X148764342Y-61720285D01*
X148764342Y-61720285D02*
X148573866Y-61720285D01*
X148573866Y-61720285D02*
X148478628Y-61767904D01*
X148478628Y-61767904D02*
X148431009Y-61815523D01*
X148431009Y-61815523D02*
X148383390Y-61910761D01*
D13*
X162458400Y-67843400D02*
X162763200Y-67843400D01*
X162763200Y-67843400D02*
X163372800Y-67843400D01*
X163372800Y-67843400D02*
X163677600Y-67843400D01*
D10*
X162763200Y-67843400D02*
G75*
G02*
X163372800Y-67843400I304800J0D01*
G01*
D14*
X161230000Y-56139000D02*
X161230000Y-53539000D01*
X163890000Y-53539000D02*
X161230000Y-53539000D01*
X163890000Y-56139000D02*
X161230000Y-56139000D01*
X163890000Y-56139000D02*
X163890000Y-53539000D01*
X163890000Y-57409000D02*
X163890000Y-58739000D01*
X163890000Y-58739000D02*
X162560000Y-58739000D01*
X165835064Y-69115000D02*
X165380936Y-69115000D01*
X165835064Y-70585000D02*
X165380936Y-70585000D01*
X150140000Y-108412164D02*
X150140000Y-108627836D01*
X150860000Y-108412164D02*
X150860000Y-108627836D01*
X141213064Y-60987000D02*
X140758936Y-60987000D01*
X141213064Y-62457000D02*
X140758936Y-62457000D01*
X143321000Y-67844936D02*
X143321000Y-68299064D01*
X144791000Y-67844936D02*
X144791000Y-68299064D01*
X130583000Y-71889252D02*
X130583000Y-71366748D01*
X132053000Y-71889252D02*
X132053000Y-71366748D01*
X158263500Y-79974000D02*
X157463500Y-79974000D01*
X158263500Y-79974000D02*
X159063500Y-79974000D01*
X158263500Y-83094000D02*
X157463500Y-83094000D01*
X158263500Y-83094000D02*
X159063500Y-83094000D01*
X159803500Y-83374000D02*
X159323500Y-83374000D01*
X159563500Y-83044000D01*
X159803500Y-83374000D01*
G36*
X159803500Y-83374000D02*
G01*
X159323500Y-83374000D01*
X159563500Y-83044000D01*
X159803500Y-83374000D01*
G37*
X148014000Y-73073335D02*
X148014000Y-72841665D01*
X148734000Y-73073335D02*
X148734000Y-72841665D01*
X138070000Y-72543835D02*
X138070000Y-72312165D01*
X138790000Y-72543835D02*
X138790000Y-72312165D01*
X135530000Y-72543835D02*
X135530000Y-72312165D01*
X136250000Y-72543835D02*
X136250000Y-72312165D01*
X139608000Y-76504000D02*
X139608000Y-76094000D01*
X139608000Y-83074000D02*
X139608000Y-82424000D01*
X140258000Y-75854000D02*
X139908000Y-75854000D01*
X140258000Y-83074000D02*
X139608000Y-83074000D01*
X146178000Y-75854000D02*
X146828000Y-75854000D01*
X146178000Y-83074000D02*
X146828000Y-83074000D01*
X146828000Y-75854000D02*
X146828000Y-76504000D01*
X146828000Y-83074000D02*
X146828000Y-82424000D01*
X139608000Y-75854000D02*
X139368000Y-75524000D01*
X139848000Y-75524000D01*
X139608000Y-75854000D01*
G36*
X139608000Y-75854000D02*
G01*
X139368000Y-75524000D01*
X139848000Y-75524000D01*
X139608000Y-75854000D01*
G37*
X136425000Y-78646248D02*
X136425000Y-79168752D01*
X137895000Y-78646248D02*
X137895000Y-79168752D01*
X155765000Y-109272936D02*
X155765000Y-109727064D01*
X157235000Y-109272936D02*
X157235000Y-109727064D01*
X130536000Y-77913000D02*
X130536000Y-75963000D01*
X130536000Y-77913000D02*
X130536000Y-79863000D01*
X135656000Y-77913000D02*
X135656000Y-75963000D01*
X135656000Y-77913000D02*
X135656000Y-79863000D01*
X130631000Y-80613000D02*
X130301000Y-80853000D01*
X130301000Y-80373000D01*
X130631000Y-80613000D01*
G36*
X130631000Y-80613000D02*
G01*
X130301000Y-80853000D01*
X130301000Y-80373000D01*
X130631000Y-80613000D01*
G37*
X151765000Y-109272936D02*
X151765000Y-109727064D01*
X153235000Y-109272936D02*
X153235000Y-109727064D01*
X158523000Y-66032748D02*
X158523000Y-66555252D01*
X159993000Y-66032748D02*
X159993000Y-66555252D01*
X158617500Y-92608000D02*
X157817500Y-92608000D01*
X158617500Y-92608000D02*
X159417500Y-92608000D01*
X158617500Y-95728000D02*
X157817500Y-95728000D01*
X158617500Y-95728000D02*
X159417500Y-95728000D01*
X157317500Y-92658000D02*
X157077500Y-92328000D01*
X157557500Y-92328000D01*
X157317500Y-92658000D01*
G36*
X157317500Y-92658000D02*
G01*
X157077500Y-92328000D01*
X157557500Y-92328000D01*
X157317500Y-92658000D01*
G37*
X136800000Y-72543835D02*
X136800000Y-72312165D01*
X137520000Y-72543835D02*
X137520000Y-72312165D01*
X157420000Y-56134000D02*
X157420000Y-53534000D01*
X160080000Y-53534000D02*
X157420000Y-53534000D01*
X160080000Y-56134000D02*
X157420000Y-56134000D01*
X160080000Y-56134000D02*
X160080000Y-53534000D01*
X160080000Y-57404000D02*
X160080000Y-58734000D01*
X160080000Y-58734000D02*
X158750000Y-58734000D01*
X153765000Y-109262936D02*
X153765000Y-109717064D01*
X155235000Y-109262936D02*
X155235000Y-109717064D01*
X145007064Y-85625000D02*
X144552936Y-85625000D01*
X145007064Y-87095000D02*
X144552936Y-87095000D01*
X140544000Y-123004000D02*
X141654000Y-123004000D01*
X140544000Y-126254000D02*
X141654000Y-126254000D01*
X142244000Y-121954000D02*
X142494000Y-122454000D01*
X142494000Y-122454000D02*
X142744000Y-121954000D01*
X142744000Y-121954000D02*
X142244000Y-121954000D01*
X143334000Y-123004000D02*
X144444000Y-123004000D01*
X143334000Y-126254000D02*
X144444000Y-126254000D01*
D13*
X149837383Y-63709826D02*
X149837383Y-69374026D01*
X149837383Y-69374026D02*
X150203143Y-69374026D01*
X150203143Y-63709826D02*
X149837383Y-63709826D01*
X151427423Y-69374026D02*
X153911543Y-69374026D01*
X153911543Y-63709826D02*
X151427423Y-63709826D01*
X155135823Y-69374026D02*
X155501583Y-69374026D01*
X155501583Y-63709826D02*
X155135823Y-63709826D01*
X155501583Y-69374026D02*
X155501583Y-63709826D01*
D14*
X157268936Y-102389000D02*
X157723064Y-102389000D01*
X157268936Y-103859000D02*
X157723064Y-103859000D01*
X161592500Y-81251248D02*
X161592500Y-81773752D01*
X163062500Y-81251248D02*
X163062500Y-81773752D01*
X165889000Y-66032748D02*
X165889000Y-66555252D01*
X167359000Y-66032748D02*
X167359000Y-66555252D01*
X140610000Y-72543835D02*
X140610000Y-72312165D01*
X141330000Y-72543835D02*
X141330000Y-72312165D01*
X147772936Y-94265000D02*
X148227064Y-94265000D01*
X147772936Y-95735000D02*
X148227064Y-95735000D01*
X166818000Y-74108000D02*
X168148000Y-74108000D01*
X166818000Y-75438000D02*
X166818000Y-74108000D01*
X166818000Y-76708000D02*
X166818000Y-114868000D01*
X166818000Y-76708000D02*
X169478000Y-76708000D01*
X166818000Y-114868000D02*
X169478000Y-114868000D01*
X169478000Y-76708000D02*
X169478000Y-114868000D01*
X136800000Y-62853835D02*
X136800000Y-62622165D01*
X137520000Y-62853835D02*
X137520000Y-62622165D01*
X149284000Y-73073335D02*
X149284000Y-72841665D01*
X150004000Y-73073335D02*
X150004000Y-72841665D01*
X130833400Y-87991733D02*
X130833400Y-88284267D01*
X131853400Y-87991733D02*
X131853400Y-88284267D01*
X153940000Y-93697248D02*
X153940000Y-94219752D01*
X155410000Y-93697248D02*
X155410000Y-94219752D01*
X165314500Y-62857000D02*
X169374500Y-62857000D01*
X169374500Y-60587000D02*
X165314500Y-60587000D01*
X169374500Y-62857000D02*
X169374500Y-60587000D01*
D13*
X149813700Y-53486550D02*
X149813700Y-59150750D01*
X149813700Y-59150750D02*
X150179460Y-59150750D01*
X150179460Y-53486550D02*
X149813700Y-53486550D01*
X151403740Y-59150750D02*
X153887860Y-59150750D01*
X153887860Y-53486550D02*
X151403740Y-53486550D01*
X155112140Y-59150750D02*
X155477900Y-59150750D01*
X155477900Y-53486550D02*
X155112140Y-53486550D01*
X155477900Y-59150750D02*
X155477900Y-53486550D01*
D14*
X136117064Y-51970000D02*
X135662936Y-51970000D01*
X136117064Y-53440000D02*
X135662936Y-53440000D01*
X160300936Y-69115000D02*
X160755064Y-69115000D01*
X160300936Y-70585000D02*
X160755064Y-70585000D01*
X146115000Y-66088936D02*
X146115000Y-66543064D01*
X147585000Y-66088936D02*
X147585000Y-66543064D01*
X150862000Y-114068000D02*
X150862000Y-123888000D01*
X152092000Y-114068000D02*
X150862000Y-114068000D01*
X158062000Y-114068000D02*
X154392000Y-114068000D01*
X161562000Y-125708000D02*
X160702000Y-125708000D01*
X163042000Y-114068000D02*
X160362000Y-114068000D01*
X163042000Y-114788000D02*
X163042000Y-114068000D01*
X163042000Y-118488000D02*
X163042000Y-116188000D01*
X163042000Y-124338000D02*
X163042000Y-119888000D01*
X132179000Y-100010000D02*
X148379000Y-100010000D01*
X132179000Y-115810000D02*
X132179000Y-116210000D01*
X132179000Y-116210000D02*
X148379000Y-116210000D01*
X148379000Y-100010000D02*
X148379000Y-100410000D01*
X148379000Y-116210000D02*
X148379000Y-115810000D01*
X131679000Y-100210000D02*
X131439000Y-99874000D01*
X131919000Y-99874000D01*
X131679000Y-100210000D01*
G36*
X131679000Y-100210000D02*
G01*
X131439000Y-99874000D01*
X131919000Y-99874000D01*
X131679000Y-100210000D01*
G37*
X159765000Y-109272936D02*
X159765000Y-109727064D01*
X161235000Y-109272936D02*
X161235000Y-109727064D01*
X162265000Y-109238748D02*
X162265000Y-109761252D01*
X163735000Y-109238748D02*
X163735000Y-109761252D01*
X134560000Y-94802000D02*
X134560000Y-93472000D01*
X135890000Y-94802000D02*
X134560000Y-94802000D01*
X137160000Y-92142000D02*
X142300000Y-92142000D01*
X137160000Y-94802000D02*
X137160000Y-92142000D01*
X137160000Y-94802000D02*
X142300000Y-94802000D01*
X142300000Y-94802000D02*
X142300000Y-92142000D01*
X159021752Y-89181000D02*
X158499248Y-89181000D01*
X159021752Y-90651000D02*
X158499248Y-90651000D01*
X145861000Y-72456752D02*
X145861000Y-71934248D01*
X147331000Y-72456752D02*
X147331000Y-71934248D01*
X139340000Y-72543835D02*
X139340000Y-72312165D01*
X140060000Y-72543835D02*
X140060000Y-72312165D01*
X161560000Y-93951248D02*
X161560000Y-94473752D01*
X163030000Y-93951248D02*
X163030000Y-94473752D01*
D15*
X138532000Y-50650000D02*
X138532000Y-52030000D01*
X138532000Y-50650000D02*
X147472000Y-50650000D01*
X138532000Y-56060000D02*
X138532000Y-54470000D01*
X147472000Y-50650000D02*
X147472000Y-52030000D01*
X147472000Y-56060000D02*
X147472000Y-54470000D01*
D14*
X152581500Y-81941752D02*
X152581500Y-81419248D01*
X154801500Y-81941752D02*
X154801500Y-81419248D01*
X135790000Y-56377064D02*
X135790000Y-55922936D01*
X137260000Y-56377064D02*
X137260000Y-55922936D01*
X164640000Y-109620164D02*
X164640000Y-109835836D01*
X165360000Y-109620164D02*
X165360000Y-109835836D01*
X130498000Y-61239000D02*
X130758000Y-61239000D01*
X130498000Y-63964000D02*
X130498000Y-61239000D01*
X130498000Y-63964000D02*
X130498000Y-66689000D01*
X130498000Y-66689000D02*
X130758000Y-66689000D01*
X135948000Y-61239000D02*
X135688000Y-61239000D01*
X135948000Y-63964000D02*
X135948000Y-61239000D01*
X135948000Y-63964000D02*
X135948000Y-66689000D01*
X135948000Y-66689000D02*
X135688000Y-66689000D01*
X130758000Y-67471500D02*
X130428000Y-67711500D01*
X130428000Y-67231500D01*
X130758000Y-67471500D01*
G36*
X130758000Y-67471500D02*
G01*
X130428000Y-67711500D01*
X130428000Y-67231500D01*
X130758000Y-67471500D01*
G37*
X157980748Y-77497000D02*
X158503252Y-77497000D01*
X157980748Y-78967000D02*
X158503252Y-78967000D01*
X133881400Y-87991733D02*
X133881400Y-88284267D01*
X134901400Y-87991733D02*
X134901400Y-88284267D01*
X132990000Y-72543835D02*
X132990000Y-72312165D01*
X133710000Y-72543835D02*
X133710000Y-72312165D01*
X161930500Y-100614000D02*
X161130500Y-100614000D01*
X161930500Y-100614000D02*
X162730500Y-100614000D01*
X161930500Y-103734000D02*
X161130500Y-103734000D01*
X161930500Y-103734000D02*
X162730500Y-103734000D01*
X160630500Y-100664000D02*
X160390500Y-100334000D01*
X160870500Y-100334000D01*
X160630500Y-100664000D01*
G36*
X160630500Y-100664000D02*
G01*
X160390500Y-100334000D01*
X160870500Y-100334000D01*
X160630500Y-100664000D01*
G37*
X141289000Y-67828936D02*
X141289000Y-68283064D01*
X142759000Y-67828936D02*
X142759000Y-68283064D01*
X157765000Y-109272936D02*
X157765000Y-109727064D01*
X159235000Y-109272936D02*
X159235000Y-109727064D01*
D10*
X142075000Y-87900000D02*
X143575000Y-87900000D01*
X143575000Y-89900000D01*
X142075000Y-89900000D01*
X142075000Y-87900000D01*
D14*
X147115835Y-88540000D02*
X146884165Y-88540000D01*
X147115835Y-89260000D02*
X146884165Y-89260000D01*
X138383165Y-88540000D02*
X138614835Y-88540000D01*
X138383165Y-89260000D02*
X138614835Y-89260000D01*
X137949000Y-65505064D02*
X137949000Y-65050936D01*
X139419000Y-65505064D02*
X139419000Y-65050936D01*
D13*
X132336750Y-85001100D02*
X133398050Y-85001100D01*
X133398050Y-83146900D02*
X132336750Y-83146900D01*
X130098800Y-84074000D02*
G75*
G02*
X129946400Y-84074000I-76200J0D01*
G01*
X129946400Y-84074000D02*
G75*
G02*
X130098800Y-84074000I76200J0D01*
G01*
D14*
X146115000Y-62278936D02*
X146115000Y-62733064D01*
X147585000Y-62278936D02*
X147585000Y-62733064D01*
X134260000Y-72543835D02*
X134260000Y-72312165D01*
X134980000Y-72543835D02*
X134980000Y-72312165D01*
%LPC*%
D16*
X164363400Y-67233800D03*
X164363400Y-66294000D03*
X164363400Y-65354200D03*
X161772600Y-65354200D03*
X161772600Y-67233800D03*
D17*
X162560000Y-57409000D03*
D18*
X162560000Y-54869000D03*
D19*
X166608000Y-69850000D03*
X164608000Y-69850000D03*
D20*
X150500000Y-108040000D03*
X150500000Y-109000000D03*
D19*
X141986000Y-61722000D03*
X139986000Y-61722000D03*
D21*
X144056000Y-67072000D03*
X144056000Y-69072000D03*
D22*
X131318000Y-72665500D03*
X131318000Y-70590500D03*
D23*
X159401000Y-82484000D03*
X159401000Y-81534000D03*
X159401000Y-80584000D03*
X157126000Y-80584000D03*
X157126000Y-82484000D03*
D24*
X148374000Y-73525000D03*
X148374000Y-72390000D03*
X138430000Y-72995500D03*
X138430000Y-71860500D03*
X135890000Y-72995500D03*
X135890000Y-71860500D03*
D25*
X139780500Y-76864000D03*
X139780500Y-77264000D03*
X139780500Y-77664000D03*
X139780500Y-78064000D03*
X139780500Y-78464000D03*
X139780500Y-78864000D03*
X139780500Y-79264000D03*
X139780500Y-79664000D03*
X139780500Y-80064000D03*
X139780500Y-80464000D03*
X139780500Y-80864000D03*
X139780500Y-81264000D03*
X139780500Y-81664000D03*
X139780500Y-82064000D03*
D26*
X140618000Y-82901500D03*
X141018000Y-82901500D03*
X141418000Y-82901500D03*
X141818000Y-82901500D03*
X142218000Y-82901500D03*
X142618000Y-82901500D03*
X143018000Y-82901500D03*
X143418000Y-82901500D03*
X143818000Y-82901500D03*
X144218000Y-82901500D03*
X144618000Y-82901500D03*
X145018000Y-82901500D03*
X145418000Y-82901500D03*
X145818000Y-82901500D03*
D25*
X146655500Y-82064000D03*
X146655500Y-81664000D03*
X146655500Y-81264000D03*
X146655500Y-80864000D03*
X146655500Y-80464000D03*
X146655500Y-80064000D03*
X146655500Y-79664000D03*
X146655500Y-79264000D03*
X146655500Y-78864000D03*
X146655500Y-78464000D03*
X146655500Y-78064000D03*
X146655500Y-77664000D03*
X146655500Y-77264000D03*
X146655500Y-76864000D03*
D26*
X145818000Y-76026500D03*
X145418000Y-76026500D03*
X145018000Y-76026500D03*
X144618000Y-76026500D03*
X144218000Y-76026500D03*
X143818000Y-76026500D03*
X143418000Y-76026500D03*
X143018000Y-76026500D03*
X142618000Y-76026500D03*
X142218000Y-76026500D03*
X141818000Y-76026500D03*
X141418000Y-76026500D03*
X141018000Y-76026500D03*
X140618000Y-76026500D03*
D27*
X143218000Y-79464000D03*
D28*
X137160000Y-77870000D03*
X137160000Y-79945000D03*
D21*
X156500000Y-108500000D03*
X156500000Y-110500000D03*
D29*
X131191000Y-80388000D03*
X132461000Y-80388000D03*
X133731000Y-80388000D03*
X135001000Y-80388000D03*
X135001000Y-75438000D03*
X133731000Y-75438000D03*
X132461000Y-75438000D03*
X131191000Y-75438000D03*
D30*
X132080000Y-121920000D03*
D21*
X152500000Y-108500000D03*
X152500000Y-110500000D03*
D28*
X159258000Y-65256500D03*
X159258000Y-67331500D03*
D31*
X157480000Y-93218000D03*
X157480000Y-94168000D03*
X157480000Y-95118000D03*
X159755000Y-95118000D03*
X159755000Y-94168000D03*
X159755000Y-93218000D03*
D24*
X137160000Y-72995500D03*
X137160000Y-71860500D03*
D17*
X158750000Y-57404000D03*
D18*
X158750000Y-54864000D03*
D21*
X154500000Y-108490000D03*
X154500000Y-110490000D03*
D19*
X145780000Y-86360000D03*
X143780000Y-86360000D03*
D30*
X132080000Y-55880000D03*
D32*
X142494000Y-124714000D03*
D33*
X145319000Y-124464000D03*
X139669000Y-124464000D03*
D34*
X154523683Y-63360576D03*
X154523683Y-69723276D03*
X150815283Y-63360576D03*
X150815283Y-69723276D03*
D35*
X156496000Y-103124000D03*
X158496000Y-103124000D03*
D28*
X162327500Y-80475000D03*
X162327500Y-82550000D03*
D30*
X167640000Y-121920000D03*
X167640000Y-55880000D03*
D28*
X166624000Y-65256500D03*
X166624000Y-67331500D03*
D24*
X140970000Y-72995500D03*
X140970000Y-71860500D03*
D35*
X147000000Y-95000000D03*
X149000000Y-95000000D03*
D17*
X168148000Y-75438000D03*
D18*
X168148000Y-77978000D03*
X168148000Y-80518000D03*
X168148000Y-83058000D03*
X168148000Y-85598000D03*
X168148000Y-88138000D03*
X168148000Y-90678000D03*
X168148000Y-93218000D03*
X168148000Y-95758000D03*
X168148000Y-98298000D03*
X168148000Y-100838000D03*
X168148000Y-103378000D03*
X168148000Y-105918000D03*
X168148000Y-108458000D03*
X168148000Y-110998000D03*
X168148000Y-113538000D03*
D24*
X137160000Y-63305500D03*
X137160000Y-62170500D03*
X149644000Y-73525000D03*
X149644000Y-72390000D03*
D36*
X131343400Y-87275500D03*
X131343400Y-89000500D03*
D28*
X154675000Y-92921000D03*
X154675000Y-94996000D03*
D37*
X168402000Y-61722000D03*
X165427000Y-61722000D03*
D34*
X154500000Y-53137300D03*
X154500000Y-59500000D03*
X150791600Y-53137300D03*
X150791600Y-59500000D03*
D19*
X136890000Y-52705000D03*
X134890000Y-52705000D03*
D35*
X159528000Y-69850000D03*
X161528000Y-69850000D03*
D21*
X146850000Y-65316000D03*
X146850000Y-67316000D03*
D38*
X160077000Y-125338000D03*
X158977000Y-125338000D03*
X157877000Y-125338000D03*
X156777000Y-125338000D03*
X155677000Y-125338000D03*
X154577000Y-125338000D03*
X153477000Y-125338000D03*
D39*
X152427000Y-125338000D03*
D40*
X162712000Y-119188000D03*
X162712000Y-115488000D03*
D41*
X162537000Y-125213000D03*
D42*
X159212000Y-114513000D03*
X153242000Y-114513000D03*
D43*
X151217000Y-124988000D03*
D44*
X132754000Y-101110000D03*
X132754000Y-103110000D03*
X132754000Y-105110000D03*
X132754000Y-107110000D03*
X132754000Y-109110000D03*
X132754000Y-111110000D03*
X132754000Y-113110000D03*
X132754000Y-115110000D03*
X147804000Y-115110000D03*
X147804000Y-113110000D03*
X147804000Y-111110000D03*
X147804000Y-109110000D03*
X147804000Y-107110000D03*
X147804000Y-105110000D03*
X147804000Y-103110000D03*
X147804000Y-101110000D03*
D21*
X160500000Y-108500000D03*
X160500000Y-110500000D03*
D28*
X163000000Y-108462500D03*
X163000000Y-110537500D03*
D17*
X135890000Y-93472000D03*
D18*
X138430000Y-93472000D03*
X140970000Y-93472000D03*
D45*
X159798000Y-89916000D03*
X157723000Y-89916000D03*
D22*
X146596000Y-73233000D03*
X146596000Y-71158000D03*
D24*
X139700000Y-72995500D03*
X139700000Y-71860500D03*
D28*
X162295000Y-93175000D03*
X162295000Y-95250000D03*
D46*
X145892000Y-56930000D03*
X140112000Y-56930000D03*
D47*
X146202000Y-58000000D03*
X145402000Y-58000000D03*
D48*
X144252000Y-58000000D03*
X143252000Y-58000000D03*
X142752000Y-58000000D03*
X141752000Y-58000000D03*
D47*
X139802000Y-58000000D03*
X140602000Y-58000000D03*
D48*
X141252000Y-58000000D03*
X142252000Y-58000000D03*
X143752000Y-58000000D03*
X144752000Y-58000000D03*
D49*
X147322000Y-57430000D03*
X138682000Y-57430000D03*
D50*
X147322000Y-53250000D03*
X138682000Y-53250000D03*
D51*
X153691500Y-82843000D03*
X153691500Y-80518000D03*
D52*
X136525000Y-57150000D03*
X136525000Y-55150000D03*
D20*
X165000000Y-109248000D03*
X165000000Y-110208000D03*
D53*
X131318000Y-67564000D03*
X132588000Y-67564000D03*
X133858000Y-67564000D03*
X135128000Y-67564000D03*
X135128000Y-60364000D03*
X133858000Y-60364000D03*
X132588000Y-60364000D03*
X131318000Y-60364000D03*
D54*
X157204500Y-78232000D03*
X159279500Y-78232000D03*
D36*
X134391400Y-87275500D03*
X134391400Y-89000500D03*
D24*
X133350000Y-72995500D03*
X133350000Y-71860500D03*
D31*
X160793000Y-101224000D03*
X160793000Y-103124000D03*
X163068000Y-102174000D03*
D21*
X142024000Y-67056000D03*
X142024000Y-69056000D03*
X158500000Y-108500000D03*
X158500000Y-110500000D03*
D55*
X144675000Y-88900000D03*
X140975000Y-88900000D03*
D56*
X147567500Y-88900000D03*
X146432500Y-88900000D03*
D57*
X137931500Y-88900000D03*
X139066500Y-88900000D03*
D52*
X138684000Y-66278000D03*
X138684000Y-64278000D03*
D58*
X131445000Y-84074000D03*
X134289800Y-84074000D03*
D21*
X146850000Y-61506000D03*
X146850000Y-63506000D03*
D24*
X134620000Y-72995500D03*
X134620000Y-71860500D03*
D59*
X141708000Y-118096000D03*
X138608000Y-118096000D03*
X138608000Y-97296000D03*
X141708000Y-97296000D03*
D60*
X143002000Y-54864000D03*
D61*
X142240000Y-80264000D03*
X144272000Y-78486000D03*
D62*
X136000000Y-82000000D03*
D63*
X159004000Y-99568000D03*
D61*
X144272000Y-79502000D03*
D63*
X129540000Y-124460000D03*
D61*
X144272000Y-80264000D03*
D63*
X134620000Y-98298000D03*
D61*
X142240000Y-79502000D03*
D63*
X149352000Y-77216000D03*
X134112000Y-117094000D03*
X170180000Y-124460000D03*
D61*
X143256000Y-80264000D03*
D63*
X158242000Y-87376000D03*
X129540000Y-53086000D03*
D61*
X143256000Y-78486000D03*
D62*
X139700000Y-59055000D03*
X142000000Y-84500000D03*
D61*
X143256000Y-79502000D03*
X142240000Y-78486000D03*
D63*
X154686000Y-89662000D03*
X155194000Y-74422000D03*
D62*
X131000000Y-78000000D03*
D63*
X147574000Y-121412000D03*
X163830000Y-84582000D03*
D60*
X156464000Y-94234000D03*
D63*
X130302000Y-91948000D03*
X154940000Y-118110000D03*
X170180000Y-53340000D03*
D62*
X145000000Y-82000000D03*
X144500000Y-77000000D03*
D60*
X146000000Y-74500000D03*
D63*
X142000000Y-74025500D03*
X138500000Y-69000000D03*
X155500000Y-78000000D03*
X160500000Y-59500000D03*
D61*
X145500000Y-59500000D03*
X170000000Y-66000000D03*
X166000000Y-72000000D03*
D62*
X129500000Y-104500000D03*
X149000000Y-89000000D03*
X148500000Y-82500000D03*
D60*
X159000000Y-112500000D03*
D62*
X154000000Y-98000000D03*
D60*
X158000000Y-122500000D03*
D62*
X145677172Y-82033827D03*
D60*
X154519000Y-113500000D03*
D62*
X141500000Y-84000000D03*
X129500000Y-102000000D03*
D60*
X153000000Y-112500000D03*
X160000000Y-124000000D03*
X157500000Y-113000000D03*
D62*
X148500000Y-81000000D03*
X153000000Y-94000000D03*
D60*
X159000000Y-123500000D03*
D62*
X150658491Y-85151737D03*
X147500000Y-82500000D03*
X155500000Y-122000000D03*
X147500000Y-96774000D03*
X147500000Y-90000000D03*
X129500000Y-106500000D03*
X144000000Y-84500000D03*
X145000000Y-84500000D03*
X139000000Y-84000000D03*
X160000000Y-107000000D03*
X148000000Y-80000000D03*
X139000000Y-76000000D03*
X152500000Y-89500000D03*
X148750000Y-79750000D03*
X135000000Y-77000000D03*
X138297438Y-78500000D03*
X140000000Y-84000000D03*
X134000000Y-77500000D03*
X138500000Y-79500000D03*
X138603279Y-77896721D03*
X154000000Y-105500000D03*
X146000000Y-91440000D03*
X155500000Y-87500000D03*
X166500000Y-95000000D03*
X147500000Y-79500000D03*
X140000000Y-64000000D03*
X140000000Y-75000000D03*
X131500000Y-69000000D03*
X142000000Y-60000000D03*
X150000000Y-61000000D03*
X150611278Y-96361972D03*
X157000000Y-97000000D03*
X138000000Y-83000000D03*
X144402157Y-93980000D03*
X147500000Y-64500000D03*
X148000000Y-77000000D03*
X140715690Y-79277330D03*
X154500000Y-101500000D03*
X142000000Y-77000000D03*
X134000000Y-62500000D03*
X134000000Y-70500000D03*
X141359786Y-74877313D03*
X140676245Y-74953262D03*
X133000000Y-70500000D03*
X132500000Y-62500000D03*
X142725720Y-77249688D03*
X135500000Y-63000000D03*
X142000000Y-75000000D03*
X133000000Y-77500000D03*
X142000000Y-82000000D03*
X145500000Y-90500000D03*
X148000000Y-83500000D03*
X129500000Y-108500000D03*
X150000000Y-86500000D03*
X129500000Y-110500000D03*
X149000000Y-82000000D03*
X150000000Y-89500000D03*
D63*
X147000000Y-115000000D03*
X142500000Y-124500000D03*
D62*
X157000000Y-118000000D03*
X160500000Y-112500000D03*
X152500000Y-122500000D03*
X144248225Y-57688985D03*
X137795000Y-54610000D03*
%LPD*%
M02*
